<?xml version="1.0" encoding="utf-8" standalone="no"?>
<!DOCTYPE svg PUBLIC "-//W3C//DTD SVG 1.1//EN"
  "http://www.w3.org/Graphics/SVG/1.1/DTD/svg11.dtd">
<!-- Created with matplotlib (https://matplotlib.org/) -->
<svg height="316.911562pt" version="1.1" viewBox="0 0 275.34 316.911562" width="275.34pt" xmlns="http://www.w3.org/2000/svg" xmlns:xlink="http://www.w3.org/1999/xlink">
 <defs>
  <style type="text/css">
*{stroke-linecap:butt;stroke-linejoin:round;}
  </style>
 </defs>
 <g id="figure_1">
  <g id="patch_1">
   <path d="M 0 316.911562 
L 275.34 316.911562 
L 275.34 0 
L 0 0 
z
" style="fill:#ffffff;"/>
  </g>
  <g id="axes_1">
   <g id="patch_2">
    <path d="M 40.68 118.92 
L 263.88 118.92 
L 263.88 10.2 
L 40.68 10.2 
z
" style="fill:#efefef;"/>
   </g>
   <g id="matplotlib.axis_1">
    <g id="xtick_1">
     <g id="line2d_1">
      <defs>
       <path d="M 0 0 
L 0 3 
" id="m42e86ebe5b" style="stroke:#444147;stroke-width:0.25;"/>
      </defs>
      <g>
       <use style="fill:#444147;stroke:#444147;stroke-width:0.25;" x="40.68" xlink:href="#m42e86ebe5b" y="120.92"/>
      </g>
     </g>
     <g id="text_1">
      <!-- $\mathdefault{10^{0}}$ -->
      <defs>
       <path d="M 23.59375 0 
L 32.09375 0 
L 32.09375 65 
L 24.59375 65 
L 10.40625 57.40625 
L 12.09375 50.703125 
L 23.40625 56.796875 
L 23.59375 56.796875 
z
" id="MyriadPro-Regular-49"/>
       <path d="M 26.203125 66.09375 
C 13 66.09375 3.59375 54.09375 3.59375 32.296875 
C 3.796875 10.796875 12.40625 -1.09375 25.09375 -1.09375 
C 39.5 -1.09375 47.703125 11.09375 47.703125 33.203125 
C 47.703125 53.90625 39.90625 66.09375 26.203125 66.09375 
z
M 25.703125 59.296875 
C 34.796875 59.296875 38.90625 48.796875 38.90625 32.796875 
C 38.90625 16.203125 34.59375 5.703125 25.59375 5.703125 
C 17.59375 5.703125 12.40625 15.296875 12.40625 32.203125 
C 12.40625 49.90625 18 59.296875 25.703125 59.296875 
z
" id="MyriadPro-Regular-48"/>
      </defs>
      <g style="fill:#444147;" transform="translate(36.42 134.18)scale(0.06 -0.06)">
       <use transform="translate(0 0.85)" xlink:href="#MyriadPro-Regular-49"/>
       <use transform="translate(51.299988 0.85)" xlink:href="#MyriadPro-Regular-48"/>
       <use transform="translate(103.447085 34.734375)scale(0.7)" xlink:href="#MyriadPro-Regular-48"/>
      </g>
     </g>
    </g>
    <g id="xtick_2">
     <g id="line2d_2">
      <g>
       <use style="fill:#444147;stroke:#444147;stroke-width:0.25;" x="115.08" xlink:href="#m42e86ebe5b" y="120.92"/>
      </g>
     </g>
     <g id="text_2">
      <!-- $\mathdefault{10^{1}}$ -->
      <g style="fill:#444147;" transform="translate(110.82 134.18)scale(0.06 -0.06)">
       <use transform="translate(0 0.615625)" xlink:href="#MyriadPro-Regular-49"/>
       <use transform="translate(51.299988 0.615625)" xlink:href="#MyriadPro-Regular-48"/>
       <use transform="translate(103.447085 34.5)scale(0.7)" xlink:href="#MyriadPro-Regular-49"/>
      </g>
     </g>
    </g>
    <g id="xtick_3">
     <g id="line2d_3">
      <g>
       <use style="fill:#444147;stroke:#444147;stroke-width:0.25;" x="189.48" xlink:href="#m42e86ebe5b" y="120.92"/>
      </g>
     </g>
     <g id="text_3">
      <!-- $\mathdefault{10^{2}}$ -->
      <defs>
       <path d="M 46 0 
L 46 7.296875 
L 16.796875 7.296875 
L 16.796875 7.5 
L 22 12.296875 
C 35.703125 25.5 44.40625 35.203125 44.40625 47.203125 
C 44.40625 56.5 38.5 66.09375 24.5 66.09375 
C 17 66.09375 10.59375 63.296875 6.09375 59.5 
L 8.90625 53.296875 
C 11.90625 55.796875 16.796875 58.796875 22.703125 58.796875 
C 32.40625 58.796875 35.59375 52.703125 35.59375 46.09375 
C 35.5 36.296875 28 27.90625 11.40625 12.09375 
L 4.5 5.40625 
L 4.5 0 
z
" id="MyriadPro-Regular-50"/>
      </defs>
      <g style="fill:#444147;" transform="translate(185.22 134.18)scale(0.06 -0.06)">
       <use transform="translate(0 0.85)" xlink:href="#MyriadPro-Regular-49"/>
       <use transform="translate(51.299988 0.85)" xlink:href="#MyriadPro-Regular-48"/>
       <use transform="translate(103.447085 34.734375)scale(0.7)" xlink:href="#MyriadPro-Regular-50"/>
      </g>
     </g>
    </g>
    <g id="xtick_4">
     <g id="line2d_4">
      <g>
       <use style="fill:#444147;stroke:#444147;stroke-width:0.25;" x="263.88" xlink:href="#m42e86ebe5b" y="120.92"/>
      </g>
     </g>
     <g id="text_4">
      <!-- $\mathdefault{10^{3}}$ -->
      <defs>
       <path d="M 4.203125 3.296875 
C 7.40625 1.203125 13.796875 -1.09375 21.09375 -1.09375 
C 36.703125 -1.09375 44.796875 8 44.796875 18.40625 
C 44.796875 27.5 38.296875 33.5 30.296875 35.09375 
L 30.296875 35.296875 
C 38.296875 38.203125 42.296875 43.90625 42.296875 50.59375 
C 42.296875 58.5 36.5 66.09375 23.703125 66.09375 
C 16.703125 66.09375 10.09375 63.59375 6.703125 61.09375 
L 9 54.703125 
C 11.796875 56.703125 16.796875 59 22 59 
C 30.09375 59 33.40625 54.40625 33.40625 49.203125 
C 33.40625 41.5 25.296875 38.203125 18.90625 38.203125 
L 14 38.203125 
L 14 31.59375 
L 18.90625 31.59375 
C 27.40625 31.59375 35.59375 27.703125 35.703125 18.59375 
C 35.796875 13.203125 32.296875 6 21 6 
C 14.90625 6 9.09375 8.5 6.59375 10.09375 
z
" id="MyriadPro-Regular-51"/>
      </defs>
      <g style="fill:#444147;" transform="translate(259.62 134.18)scale(0.06 -0.06)">
       <use transform="translate(0 0.85)" xlink:href="#MyriadPro-Regular-49"/>
       <use transform="translate(51.299988 0.85)" xlink:href="#MyriadPro-Regular-48"/>
       <use transform="translate(103.447085 34.734375)scale(0.7)" xlink:href="#MyriadPro-Regular-51"/>
      </g>
     </g>
    </g>
    <g id="xtick_5">
     <g id="line2d_5"/>
    </g>
    <g id="xtick_6">
     <g id="line2d_6"/>
    </g>
    <g id="xtick_7">
     <g id="line2d_7"/>
    </g>
    <g id="xtick_8">
     <g id="line2d_8"/>
    </g>
    <g id="xtick_9">
     <g id="line2d_9"/>
    </g>
    <g id="xtick_10">
     <g id="line2d_10"/>
    </g>
    <g id="xtick_11">
     <g id="line2d_11"/>
    </g>
    <g id="xtick_12">
     <g id="line2d_12"/>
    </g>
    <g id="xtick_13">
     <g id="line2d_13"/>
    </g>
    <g id="xtick_14">
     <g id="line2d_14"/>
    </g>
    <g id="xtick_15">
     <g id="line2d_15"/>
    </g>
    <g id="xtick_16">
     <g id="line2d_16"/>
    </g>
    <g id="xtick_17">
     <g id="line2d_17"/>
    </g>
    <g id="xtick_18">
     <g id="line2d_18"/>
    </g>
    <g id="xtick_19">
     <g id="line2d_19"/>
    </g>
    <g id="xtick_20">
     <g id="line2d_20"/>
    </g>
    <g id="xtick_21">
     <g id="line2d_21"/>
    </g>
    <g id="xtick_22">
     <g id="line2d_22"/>
    </g>
    <g id="xtick_23">
     <g id="line2d_23"/>
    </g>
    <g id="xtick_24">
     <g id="line2d_24"/>
    </g>
    <g id="xtick_25">
     <g id="line2d_25"/>
    </g>
    <g id="xtick_26">
     <g id="line2d_26"/>
    </g>
    <g id="xtick_27">
     <g id="line2d_27"/>
    </g>
    <g id="xtick_28">
     <g id="line2d_28"/>
    </g>
    <g id="text_5">
     <!-- total repressors per cell -->
     <defs>
      <path d="M 9.296875 57.296875 
L 9.296875 48.40625 
L 1.796875 48.40625 
L 1.796875 41.703125 
L 9.296875 41.703125 
L 9.296875 15.296875 
C 9.296875 9.59375 10.203125 5.296875 12.703125 2.703125 
C 14.796875 0.296875 18.09375 -1.09375 22.203125 -1.09375 
C 25.59375 -1.09375 28.296875 -0.5 30 0.203125 
L 29.59375 6.796875 
C 28.296875 6.40625 26.90625 6.203125 24.5 6.203125 
C 19.59375 6.203125 17.90625 9.59375 17.90625 15.59375 
L 17.90625 41.703125 
L 30.5 41.703125 
L 30.5 48.40625 
L 17.90625 48.40625 
L 17.90625 60 
z
" id="MyriadPro-Regular-116"/>
      <path d="M 27.796875 49.5 
C 14.40625 49.5 3.796875 40 3.796875 23.796875 
C 3.796875 8.5 13.90625 -1.09375 27 -1.09375 
C 38.703125 -1.09375 51.09375 6.703125 51.09375 24.59375 
C 51.09375 39.40625 41.703125 49.5 27.796875 49.5 
z
M 27.59375 42.90625 
C 38 42.90625 42.09375 32.5 42.09375 24.296875 
C 42.09375 13.40625 35.796875 5.5 27.40625 5.5 
C 18.796875 5.5 12.703125 13.5 12.703125 24.09375 
C 12.703125 33.296875 17.203125 42.90625 27.59375 42.90625 
z
" id="MyriadPro-Regular-111"/>
      <path d="M 41.296875 29.703125 
C 41.296875 39.40625 37.703125 49.5 22.90625 49.5 
C 16.796875 49.5 11 47.796875 7 45.203125 
L 9 39.40625 
C 12.40625 41.59375 17.09375 43 21.59375 43 
C 31.5 43 32.59375 35.796875 32.59375 31.796875 
L 32.59375 30.796875 
C 13.90625 30.90625 3.5 24.5 3.5 12.796875 
C 3.5 5.796875 8.5 -1.09375 18.296875 -1.09375 
C 25.203125 -1.09375 30.40625 2.296875 33.09375 6.09375 
L 33.40625 6.09375 
L 34.09375 0 
L 42.09375 0 
C 41.5 3.296875 41.296875 7.40625 41.296875 11.59375 
z
M 32.796875 16.296875 
C 32.796875 15.40625 32.59375 14.40625 32.296875 13.5 
C 30.90625 9.40625 26.90625 5.40625 20.59375 5.40625 
C 16.09375 5.40625 12.296875 8.09375 12.296875 13.796875 
C 12.296875 23.203125 23.203125 24.90625 32.796875 24.703125 
z
" id="MyriadPro-Regular-97"/>
      <path d="M 7.296875 0 
L 16.09375 0 
L 16.09375 71 
L 7.296875 71 
z
" id="MyriadPro-Regular-108"/>
      <path id="MyriadPro-Regular-32"/>
      <path d="M 7.296875 0 
L 16 0 
L 16 25.796875 
C 16 27.296875 16.203125 28.703125 16.40625 29.90625 
C 17.59375 36.5 22 41.203125 28.203125 41.203125 
C 29.40625 41.203125 30.296875 41.09375 31.203125 40.90625 
L 31.203125 49.203125 
C 30.40625 49.40625 29.703125 49.5 28.703125 49.5 
C 22.796875 49.5 17.5 45.40625 15.296875 38.90625 
L 14.90625 38.90625 
L 14.59375 48.40625 
L 6.90625 48.40625 
C 7.203125 43.90625 7.296875 39 7.296875 33.296875 
z
" id="MyriadPro-Regular-114"/>
      <path d="M 46.203125 22.59375 
C 46.296875 23.5 46.5 24.90625 46.5 26.703125 
C 46.5 35.59375 42.296875 49.5 26.5 49.5 
C 12.40625 49.5 3.796875 38 3.796875 23.40625 
C 3.796875 8.796875 12.703125 -1.09375 27.59375 -1.09375 
C 35.296875 -1.09375 40.59375 0.59375 43.703125 2 
L 42.203125 8.296875 
C 38.90625 6.90625 35.09375 5.796875 28.796875 5.796875 
C 20 5.796875 12.40625 10.703125 12.203125 22.59375 
z
M 12.296875 28.90625 
C 13 35 16.90625 43.203125 25.796875 43.203125 
C 35.703125 43.203125 38.09375 34.5 38 28.90625 
z
" id="MyriadPro-Regular-101"/>
      <path d="M 7.296875 -19.796875 
L 16 -19.796875 
L 16 6.5 
L 16.203125 6.5 
C 19.09375 1.703125 24.703125 -1.09375 31.09375 -1.09375 
C 42.5 -1.09375 53.09375 7.5 53.09375 24.90625 
C 53.09375 39.59375 44.296875 49.5 32.59375 49.5 
C 24.703125 49.5 19 46 15.40625 40.09375 
L 15.203125 40.09375 
L 14.796875 48.40625 
L 6.90625 48.40625 
C 7.09375 43.796875 7.296875 38.796875 7.296875 32.59375 
z
M 16 28 
C 16 29.203125 16.296875 30.5 16.59375 31.59375 
C 18.296875 38.203125 23.90625 42.5 29.90625 42.5 
C 39.203125 42.5 44.296875 34.203125 44.296875 24.5 
C 44.296875 13.40625 38.90625 5.796875 29.59375 5.796875 
C 23.296875 5.796875 18 10 16.40625 16.09375 
C 16.203125 17.203125 16 18.40625 16 19.703125 
z
" id="MyriadPro-Regular-112"/>
      <path d="M 3.90625 2.296875 
C 7.296875 0.296875 12.203125 -1.09375 17.5 -1.09375 
C 29 -1.09375 35.59375 5 35.59375 13.5 
C 35.59375 20.703125 31.296875 24.90625 22.90625 28.09375 
C 16.59375 30.5 13.703125 32.296875 13.703125 36.296875 
C 13.703125 39.90625 16.59375 42.90625 21.796875 42.90625 
C 26.296875 42.90625 29.796875 41.296875 31.703125 40.09375 
L 33.90625 46.5 
C 31.203125 48.09375 26.90625 49.5 22 49.5 
C 11.59375 49.5 5.296875 43.09375 5.296875 35.296875 
C 5.296875 29.5 9.40625 24.703125 18.09375 21.59375 
C 24.59375 19.203125 27.09375 16.90625 27.09375 12.703125 
C 27.09375 8.703125 24.09375 5.5 17.703125 5.5 
C 13.296875 5.5 8.703125 7.296875 6.09375 9 
z
" id="MyriadPro-Regular-115"/>
      <path d="M 40.296875 8.40625 
C 37.796875 7.296875 34.5 6 29.5 6 
C 19.90625 6 12.703125 12.90625 12.703125 24.09375 
C 12.703125 34.203125 18.703125 42.40625 29.796875 42.40625 
C 34.59375 42.40625 37.90625 41.296875 40 40.09375 
L 42 46.90625 
C 39.59375 48.09375 35 49.40625 29.796875 49.40625 
C 14 49.40625 3.796875 38.59375 3.796875 23.703125 
C 3.796875 8.90625 13.296875 -1.09375 27.90625 -1.09375 
C 34.40625 -1.09375 39.5 0.59375 41.796875 1.796875 
z
" id="MyriadPro-Regular-99"/>
     </defs>
     <g style="fill:#444147;" transform="translate(113.593125 145.047812)scale(0.08 -0.08)">
      <use xlink:href="#MyriadPro-Regular-116"/>
      <use x="33.099991" xlink:href="#MyriadPro-Regular-111"/>
      <use x="87.999985" xlink:href="#MyriadPro-Regular-116"/>
      <use x="121.099976" xlink:href="#MyriadPro-Regular-97"/>
      <use x="169.299973" xlink:href="#MyriadPro-Regular-108"/>
      <use x="192.899963" xlink:href="#MyriadPro-Regular-32"/>
      <use x="214.09996" xlink:href="#MyriadPro-Regular-114"/>
      <use x="246.799957" xlink:href="#MyriadPro-Regular-101"/>
      <use x="296.899948" xlink:href="#MyriadPro-Regular-112"/>
      <use x="353.799942" xlink:href="#MyriadPro-Regular-114"/>
      <use x="386.499939" xlink:href="#MyriadPro-Regular-101"/>
      <use x="436.59993" xlink:href="#MyriadPro-Regular-115"/>
      <use x="476.199921" xlink:href="#MyriadPro-Regular-115"/>
      <use x="515.799911" xlink:href="#MyriadPro-Regular-111"/>
      <use x="570.699905" xlink:href="#MyriadPro-Regular-114"/>
      <use x="603.399902" xlink:href="#MyriadPro-Regular-115"/>
      <use x="642.999893" xlink:href="#MyriadPro-Regular-32"/>
      <use x="664.19989" xlink:href="#MyriadPro-Regular-112"/>
      <use x="721.099884" xlink:href="#MyriadPro-Regular-101"/>
      <use x="771.199875" xlink:href="#MyriadPro-Regular-114"/>
      <use x="803.899872" xlink:href="#MyriadPro-Regular-32"/>
      <use x="825.099869" xlink:href="#MyriadPro-Regular-99"/>
      <use x="869.899857" xlink:href="#MyriadPro-Regular-101"/>
      <use x="919.999847" xlink:href="#MyriadPro-Regular-108"/>
      <use x="943.599838" xlink:href="#MyriadPro-Regular-108"/>
     </g>
    </g>
   </g>
   <g id="matplotlib.axis_2">
    <g id="ytick_1">
     <g id="line2d_29">
      <defs>
       <path d="M 0 0 
L -3 0 
" id="mca212d6f3c" style="stroke:#444147;stroke-width:0.25;"/>
      </defs>
      <g>
       <use style="fill:#444147;stroke:#444147;stroke-width:0.25;" x="38.68" xlink:href="#mca212d6f3c" y="106.990232"/>
      </g>
     </g>
     <g id="text_6">
      <!-- $\mathdefault{10^{-3}}$ -->
      <defs>
       <path d="M 4 29.703125 
L 4 23.703125 
L 55.59375 23.703125 
L 55.59375 29.703125 
z
" id="MyriadPro-Regular-8722"/>
      </defs>
      <g style="fill:#444147;" transform="translate(18.64 109.120232)scale(0.06 -0.06)">
       <use transform="translate(0 0.85)" xlink:href="#MyriadPro-Regular-49"/>
       <use transform="translate(51.299988 0.85)" xlink:href="#MyriadPro-Regular-48"/>
       <use transform="translate(103.447085 34.734375)scale(0.7)" xlink:href="#MyriadPro-Regular-8722"/>
       <use transform="translate(145.167079 34.734375)scale(0.7)" xlink:href="#MyriadPro-Regular-51"/>
      </g>
     </g>
    </g>
    <g id="ytick_2">
     <g id="line2d_30">
      <g>
       <use style="fill:#444147;stroke:#444147;stroke-width:0.25;" x="38.68" xlink:href="#mca212d6f3c" y="75.731012"/>
      </g>
     </g>
     <g id="text_7">
      <!-- $\mathdefault{10^{-2}}$ -->
      <g style="fill:#444147;" transform="translate(18.64 77.861012)scale(0.06 -0.06)">
       <use transform="translate(0 0.85)" xlink:href="#MyriadPro-Regular-49"/>
       <use transform="translate(51.299988 0.85)" xlink:href="#MyriadPro-Regular-48"/>
       <use transform="translate(103.447085 34.734375)scale(0.7)" xlink:href="#MyriadPro-Regular-8722"/>
       <use transform="translate(145.167079 34.734375)scale(0.7)" xlink:href="#MyriadPro-Regular-50"/>
      </g>
     </g>
    </g>
    <g id="ytick_3">
     <g id="line2d_31">
      <g>
       <use style="fill:#444147;stroke:#444147;stroke-width:0.25;" x="38.68" xlink:href="#mca212d6f3c" y="44.471792"/>
      </g>
     </g>
     <g id="text_8">
      <!-- $\mathdefault{10^{-1}}$ -->
      <g style="fill:#444147;" transform="translate(18.64 46.601792)scale(0.06 -0.06)">
       <use transform="translate(0 0.615625)" xlink:href="#MyriadPro-Regular-49"/>
       <use transform="translate(51.299988 0.615625)" xlink:href="#MyriadPro-Regular-48"/>
       <use transform="translate(103.447085 34.5)scale(0.7)" xlink:href="#MyriadPro-Regular-8722"/>
       <use transform="translate(145.167079 34.5)scale(0.7)" xlink:href="#MyriadPro-Regular-49"/>
      </g>
     </g>
    </g>
    <g id="ytick_4">
     <g id="line2d_32">
      <g>
       <use style="fill:#444147;stroke:#444147;stroke-width:0.25;" x="38.68" xlink:href="#mca212d6f3c" y="13.212572"/>
      </g>
     </g>
     <g id="text_9">
      <!-- $\mathdefault{10^{0}}$ -->
      <g style="fill:#444147;" transform="translate(21.16 15.342572)scale(0.06 -0.06)">
       <use transform="translate(0 0.85)" xlink:href="#MyriadPro-Regular-49"/>
       <use transform="translate(51.299988 0.85)" xlink:href="#MyriadPro-Regular-48"/>
       <use transform="translate(103.447085 34.734375)scale(0.7)" xlink:href="#MyriadPro-Regular-48"/>
      </g>
     </g>
    </g>
    <g id="ytick_5">
     <g id="line2d_33"/>
    </g>
    <g id="ytick_6">
     <g id="line2d_34"/>
    </g>
    <g id="ytick_7">
     <g id="line2d_35"/>
    </g>
    <g id="ytick_8">
     <g id="line2d_36"/>
    </g>
    <g id="ytick_9">
     <g id="line2d_37"/>
    </g>
    <g id="ytick_10">
     <g id="line2d_38"/>
    </g>
    <g id="ytick_11">
     <g id="line2d_39"/>
    </g>
    <g id="ytick_12">
     <g id="line2d_40"/>
    </g>
    <g id="ytick_13">
     <g id="line2d_41"/>
    </g>
    <g id="ytick_14">
     <g id="line2d_42"/>
    </g>
    <g id="ytick_15">
     <g id="line2d_43"/>
    </g>
    <g id="ytick_16">
     <g id="line2d_44"/>
    </g>
    <g id="ytick_17">
     <g id="line2d_45"/>
    </g>
    <g id="ytick_18">
     <g id="line2d_46"/>
    </g>
    <g id="ytick_19">
     <g id="line2d_47"/>
    </g>
    <g id="ytick_20">
     <g id="line2d_48"/>
    </g>
    <g id="ytick_21">
     <g id="line2d_49"/>
    </g>
    <g id="ytick_22">
     <g id="line2d_50"/>
    </g>
    <g id="ytick_23">
     <g id="line2d_51"/>
    </g>
    <g id="ytick_24">
     <g id="line2d_52"/>
    </g>
    <g id="ytick_25">
     <g id="line2d_53"/>
    </g>
    <g id="ytick_26">
     <g id="line2d_54"/>
    </g>
    <g id="ytick_27">
     <g id="line2d_55"/>
    </g>
    <g id="ytick_28">
     <g id="line2d_56"/>
    </g>
    <g id="ytick_29">
     <g id="line2d_57"/>
    </g>
    <g id="ytick_30">
     <g id="line2d_58"/>
    </g>
    <g id="ytick_31">
     <g id="line2d_59"/>
    </g>
    <g id="ytick_32">
     <g id="line2d_60"/>
    </g>
    <g id="ytick_33">
     <g id="line2d_61"/>
    </g>
    <g id="text_10">
     <!-- fold-change -->
     <defs>
      <path d="M 16.90625 0 
L 16.90625 41.703125 
L 28.59375 41.703125 
L 28.59375 48.40625 
L 16.90625 48.40625 
L 16.90625 51 
C 16.90625 58.40625 18.796875 65 26.296875 65 
C 28.796875 65 30.59375 64.5 31.90625 63.90625 
L 33.09375 70.703125 
C 31.40625 71.40625 28.703125 72.09375 25.59375 72.09375 
C 21.5 72.09375 17.09375 70.796875 13.796875 67.59375 
C 9.703125 63.703125 8.203125 57.5 8.203125 50.703125 
L 8.203125 48.40625 
L 1.40625 48.40625 
L 1.40625 41.703125 
L 8.203125 41.703125 
L 8.203125 0 
z
" id="MyriadPro-Regular-102"/>
      <path d="M 40.296875 71 
L 40.296875 42.09375 
L 40.09375 42.09375 
C 37.90625 46 32.90625 49.5 25.5 49.5 
C 13.703125 49.5 3.703125 39.59375 3.796875 23.5 
C 3.796875 8.796875 12.796875 -1.09375 24.5 -1.09375 
C 32.40625 -1.09375 38.296875 3 41 8.40625 
L 41.203125 8.40625 
L 41.59375 0 
L 49.5 0 
C 49.203125 3.296875 49.09375 8.203125 49.09375 12.5 
L 49.09375 71 
z
M 40.296875 20.296875 
C 40.296875 18.90625 40.203125 17.703125 39.90625 16.5 
C 38.296875 9.90625 32.90625 6 27 6 
C 17.5 6 12.703125 14.09375 12.703125 23.90625 
C 12.703125 34.59375 18.09375 42.59375 27.203125 42.59375 
C 33.796875 42.59375 38.59375 38 39.90625 32.40625 
C 40.203125 31.296875 40.296875 29.796875 40.296875 28.703125 
z
" id="MyriadPro-Regular-100"/>
      <path d="M 3 30.296875 
L 3 23.796875 
L 27.703125 23.796875 
L 27.703125 30.296875 
z
" id="MyriadPro-Regular-45"/>
      <path d="M 7.296875 0 
L 16.09375 0 
L 16.09375 29.203125 
C 16.09375 30.90625 16.203125 32.203125 16.703125 33.40625 
C 18.296875 38.203125 22.796875 42.203125 28.5 42.203125 
C 36.796875 42.203125 39.703125 35.59375 39.703125 27.796875 
L 39.703125 0 
L 48.5 0 
L 48.5 28.796875 
C 48.5 45.5 38.09375 49.5 31.59375 49.5 
C 28.296875 49.5 25.203125 48.5 22.59375 47 
C 19.90625 45.5 17.703125 43.296875 16.296875 40.796875 
L 16.09375 40.796875 
L 16.09375 71 
L 7.296875 71 
z
" id="MyriadPro-Regular-104"/>
      <path d="M 7.296875 0 
L 16.09375 0 
L 16.09375 29.09375 
C 16.09375 30.59375 16.296875 32.09375 16.703125 33.203125 
C 18.203125 38.09375 22.703125 42.203125 28.5 42.203125 
C 36.796875 42.203125 39.703125 35.703125 39.703125 27.90625 
L 39.703125 0 
L 48.5 0 
L 48.5 28.90625 
C 48.5 45.5 38.09375 49.5 31.40625 49.5 
C 23.40625 49.5 17.796875 45 15.40625 40.40625 
L 15.203125 40.40625 
L 14.703125 48.40625 
L 6.90625 48.40625 
C 7.203125 44.40625 7.296875 40.296875 7.296875 35.296875 
z
" id="MyriadPro-Regular-110"/>
      <path d="M 48.59375 35.09375 
C 48.59375 41 48.796875 44.90625 49 48.40625 
L 41.296875 48.40625 
L 40.90625 41.09375 
L 40.703125 41.09375 
C 38.59375 45.09375 34 49.5 25.59375 49.5 
C 14.5 49.5 3.796875 40.203125 3.796875 23.796875 
C 3.796875 10.40625 12.40625 0.203125 24.40625 0.203125 
C 31.90625 0.203125 37.09375 3.796875 39.796875 8.296875 
L 40 8.296875 
L 40 2.90625 
C 40 -9.296875 33.40625 -14 24.40625 -14 
C 18.40625 -14 13.40625 -12.203125 10.203125 -10.203125 
L 8 -16.90625 
C 11.90625 -19.5 18.296875 -20.90625 24.09375 -20.90625 
C 30.203125 -20.90625 37 -19.5 41.703125 -15.09375 
C 46.40625 -10.90625 48.59375 -4.09375 48.59375 7 
z
M 39.90625 20.59375 
C 39.90625 19.09375 39.703125 17.40625 39.203125 15.90625 
C 37.296875 10.296875 32.40625 6.90625 27 6.90625 
C 17.5 6.90625 12.703125 14.796875 12.703125 24.296875 
C 12.703125 35.5 18.703125 42.59375 27.09375 42.59375 
C 33.5 42.59375 37.796875 38.40625 39.40625 33.296875 
C 39.796875 32.09375 39.90625 30.796875 39.90625 29.296875 
z
" id="MyriadPro-Regular-103"/>
     </defs>
     <g style="fill:#444147;" transform="translate(12.9675 84.7525)rotate(-90)scale(0.08 -0.08)">
      <use xlink:href="#MyriadPro-Regular-102"/>
      <use x="29.199997" xlink:href="#MyriadPro-Regular-111"/>
      <use x="84.099991" xlink:href="#MyriadPro-Regular-108"/>
      <use x="107.699982" xlink:href="#MyriadPro-Regular-100"/>
      <use x="164.099976" xlink:href="#MyriadPro-Regular-45"/>
      <use x="194.799973" xlink:href="#MyriadPro-Regular-99"/>
      <use x="239.59996" xlink:href="#MyriadPro-Regular-104"/>
      <use x="295.099945" xlink:href="#MyriadPro-Regular-97"/>
      <use x="343.299942" xlink:href="#MyriadPro-Regular-110"/>
      <use x="398.799927" xlink:href="#MyriadPro-Regular-103"/>
      <use x="454.699921" xlink:href="#MyriadPro-Regular-101"/>
     </g>
    </g>
   </g>
   <g id="line2d_62">
    <path clip-path="url(#p74282e6aac)" d="M 40.68 27.753462 
L 49.652864 30.34593 
L 59.747337 33.514751 
L 69.841809 36.913907 
L 81.057889 40.913194 
L 94.517186 45.953306 
L 110.219698 52.073945 
L 130.408643 60.191162 
L 158.448844 71.722583 
L 204.434774 90.904455 
L 263.88 115.843019 
L 263.88 115.843019 
" style="fill:none;stroke:#9c372f;stroke-linecap:square;"/>
   </g>
   <g id="line2d_63">
    <path clip-path="url(#p74282e6aac)" d="M 40.68 16.346319 
L 50.774472 17.335585 
L 59.747337 18.428545 
L 68.720201 19.748497 
L 77.693065 21.314967 
L 85.544322 22.897301 
L 93.395578 24.679449 
L 102.368442 26.955679 
L 111.341307 29.473491 
L 120.314171 32.211555 
L 130.408643 35.522902 
L 141.624724 39.442955 
L 153.962412 43.987773 
L 168.543317 49.593157 
L 187.610653 57.182884 
L 212.28603 67.262991 
L 250.420704 83.108667 
L 263.88 88.736715 
L 263.88 88.736715 
" style="fill:none;stroke:#f38227;stroke-linecap:square;"/>
   </g>
   <g id="line2d_64">
    <path clip-path="url(#p74282e6aac)" d="M 40.68 13.681432 
L 60.868945 14.075636 
L 76.571457 14.589061 
L 90.030754 15.249136 
L 101.246834 16.012106 
L 111.341307 16.909479 
L 120.314171 17.907755 
L 129.287035 19.122296 
L 138.259899 20.575357 
L 146.111156 22.054859 
L 153.962412 23.733894 
L 162.935276 25.895745 
L 171.908141 28.306621 
L 180.881005 30.948114 
L 190.975477 34.165264 
L 202.191558 37.999223 
L 214.529246 42.470442 
L 229.110151 48.012898 
L 247.055879 55.099624 
L 263.88 61.914055 
L 263.88 61.914055 
" style="fill:none;stroke:#e39943;stroke-linecap:square;"/>
   </g>
   <g id="line2d_65">
    <path clip-path="url(#p74282e6aac)" d="M 40.68 13.276981 
L 86.66593 13.477919 
L 112.462915 13.795273 
L 131.530251 14.246379 
L 146.111156 14.802512 
L 158.448844 15.482806 
L 169.664925 16.323778 
L 179.759397 17.306936 
L 188.732261 18.393643 
L 197.705126 19.706682 
L 206.67799 21.26577 
L 214.529246 22.841459 
L 222.380503 24.616992 
L 231.353367 26.885939 
L 240.326231 29.396994 
L 249.299095 32.128998 
L 259.393568 35.434474 
L 263.88 36.972595 
L 263.88 36.972595 
" style="fill:none;stroke:#eeba7f;stroke-linecap:square;"/>
   </g>
   <g id="patch_3">
    <path d="M 38.68 118.92 
L 38.68 10.2 
" style="fill:none;stroke:#444147;stroke-linecap:square;stroke-linejoin:miter;stroke-width:0.25;"/>
   </g>
   <g id="patch_4">
    <path d="M 40.68 120.92 
L 263.88 120.92 
" style="fill:none;stroke:#444147;stroke-linecap:square;stroke-linejoin:miter;stroke-width:0.25;"/>
   </g>
   <g id="legend_1">
    <g id="patch_5">
     <path d="M 44.88 115.92 
L 75.48 115.92 
Q 76.68 115.92 76.68 114.72 
L 76.68 72.94875 
Q 76.68 71.74875 75.48 71.74875 
L 44.88 71.74875 
Q 43.68 71.74875 43.68 72.94875 
L 43.68 114.72 
Q 43.68 115.92 44.88 115.92 
z
" style="fill:#efefef;opacity:0.8;stroke:#444147;stroke-linejoin:miter;stroke-width:0.25;"/>
    </g>
    <g id="text_11">
     <!-- $\Delta\varepsilon_{RA}$ [$k_BT$] -->
     <defs>
      <path d="M 34.1875 63.1875 
L 14.15625 8.203125 
L 54.25 8.203125 
z
M 0.78125 0 
L 28.609375 72.90625 
L 39.796875 72.90625 
L 67.578125 0 
z
" id="DejaVuSans-916"/>
      <path d="M 19.734375 29.5 
Q 14.453125 30.671875 12.15625 33.84375 
Q 10.453125 36.078125 10.453125 39.109375 
Q 10.453125 47.40625 18.359375 52.25 
Q 24.609375 56.0625 34.1875 56.0625 
Q 37.890625 56.0625 41.9375 55.46875 
Q 46 54.890625 50.53125 53.71875 
L 48.96875 45.5625 
Q 44.484375 46.96875 40.71875 47.609375 
Q 36.859375 48.25 33.40625 48.25 
Q 27.59375 48.25 23.78125 46 
Q 19.1875 43.3125 19.1875 39.40625 
Q 19.1875 36.8125 21.578125 35.015625 
Q 24.421875 32.859375 30.078125 32.859375 
L 37.640625 32.859375 
L 36.234375 25.4375 
L 29 25.4375 
Q 22.265625 25.4375 18.3125 22.953125 
Q 12.9375 19.578125 12.9375 14.3125 
Q 12.9375 10.984375 15.828125 8.796875 
Q 19.4375 6.0625 26.8125 6.0625 
Q 31.34375 6.0625 35.6875 6.9375 
Q 40.046875 7.859375 43.84375 9.671875 
L 42.1875 1.3125 
Q 37.546875 -0.046875 33.296875 -0.734375 
Q 29.046875 -1.421875 25.140625 -1.421875 
Q 13.53125 -1.421875 8.0625 3.03125 
Q 3.90625 6.453125 3.90625 12.203125 
Q 3.90625 19.96875 9.375 24.75 
Q 13.421875 28.328125 19.734375 29.5 
z
" id="DejaVuSans-Oblique-949"/>
      <path d="M 25.203125 64.796875 
L 20.21875 38.921875 
L 32.90625 38.921875 
Q 40.375 38.921875 44.984375 43.046875 
Q 49.609375 47.171875 49.609375 53.8125 
Q 49.609375 59.125 46.5 61.953125 
Q 43.40625 64.796875 37.59375 64.796875 
z
M 43.3125 35.015625 
Q 46.4375 34.28125 48.515625 31.390625 
Q 50.59375 28.515625 53.328125 19.921875 
L 59.515625 0 
L 49.125 0 
L 43.40625 18.703125 
Q 41.21875 25.921875 38.328125 28.359375 
Q 35.453125 30.8125 29.5 30.8125 
L 18.609375 30.8125 
L 12.59375 0 
L 2.6875 0 
L 16.890625 72.90625 
L 39.109375 72.90625 
Q 49.21875 72.90625 54.609375 68.328125 
Q 60.015625 63.765625 60.015625 55.171875 
Q 60.015625 47.5625 55.421875 41.984375 
Q 50.828125 36.421875 43.3125 35.015625 
z
" id="DejaVuSans-Oblique-82"/>
      <path d="M 36.8125 72.90625 
L 48 72.90625 
L 61.53125 0 
L 51.21875 0 
L 48.1875 18.703125 
L 15.375 18.703125 
L 5.078125 0 
L -5.328125 0 
z
M 40.375 63.1875 
L 19.921875 26.90625 
L 46.6875 26.90625 
z
" id="DejaVuSans-Oblique-65"/>
      <path d="M 26.5 -11.203125 
L 26.5 -5.703125 
L 15 -5.703125 
L 15 63.09375 
L 26.5 63.09375 
L 26.5 68.59375 
L 8.203125 68.59375 
L 8.203125 -11.203125 
z
" id="MyriadPro-Regular-91"/>
      <path d="M 18.3125 75.984375 
L 27.296875 75.984375 
L 18.703125 31.6875 
L 49.515625 54.6875 
L 61.1875 54.6875 
L 26.8125 28.515625 
L 51.90625 0 
L 41.015625 0 
L 17.671875 26.703125 
L 12.5 0 
L 3.515625 0 
z
" id="DejaVuSans-Oblique-107"/>
      <path d="M 16.890625 72.90625 
L 42.09375 72.90625 
Q 52.34375 72.90625 57.421875 69.09375 
Q 62.5 65.28125 62.5 57.625 
Q 62.5 50.59375 58.125 45.484375 
Q 53.765625 40.375 46.6875 39.3125 
Q 52.734375 37.9375 55.765625 34.078125 
Q 58.796875 30.21875 58.796875 23.78125 
Q 58.796875 12.796875 50.65625 6.390625 
Q 42.53125 0 28.421875 0 
L 2.6875 0 
z
M 19.28125 34.8125 
L 14.109375 8.109375 
L 29.984375 8.109375 
Q 38.921875 8.109375 43.75 12.203125 
Q 48.578125 16.3125 48.578125 23.78125 
Q 48.578125 29.546875 45.375 32.171875 
Q 42.1875 34.8125 35.109375 34.8125 
z
M 25.09375 64.796875 
L 20.796875 42.828125 
L 35.5 42.828125 
Q 43.359375 42.828125 47.78125 46.234375 
Q 52.203125 49.65625 52.203125 55.71875 
Q 52.203125 60.453125 49.21875 62.625 
Q 46.234375 64.796875 39.703125 64.796875 
z
" id="DejaVuSans-Oblique-66"/>
      <path d="M 5.90625 72.90625 
L 67.578125 72.90625 
L 66.015625 64.59375 
L 39.984375 64.59375 
L 27.484375 0 
L 17.578125 0 
L 30.078125 64.59375 
L 4.296875 64.59375 
z
" id="DejaVuSans-Oblique-84"/>
      <path d="M 1.90625 68.59375 
L 1.90625 63.09375 
L 13.40625 63.09375 
L 13.40625 -5.703125 
L 1.90625 -5.703125 
L 1.90625 -11.203125 
L 20.203125 -11.203125 
L 20.203125 68.59375 
z
" id="MyriadPro-Regular-93"/>
     </defs>
     <g style="fill:#444147;" transform="translate(46.08 78.540937)scale(0.06 -0.06)">
      <use transform="translate(0 0.015625)" xlink:href="#DejaVuSans-916"/>
      <use transform="translate(68.408203 0.015625)" xlink:href="#DejaVuSans-Oblique-949"/>
      <use transform="translate(122.460938 -16.390625)scale(0.7)" xlink:href="#DejaVuSans-Oblique-82"/>
      <use transform="translate(171.098633 -16.390625)scale(0.7)" xlink:href="#DejaVuSans-Oblique-65"/>
      <use transform="translate(221.71875 0.015625)" xlink:href="#MyriadPro-Regular-32"/>
      <use transform="translate(242.918747 0.015625)" xlink:href="#MyriadPro-Regular-91"/>
      <use transform="translate(271.318741 0.015625)" xlink:href="#DejaVuSans-Oblique-107"/>
      <use transform="translate(329.228897 -16.390625)scale(0.7)" xlink:href="#DejaVuSans-Oblique-66"/>
      <use transform="translate(379.985733 0.015625)" xlink:href="#DejaVuSans-Oblique-84"/>
      <use transform="translate(441.069717 0.015625)" xlink:href="#MyriadPro-Regular-93"/>
     </g>
    </g>
    <g id="line2d_66">
     <path d="M 47.781094 84.88875 
L 59.781094 84.88875 
" style="fill:none;stroke:#9c372f;stroke-linecap:square;"/>
    </g>
    <g id="line2d_67"/>
    <g id="text_12">
     <!-- -16 -->
     <defs>
      <path d="M 41.59375 66 
C 40 66 37.796875 65.90625 35.203125 65.5 
C 27 64.5 19.796875 61.203125 14.40625 55.90625 
C 8 49.5 3.40625 39.40625 3.40625 26.59375 
C 3.40625 9.703125 12.5 -1.09375 26.40625 -1.09375 
C 39.90625 -1.09375 48 9.90625 48 21.796875 
C 48 34.5 39.90625 42.796875 28.40625 42.796875 
C 21.203125 42.796875 15.796875 39.40625 12.703125 35.296875 
L 12.40625 35.296875 
C 13.90625 46 21.203125 56.09375 35 58.40625 
C 37.5 58.796875 39.796875 58.90625 41.59375 58.796875 
z
M 26.40625 5.703125 
C 17.203125 5.703125 12.296875 13.59375 12.09375 24.296875 
C 12.09375 25.90625 12.5 27.203125 13.09375 28.203125 
C 15.5 32.90625 20.40625 36.203125 25.703125 36.203125 
C 33.796875 36.203125 39.09375 30.59375 39.09375 21.296875 
C 39.09375 12 34 5.703125 26.5 5.703125 
z
" id="MyriadPro-Regular-54"/>
     </defs>
     <g style="fill:#444147;" transform="translate(64.581094 86.98875)scale(0.06 -0.06)">
      <use xlink:href="#MyriadPro-Regular-45"/>
      <use x="30.699997" xlink:href="#MyriadPro-Regular-49"/>
      <use x="81.999985" xlink:href="#MyriadPro-Regular-54"/>
     </g>
    </g>
    <g id="line2d_68">
     <path d="M 47.781094 93.336562 
L 59.781094 93.336562 
" style="fill:none;stroke:#f38227;stroke-linecap:square;"/>
    </g>
    <g id="line2d_69"/>
    <g id="text_13">
     <!-- -14 -->
     <defs>
      <path d="M 40 0 
L 40 17.703125 
L 49.09375 17.703125 
L 49.09375 24.59375 
L 40 24.59375 
L 40 65 
L 30.5 65 
L 1.5 23.5 
L 1.5 17.703125 
L 31.703125 17.703125 
L 31.703125 0 
z
M 10.40625 24.59375 
L 10.40625 24.796875 
L 26.296875 46.90625 
C 28.09375 49.90625 29.703125 52.703125 31.703125 56.5 
L 32 56.5 
C 31.796875 53.09375 31.703125 49.703125 31.703125 46.296875 
L 31.703125 24.59375 
z
" id="MyriadPro-Regular-52"/>
     </defs>
     <g style="fill:#444147;" transform="translate(64.581094 95.436562)scale(0.06 -0.06)">
      <use xlink:href="#MyriadPro-Regular-45"/>
      <use x="30.699997" xlink:href="#MyriadPro-Regular-49"/>
      <use x="81.999985" xlink:href="#MyriadPro-Regular-52"/>
     </g>
    </g>
    <g id="line2d_70">
     <path d="M 47.781094 101.784375 
L 59.781094 101.784375 
" style="fill:none;stroke:#e39943;stroke-linecap:square;"/>
    </g>
    <g id="line2d_71"/>
    <g id="text_14">
     <!-- -12 -->
     <g style="fill:#444147;" transform="translate(64.581094 103.884375)scale(0.06 -0.06)">
      <use xlink:href="#MyriadPro-Regular-45"/>
      <use x="30.699997" xlink:href="#MyriadPro-Regular-49"/>
      <use x="81.999985" xlink:href="#MyriadPro-Regular-50"/>
     </g>
    </g>
    <g id="line2d_72">
     <path d="M 47.781094 110.232187 
L 59.781094 110.232187 
" style="fill:none;stroke:#eeba7f;stroke-linecap:square;"/>
    </g>
    <g id="line2d_73"/>
    <g id="text_15">
     <!-- -10 -->
     <g style="fill:#444147;" transform="translate(64.581094 112.332187)scale(0.06 -0.06)">
      <use xlink:href="#MyriadPro-Regular-45"/>
      <use x="30.699997" xlink:href="#MyriadPro-Regular-49"/>
      <use x="81.999985" xlink:href="#MyriadPro-Regular-48"/>
     </g>
    </g>
   </g>
  </g>
  <g id="axes_2">
   <g id="patch_6">
    <path d="M 40.68 282 
L 263.88 282 
L 263.88 173.28 
L 40.68 173.28 
z
" style="fill:#efefef;"/>
   </g>
   <g id="matplotlib.axis_3">
    <g id="xtick_29">
     <g id="line2d_74">
      <g>
       <use style="fill:#444147;stroke:#444147;stroke-width:0.25;" x="51.878316" xlink:href="#m42e86ebe5b" y="284"/>
      </g>
     </g>
     <g id="text_16">
      <!-- $\mathdefault{10^{-4}}$ -->
      <g style="fill:#444147;" transform="translate(46.358316 297.26)scale(0.06 -0.06)">
       <use transform="translate(0 0.615625)" xlink:href="#MyriadPro-Regular-49"/>
       <use transform="translate(51.299988 0.615625)" xlink:href="#MyriadPro-Regular-48"/>
       <use transform="translate(103.447085 34.5)scale(0.7)" xlink:href="#MyriadPro-Regular-8722"/>
       <use transform="translate(145.167079 34.5)scale(0.7)" xlink:href="#MyriadPro-Regular-52"/>
      </g>
     </g>
    </g>
    <g id="xtick_30">
     <g id="line2d_75">
      <g>
       <use style="fill:#444147;stroke:#444147;stroke-width:0.25;" x="89.078316" xlink:href="#m42e86ebe5b" y="284"/>
      </g>
     </g>
     <g id="text_17">
      <!-- $\mathdefault{10^{-3}}$ -->
      <g style="fill:#444147;" transform="translate(83.558316 297.26)scale(0.06 -0.06)">
       <use transform="translate(0 0.85)" xlink:href="#MyriadPro-Regular-49"/>
       <use transform="translate(51.299988 0.85)" xlink:href="#MyriadPro-Regular-48"/>
       <use transform="translate(103.447085 34.734375)scale(0.7)" xlink:href="#MyriadPro-Regular-8722"/>
       <use transform="translate(145.167079 34.734375)scale(0.7)" xlink:href="#MyriadPro-Regular-51"/>
      </g>
     </g>
    </g>
    <g id="xtick_31">
     <g id="line2d_76">
      <g>
       <use style="fill:#444147;stroke:#444147;stroke-width:0.25;" x="126.278316" xlink:href="#m42e86ebe5b" y="284"/>
      </g>
     </g>
     <g id="text_18">
      <!-- $\mathdefault{10^{-2}}$ -->
      <g style="fill:#444147;" transform="translate(120.758316 297.26)scale(0.06 -0.06)">
       <use transform="translate(0 0.85)" xlink:href="#MyriadPro-Regular-49"/>
       <use transform="translate(51.299988 0.85)" xlink:href="#MyriadPro-Regular-48"/>
       <use transform="translate(103.447085 34.734375)scale(0.7)" xlink:href="#MyriadPro-Regular-8722"/>
       <use transform="translate(145.167079 34.734375)scale(0.7)" xlink:href="#MyriadPro-Regular-50"/>
      </g>
     </g>
    </g>
    <g id="xtick_32">
     <g id="line2d_77">
      <g>
       <use style="fill:#444147;stroke:#444147;stroke-width:0.25;" x="163.478316" xlink:href="#m42e86ebe5b" y="284"/>
      </g>
     </g>
     <g id="text_19">
      <!-- $\mathdefault{10^{-1}}$ -->
      <g style="fill:#444147;" transform="translate(157.958316 297.26)scale(0.06 -0.06)">
       <use transform="translate(0 0.615625)" xlink:href="#MyriadPro-Regular-49"/>
       <use transform="translate(51.299988 0.615625)" xlink:href="#MyriadPro-Regular-48"/>
       <use transform="translate(103.447085 34.5)scale(0.7)" xlink:href="#MyriadPro-Regular-8722"/>
       <use transform="translate(145.167079 34.5)scale(0.7)" xlink:href="#MyriadPro-Regular-49"/>
      </g>
     </g>
    </g>
    <g id="xtick_33">
     <g id="line2d_78">
      <g>
       <use style="fill:#444147;stroke:#444147;stroke-width:0.25;" x="200.678316" xlink:href="#m42e86ebe5b" y="284"/>
      </g>
     </g>
     <g id="text_20">
      <!-- $\mathdefault{10^{0}}$ -->
      <g style="fill:#444147;" transform="translate(196.418316 297.26)scale(0.06 -0.06)">
       <use transform="translate(0 0.85)" xlink:href="#MyriadPro-Regular-49"/>
       <use transform="translate(51.299988 0.85)" xlink:href="#MyriadPro-Regular-48"/>
       <use transform="translate(103.447085 34.734375)scale(0.7)" xlink:href="#MyriadPro-Regular-48"/>
      </g>
     </g>
    </g>
    <g id="xtick_34">
     <g id="line2d_79">
      <g>
       <use style="fill:#444147;stroke:#444147;stroke-width:0.25;" x="237.878316" xlink:href="#m42e86ebe5b" y="284"/>
      </g>
     </g>
     <g id="text_21">
      <!-- $\mathdefault{10^{1}}$ -->
      <g style="fill:#444147;" transform="translate(233.618316 297.26)scale(0.06 -0.06)">
       <use transform="translate(0 0.615625)" xlink:href="#MyriadPro-Regular-49"/>
       <use transform="translate(51.299988 0.615625)" xlink:href="#MyriadPro-Regular-48"/>
       <use transform="translate(103.447085 34.5)scale(0.7)" xlink:href="#MyriadPro-Regular-49"/>
      </g>
     </g>
    </g>
    <g id="xtick_35">
     <g id="line2d_80"/>
    </g>
    <g id="xtick_36">
     <g id="line2d_81"/>
    </g>
    <g id="xtick_37">
     <g id="line2d_82"/>
    </g>
    <g id="xtick_38">
     <g id="line2d_83"/>
    </g>
    <g id="xtick_39">
     <g id="line2d_84"/>
    </g>
    <g id="xtick_40">
     <g id="line2d_85"/>
    </g>
    <g id="xtick_41">
     <g id="line2d_86"/>
    </g>
    <g id="xtick_42">
     <g id="line2d_87"/>
    </g>
    <g id="xtick_43">
     <g id="line2d_88"/>
    </g>
    <g id="xtick_44">
     <g id="line2d_89"/>
    </g>
    <g id="xtick_45">
     <g id="line2d_90"/>
    </g>
    <g id="xtick_46">
     <g id="line2d_91"/>
    </g>
    <g id="xtick_47">
     <g id="line2d_92"/>
    </g>
    <g id="xtick_48">
     <g id="line2d_93"/>
    </g>
    <g id="xtick_49">
     <g id="line2d_94"/>
    </g>
    <g id="xtick_50">
     <g id="line2d_95"/>
    </g>
    <g id="xtick_51">
     <g id="line2d_96"/>
    </g>
    <g id="xtick_52">
     <g id="line2d_97"/>
    </g>
    <g id="xtick_53">
     <g id="line2d_98"/>
    </g>
    <g id="xtick_54">
     <g id="line2d_99"/>
    </g>
    <g id="xtick_55">
     <g id="line2d_100"/>
    </g>
    <g id="xtick_56">
     <g id="line2d_101"/>
    </g>
    <g id="xtick_57">
     <g id="line2d_102"/>
    </g>
    <g id="xtick_58">
     <g id="line2d_103"/>
    </g>
    <g id="xtick_59">
     <g id="line2d_104"/>
    </g>
    <g id="xtick_60">
     <g id="line2d_105"/>
    </g>
    <g id="xtick_61">
     <g id="line2d_106"/>
    </g>
    <g id="xtick_62">
     <g id="line2d_107"/>
    </g>
    <g id="xtick_63">
     <g id="line2d_108"/>
    </g>
    <g id="xtick_64">
     <g id="line2d_109"/>
    </g>
    <g id="xtick_65">
     <g id="line2d_110"/>
    </g>
    <g id="xtick_66">
     <g id="line2d_111"/>
    </g>
    <g id="xtick_67">
     <g id="line2d_112"/>
    </g>
    <g id="xtick_68">
     <g id="line2d_113"/>
    </g>
    <g id="xtick_69">
     <g id="line2d_114"/>
    </g>
    <g id="xtick_70">
     <g id="line2d_115"/>
    </g>
    <g id="xtick_71">
     <g id="line2d_116"/>
    </g>
    <g id="xtick_72">
     <g id="line2d_117"/>
    </g>
    <g id="xtick_73">
     <g id="line2d_118"/>
    </g>
    <g id="xtick_74">
     <g id="line2d_119"/>
    </g>
    <g id="xtick_75">
     <g id="line2d_120"/>
    </g>
    <g id="xtick_76">
     <g id="line2d_121"/>
    </g>
    <g id="xtick_77">
     <g id="line2d_122"/>
    </g>
    <g id="xtick_78">
     <g id="line2d_123"/>
    </g>
    <g id="xtick_79">
     <g id="line2d_124"/>
    </g>
    <g id="xtick_80">
     <g id="line2d_125"/>
    </g>
    <g id="xtick_81">
     <g id="line2d_126"/>
    </g>
    <g id="xtick_82">
     <g id="line2d_127"/>
    </g>
    <g id="xtick_83">
     <g id="line2d_128"/>
    </g>
    <g id="text_22">
     <!-- inducer concentration relative to $K_A$ ($c / K_A$) -->
     <defs>
      <path d="M 16.09375 0 
L 16.09375 48.40625 
L 7.296875 48.40625 
L 7.296875 0 
z
M 11.703125 67.5 
C 8.5 67.5 6.203125 65.09375 6.203125 62 
C 6.203125 59 8.40625 56.59375 11.5 56.59375 
C 15 56.59375 17.203125 59 17.09375 62 
C 17.09375 65.09375 15 67.5 11.703125 67.5 
z
" id="MyriadPro-Regular-105"/>
      <path d="M 47.796875 48.40625 
L 39 48.40625 
L 39 18.703125 
C 39 17.09375 38.703125 15.5 38.203125 14.203125 
C 36.59375 10.296875 32.5 6.203125 26.59375 6.203125 
C 18.59375 6.203125 15.796875 12.40625 15.796875 21.59375 
L 15.796875 48.40625 
L 7 48.40625 
L 7 20.09375 
C 7 3.09375 16.09375 -1.09375 23.703125 -1.09375 
C 32.296875 -1.09375 37.40625 4 39.703125 7.90625 
L 39.90625 7.90625 
L 40.40625 0 
L 48.203125 0 
C 47.90625 3.796875 47.796875 8.203125 47.796875 13.203125 
z
" id="MyriadPro-Regular-117"/>
      <path d="M 1.296875 48.40625 
L 19.703125 0 
L 28.09375 0 
L 47.09375 48.40625 
L 37.90625 48.40625 
L 28.5 21.203125 
C 26.90625 16.796875 25.5 12.796875 24.40625 8.796875 
L 24.09375 8.796875 
C 23.09375 12.796875 21.796875 16.796875 20.203125 21.203125 
L 10.703125 48.40625 
z
" id="MyriadPro-Regular-118"/>
      <path d="M 16.890625 72.90625 
L 26.8125 72.90625 
L 20.796875 42.1875 
L 59.078125 72.90625 
L 72.21875 72.90625 
L 28.90625 38.09375 
L 60.59375 0 
L 48.578125 0 
L 19.484375 35.5 
L 12.59375 0 
L 2.6875 0 
z
" id="DejaVuSans-Oblique-75"/>
      <path d="M 19.5 69.40625 
C 13.203125 61 6.5 48.203125 6.40625 28.5 
C 6.40625 9 13.203125 -3.796875 19.5 -12.09375 
L 26.40625 -12.09375 
C 19.296875 -2.09375 13.796875 10.703125 13.796875 28.5 
C 13.796875 46.59375 19.09375 59.59375 26.40625 69.40625 
z
" id="MyriadPro-Regular-40"/>
      <path d="M 53.609375 52.59375 
L 51.8125 43.703125 
Q 48.578125 46.046875 44.9375 47.21875 
Q 41.3125 48.390625 37.40625 48.390625 
Q 33.109375 48.390625 29.21875 46.875 
Q 25.34375 45.359375 22.703125 42.578125 
Q 18.5 38.328125 16.203125 32.609375 
Q 13.921875 26.90625 13.921875 20.796875 
Q 13.921875 13.421875 17.609375 9.8125 
Q 21.296875 6.203125 28.8125 6.203125 
Q 32.515625 6.203125 36.6875 7.328125 
Q 40.875 8.453125 45.40625 10.6875 
L 43.703125 1.8125 
Q 39.796875 0.203125 35.671875 -0.609375 
Q 31.546875 -1.421875 27.203125 -1.421875 
Q 16.3125 -1.421875 10.453125 4.015625 
Q 4.59375 9.46875 4.59375 19.578125 
Q 4.59375 28.078125 7.640625 35.234375 
Q 10.6875 42.390625 16.703125 48.09375 
Q 20.796875 52 26.3125 54 
Q 31.84375 56 38.375 56 
Q 42.1875 56 45.9375 55.140625 
Q 49.703125 54.296875 53.609375 52.59375 
z
" id="DejaVuSans-Oblique-99"/>
      <path d="M 25.390625 72.90625 
L 33.6875 72.90625 
L 8.296875 -9.28125 
L 0 -9.28125 
z
" id="DejaVuSans-47"/>
      <path d="M 8.796875 -12.09375 
C 15.203125 -3.59375 21.90625 9.09375 21.90625 28.703125 
C 21.90625 48.40625 15.203125 61.203125 8.796875 69.40625 
L 2 69.40625 
C 9.203125 59.5 14.59375 46.703125 14.59375 28.796875 
C 14.59375 10.796875 9.09375 -2.203125 2 -12.09375 
z
" id="MyriadPro-Regular-41"/>
     </defs>
     <g style="fill:#444147;" transform="translate(80.84 308.127812)scale(0.08 -0.08)">
      <use transform="translate(0 0.09375)" xlink:href="#MyriadPro-Regular-105"/>
      <use transform="translate(23.399994 0.09375)" xlink:href="#MyriadPro-Regular-110"/>
      <use transform="translate(78.899979 0.09375)" xlink:href="#MyriadPro-Regular-100"/>
      <use transform="translate(135.299973 0.09375)" xlink:href="#MyriadPro-Regular-117"/>
      <use transform="translate(190.399963 0.09375)" xlink:href="#MyriadPro-Regular-99"/>
      <use transform="translate(235.199951 0.09375)" xlink:href="#MyriadPro-Regular-101"/>
      <use transform="translate(285.299942 0.09375)" xlink:href="#MyriadPro-Regular-114"/>
      <use transform="translate(317.999939 0.09375)" xlink:href="#MyriadPro-Regular-32"/>
      <use transform="translate(339.199936 0.09375)" xlink:href="#MyriadPro-Regular-99"/>
      <use transform="translate(383.999924 0.09375)" xlink:href="#MyriadPro-Regular-111"/>
      <use transform="translate(438.899918 0.09375)" xlink:href="#MyriadPro-Regular-110"/>
      <use transform="translate(494.399902 0.09375)" xlink:href="#MyriadPro-Regular-99"/>
      <use transform="translate(539.19989 0.09375)" xlink:href="#MyriadPro-Regular-101"/>
      <use transform="translate(589.299881 0.09375)" xlink:href="#MyriadPro-Regular-110"/>
      <use transform="translate(644.799866 0.09375)" xlink:href="#MyriadPro-Regular-116"/>
      <use transform="translate(677.899857 0.09375)" xlink:href="#MyriadPro-Regular-114"/>
      <use transform="translate(710.599854 0.09375)" xlink:href="#MyriadPro-Regular-97"/>
      <use transform="translate(758.79985 0.09375)" xlink:href="#MyriadPro-Regular-116"/>
      <use transform="translate(791.899841 0.09375)" xlink:href="#MyriadPro-Regular-105"/>
      <use transform="translate(815.299835 0.09375)" xlink:href="#MyriadPro-Regular-111"/>
      <use transform="translate(870.199829 0.09375)" xlink:href="#MyriadPro-Regular-110"/>
      <use transform="translate(925.699814 0.09375)" xlink:href="#MyriadPro-Regular-32"/>
      <use transform="translate(946.899811 0.09375)" xlink:href="#MyriadPro-Regular-114"/>
      <use transform="translate(979.599808 0.09375)" xlink:href="#MyriadPro-Regular-101"/>
      <use transform="translate(1029.699799 0.09375)" xlink:href="#MyriadPro-Regular-108"/>
      <use transform="translate(1053.299789 0.09375)" xlink:href="#MyriadPro-Regular-97"/>
      <use transform="translate(1101.499786 0.09375)" xlink:href="#MyriadPro-Regular-116"/>
      <use transform="translate(1134.599777 0.09375)" xlink:href="#MyriadPro-Regular-105"/>
      <use transform="translate(1157.999771 0.09375)" xlink:href="#MyriadPro-Regular-118"/>
      <use transform="translate(1206.099762 0.09375)" xlink:href="#MyriadPro-Regular-101"/>
      <use transform="translate(1256.199753 0.09375)" xlink:href="#MyriadPro-Regular-32"/>
      <use transform="translate(1277.39975 0.09375)" xlink:href="#MyriadPro-Regular-116"/>
      <use transform="translate(1310.499741 0.09375)" xlink:href="#MyriadPro-Regular-111"/>
      <use transform="translate(1365.399734 0.09375)" xlink:href="#MyriadPro-Regular-32"/>
      <use transform="translate(1386.599731 0.09375)" xlink:href="#DejaVuSans-Oblique-75"/>
      <use transform="translate(1452.175903 -16.3125)scale(0.7)" xlink:href="#DejaVuSans-Oblique-65"/>
      <use transform="translate(1502.796021 0.09375)" xlink:href="#MyriadPro-Regular-32"/>
      <use transform="translate(1523.996017 0.09375)" xlink:href="#MyriadPro-Regular-40"/>
      <use transform="translate(1552.396011 0.09375)" xlink:href="#DejaVuSans-Oblique-99"/>
      <use transform="translate(1607.37648 0.09375)" xlink:href="#DejaVuSans-47"/>
      <use transform="translate(1641.067886 0.09375)" xlink:href="#DejaVuSans-Oblique-75"/>
      <use transform="translate(1706.644058 -16.3125)scale(0.7)" xlink:href="#DejaVuSans-Oblique-65"/>
      <use transform="translate(1757.264175 0.09375)" xlink:href="#MyriadPro-Regular-41"/>
     </g>
    </g>
   </g>
   <g id="matplotlib.axis_4">
    <g id="ytick_34">
     <g id="line2d_129">
      <g>
       <use style="fill:#444147;stroke:#444147;stroke-width:0.25;" x="38.68" xlink:href="#mca212d6f3c" y="279.417009"/>
      </g>
     </g>
     <g id="text_23">
      <!-- 0.0 -->
      <defs>
       <path d="M 11.09375 -1.09375 
C 14.796875 -1.09375 17.09375 1.59375 17.09375 5.203125 
C 17.09375 8.90625 14.703125 11.5 11.203125 11.5 
C 7.703125 11.5 5.203125 8.90625 5.203125 5.203125 
C 5.203125 1.59375 7.59375 -1.09375 11 -1.09375 
z
" id="MyriadPro-Regular-46"/>
      </defs>
      <g style="fill:#444147;" transform="translate(22.282187 281.547009)scale(0.06 -0.06)">
       <use xlink:href="#MyriadPro-Regular-48"/>
       <use x="51.299988" xlink:href="#MyriadPro-Regular-46"/>
       <use x="71.999985" xlink:href="#MyriadPro-Regular-48"/>
      </g>
     </g>
    </g>
    <g id="ytick_35">
     <g id="line2d_130">
      <g>
       <use style="fill:#444147;stroke:#444147;stroke-width:0.25;" x="38.68" xlink:href="#mca212d6f3c" y="258.763857"/>
      </g>
     </g>
     <g id="text_24">
      <!-- 0.2 -->
      <g style="fill:#444147;" transform="translate(22.282187 260.893857)scale(0.06 -0.06)">
       <use xlink:href="#MyriadPro-Regular-48"/>
       <use x="51.299988" xlink:href="#MyriadPro-Regular-46"/>
       <use x="71.999985" xlink:href="#MyriadPro-Regular-50"/>
      </g>
     </g>
    </g>
    <g id="ytick_36">
     <g id="line2d_131">
      <g>
       <use style="fill:#444147;stroke:#444147;stroke-width:0.25;" x="38.68" xlink:href="#mca212d6f3c" y="238.110704"/>
      </g>
     </g>
     <g id="text_25">
      <!-- 0.4 -->
      <g style="fill:#444147;" transform="translate(22.282187 240.240704)scale(0.06 -0.06)">
       <use xlink:href="#MyriadPro-Regular-48"/>
       <use x="51.299988" xlink:href="#MyriadPro-Regular-46"/>
       <use x="71.999985" xlink:href="#MyriadPro-Regular-52"/>
      </g>
     </g>
    </g>
    <g id="ytick_37">
     <g id="line2d_132">
      <g>
       <use style="fill:#444147;stroke:#444147;stroke-width:0.25;" x="38.68" xlink:href="#mca212d6f3c" y="217.457552"/>
      </g>
     </g>
     <g id="text_26">
      <!-- 0.6 -->
      <g style="fill:#444147;" transform="translate(22.282187 219.587552)scale(0.06 -0.06)">
       <use xlink:href="#MyriadPro-Regular-48"/>
       <use x="51.299988" xlink:href="#MyriadPro-Regular-46"/>
       <use x="71.999985" xlink:href="#MyriadPro-Regular-54"/>
      </g>
     </g>
    </g>
    <g id="ytick_38">
     <g id="line2d_133">
      <g>
       <use style="fill:#444147;stroke:#444147;stroke-width:0.25;" x="38.68" xlink:href="#mca212d6f3c" y="196.8044"/>
      </g>
     </g>
     <g id="text_27">
      <!-- 0.8 -->
      <defs>
       <path d="M 16.59375 33.90625 
C 8.59375 30.5 3.703125 24.703125 3.703125 16.5 
C 3.703125 7 11.90625 -1.09375 25.5 -1.09375 
C 37.90625 -1.09375 47.59375 6.5 47.59375 17.796875 
C 47.59375 25.703125 42.59375 31.40625 34.5 34.59375 
L 34.5 34.90625 
C 42.5 38.703125 45.203125 44.59375 45.203125 50.09375 
C 45.203125 58.203125 38.90625 66.09375 26.296875 66.09375 
C 14.90625 66.09375 6.203125 59.09375 6.203125 48.796875 
C 6.203125 43.203125 9.296875 37.59375 16.5 34.203125 
z
M 25.703125 5.296875 
C 17.40625 5.296875 12.40625 11.09375 12.703125 17.703125 
C 12.703125 23.90625 16.796875 28.90625 24.40625 31.09375 
C 33.203125 28.59375 38.703125 24.796875 38.703125 16.90625 
C 38.703125 10.296875 33.59375 5.296875 25.703125 5.296875 
z
M 25.796875 59.796875 
C 33.703125 59.796875 36.796875 54.40625 36.796875 49.203125 
C 36.796875 43.296875 32.5 39.296875 26.90625 37.40625 
C 19.40625 39.40625 14.5 42.90625 14.5 49.40625 
C 14.5 55 18.5 59.796875 25.796875 59.796875 
z
" id="MyriadPro-Regular-56"/>
      </defs>
      <g style="fill:#444147;" transform="translate(22.282187 198.9344)scale(0.06 -0.06)">
       <use xlink:href="#MyriadPro-Regular-48"/>
       <use x="51.299988" xlink:href="#MyriadPro-Regular-46"/>
       <use x="71.999985" xlink:href="#MyriadPro-Regular-56"/>
      </g>
     </g>
    </g>
    <g id="ytick_39">
     <g id="line2d_134">
      <g>
       <use style="fill:#444147;stroke:#444147;stroke-width:0.25;" x="38.68" xlink:href="#mca212d6f3c" y="176.151247"/>
      </g>
     </g>
     <g id="text_28">
      <!-- 1.0 -->
      <g style="fill:#444147;" transform="translate(22.282187 178.281247)scale(0.06 -0.06)">
       <use xlink:href="#MyriadPro-Regular-49"/>
       <use x="51.299988" xlink:href="#MyriadPro-Regular-46"/>
       <use x="71.999985" xlink:href="#MyriadPro-Regular-48"/>
      </g>
     </g>
    </g>
    <g id="text_29">
     <!-- fold-change -->
     <g style="fill:#444147;" transform="translate(16.609687 247.8325)rotate(-90)scale(0.08 -0.08)">
      <use xlink:href="#MyriadPro-Regular-102"/>
      <use x="29.199997" xlink:href="#MyriadPro-Regular-111"/>
      <use x="84.099991" xlink:href="#MyriadPro-Regular-108"/>
      <use x="107.699982" xlink:href="#MyriadPro-Regular-100"/>
      <use x="164.099976" xlink:href="#MyriadPro-Regular-45"/>
      <use x="194.799973" xlink:href="#MyriadPro-Regular-99"/>
      <use x="239.59996" xlink:href="#MyriadPro-Regular-104"/>
      <use x="295.099945" xlink:href="#MyriadPro-Regular-97"/>
      <use x="343.299942" xlink:href="#MyriadPro-Regular-110"/>
      <use x="398.799927" xlink:href="#MyriadPro-Regular-103"/>
      <use x="454.699921" xlink:href="#MyriadPro-Regular-101"/>
     </g>
    </g>
   </g>
   <g id="line2d_135">
    <path clip-path="url(#p9b2629fb3c)" d="M 40.68 278.923019 
L 140.503116 278.820077 
L 151.719196 278.587347 
L 158.448844 278.231537 
L 162.935276 277.807076 
L 167.421709 277.13705 
L 170.786533 276.404174 
L 174.151357 275.407567 
L 176.394573 274.564059 
L 178.637789 273.554401 
L 180.881005 272.360764 
L 183.124221 270.968811 
L 185.367437 269.369621 
L 187.610653 267.561556 
L 190.975477 264.476043 
L 194.340302 261.003154 
L 198.826734 255.962248 
L 207.799598 245.72941 
L 211.164422 242.232175 
L 214.529246 239.052275 
L 217.89407 236.22531 
L 221.258894 233.758162 
L 224.623719 231.636977 
L 227.988543 229.834883 
L 231.353367 228.318289 
L 234.718191 227.051449 
L 238.083015 225.999424 
L 242.569447 224.875356 
L 247.055879 224.008649 
L 252.66392 223.203097 
L 258.27196 222.627251 
L 263.88 222.21704 
L 263.88 222.21704 
" style="fill:none;stroke:#9c372f;stroke-linecap:square;"/>
   </g>
   <g id="line2d_136">
    <path clip-path="url(#p9b2629fb3c)" d="M 40.68 275.875136 
L 120.314171 275.770433 
L 132.651859 275.549743 
L 139.381508 275.240163 
L 143.86794 274.868672 
L 148.354372 274.267526 
L 151.719196 273.585904 
L 155.08402 272.617611 
L 157.327236 271.761243 
L 159.570452 270.692712 
L 161.813668 269.369704 
L 164.056884 267.74703 
L 166.300101 265.779352 
L 168.543317 263.425269 
L 170.786533 260.652741 
L 173.029749 257.445416 
L 175.272965 253.808912 
L 177.516181 249.775664 
L 180.881005 243.122929 
L 192.097085 219.893211 
L 194.340302 215.815279 
L 196.583518 212.081413 
L 198.826734 208.711924 
L 201.06995 205.707885 
L 203.313166 203.055921 
L 205.556382 200.732972 
L 207.799598 198.71041 
L 210.042814 196.957257 
L 212.28603 195.442481 
L 214.529246 194.136497 
L 217.89407 192.510075 
L 221.258894 191.212216 
L 224.623719 190.176423 
L 227.988543 189.348957 
L 232.474975 188.496947 
L 236.961407 187.862269 
L 242.569447 187.289475 
L 249.299095 186.825848 
L 258.27196 186.448164 
L 263.88 186.300213 
L 263.88 186.300213 
" style="fill:none;stroke:#f38227;stroke-linecap:square;"/>
   </g>
   <g id="line2d_137">
    <path clip-path="url(#p9b2629fb3c)" d="M 40.68 257.950084 
L 101.246834 257.836297 
L 114.706131 257.626931 
L 122.557387 257.320518 
L 128.165427 256.905875 
L 132.651859 256.358677 
L 136.016683 255.749542 
L 139.381508 254.891881 
L 141.624724 254.135193 
L 143.86794 253.189628 
L 146.111156 252.013648 
L 148.354372 250.560753 
L 150.597588 248.781394 
L 152.840804 246.62649 
L 155.08402 244.052837 
L 157.327236 241.030413 
L 159.570452 237.550878 
L 161.813668 233.635766 
L 164.056884 229.342079 
L 167.421709 222.403511 
L 174.151357 208.366595 
L 176.394573 204.11871 
L 178.637789 200.243784 
L 180.881005 196.786389 
L 183.124221 193.759363 
L 185.367437 191.150403 
L 187.610653 188.929919 
L 189.853869 187.058404 
L 192.097085 185.492353 
L 194.340302 184.188471 
L 196.583518 183.106295 
L 198.826734 182.209582 
L 202.191558 181.144616 
L 205.556382 180.34023 
L 210.042814 179.561069 
L 214.529246 179.016825 
L 220.137286 178.554912 
L 227.988543 178.159263 
L 238.083015 177.886582 
L 253.785528 177.702605 
L 263.88 177.652321 
L 263.88 177.652321 
" style="fill:none;stroke:#e39943;stroke-linecap:square;"/>
   </g>
   <g id="line2d_138">
    <path clip-path="url(#p9b2629fb3c)" d="M 40.68 211.285798 
L 97.88201 211.164828 
L 112.462915 210.921169 
L 120.314171 210.589533 
L 125.922211 210.15214 
L 130.408643 209.589486 
L 133.773467 208.979133 
L 137.138291 208.14459 
L 140.503116 207.017405 
L 142.746332 206.067331 
L 144.989548 204.935126 
L 147.232764 203.606301 
L 149.47598 202.07531 
L 152.840804 199.419998 
L 156.205628 196.422392 
L 165.178492 188.168578 
L 168.543317 185.535337 
L 170.786533 184.019727 
L 173.029749 182.705145 
L 175.272965 181.585121 
L 177.516181 180.64471 
L 180.881005 179.527217 
L 184.245829 178.697334 
L 187.610653 178.087868 
L 192.097085 177.522696 
L 197.705126 177.079379 
L 205.556382 176.738772 
L 216.772462 176.51901 
L 236.961407 176.392613 
L 263.88 176.356981 
L 263.88 176.356981 
" style="fill:none;stroke:#eeba7f;stroke-linecap:square;"/>
   </g>
   <g id="patch_7">
    <path d="M 38.68 282 
L 38.68 173.28 
" style="fill:none;stroke:#444147;stroke-linecap:square;stroke-linejoin:miter;stroke-width:0.25;"/>
   </g>
   <g id="patch_8">
    <path d="M 40.68 284 
L 263.88 284 
" style="fill:none;stroke:#444147;stroke-linecap:square;stroke-linejoin:miter;stroke-width:0.25;"/>
   </g>
  </g>
 </g>
 <defs>
  <clipPath id="p74282e6aac">
   <rect height="108.72" width="223.2" x="40.68" y="10.2"/>
  </clipPath>
  <clipPath id="p9b2629fb3c">
   <rect height="108.72" width="223.2" x="40.68" y="173.28"/>
  </clipPath>
 </defs>
</svg>
