<?xml version="1.0" encoding="utf-8" standalone="no"?>
<!DOCTYPE svg PUBLIC "-//W3C//DTD SVG 1.1//EN"
  "http://www.w3.org/Graphics/SVG/1.1/DTD/svg11.dtd">
<!-- Created with matplotlib (https://matplotlib.org/) -->
<svg height="160.4845pt" version="1.1" viewBox="0 0 232.49375 160.4845" width="232.49375pt" xmlns="http://www.w3.org/2000/svg" xmlns:xlink="http://www.w3.org/1999/xlink">
 <defs>
  <style type="text/css">
*{stroke-linecap:butt;stroke-linejoin:round;}
  </style>
 </defs>
 <g id="figure_1">
  <g id="patch_1">
   <path d="M 0 160.4845 
L 232.49375 160.4845 
L 232.49375 0 
L 0 0 
z
" style="fill:#ffffff;"/>
  </g>
  <g id="axes_1">
   <g id="patch_2">
    <path d="M 40.94375 118.92 
L 222.29375 118.92 
L 222.29375 10.2 
L 40.94375 10.2 
z
" style="fill:#efefef;"/>
   </g>
   <g id="matplotlib.axis_1">
    <g id="xtick_1">
     <g id="line2d_1">
      <defs>
       <path d="M 0 0 
L 0 3 
" id="m55e0a9f730" style="stroke:#444147;stroke-width:0.25;"/>
      </defs>
      <g>
       <use style="fill:#444147;stroke:#444147;stroke-width:0.25;" x="59.07875" xlink:href="#m55e0a9f730" y="120.92"/>
      </g>
     </g>
     <g id="text_1">
      <!-- acetate -->
      <defs>
       <path d="M 41.296875 29.703125 
C 41.296875 39.296875 37.703125 49.40625 22.90625 49.40625 
C 16.796875 49.40625 10.90625 47.703125 6.90625 45.203125 
L 8.90625 39.296875 
C 12.296875 41.59375 17 42.90625 21.59375 42.90625 
C 31.5 43 32.59375 35.703125 32.59375 31.796875 
L 32.59375 30.796875 
C 13.90625 30.90625 3.5 24.5 3.5 12.796875 
C 3.5 5.796875 8.5 -1.09375 18.296875 -1.09375 
C 25.203125 -1.09375 30.40625 2.296875 33.09375 6.09375 
L 33.40625 6.09375 
L 34.09375 0 
L 42 0 
C 41.5 3.296875 41.296875 7.40625 41.296875 11.59375 
z
M 32.796875 16.296875 
C 32.796875 15.5 32.703125 14.5 32.40625 13.5 
C 31 9.40625 26.90625 5.40625 20.5 5.40625 
C 16.09375 5.40625 12.296875 8 12.296875 13.796875 
C 12.296875 23.203125 23.203125 24.90625 32.796875 24.703125 
z
" id="MyriadPro-Regular-97"/>
       <path d="M 40.296875 8.296875 
C 37.796875 7.203125 34.5 6 29.5 6 
C 19.90625 6 12.703125 12.90625 12.703125 24.09375 
C 12.703125 34.09375 18.703125 42.40625 29.796875 42.40625 
C 34.59375 42.40625 37.90625 41.203125 40 40.09375 
L 42 46.796875 
C 39.59375 48.09375 35 49.40625 29.796875 49.40625 
C 14 49.40625 3.796875 38.5 3.796875 23.59375 
C 3.796875 8.796875 13.296875 -1.09375 27.90625 -1.09375 
C 34.40625 -1.09375 39.5 0.59375 41.796875 1.703125 
z
" id="MyriadPro-Regular-99"/>
       <path d="M 46.203125 22.59375 
C 46.40625 23.59375 46.5 24.90625 46.5 26.703125 
C 46.5 35.59375 42.40625 49.40625 26.5 49.40625 
C 12.40625 49.40625 3.796875 38 3.796875 23.40625 
C 3.796875 8.796875 12.703125 -1.09375 27.59375 -1.09375 
C 35.296875 -1.09375 40.703125 0.59375 43.796875 2 
L 42.203125 8.296875 
C 39 6.90625 35.09375 5.796875 28.796875 5.796875 
C 19.90625 5.796875 12.40625 10.703125 12.203125 22.59375 
z
M 12.296875 28.90625 
C 13 35 16.796875 43.09375 25.796875 43.09375 
C 35.703125 43.09375 38.09375 34.40625 38 28.90625 
z
" id="MyriadPro-Regular-101"/>
       <path d="M 9.296875 57.40625 
L 9.296875 48.40625 
L 1.796875 48.40625 
L 1.796875 41.703125 
L 9.296875 41.703125 
L 9.296875 15.296875 
C 9.296875 9.59375 10.296875 5.296875 12.703125 2.59375 
C 14.796875 0.296875 18.09375 -1.09375 22.203125 -1.09375 
C 25.59375 -1.09375 28.296875 -0.5 30 0.09375 
L 29.59375 6.796875 
C 28.296875 6.40625 26.90625 6.203125 24.5 6.203125 
C 19.59375 6.203125 17.90625 9.59375 17.90625 15.59375 
L 17.90625 41.703125 
L 30.5 41.703125 
L 30.5 48.40625 
L 17.90625 48.40625 
L 17.90625 60 
z
" id="MyriadPro-Regular-116"/>
      </defs>
      <g style="fill:#444147;" transform="translate(49.851406 134.18)scale(0.06 -0.06)">
       <use xlink:href="#MyriadPro-Regular-97"/>
       <use x="48.199997" xlink:href="#MyriadPro-Regular-99"/>
       <use x="92.999985" xlink:href="#MyriadPro-Regular-101"/>
       <use x="143.099976" xlink:href="#MyriadPro-Regular-116"/>
       <use x="176.199966" xlink:href="#MyriadPro-Regular-97"/>
       <use x="224.399963" xlink:href="#MyriadPro-Regular-116"/>
       <use x="257.499954" xlink:href="#MyriadPro-Regular-101"/>
      </g>
      <!-- 37° C -->
      <defs>
       <path d="M 4.203125 3.296875 
C 7.40625 1.203125 13.796875 -1.09375 21.09375 -1.09375 
C 36.59375 -1.09375 44.796875 8 44.796875 18.40625 
C 44.703125 27.5 38.296875 33.5 30.296875 35 
L 30.296875 35.203125 
C 38.203125 38.09375 42.296875 43.796875 42.296875 50.59375 
C 42.296875 58.5 36.5 66.09375 23.703125 66.09375 
C 16.703125 66.09375 10.09375 63.59375 6.59375 61.09375 
L 9 54.703125 
C 11.796875 56.703125 16.796875 59 22 59 
C 30.09375 59 33.40625 54.40625 33.40625 49.203125 
C 33.40625 41.5 25.296875 38.203125 18.90625 38.203125 
L 14 38.203125 
L 14 31.59375 
L 18.90625 31.59375 
C 27.40625 31.59375 35.59375 27.703125 35.703125 18.59375 
C 35.796875 13.09375 32.203125 6 21 6 
C 14.796875 6 9.09375 8.5 6.59375 10 
z
" id="MyriadPro-Regular-51"/>
       <path d="M 5.703125 65 
L 5.703125 57.703125 
L 37.5 57.703125 
L 37.5 57.5 
L 9.296875 0 
L 18.40625 0 
L 46.703125 59.203125 
L 46.703125 65 
z
" id="MyriadPro-Regular-55"/>
       <path d="M 16.296875 68.59375 
C 8.796875 68.59375 2.90625 62.796875 2.90625 55.09375 
C 2.90625 48.09375 8.203125 42.203125 16 42.203125 
C 22.90625 42.203125 29.40625 47.5 29.40625 55.59375 
C 29.40625 62.40625 24.5 68.59375 16.296875 68.59375 
z
M 16 63.90625 
C 21.796875 63.90625 24 59.203125 24 55.5 
C 24 50.59375 20.703125 46.90625 16.09375 46.90625 
C 11.59375 46.90625 8.296875 50.5 8.296875 55.09375 
C 8.296875 59.40625 10.90625 63.90625 16 63.90625 
z
" id="MyriadPro-Regular-176"/>
       <path id="MyriadPro-Regular-32"/>
       <path d="M 52.90625 9.09375 
C 49.40625 7.40625 44 6.296875 38.59375 6.296875 
C 22.296875 6.296875 12.796875 16.796875 12.796875 33.40625 
C 12.796875 51.09375 23.296875 61.203125 39.09375 61.203125 
C 44.703125 61.203125 49.40625 60 52.59375 58.40625 
L 54.796875 65.5 
C 52.5 66.703125 47.09375 68.5 38.796875 68.5 
C 17.90625 68.5 3.59375 54.296875 3.59375 33.09375 
C 3.59375 10.90625 17.796875 -1.09375 36.796875 -1.09375 
C 45 -1.09375 51.5 0.5 54.59375 2.09375 
z
" id="MyriadPro-Regular-67"/>
      </defs>
      <g style="fill:#444147;" transform="translate(52.670938 140.479812)scale(0.06 -0.06)">
       <use xlink:href="#MyriadPro-Regular-51"/>
       <use x="51.299988" xlink:href="#MyriadPro-Regular-55"/>
       <use x="102.599976" xlink:href="#MyriadPro-Regular-176"/>
       <use x="134.399963" xlink:href="#MyriadPro-Regular-32"/>
       <use x="155.59996" xlink:href="#MyriadPro-Regular-67"/>
      </g>
     </g>
    </g>
    <g id="xtick_2">
     <g id="line2d_2">
      <g>
       <use style="fill:#444147;stroke:#444147;stroke-width:0.25;" x="95.34875" xlink:href="#m55e0a9f730" y="120.92"/>
      </g>
     </g>
     <g id="text_2">
      <!-- glycerol -->
      <defs>
       <path d="M 48.703125 35.203125 
C 48.703125 41 48.796875 45 49.09375 48.40625 
L 41.296875 48.40625 
L 41 41.09375 
L 40.796875 41.09375 
C 38.59375 45.09375 34.09375 49.40625 25.703125 49.40625 
C 14.5 49.40625 3.796875 40.203125 3.796875 23.796875 
C 3.796875 10.40625 12.40625 0.203125 24.40625 0.203125 
C 31.90625 0.203125 37.203125 3.796875 39.796875 8.296875 
L 40 8.296875 
L 40 3 
C 40 -9.296875 33.40625 -14 24.40625 -14 
C 18.40625 -14 13.40625 -12.203125 10.203125 -10.09375 
L 8 -16.90625 
C 11.90625 -19.5 18.296875 -20.90625 24.09375 -20.90625 
C 30.203125 -20.90625 37 -19.40625 41.796875 -15.09375 
C 46.40625 -10.796875 48.703125 -4.09375 48.703125 7.09375 
z
M 39.90625 20.59375 
C 39.90625 19.09375 39.703125 17.40625 39.203125 15.90625 
C 37.40625 10.296875 32.5 6.90625 27 6.90625 
C 17.59375 6.90625 12.703125 14.796875 12.703125 24.296875 
C 12.703125 35.5 18.703125 42.59375 27.09375 42.59375 
C 33.59375 42.59375 37.796875 38.40625 39.40625 33.203125 
C 39.796875 32.09375 39.90625 30.796875 39.90625 29.296875 
z
" id="MyriadPro-Regular-103"/>
       <path d="M 7.296875 0 
L 16.09375 0 
L 16.09375 71 
L 7.296875 71 
z
" id="MyriadPro-Regular-108"/>
       <path d="M 0.90625 48.40625 
L 18.703125 3.796875 
C 19.203125 2.703125 19.40625 2 19.40625 1.5 
C 19.40625 1 19.09375 0.296875 18.703125 -0.59375 
C 16.59375 -5.09375 13.703125 -8.5 11.296875 -10.40625 
C 8.703125 -12.59375 5.796875 -14 3.59375 -14.703125 
L 5.796875 -22 
C 8 -21.59375 12.203125 -20.09375 16.59375 -16.40625 
C 22.59375 -11.09375 26.90625 -2.703125 33.203125 13.90625 
L 46.40625 48.40625 
L 37.09375 48.40625 
L 27.5 20 
C 26.296875 16.5 25.296875 12.796875 24.40625 9.90625 
L 24.203125 9.90625 
C 23.40625 12.796875 22.203125 16.59375 21 19.796875 
L 10.5 48.40625 
z
" id="MyriadPro-Regular-121"/>
       <path d="M 7.296875 0 
L 16.09375 0 
L 16.09375 25.796875 
C 16.09375 27.203125 16.203125 28.703125 16.40625 29.90625 
C 17.59375 36.5 22 41.09375 28.203125 41.09375 
C 29.40625 41.09375 30.296875 41.09375 31.203125 40.90625 
L 31.203125 49.203125 
C 30.40625 49.296875 29.703125 49.40625 28.796875 49.40625 
C 22.90625 49.40625 17.5 45.296875 15.296875 38.796875 
L 15 38.796875 
L 14.59375 48.40625 
L 6.90625 48.40625 
C 7.203125 43.90625 7.296875 39 7.296875 33.296875 
z
" id="MyriadPro-Regular-114"/>
       <path d="M 27.796875 49.40625 
C 14.5 49.40625 3.796875 39.90625 3.796875 23.796875 
C 3.796875 8.5 14 -1.09375 27 -1.09375 
C 38.59375 -1.09375 51.09375 6.703125 51.09375 24.59375 
C 51.09375 39.296875 41.703125 49.40625 27.796875 49.40625 
z
M 27.59375 42.796875 
C 38 42.796875 42.09375 32.5 42.09375 24.296875 
C 42.09375 13.40625 35.796875 5.5 27.40625 5.5 
C 18.796875 5.5 12.796875 13.5 12.796875 24.09375 
C 12.796875 33.203125 17.296875 42.796875 27.59375 42.796875 
z
" id="MyriadPro-Regular-111"/>
      </defs>
      <g style="fill:#444147;" transform="translate(85.368125 134.312187)scale(0.06 -0.06)">
       <use xlink:href="#MyriadPro-Regular-103"/>
       <use x="55.899994" xlink:href="#MyriadPro-Regular-108"/>
       <use x="79.499985" xlink:href="#MyriadPro-Regular-121"/>
       <use x="126.599976" xlink:href="#MyriadPro-Regular-99"/>
       <use x="171.399963" xlink:href="#MyriadPro-Regular-101"/>
       <use x="221.499954" xlink:href="#MyriadPro-Regular-114"/>
       <use x="254.199951" xlink:href="#MyriadPro-Regular-111"/>
       <use x="309.099945" xlink:href="#MyriadPro-Regular-108"/>
      </g>
      <!-- 37 °C -->
      <g style="fill:#444147;" transform="translate(88.940937 140.744187)scale(0.06 -0.06)">
       <use xlink:href="#MyriadPro-Regular-51"/>
       <use x="51.299988" xlink:href="#MyriadPro-Regular-55"/>
       <use x="102.599976" xlink:href="#MyriadPro-Regular-32"/>
       <use x="123.799973" xlink:href="#MyriadPro-Regular-176"/>
       <use x="155.59996" xlink:href="#MyriadPro-Regular-67"/>
      </g>
     </g>
    </g>
    <g id="xtick_3">
     <g id="line2d_3">
      <g>
       <use style="fill:#444147;stroke:#444147;stroke-width:0.25;" x="131.61875" xlink:href="#m55e0a9f730" y="120.92"/>
      </g>
     </g>
     <g id="text_3">
      <!-- glucose -->
      <defs>
       <path d="M 47.796875 48.40625 
L 39 48.40625 
L 39 18.796875 
C 39 17.09375 38.703125 15.5 38.203125 14.296875 
C 36.59375 10.296875 32.5 6.203125 26.59375 6.203125 
C 18.703125 6.203125 15.796875 12.5 15.796875 21.703125 
L 15.796875 48.40625 
L 7 48.40625 
L 7 20.09375 
C 7 3.203125 16.09375 -1.09375 23.703125 -1.09375 
C 32.296875 -1.09375 37.5 4 39.703125 7.90625 
L 39.90625 7.90625 
L 40.40625 0 
L 48.203125 0 
C 47.90625 3.796875 47.796875 8.203125 47.796875 13.296875 
z
" id="MyriadPro-Regular-117"/>
       <path d="M 4 2.296875 
C 7.40625 0.296875 12.296875 -1.09375 17.59375 -1.09375 
C 28.90625 -1.09375 35.59375 4.90625 35.59375 13.5 
C 35.59375 20.703125 31.203125 24.90625 22.90625 28 
C 16.59375 30.5 13.796875 32.296875 13.796875 36.296875 
C 13.796875 39.90625 16.59375 42.90625 21.796875 42.90625 
C 26.296875 42.90625 29.796875 41.203125 31.703125 40 
L 33.796875 46.40625 
C 31.203125 48.09375 26.90625 49.40625 22 49.40625 
C 11.703125 49.40625 5.296875 43 5.296875 35.203125 
C 5.296875 29.40625 9.40625 24.703125 18.203125 21.5 
C 24.59375 19.09375 27.09375 16.90625 27.09375 12.703125 
C 27.09375 8.59375 24.09375 5.5 17.796875 5.5 
C 13.40625 5.5 8.796875 7.296875 6.09375 8.90625 
z
" id="MyriadPro-Regular-115"/>
      </defs>
      <g style="fill:#444147;" transform="translate(121.899219 134.246562)scale(0.06 -0.06)">
       <use xlink:href="#MyriadPro-Regular-103"/>
       <use x="55.899994" xlink:href="#MyriadPro-Regular-108"/>
       <use x="79.499985" xlink:href="#MyriadPro-Regular-117"/>
       <use x="134.599976" xlink:href="#MyriadPro-Regular-99"/>
       <use x="179.399963" xlink:href="#MyriadPro-Regular-111"/>
       <use x="234.299957" xlink:href="#MyriadPro-Regular-115"/>
       <use x="273.899948" xlink:href="#MyriadPro-Regular-101"/>
      </g>
      <!-- 32 °C -->
      <defs>
       <path d="M 46 0 
L 46 7.296875 
L 16.90625 7.296875 
L 16.90625 7.5 
L 22 12.296875 
C 35.703125 25.5 44.40625 35.203125 44.40625 47.203125 
C 44.40625 56.5 38.5 66.09375 24.5 66.09375 
C 17.09375 66.09375 10.59375 63.203125 6.203125 59.5 
L 9 53.296875 
C 12 55.796875 16.90625 58.796875 22.796875 58.796875 
C 32.5 58.796875 35.59375 52.703125 35.59375 46.09375 
C 35.59375 36.296875 28 27.90625 11.40625 12.09375 
L 4.5 5.40625 
L 4.5 0 
z
" id="MyriadPro-Regular-50"/>
      </defs>
      <g style="fill:#444147;" transform="translate(125.210938 140.612937)scale(0.06 -0.06)">
       <use xlink:href="#MyriadPro-Regular-51"/>
       <use x="51.299988" xlink:href="#MyriadPro-Regular-50"/>
       <use x="102.599976" xlink:href="#MyriadPro-Regular-32"/>
       <use x="123.799973" xlink:href="#MyriadPro-Regular-176"/>
       <use x="155.59996" xlink:href="#MyriadPro-Regular-67"/>
      </g>
     </g>
    </g>
    <g id="xtick_4">
     <g id="line2d_4">
      <g>
       <use style="fill:#444147;stroke:#444147;stroke-width:0.25;" x="167.88875" xlink:href="#m55e0a9f730" y="120.92"/>
      </g>
     </g>
     <g id="text_4">
      <!-- glucose -->
      <g style="fill:#444147;" transform="translate(158.169219 134.246562)scale(0.06 -0.06)">
       <use xlink:href="#MyriadPro-Regular-103"/>
       <use x="55.899994" xlink:href="#MyriadPro-Regular-108"/>
       <use x="79.499985" xlink:href="#MyriadPro-Regular-117"/>
       <use x="134.599976" xlink:href="#MyriadPro-Regular-99"/>
       <use x="179.399963" xlink:href="#MyriadPro-Regular-111"/>
       <use x="234.299957" xlink:href="#MyriadPro-Regular-115"/>
       <use x="273.899948" xlink:href="#MyriadPro-Regular-101"/>
      </g>
      <!-- 42° C -->
      <defs>
       <path d="M 40 0 
L 40 17.796875 
L 49.09375 17.796875 
L 49.09375 24.59375 
L 40 24.59375 
L 40 65 
L 30.5 65 
L 1.5 23.5 
L 1.5 17.796875 
L 31.703125 17.796875 
L 31.703125 0 
z
M 10.40625 24.59375 
L 10.40625 24.796875 
L 26.296875 46.90625 
C 28.09375 49.90625 29.703125 52.703125 31.703125 56.5 
L 32 56.5 
C 31.796875 53.09375 31.703125 49.703125 31.703125 46.296875 
L 31.703125 24.59375 
z
" id="MyriadPro-Regular-52"/>
      </defs>
      <g style="fill:#444147;" transform="translate(161.480938 140.612937)scale(0.06 -0.06)">
       <use xlink:href="#MyriadPro-Regular-52"/>
       <use x="51.299988" xlink:href="#MyriadPro-Regular-50"/>
       <use x="102.599976" xlink:href="#MyriadPro-Regular-176"/>
       <use x="134.399963" xlink:href="#MyriadPro-Regular-32"/>
       <use x="155.59996" xlink:href="#MyriadPro-Regular-67"/>
      </g>
     </g>
    </g>
    <g id="xtick_5">
     <g id="line2d_5">
      <g>
       <use style="fill:#444147;stroke:#444147;stroke-width:0.25;" x="204.15875" xlink:href="#m55e0a9f730" y="120.92"/>
      </g>
     </g>
     <g id="text_5">
      <!-- glucose -->
      <g style="fill:#444147;" transform="translate(194.439219 134.246562)scale(0.06 -0.06)">
       <use xlink:href="#MyriadPro-Regular-103"/>
       <use x="55.899994" xlink:href="#MyriadPro-Regular-108"/>
       <use x="79.499985" xlink:href="#MyriadPro-Regular-117"/>
       <use x="134.599976" xlink:href="#MyriadPro-Regular-99"/>
       <use x="179.399963" xlink:href="#MyriadPro-Regular-111"/>
       <use x="234.299957" xlink:href="#MyriadPro-Regular-115"/>
       <use x="273.899948" xlink:href="#MyriadPro-Regular-101"/>
      </g>
      <!--  37°C -->
      <g style="fill:#444147;" transform="translate(197.750937 140.612937)scale(0.06 -0.06)">
       <use xlink:href="#MyriadPro-Regular-32"/>
       <use x="21.199997" xlink:href="#MyriadPro-Regular-51"/>
       <use x="72.499985" xlink:href="#MyriadPro-Regular-55"/>
       <use x="123.799973" xlink:href="#MyriadPro-Regular-176"/>
       <use x="155.59996" xlink:href="#MyriadPro-Regular-67"/>
      </g>
     </g>
    </g>
    <g id="text_6">
     <!-- growth condition -->
     <defs>
      <path d="M 1.796875 48.40625 
L 16.40625 0 
L 24.40625 0 
L 32.203125 23 
C 33.90625 28.203125 35.40625 33.203125 36.59375 39 
L 36.796875 39 
C 38 33.296875 39.40625 28.5 41.09375 23.09375 
L 48.5 0 
L 56.5 0 
L 72.09375 48.40625 
L 63.40625 48.40625 
L 56.5 24.09375 
C 54.90625 18.40625 53.59375 13.296875 52.796875 8.40625 
L 52.5 8.40625 
C 51.40625 13.296875 50 18.40625 48.203125 24.203125 
L 40.703125 48.40625 
L 33.296875 48.40625 
L 25.40625 23.703125 
C 23.796875 18.5 22.203125 13.296875 21.09375 8.40625 
L 20.796875 8.40625 
C 19.90625 13.40625 18.59375 18.40625 17.296875 23.796875 
L 10.796875 48.40625 
z
" id="MyriadPro-Regular-119"/>
      <path d="M 7.296875 0 
L 16.09375 0 
L 16.09375 29.203125 
C 16.09375 30.796875 16.203125 32.09375 16.703125 33.40625 
C 18.40625 38.09375 22.796875 42.09375 28.5 42.09375 
C 36.796875 42.09375 39.703125 35.59375 39.703125 27.796875 
L 39.703125 0 
L 48.5 0 
L 48.5 28.796875 
C 48.5 45.40625 38.09375 49.40625 31.59375 49.40625 
C 28.296875 49.40625 25.203125 48.5 22.59375 47 
C 19.90625 45.5 17.703125 43.203125 16.296875 40.703125 
L 16.09375 40.703125 
L 16.09375 71 
L 7.296875 71 
z
" id="MyriadPro-Regular-104"/>
      <path d="M 7.296875 0 
L 16.09375 0 
L 16.09375 29.09375 
C 16.09375 30.59375 16.296875 32.09375 16.703125 33.203125 
C 18.296875 38.09375 22.796875 42.203125 28.5 42.203125 
C 36.796875 42.203125 39.703125 35.703125 39.703125 27.90625 
L 39.703125 0 
L 48.5 0 
L 48.5 28.796875 
C 48.5 45.40625 38.09375 49.40625 31.40625 49.40625 
C 23.40625 49.40625 17.796875 44.90625 15.40625 40.40625 
L 15.203125 40.40625 
L 14.703125 48.40625 
L 6.90625 48.40625 
C 7.203125 44.40625 7.296875 40.40625 7.296875 35.296875 
z
" id="MyriadPro-Regular-110"/>
      <path d="M 40.296875 71 
L 40.296875 42.09375 
L 40.09375 42.09375 
C 37.90625 45.90625 33 49.40625 25.5 49.40625 
C 13.796875 49.40625 3.703125 39.59375 3.796875 23.5 
C 3.796875 8.796875 12.90625 -1.09375 24.59375 -1.09375 
C 32.5 -1.09375 38.296875 3 40.90625 8.40625 
L 41.203125 8.40625 
L 41.59375 0 
L 49.40625 0 
C 49.203125 3.296875 49 8.203125 49 12.5 
L 49 71 
z
M 40.296875 20.296875 
C 40.296875 18.90625 40.203125 17.703125 39.90625 16.5 
C 38.296875 10 32.90625 6 27 6 
C 17.59375 6 12.703125 14.09375 12.703125 23.90625 
C 12.703125 34.5 18.09375 42.5 27.203125 42.5 
C 33.796875 42.5 38.59375 37.90625 39.90625 32.40625 
C 40.203125 31.296875 40.296875 29.796875 40.296875 28.703125 
z
" id="MyriadPro-Regular-100"/>
      <path d="M 16.09375 0 
L 16.09375 48.40625 
L 7.296875 48.40625 
L 7.296875 0 
z
M 11.703125 67.5 
C 8.40625 67.5 6.203125 65 6.203125 62 
C 6.203125 59 8.296875 56.59375 11.5 56.59375 
C 15 56.59375 17.09375 59 17.09375 62 
C 17.09375 65.09375 14.90625 67.5 11.703125 67.5 
z
" id="MyriadPro-Regular-105"/>
     </defs>
     <g style="fill:#444147;" transform="translate(102.465625 151.612)scale(0.08 -0.08)">
      <use xlink:href="#MyriadPro-Regular-103"/>
      <use x="55.899994" xlink:href="#MyriadPro-Regular-114"/>
      <use x="88.599991" xlink:href="#MyriadPro-Regular-111"/>
      <use x="143.499985" xlink:href="#MyriadPro-Regular-119"/>
      <use x="217.099976" xlink:href="#MyriadPro-Regular-116"/>
      <use x="250.199966" xlink:href="#MyriadPro-Regular-104"/>
      <use x="305.699951" xlink:href="#MyriadPro-Regular-32"/>
      <use x="326.899948" xlink:href="#MyriadPro-Regular-99"/>
      <use x="371.699936" xlink:href="#MyriadPro-Regular-111"/>
      <use x="426.59993" xlink:href="#MyriadPro-Regular-110"/>
      <use x="482.099915" xlink:href="#MyriadPro-Regular-100"/>
      <use x="538.499908" xlink:href="#MyriadPro-Regular-105"/>
      <use x="561.899902" xlink:href="#MyriadPro-Regular-116"/>
      <use x="594.999893" xlink:href="#MyriadPro-Regular-105"/>
      <use x="618.399887" xlink:href="#MyriadPro-Regular-111"/>
      <use x="673.299881" xlink:href="#MyriadPro-Regular-110"/>
     </g>
    </g>
   </g>
   <g id="matplotlib.axis_2">
    <g id="ytick_1">
     <g id="line2d_6">
      <defs>
       <path d="M 0 0 
L -3 0 
" id="mb4d3bb04c6" style="stroke:#444147;stroke-width:0.25;"/>
      </defs>
      <g>
       <use style="fill:#444147;stroke:#444147;stroke-width:0.25;" x="38.94375" xlink:href="#mb4d3bb04c6" y="109.036364"/>
      </g>
     </g>
     <g id="text_7">
      <!-- 0.2 -->
      <defs>
       <path d="M 26.296875 66.09375 
C 13.09375 66.09375 3.59375 54.203125 3.59375 32.296875 
C 3.796875 10.796875 12.5 -1.09375 25.203125 -1.09375 
C 39.5 -1.09375 47.796875 11.09375 47.796875 33.203125 
C 47.796875 53.90625 39.90625 66.09375 26.296875 66.09375 
z
M 25.703125 59.296875 
C 34.90625 59.296875 38.90625 48.796875 38.90625 32.796875 
C 38.90625 16.203125 34.59375 5.703125 25.703125 5.703125 
C 17.703125 5.703125 12.5 15.296875 12.5 32.203125 
C 12.5 49.90625 18.09375 59.296875 25.703125 59.296875 
z
" id="MyriadPro-Regular-48"/>
       <path d="M 11 -1.09375 
C 14.703125 -1.09375 17.09375 1.59375 17.09375 5.203125 
C 17.09375 8.90625 14.703125 11.5 11.203125 11.5 
C 7.703125 11.5 5.203125 8.796875 5.203125 5.203125 
C 5.203125 1.59375 7.59375 -1.09375 11 -1.09375 
z
" id="MyriadPro-Regular-46"/>
      </defs>
      <g style="fill:#444147;" transform="translate(20.08 111.876364)scale(0.08 -0.08)">
       <use xlink:href="#MyriadPro-Regular-48"/>
       <use x="51.299988" xlink:href="#MyriadPro-Regular-46"/>
       <use x="71.999985" xlink:href="#MyriadPro-Regular-50"/>
      </g>
     </g>
    </g>
    <g id="ytick_2">
     <g id="line2d_7">
      <g>
       <use style="fill:#444147;stroke:#444147;stroke-width:0.25;" x="38.94375" xlink:href="#mb4d3bb04c6" y="89.269091"/>
      </g>
     </g>
     <g id="text_8">
      <!-- 0.3 -->
      <g style="fill:#444147;" transform="translate(20.08 92.109091)scale(0.08 -0.08)">
       <use xlink:href="#MyriadPro-Regular-48"/>
       <use x="51.299988" xlink:href="#MyriadPro-Regular-46"/>
       <use x="71.999985" xlink:href="#MyriadPro-Regular-51"/>
      </g>
     </g>
    </g>
    <g id="ytick_3">
     <g id="line2d_8">
      <g>
       <use style="fill:#444147;stroke:#444147;stroke-width:0.25;" x="38.94375" xlink:href="#mb4d3bb04c6" y="69.501818"/>
      </g>
     </g>
     <g id="text_9">
      <!-- 0.4 -->
      <g style="fill:#444147;" transform="translate(20.08 72.341818)scale(0.08 -0.08)">
       <use xlink:href="#MyriadPro-Regular-48"/>
       <use x="51.299988" xlink:href="#MyriadPro-Regular-46"/>
       <use x="71.999985" xlink:href="#MyriadPro-Regular-52"/>
      </g>
     </g>
    </g>
    <g id="ytick_4">
     <g id="line2d_9">
      <g>
       <use style="fill:#444147;stroke:#444147;stroke-width:0.25;" x="38.94375" xlink:href="#mb4d3bb04c6" y="49.734545"/>
      </g>
     </g>
     <g id="text_10">
      <!-- 0.5 -->
      <defs>
       <path d="M 43.296875 65 
L 12.203125 65 
L 8 33.796875 
C 10.40625 34.09375 13.296875 34.40625 17.09375 34.40625 
C 30 34.40625 35.703125 28.5 35.703125 20.09375 
C 35.796875 11.40625 28.59375 6 20.40625 6 
C 14.40625 6 9.09375 8 6.40625 9.59375 
L 4.203125 2.90625 
C 7.40625 0.90625 13.296875 -1.09375 20.40625 -1.09375 
C 34.5 -1.09375 44.59375 8.40625 44.59375 21.09375 
C 44.59375 29.203125 40.40625 34.90625 35.296875 37.703125 
C 31.296875 40.203125 26.40625 41.203125 21.296875 41.203125 
C 18.90625 41.203125 17.5 41.09375 16 40.90625 
L 18.5 57.59375 
L 43.296875 57.59375 
z
" id="MyriadPro-Regular-53"/>
      </defs>
      <g style="fill:#444147;" transform="translate(20.08 52.574545)scale(0.08 -0.08)">
       <use xlink:href="#MyriadPro-Regular-48"/>
       <use x="51.299988" xlink:href="#MyriadPro-Regular-46"/>
       <use x="71.999985" xlink:href="#MyriadPro-Regular-53"/>
      </g>
     </g>
    </g>
    <g id="ytick_5">
     <g id="line2d_10">
      <g>
       <use style="fill:#444147;stroke:#444147;stroke-width:0.25;" x="38.94375" xlink:href="#mb4d3bb04c6" y="29.967273"/>
      </g>
     </g>
     <g id="text_11">
      <!-- 0.6 -->
      <defs>
       <path d="M 41.59375 66 
C 40 66 37.796875 65.90625 35.203125 65.5 
C 27 64.5 19.796875 61.203125 14.40625 55.90625 
C 7.90625 49.5 3.40625 39.40625 3.40625 26.59375 
C 3.40625 9.703125 12.5 -1.09375 26.296875 -1.09375 
C 39.90625 -1.09375 48 9.90625 48 21.90625 
C 48 34.5 39.90625 42.90625 28.40625 42.90625 
C 21.203125 42.90625 15.703125 39.5 12.59375 35.296875 
L 12.40625 35.296875 
C 13.90625 46.09375 21.09375 56.09375 35 58.296875 
C 37.5 58.703125 39.796875 58.90625 41.59375 58.796875 
z
M 26.5 5.703125 
C 17.203125 5.703125 12.203125 13.703125 12.09375 24.40625 
C 12.09375 26 12.5 27.203125 13 28.203125 
C 15.40625 33 20.40625 36.203125 25.703125 36.203125 
C 33.796875 36.203125 39.09375 30.59375 39.09375 21.296875 
C 39.09375 12 34 5.703125 26.5 5.703125 
z
" id="MyriadPro-Regular-54"/>
      </defs>
      <g style="fill:#444147;" transform="translate(20.08 32.807273)scale(0.08 -0.08)">
       <use xlink:href="#MyriadPro-Regular-48"/>
       <use x="51.299988" xlink:href="#MyriadPro-Regular-46"/>
       <use x="71.999985" xlink:href="#MyriadPro-Regular-54"/>
      </g>
     </g>
    </g>
    <g id="ytick_6">
     <g id="line2d_11">
      <g>
       <use style="fill:#444147;stroke:#444147;stroke-width:0.25;" x="38.94375" xlink:href="#mb4d3bb04c6" y="10.2"/>
      </g>
     </g>
     <g id="text_12">
      <!-- 0.7 -->
      <g style="fill:#444147;" transform="translate(20.08 13.04)scale(0.08 -0.08)">
       <use xlink:href="#MyriadPro-Regular-48"/>
       <use x="51.299988" xlink:href="#MyriadPro-Regular-46"/>
       <use x="71.999985" xlink:href="#MyriadPro-Regular-55"/>
      </g>
     </g>
    </g>
    <g id="text_13">
     <!-- growth rate [hr$^{-1}$] -->
     <defs>
      <path d="M 26.40625 -11.203125 
L 26.40625 -5.703125 
L 15 -5.703125 
L 15 63.09375 
L 26.40625 63.09375 
L 26.40625 68.59375 
L 8.09375 68.59375 
L 8.09375 -11.203125 
z
" id="MyriadPro-Regular-91"/>
      <path d="M 10.59375 35.5 
L 73.1875 35.5 
L 73.1875 27.203125 
L 10.59375 27.203125 
z
" id="DejaVuSans-8722"/>
      <path d="M 12.40625 8.296875 
L 28.515625 8.296875 
L 28.515625 63.921875 
L 10.984375 60.40625 
L 10.984375 69.390625 
L 28.421875 72.90625 
L 38.28125 72.90625 
L 38.28125 8.296875 
L 54.390625 8.296875 
L 54.390625 0 
L 12.40625 0 
z
" id="DejaVuSans-49"/>
      <path d="M 2 68.59375 
L 2 63.09375 
L 13.40625 63.09375 
L 13.40625 -5.703125 
L 2 -5.703125 
L 2 -11.203125 
L 20.296875 -11.203125 
L 20.296875 68.59375 
z
" id="MyriadPro-Regular-93"/>
     </defs>
     <g style="fill:#444147;" transform="translate(14.4 95.16)rotate(-90)scale(0.08 -0.08)">
      <use transform="translate(0 0.684375)" xlink:href="#MyriadPro-Regular-103"/>
      <use transform="translate(55.899994 0.684375)" xlink:href="#MyriadPro-Regular-114"/>
      <use transform="translate(88.599991 0.684375)" xlink:href="#MyriadPro-Regular-111"/>
      <use transform="translate(143.499985 0.684375)" xlink:href="#MyriadPro-Regular-119"/>
      <use transform="translate(217.099976 0.684375)" xlink:href="#MyriadPro-Regular-116"/>
      <use transform="translate(250.199966 0.684375)" xlink:href="#MyriadPro-Regular-104"/>
      <use transform="translate(305.699951 0.684375)" xlink:href="#MyriadPro-Regular-32"/>
      <use transform="translate(326.899948 0.684375)" xlink:href="#MyriadPro-Regular-114"/>
      <use transform="translate(359.599945 0.684375)" xlink:href="#MyriadPro-Regular-97"/>
      <use transform="translate(407.799942 0.684375)" xlink:href="#MyriadPro-Regular-116"/>
      <use transform="translate(440.899933 0.684375)" xlink:href="#MyriadPro-Regular-101"/>
      <use transform="translate(490.999924 0.684375)" xlink:href="#MyriadPro-Regular-32"/>
      <use transform="translate(512.199921 0.684375)" xlink:href="#MyriadPro-Regular-91"/>
      <use transform="translate(540.599915 0.684375)" xlink:href="#MyriadPro-Regular-104"/>
      <use transform="translate(596.099899 0.684375)" xlink:href="#MyriadPro-Regular-114"/>
      <use transform="translate(629.756927 38.965625)scale(0.7)" xlink:href="#DejaVuSans-8722"/>
      <use transform="translate(688.409271 38.965625)scale(0.7)" xlink:href="#DejaVuSans-49"/>
      <use transform="translate(735.679779 0.684375)" xlink:href="#MyriadPro-Regular-93"/>
     </g>
    </g>
   </g>
   <g id="LineCollection_1">
    <path clip-path="url(#p19cb4c89dd)" d="M 60.106794 109.560154 
L 60.106794 108.747025 
" style="fill:none;stroke:#c2996c;stroke-opacity:0.75;stroke-width:0.75;"/>
    <path clip-path="url(#p19cb4c89dd)" d="M 64.27283 108.443885 
L 64.27283 107.847565 
" style="fill:none;stroke:#c2996c;stroke-opacity:0.75;stroke-width:0.75;"/>
    <path clip-path="url(#p19cb4c89dd)" d="M 57.58495 110.205116 
L 57.58495 109.502487 
" style="fill:none;stroke:#c2996c;stroke-opacity:0.75;stroke-width:0.75;"/>
    <path clip-path="url(#p19cb4c89dd)" d="M 70.74781 107.042504 
L 70.74781 106.369684 
" style="fill:none;stroke:#c2996c;stroke-opacity:0.75;stroke-width:0.75;"/>
    <path clip-path="url(#p19cb4c89dd)" d="M 55.034908 110.982204 
L 55.034908 109.298406 
" style="fill:none;stroke:#c2996c;stroke-opacity:0.75;stroke-width:0.75;"/>
   </g>
   <g id="LineCollection_2">
    <path clip-path="url(#p19cb4c89dd)" d="M 92.960744 74.786096 
L 92.960744 73.64346 
" style="fill:none;stroke:#688a2f;stroke-opacity:0.75;stroke-width:0.75;"/>
    <path clip-path="url(#p19cb4c89dd)" d="M 96.703739 70.462796 
L 96.703739 69.597781 
" style="fill:none;stroke:#688a2f;stroke-opacity:0.75;stroke-width:0.75;"/>
    <path clip-path="url(#p19cb4c89dd)" d="M 91.256878 73.659504 
L 91.256878 71.101979 
" style="fill:none;stroke:#688a2f;stroke-opacity:0.75;stroke-width:0.75;"/>
    <path clip-path="url(#p19cb4c89dd)" d="M 94.810208 70.830953 
L 94.810208 70.011742 
" style="fill:none;stroke:#688a2f;stroke-opacity:0.75;stroke-width:0.75;"/>
    <path clip-path="url(#p19cb4c89dd)" d="M 91.059496 70.992688 
L 91.059496 70.254534 
" style="fill:none;stroke:#688a2f;stroke-opacity:0.75;stroke-width:0.75;"/>
   </g>
   <g id="LineCollection_3">
    <path clip-path="url(#p19cb4c89dd)" d="M 129.044372 60.747375 
L 129.044372 58.911391 
" style="fill:none;stroke:#7292c7;stroke-opacity:0.75;stroke-width:0.75;"/>
    <path clip-path="url(#p19cb4c89dd)" d="M 121.607754 62.373989 
L 121.607754 61.497873 
" style="fill:none;stroke:#7292c7;stroke-opacity:0.75;stroke-width:0.75;"/>
    <path clip-path="url(#p19cb4c89dd)" d="M 132.645468 58.652933 
L 132.645468 57.114352 
" style="fill:none;stroke:#7292c7;stroke-opacity:0.75;stroke-width:0.75;"/>
   </g>
   <g id="LineCollection_4">
    <path clip-path="url(#p19cb4c89dd)" d="M 171.834256 52.623924 
L 171.834256 51.527589 
" style="fill:none;stroke:#c76a6a;stroke-opacity:0.75;stroke-width:0.75;"/>
    <path clip-path="url(#p19cb4c89dd)" d="M 168.278639 52.462084 
L 168.278639 51.498182 
" style="fill:none;stroke:#c76a6a;stroke-opacity:0.75;stroke-width:0.75;"/>
    <path clip-path="url(#p19cb4c89dd)" d="M 167.133339 61.338684 
L 167.133339 60.000251 
" style="fill:none;stroke:#c76a6a;stroke-opacity:0.75;stroke-width:0.75;"/>
   </g>
   <g id="LineCollection_5">
    <path clip-path="url(#p19cb4c89dd)" d="M 201.740982 25.357861 
L 201.740982 23.8448 
" style="fill:none;stroke:#7e59a2;stroke-opacity:0.75;stroke-width:0.75;"/>
    <path clip-path="url(#p19cb4c89dd)" d="M 201.783473 23.656886 
L 201.783473 21.775435 
" style="fill:none;stroke:#7e59a2;stroke-opacity:0.75;stroke-width:0.75;"/>
    <path clip-path="url(#p19cb4c89dd)" d="M 209.360674 23.451438 
L 209.360674 21.317349 
" style="fill:none;stroke:#7e59a2;stroke-opacity:0.75;stroke-width:0.75;"/>
    <path clip-path="url(#p19cb4c89dd)" d="M 202.879673 22.484663 
L 202.879673 20.402736 
" style="fill:none;stroke:#7e59a2;stroke-opacity:0.75;stroke-width:0.75;"/>
    <path clip-path="url(#p19cb4c89dd)" d="M 200.471288 31.760772 
L 200.471288 23.883783 
" style="fill:none;stroke:#7e59a2;stroke-opacity:0.75;stroke-width:0.75;"/>
    <path clip-path="url(#p19cb4c89dd)" d="M 206.384128 33.338497 
L 206.384128 27.472983 
" style="fill:none;stroke:#7e59a2;stroke-opacity:0.75;stroke-width:0.75;"/>
    <path clip-path="url(#p19cb4c89dd)" d="M 203.497582 16.845503 
L 203.497582 12.229651 
" style="fill:none;stroke:#7e59a2;stroke-opacity:0.75;stroke-width:0.75;"/>
    <path clip-path="url(#p19cb4c89dd)" d="M 205.298202 27.8779 
L 205.298202 23.858426 
" style="fill:none;stroke:#7e59a2;stroke-opacity:0.75;stroke-width:0.75;"/>
    <path clip-path="url(#p19cb4c89dd)" d="M 207.345693 22.668838 
L 207.345693 21.423249 
" style="fill:none;stroke:#7e59a2;stroke-opacity:0.75;stroke-width:0.75;"/>
   </g>
   <g id="line2d_12">
    <defs>
     <path d="M 1 0 
L -1 -0 
" id="m0f3a88997c" style="stroke:#c2996c;stroke-opacity:0.75;stroke-width:0.5;"/>
    </defs>
    <g clip-path="url(#p19cb4c89dd)">
     <use style="fill:#c2996c;fill-opacity:0.75;stroke:#c2996c;stroke-opacity:0.75;stroke-width:0.5;" x="60.106794" xlink:href="#m0f3a88997c" y="109.560154"/>
     <use style="fill:#c2996c;fill-opacity:0.75;stroke:#c2996c;stroke-opacity:0.75;stroke-width:0.5;" x="64.27283" xlink:href="#m0f3a88997c" y="108.443885"/>
     <use style="fill:#c2996c;fill-opacity:0.75;stroke:#c2996c;stroke-opacity:0.75;stroke-width:0.5;" x="57.58495" xlink:href="#m0f3a88997c" y="110.205116"/>
     <use style="fill:#c2996c;fill-opacity:0.75;stroke:#c2996c;stroke-opacity:0.75;stroke-width:0.5;" x="70.74781" xlink:href="#m0f3a88997c" y="107.042504"/>
     <use style="fill:#c2996c;fill-opacity:0.75;stroke:#c2996c;stroke-opacity:0.75;stroke-width:0.5;" x="55.034908" xlink:href="#m0f3a88997c" y="110.982204"/>
    </g>
   </g>
   <g id="line2d_13">
    <g clip-path="url(#p19cb4c89dd)">
     <use style="fill:#c2996c;fill-opacity:0.75;stroke:#c2996c;stroke-opacity:0.75;stroke-width:0.5;" x="60.106794" xlink:href="#m0f3a88997c" y="108.747025"/>
     <use style="fill:#c2996c;fill-opacity:0.75;stroke:#c2996c;stroke-opacity:0.75;stroke-width:0.5;" x="64.27283" xlink:href="#m0f3a88997c" y="107.847565"/>
     <use style="fill:#c2996c;fill-opacity:0.75;stroke:#c2996c;stroke-opacity:0.75;stroke-width:0.5;" x="57.58495" xlink:href="#m0f3a88997c" y="109.502487"/>
     <use style="fill:#c2996c;fill-opacity:0.75;stroke:#c2996c;stroke-opacity:0.75;stroke-width:0.5;" x="70.74781" xlink:href="#m0f3a88997c" y="106.369684"/>
     <use style="fill:#c2996c;fill-opacity:0.75;stroke:#c2996c;stroke-opacity:0.75;stroke-width:0.5;" x="55.034908" xlink:href="#m0f3a88997c" y="109.298406"/>
    </g>
   </g>
   <g id="line2d_14">
    <defs>
     <path d="M 1 0 
L -1 -0 
" id="ma6cdfbf1ac" style="stroke:#688a2f;stroke-opacity:0.75;stroke-width:0.5;"/>
    </defs>
    <g clip-path="url(#p19cb4c89dd)">
     <use style="fill:#688a2f;fill-opacity:0.75;stroke:#688a2f;stroke-opacity:0.75;stroke-width:0.5;" x="92.960744" xlink:href="#ma6cdfbf1ac" y="74.786096"/>
     <use style="fill:#688a2f;fill-opacity:0.75;stroke:#688a2f;stroke-opacity:0.75;stroke-width:0.5;" x="96.703739" xlink:href="#ma6cdfbf1ac" y="70.462796"/>
     <use style="fill:#688a2f;fill-opacity:0.75;stroke:#688a2f;stroke-opacity:0.75;stroke-width:0.5;" x="91.256878" xlink:href="#ma6cdfbf1ac" y="73.659504"/>
     <use style="fill:#688a2f;fill-opacity:0.75;stroke:#688a2f;stroke-opacity:0.75;stroke-width:0.5;" x="94.810208" xlink:href="#ma6cdfbf1ac" y="70.830953"/>
     <use style="fill:#688a2f;fill-opacity:0.75;stroke:#688a2f;stroke-opacity:0.75;stroke-width:0.5;" x="91.059496" xlink:href="#ma6cdfbf1ac" y="70.992688"/>
    </g>
   </g>
   <g id="line2d_15">
    <g clip-path="url(#p19cb4c89dd)">
     <use style="fill:#688a2f;fill-opacity:0.75;stroke:#688a2f;stroke-opacity:0.75;stroke-width:0.5;" x="92.960744" xlink:href="#ma6cdfbf1ac" y="73.64346"/>
     <use style="fill:#688a2f;fill-opacity:0.75;stroke:#688a2f;stroke-opacity:0.75;stroke-width:0.5;" x="96.703739" xlink:href="#ma6cdfbf1ac" y="69.597781"/>
     <use style="fill:#688a2f;fill-opacity:0.75;stroke:#688a2f;stroke-opacity:0.75;stroke-width:0.5;" x="91.256878" xlink:href="#ma6cdfbf1ac" y="71.101979"/>
     <use style="fill:#688a2f;fill-opacity:0.75;stroke:#688a2f;stroke-opacity:0.75;stroke-width:0.5;" x="94.810208" xlink:href="#ma6cdfbf1ac" y="70.011742"/>
     <use style="fill:#688a2f;fill-opacity:0.75;stroke:#688a2f;stroke-opacity:0.75;stroke-width:0.5;" x="91.059496" xlink:href="#ma6cdfbf1ac" y="70.254534"/>
    </g>
   </g>
   <g id="line2d_16">
    <defs>
     <path d="M 1.5 0 
L -1.5 -0 
" id="m585a9ab933" style="stroke:#7292c7;stroke-opacity:0.75;stroke-width:0.75;"/>
    </defs>
    <g clip-path="url(#p19cb4c89dd)">
     <use style="fill:#7292c7;fill-opacity:0.75;stroke:#7292c7;stroke-opacity:0.75;stroke-width:0.75;" x="129.044372" xlink:href="#m585a9ab933" y="60.747375"/>
     <use style="fill:#7292c7;fill-opacity:0.75;stroke:#7292c7;stroke-opacity:0.75;stroke-width:0.75;" x="121.607754" xlink:href="#m585a9ab933" y="62.373989"/>
     <use style="fill:#7292c7;fill-opacity:0.75;stroke:#7292c7;stroke-opacity:0.75;stroke-width:0.75;" x="132.645468" xlink:href="#m585a9ab933" y="58.652933"/>
    </g>
   </g>
   <g id="line2d_17">
    <g clip-path="url(#p19cb4c89dd)">
     <use style="fill:#7292c7;fill-opacity:0.75;stroke:#7292c7;stroke-opacity:0.75;stroke-width:0.75;" x="129.044372" xlink:href="#m585a9ab933" y="58.911391"/>
     <use style="fill:#7292c7;fill-opacity:0.75;stroke:#7292c7;stroke-opacity:0.75;stroke-width:0.75;" x="121.607754" xlink:href="#m585a9ab933" y="61.497873"/>
     <use style="fill:#7292c7;fill-opacity:0.75;stroke:#7292c7;stroke-opacity:0.75;stroke-width:0.75;" x="132.645468" xlink:href="#m585a9ab933" y="57.114352"/>
    </g>
   </g>
   <g id="line2d_18">
    <defs>
     <path d="M 1.5 0 
L -1.5 -0 
" id="mf7b23ca268" style="stroke:#c76a6a;stroke-opacity:0.75;stroke-width:0.75;"/>
    </defs>
    <g clip-path="url(#p19cb4c89dd)">
     <use style="fill:#c76a6a;fill-opacity:0.75;stroke:#c76a6a;stroke-opacity:0.75;stroke-width:0.75;" x="171.834256" xlink:href="#mf7b23ca268" y="52.623924"/>
     <use style="fill:#c76a6a;fill-opacity:0.75;stroke:#c76a6a;stroke-opacity:0.75;stroke-width:0.75;" x="168.278639" xlink:href="#mf7b23ca268" y="52.462084"/>
     <use style="fill:#c76a6a;fill-opacity:0.75;stroke:#c76a6a;stroke-opacity:0.75;stroke-width:0.75;" x="167.133339" xlink:href="#mf7b23ca268" y="61.338684"/>
    </g>
   </g>
   <g id="line2d_19">
    <g clip-path="url(#p19cb4c89dd)">
     <use style="fill:#c76a6a;fill-opacity:0.75;stroke:#c76a6a;stroke-opacity:0.75;stroke-width:0.75;" x="171.834256" xlink:href="#mf7b23ca268" y="51.527589"/>
     <use style="fill:#c76a6a;fill-opacity:0.75;stroke:#c76a6a;stroke-opacity:0.75;stroke-width:0.75;" x="168.278639" xlink:href="#mf7b23ca268" y="51.498182"/>
     <use style="fill:#c76a6a;fill-opacity:0.75;stroke:#c76a6a;stroke-opacity:0.75;stroke-width:0.75;" x="167.133339" xlink:href="#mf7b23ca268" y="60.000251"/>
    </g>
   </g>
   <g id="line2d_20">
    <defs>
     <path d="M 1.5 0 
L -1.5 -0 
" id="m0355e74c75" style="stroke:#7e59a2;stroke-opacity:0.75;stroke-width:0.75;"/>
    </defs>
    <g clip-path="url(#p19cb4c89dd)">
     <use style="fill:#7e59a2;fill-opacity:0.75;stroke:#7e59a2;stroke-opacity:0.75;stroke-width:0.75;" x="201.740982" xlink:href="#m0355e74c75" y="25.357861"/>
     <use style="fill:#7e59a2;fill-opacity:0.75;stroke:#7e59a2;stroke-opacity:0.75;stroke-width:0.75;" x="201.783473" xlink:href="#m0355e74c75" y="23.656886"/>
     <use style="fill:#7e59a2;fill-opacity:0.75;stroke:#7e59a2;stroke-opacity:0.75;stroke-width:0.75;" x="209.360674" xlink:href="#m0355e74c75" y="23.451438"/>
     <use style="fill:#7e59a2;fill-opacity:0.75;stroke:#7e59a2;stroke-opacity:0.75;stroke-width:0.75;" x="202.879673" xlink:href="#m0355e74c75" y="22.484663"/>
     <use style="fill:#7e59a2;fill-opacity:0.75;stroke:#7e59a2;stroke-opacity:0.75;stroke-width:0.75;" x="200.471288" xlink:href="#m0355e74c75" y="31.760772"/>
     <use style="fill:#7e59a2;fill-opacity:0.75;stroke:#7e59a2;stroke-opacity:0.75;stroke-width:0.75;" x="206.384128" xlink:href="#m0355e74c75" y="33.338497"/>
     <use style="fill:#7e59a2;fill-opacity:0.75;stroke:#7e59a2;stroke-opacity:0.75;stroke-width:0.75;" x="203.497582" xlink:href="#m0355e74c75" y="16.845503"/>
     <use style="fill:#7e59a2;fill-opacity:0.75;stroke:#7e59a2;stroke-opacity:0.75;stroke-width:0.75;" x="205.298202" xlink:href="#m0355e74c75" y="27.8779"/>
     <use style="fill:#7e59a2;fill-opacity:0.75;stroke:#7e59a2;stroke-opacity:0.75;stroke-width:0.75;" x="207.345693" xlink:href="#m0355e74c75" y="22.668838"/>
    </g>
   </g>
   <g id="line2d_21">
    <g clip-path="url(#p19cb4c89dd)">
     <use style="fill:#7e59a2;fill-opacity:0.75;stroke:#7e59a2;stroke-opacity:0.75;stroke-width:0.75;" x="201.740982" xlink:href="#m0355e74c75" y="23.8448"/>
     <use style="fill:#7e59a2;fill-opacity:0.75;stroke:#7e59a2;stroke-opacity:0.75;stroke-width:0.75;" x="201.783473" xlink:href="#m0355e74c75" y="21.775435"/>
     <use style="fill:#7e59a2;fill-opacity:0.75;stroke:#7e59a2;stroke-opacity:0.75;stroke-width:0.75;" x="209.360674" xlink:href="#m0355e74c75" y="21.317349"/>
     <use style="fill:#7e59a2;fill-opacity:0.75;stroke:#7e59a2;stroke-opacity:0.75;stroke-width:0.75;" x="202.879673" xlink:href="#m0355e74c75" y="20.402736"/>
     <use style="fill:#7e59a2;fill-opacity:0.75;stroke:#7e59a2;stroke-opacity:0.75;stroke-width:0.75;" x="200.471288" xlink:href="#m0355e74c75" y="23.883783"/>
     <use style="fill:#7e59a2;fill-opacity:0.75;stroke:#7e59a2;stroke-opacity:0.75;stroke-width:0.75;" x="206.384128" xlink:href="#m0355e74c75" y="27.472983"/>
     <use style="fill:#7e59a2;fill-opacity:0.75;stroke:#7e59a2;stroke-opacity:0.75;stroke-width:0.75;" x="203.497582" xlink:href="#m0355e74c75" y="12.229651"/>
     <use style="fill:#7e59a2;fill-opacity:0.75;stroke:#7e59a2;stroke-opacity:0.75;stroke-width:0.75;" x="205.298202" xlink:href="#m0355e74c75" y="23.858426"/>
     <use style="fill:#7e59a2;fill-opacity:0.75;stroke:#7e59a2;stroke-opacity:0.75;stroke-width:0.75;" x="207.345693" xlink:href="#m0355e74c75" y="21.423249"/>
    </g>
   </g>
   <g id="line2d_22">
    <defs>
     <path d="M 0 2.5 
C 0.663008 2.5 1.29895 2.236584 1.767767 1.767767 
C 2.236584 1.29895 2.5 0.663008 2.5 0 
C 2.5 -0.663008 2.236584 -1.29895 1.767767 -1.767767 
C 1.29895 -2.236584 0.663008 -2.5 0 -2.5 
C -0.663008 -2.5 -1.29895 -2.236584 -1.767767 -1.767767 
C -2.236584 -1.29895 -2.5 -0.663008 -2.5 0 
C -2.5 0.663008 -2.236584 1.29895 -1.767767 1.767767 
C -1.29895 2.236584 -0.663008 2.5 0 2.5 
z
" id="m2a64e937ed" style="stroke:#efefef;stroke-opacity:0.75;stroke-width:0.5;"/>
    </defs>
    <g clip-path="url(#p19cb4c89dd)">
     <use style="fill:#c2996c;fill-opacity:0.75;stroke:#efefef;stroke-opacity:0.75;stroke-width:0.5;" x="60.106794" xlink:href="#m2a64e937ed" y="109.15359"/>
     <use style="fill:#c2996c;fill-opacity:0.75;stroke:#efefef;stroke-opacity:0.75;stroke-width:0.5;" x="64.27283" xlink:href="#m2a64e937ed" y="108.145725"/>
     <use style="fill:#c2996c;fill-opacity:0.75;stroke:#efefef;stroke-opacity:0.75;stroke-width:0.5;" x="57.58495" xlink:href="#m2a64e937ed" y="109.853802"/>
     <use style="fill:#c2996c;fill-opacity:0.75;stroke:#efefef;stroke-opacity:0.75;stroke-width:0.5;" x="70.74781" xlink:href="#m2a64e937ed" y="106.706094"/>
     <use style="fill:#c2996c;fill-opacity:0.75;stroke:#efefef;stroke-opacity:0.75;stroke-width:0.5;" x="55.034908" xlink:href="#m2a64e937ed" y="110.140305"/>
    </g>
   </g>
   <g id="line2d_23">
    <defs>
     <path d="M 0 2.5 
C 0.663008 2.5 1.29895 2.236584 1.767767 1.767767 
C 2.236584 1.29895 2.5 0.663008 2.5 0 
C 2.5 -0.663008 2.236584 -1.29895 1.767767 -1.767767 
C 1.29895 -2.236584 0.663008 -2.5 0 -2.5 
C -0.663008 -2.5 -1.29895 -2.236584 -1.767767 -1.767767 
C -2.236584 -1.29895 -2.5 -0.663008 -2.5 0 
C -2.5 0.663008 -2.236584 1.29895 -1.767767 1.767767 
C -1.29895 2.236584 -0.663008 2.5 0 2.5 
z
" id="m09a2cb10c4" style="stroke:#efefef;stroke-opacity:0.75;stroke-width:0.5;"/>
    </defs>
    <g clip-path="url(#p19cb4c89dd)">
     <use style="fill:#688a2f;fill-opacity:0.75;stroke:#efefef;stroke-opacity:0.75;stroke-width:0.5;" x="92.960744" xlink:href="#m09a2cb10c4" y="74.214778"/>
     <use style="fill:#688a2f;fill-opacity:0.75;stroke:#efefef;stroke-opacity:0.75;stroke-width:0.5;" x="96.703739" xlink:href="#m09a2cb10c4" y="70.030288"/>
     <use style="fill:#688a2f;fill-opacity:0.75;stroke:#efefef;stroke-opacity:0.75;stroke-width:0.5;" x="91.256878" xlink:href="#m09a2cb10c4" y="72.380741"/>
     <use style="fill:#688a2f;fill-opacity:0.75;stroke:#efefef;stroke-opacity:0.75;stroke-width:0.5;" x="94.810208" xlink:href="#m09a2cb10c4" y="70.421348"/>
     <use style="fill:#688a2f;fill-opacity:0.75;stroke:#efefef;stroke-opacity:0.75;stroke-width:0.5;" x="91.059496" xlink:href="#m09a2cb10c4" y="70.623611"/>
    </g>
   </g>
   <g id="line2d_24">
    <defs>
     <path d="M 0 2.5 
C 0.663008 2.5 1.29895 2.236584 1.767767 1.767767 
C 2.236584 1.29895 2.5 0.663008 2.5 0 
C 2.5 -0.663008 2.236584 -1.29895 1.767767 -1.767767 
C 1.29895 -2.236584 0.663008 -2.5 0 -2.5 
C -0.663008 -2.5 -1.29895 -2.236584 -1.767767 -1.767767 
C -2.236584 -1.29895 -2.5 -0.663008 -2.5 0 
C -2.5 0.663008 -2.236584 1.29895 -1.767767 1.767767 
C -1.29895 2.236584 -0.663008 2.5 0 2.5 
z
" id="m0c8c550209" style="stroke:#efefef;stroke-opacity:0.75;stroke-width:0.75;"/>
    </defs>
    <g clip-path="url(#p19cb4c89dd)">
     <use style="fill:#7292c7;fill-opacity:0.75;stroke:#efefef;stroke-opacity:0.75;stroke-width:0.75;" x="129.044372" xlink:href="#m0c8c550209" y="59.829383"/>
     <use style="fill:#7292c7;fill-opacity:0.75;stroke:#efefef;stroke-opacity:0.75;stroke-width:0.75;" x="121.607754" xlink:href="#m0c8c550209" y="61.935931"/>
     <use style="fill:#7292c7;fill-opacity:0.75;stroke:#efefef;stroke-opacity:0.75;stroke-width:0.75;" x="132.645468" xlink:href="#m0c8c550209" y="57.883642"/>
    </g>
   </g>
   <g id="line2d_25">
    <defs>
     <path d="M 0 2.5 
C 0.663008 2.5 1.29895 2.236584 1.767767 1.767767 
C 2.236584 1.29895 2.5 0.663008 2.5 0 
C 2.5 -0.663008 2.236584 -1.29895 1.767767 -1.767767 
C 1.29895 -2.236584 0.663008 -2.5 0 -2.5 
C -0.663008 -2.5 -1.29895 -2.236584 -1.767767 -1.767767 
C -2.236584 -1.29895 -2.5 -0.663008 -2.5 0 
C -2.5 0.663008 -2.236584 1.29895 -1.767767 1.767767 
C -1.29895 2.236584 -0.663008 2.5 0 2.5 
z
" id="md41ee24c04" style="stroke:#efefef;stroke-opacity:0.75;stroke-width:0.75;"/>
    </defs>
    <g clip-path="url(#p19cb4c89dd)">
     <use style="fill:#c76a6a;fill-opacity:0.75;stroke:#efefef;stroke-opacity:0.75;stroke-width:0.75;" x="171.834256" xlink:href="#md41ee24c04" y="52.075757"/>
     <use style="fill:#c76a6a;fill-opacity:0.75;stroke:#efefef;stroke-opacity:0.75;stroke-width:0.75;" x="168.278639" xlink:href="#md41ee24c04" y="51.980133"/>
     <use style="fill:#c76a6a;fill-opacity:0.75;stroke:#efefef;stroke-opacity:0.75;stroke-width:0.75;" x="167.133339" xlink:href="#md41ee24c04" y="60.669467"/>
    </g>
   </g>
   <g id="line2d_26">
    <defs>
     <path d="M 0 2.5 
C 0.663008 2.5 1.29895 2.236584 1.767767 1.767767 
C 2.236584 1.29895 2.5 0.663008 2.5 0 
C 2.5 -0.663008 2.236584 -1.29895 1.767767 -1.767767 
C 1.29895 -2.236584 0.663008 -2.5 0 -2.5 
C -0.663008 -2.5 -1.29895 -2.236584 -1.767767 -1.767767 
C -2.236584 -1.29895 -2.5 -0.663008 -2.5 0 
C -2.5 0.663008 -2.236584 1.29895 -1.767767 1.767767 
C -1.29895 2.236584 -0.663008 2.5 0 2.5 
z
" id="mf01728f60f" style="stroke:#efefef;stroke-opacity:0.75;stroke-width:0.75;"/>
    </defs>
    <g clip-path="url(#p19cb4c89dd)">
     <use style="fill:#7e59a2;fill-opacity:0.75;stroke:#efefef;stroke-opacity:0.75;stroke-width:0.75;" x="201.740982" xlink:href="#mf01728f60f" y="24.60133"/>
     <use style="fill:#7e59a2;fill-opacity:0.75;stroke:#efefef;stroke-opacity:0.75;stroke-width:0.75;" x="201.783473" xlink:href="#mf01728f60f" y="22.716161"/>
     <use style="fill:#7e59a2;fill-opacity:0.75;stroke:#efefef;stroke-opacity:0.75;stroke-width:0.75;" x="209.360674" xlink:href="#mf01728f60f" y="22.384394"/>
     <use style="fill:#7e59a2;fill-opacity:0.75;stroke:#efefef;stroke-opacity:0.75;stroke-width:0.75;" x="202.879673" xlink:href="#mf01728f60f" y="21.443699"/>
     <use style="fill:#7e59a2;fill-opacity:0.75;stroke:#efefef;stroke-opacity:0.75;stroke-width:0.75;" x="200.471288" xlink:href="#mf01728f60f" y="27.822278"/>
     <use style="fill:#7e59a2;fill-opacity:0.75;stroke:#efefef;stroke-opacity:0.75;stroke-width:0.75;" x="206.384128" xlink:href="#mf01728f60f" y="30.40574"/>
     <use style="fill:#7e59a2;fill-opacity:0.75;stroke:#efefef;stroke-opacity:0.75;stroke-width:0.75;" x="203.497582" xlink:href="#mf01728f60f" y="14.537577"/>
     <use style="fill:#7e59a2;fill-opacity:0.75;stroke:#efefef;stroke-opacity:0.75;stroke-width:0.75;" x="205.298202" xlink:href="#mf01728f60f" y="25.868163"/>
     <use style="fill:#7e59a2;fill-opacity:0.75;stroke:#efefef;stroke-opacity:0.75;stroke-width:0.75;" x="207.345693" xlink:href="#mf01728f60f" y="22.046043"/>
    </g>
   </g>
   <g id="patch_3">
    <path d="M 38.94375 118.92 
L 38.94375 10.2 
" style="fill:none;stroke:#444147;stroke-linecap:square;stroke-linejoin:miter;stroke-width:0.25;"/>
   </g>
   <g id="patch_4">
    <path d="M 40.94375 120.92 
L 222.29375 120.92 
" style="fill:none;stroke:#444147;stroke-linecap:square;stroke-linejoin:miter;stroke-width:0.25;"/>
   </g>
  </g>
 </g>
 <defs>
  <clipPath id="p19cb4c89dd">
   <rect height="108.72" width="181.35" x="40.94375" y="10.2"/>
  </clipPath>
 </defs>
</svg>
