<?xml version="1.0" encoding="utf-8" standalone="no"?>
<!DOCTYPE svg PUBLIC "-//W3C//DTD SVG 1.1//EN"
  "http://www.w3.org/Graphics/SVG/1.1/DTD/svg11.dtd">
<!-- Created with matplotlib (https://matplotlib.org/) -->
<svg height="174.183562pt" version="1.1" viewBox="0 0 172.603125 174.183562" width="172.603125pt" xmlns="http://www.w3.org/2000/svg" xmlns:xlink="http://www.w3.org/1999/xlink">
 <defs>
  <style type="text/css">
*{stroke-linecap:butt;stroke-linejoin:round;}
  </style>
 </defs>
 <g id="figure_1">
  <g id="patch_1">
   <path d="M -0 174.183562 
L 172.603125 174.183562 
L 172.603125 0 
L -0 0 
z
" style="fill:#ffffff;"/>
  </g>
  <g id="axes_1">
   <g id="patch_2">
    <path d="M 35.037813 141.272 
L 139.005313 141.272 
L 139.005313 10.2 
L 35.037813 10.2 
z
" style="fill:#efefef;"/>
   </g>
   <g id="matplotlib.axis_1">
    <g id="xtick_1">
     <g id="line2d_1">
      <defs>
       <path d="M 0 0 
L 0 3 
" id="mf17737f4bd" style="stroke:#444147;stroke-width:0.25;"/>
      </defs>
      <g>
       <use style="fill:#444147;stroke:#444147;stroke-width:0.25;" x="37.980289" xlink:href="#mf17737f4bd" y="141.272"/>
      </g>
     </g>
     <g id="text_1">
      <!-- $\mathdefault{10^{-1}}$ -->
      <defs>
       <path d="M 23.59375 0 
L 32.09375 0 
L 32.09375 65 
L 24.59375 65 
L 10.40625 57.40625 
L 12.09375 50.703125 
L 23.40625 56.796875 
L 23.59375 56.796875 
z
" id="MyriadPro-Regular-49"/>
       <path d="M 26.296875 66.09375 
C 13.09375 66.09375 3.59375 54.203125 3.59375 32.296875 
C 3.796875 10.796875 12.5 -1.09375 25.203125 -1.09375 
C 39.5 -1.09375 47.796875 11.09375 47.796875 33.203125 
C 47.796875 53.90625 39.90625 66.09375 26.296875 66.09375 
z
M 25.703125 59.296875 
C 34.90625 59.296875 38.90625 48.796875 38.90625 32.796875 
C 38.90625 16.203125 34.59375 5.703125 25.703125 5.703125 
C 17.703125 5.703125 12.5 15.296875 12.5 32.203125 
C 12.5 49.90625 18.09375 59.296875 25.703125 59.296875 
z
" id="MyriadPro-Regular-48"/>
       <path d="M 4 29.703125 
L 4 23.703125 
L 55.59375 23.703125 
L 55.59375 29.703125 
z
" id="MyriadPro-Regular-8722"/>
      </defs>
      <g style="fill:#444147;" transform="translate(32.460289 154.532)scale(0.06 -0.06)">
       <use transform="translate(0 0.615625)" xlink:href="#MyriadPro-Regular-49"/>
       <use transform="translate(51.299988 0.615625)" xlink:href="#MyriadPro-Regular-48"/>
       <use transform="translate(103.447085 34.5)scale(0.7)" xlink:href="#MyriadPro-Regular-8722"/>
       <use transform="translate(145.167079 34.5)scale(0.7)" xlink:href="#MyriadPro-Regular-49"/>
      </g>
     </g>
    </g>
    <g id="xtick_2">
     <g id="line2d_2">
      <g>
       <use style="fill:#444147;stroke:#444147;stroke-width:0.25;" x="87.021563" xlink:href="#mf17737f4bd" y="141.272"/>
      </g>
     </g>
     <g id="text_2">
      <!-- $\mathdefault{10^{0}}$ -->
      <g style="fill:#444147;" transform="translate(82.761563 154.532)scale(0.06 -0.06)">
       <use transform="translate(0 0.85)" xlink:href="#MyriadPro-Regular-49"/>
       <use transform="translate(51.299988 0.85)" xlink:href="#MyriadPro-Regular-48"/>
       <use transform="translate(103.447085 34.734375)scale(0.7)" xlink:href="#MyriadPro-Regular-48"/>
      </g>
     </g>
    </g>
    <g id="xtick_3">
     <g id="line2d_3">
      <g>
       <use style="fill:#444147;stroke:#444147;stroke-width:0.25;" x="136.062836" xlink:href="#mf17737f4bd" y="141.272"/>
      </g>
     </g>
     <g id="text_3">
      <!-- $\mathdefault{10^{1}}$ -->
      <g style="fill:#444147;" transform="translate(131.802836 154.532)scale(0.06 -0.06)">
       <use transform="translate(0 0.615625)" xlink:href="#MyriadPro-Regular-49"/>
       <use transform="translate(51.299988 0.615625)" xlink:href="#MyriadPro-Regular-48"/>
       <use transform="translate(103.447085 34.5)scale(0.7)" xlink:href="#MyriadPro-Regular-49"/>
      </g>
     </g>
    </g>
    <g id="xtick_4">
     <g id="line2d_4"/>
    </g>
    <g id="xtick_5">
     <g id="line2d_5"/>
    </g>
    <g id="xtick_6">
     <g id="line2d_6"/>
    </g>
    <g id="xtick_7">
     <g id="line2d_7"/>
    </g>
    <g id="xtick_8">
     <g id="line2d_8"/>
    </g>
    <g id="xtick_9">
     <g id="line2d_9"/>
    </g>
    <g id="xtick_10">
     <g id="line2d_10"/>
    </g>
    <g id="xtick_11">
     <g id="line2d_11"/>
    </g>
    <g id="xtick_12">
     <g id="line2d_12"/>
    </g>
    <g id="xtick_13">
     <g id="line2d_13"/>
    </g>
    <g id="xtick_14">
     <g id="line2d_14"/>
    </g>
    <g id="xtick_15">
     <g id="line2d_15"/>
    </g>
    <g id="xtick_16">
     <g id="line2d_16"/>
    </g>
    <g id="xtick_17">
     <g id="line2d_17"/>
    </g>
    <g id="xtick_18">
     <g id="line2d_18"/>
    </g>
    <g id="xtick_19">
     <g id="line2d_19"/>
    </g>
    <g id="xtick_20">
     <g id="line2d_20"/>
    </g>
    <g id="text_4">
     <!-- ATC [ng / mL] -->
     <defs>
      <path d="M 42.40625 21.203125 
L 49.59375 0 
L 58.90625 0 
L 35.90625 67.40625 
L 25.5 67.40625 
L 2.5 0 
L 11.5 0 
L 18.5 21.203125 
z
M 20.296875 28 
L 26.90625 47.5 
C 28.296875 51.59375 29.296875 55.796875 30.296875 59.703125 
L 30.5 59.703125 
C 31.5 55.796875 32.5 51.796875 34 47.40625 
L 40.703125 28 
z
" id="MyriadPro-Regular-65"/>
      <path d="M 20.40625 0 
L 29.203125 0 
L 29.203125 60 
L 49.796875 60 
L 49.796875 67.40625 
L -0.09375 67.40625 
L -0.09375 60 
L 20.40625 60 
z
" id="MyriadPro-Regular-84"/>
      <path d="M 52.90625 9.09375 
C 49.40625 7.40625 44 6.296875 38.59375 6.296875 
C 22.296875 6.296875 12.796875 16.796875 12.796875 33.40625 
C 12.796875 51.09375 23.296875 61.203125 39.09375 61.203125 
C 44.703125 61.203125 49.40625 60 52.59375 58.40625 
L 54.796875 65.5 
C 52.5 66.703125 47.09375 68.5 38.796875 68.5 
C 17.90625 68.5 3.59375 54.296875 3.59375 33.09375 
C 3.59375 10.90625 17.796875 -1.09375 36.796875 -1.09375 
C 45 -1.09375 51.5 0.5 54.59375 2.09375 
z
" id="MyriadPro-Regular-67"/>
      <path id="MyriadPro-Regular-32"/>
      <path d="M 26.40625 -11.203125 
L 26.40625 -5.703125 
L 15 -5.703125 
L 15 63.09375 
L 26.40625 63.09375 
L 26.40625 68.59375 
L 8.09375 68.59375 
L 8.09375 -11.203125 
z
" id="MyriadPro-Regular-91"/>
      <path d="M 7.296875 0 
L 16.09375 0 
L 16.09375 29.09375 
C 16.09375 30.59375 16.296875 32.09375 16.703125 33.203125 
C 18.296875 38.09375 22.796875 42.203125 28.5 42.203125 
C 36.796875 42.203125 39.703125 35.703125 39.703125 27.90625 
L 39.703125 0 
L 48.5 0 
L 48.5 28.796875 
C 48.5 45.40625 38.09375 49.40625 31.40625 49.40625 
C 23.40625 49.40625 17.796875 44.90625 15.40625 40.40625 
L 15.203125 40.40625 
L 14.703125 48.40625 
L 6.90625 48.40625 
C 7.203125 44.40625 7.296875 40.40625 7.296875 35.296875 
z
" id="MyriadPro-Regular-110"/>
      <path d="M 48.703125 35.203125 
C 48.703125 41 48.796875 45 49.09375 48.40625 
L 41.296875 48.40625 
L 41 41.09375 
L 40.796875 41.09375 
C 38.59375 45.09375 34.09375 49.40625 25.703125 49.40625 
C 14.5 49.40625 3.796875 40.203125 3.796875 23.796875 
C 3.796875 10.40625 12.40625 0.203125 24.40625 0.203125 
C 31.90625 0.203125 37.203125 3.796875 39.796875 8.296875 
L 40 8.296875 
L 40 3 
C 40 -9.296875 33.40625 -14 24.40625 -14 
C 18.40625 -14 13.40625 -12.203125 10.203125 -10.09375 
L 8 -16.90625 
C 11.90625 -19.5 18.296875 -20.90625 24.09375 -20.90625 
C 30.203125 -20.90625 37 -19.40625 41.796875 -15.09375 
C 46.40625 -10.796875 48.703125 -4.09375 48.703125 7.09375 
z
M 39.90625 20.59375 
C 39.90625 19.09375 39.703125 17.40625 39.203125 15.90625 
C 37.40625 10.296875 32.5 6.90625 27 6.90625 
C 17.59375 6.90625 12.703125 14.796875 12.703125 24.296875 
C 12.703125 35.5 18.703125 42.59375 27.09375 42.59375 
C 33.59375 42.59375 37.796875 38.40625 39.40625 33.203125 
C 39.796875 32.09375 39.90625 30.796875 39.90625 29.296875 
z
" id="MyriadPro-Regular-103"/>
      <path d="M 6.59375 -3.90625 
L 34.59375 68.59375 
L 27.703125 68.59375 
L -0.09375 -3.90625 
z
" id="MyriadPro-Regular-47"/>
      <path d="M 7.296875 0 
L 15.90625 0 
L 15.90625 29.09375 
C 15.90625 30.59375 16.09375 32.203125 16.59375 33.40625 
C 18 37.796875 22.09375 42.203125 27.5 42.203125 
C 34.203125 42.203125 37.59375 36.703125 37.59375 29 
L 37.59375 0 
L 46.203125 0 
L 46.203125 29.90625 
C 46.203125 31.5 46.5 33 46.90625 34.296875 
C 48.5 38.5 52.296875 42.203125 57.40625 42.203125 
C 64.40625 42.203125 67.90625 36.703125 67.90625 27.296875 
L 67.90625 0 
L 76.5 0 
L 76.5 28.40625 
C 76.5 45.203125 67 49.40625 60.5 49.40625 
C 55.90625 49.40625 52.796875 48.203125 49.90625 46 
C 47.90625 44.5 45.90625 42.5 44.40625 39.703125 
L 44.203125 39.703125 
C 42.09375 45.40625 37.09375 49.40625 30.59375 49.40625 
C 22.5 49.40625 18 45.09375 15.296875 40.5 
L 15 40.5 
L 14.59375 48.40625 
L 6.90625 48.40625 
C 7.09375 44.40625 7.296875 40.40625 7.296875 35.296875 
z
" id="MyriadPro-Regular-109"/>
      <path d="M 7.5 0 
L 45.09375 0 
L 45.09375 7.296875 
L 16.296875 7.296875 
L 16.296875 67.40625 
L 7.5 67.40625 
z
" id="MyriadPro-Regular-76"/>
      <path d="M 2 68.59375 
L 2 63.09375 
L 13.40625 63.09375 
L 13.40625 -5.703125 
L 2 -5.703125 
L 2 -11.203125 
L 20.296875 -11.203125 
L 20.296875 68.59375 
z
" id="MyriadPro-Regular-93"/>
     </defs>
     <g style="fill:#444147;" transform="translate(64.395938 165.311062)scale(0.08 -0.08)">
      <use xlink:href="#MyriadPro-Regular-65"/>
      <use x="61.199997" xlink:href="#MyriadPro-Regular-84"/>
      <use x="110.899994" xlink:href="#MyriadPro-Regular-67"/>
      <use x="168.899979" xlink:href="#MyriadPro-Regular-32"/>
      <use x="190.099976" xlink:href="#MyriadPro-Regular-91"/>
      <use x="218.499969" xlink:href="#MyriadPro-Regular-110"/>
      <use x="273.999954" xlink:href="#MyriadPro-Regular-103"/>
      <use x="329.899948" xlink:href="#MyriadPro-Regular-32"/>
      <use x="351.099945" xlink:href="#MyriadPro-Regular-47"/>
      <use x="385.399933" xlink:href="#MyriadPro-Regular-32"/>
      <use x="406.59993" xlink:href="#MyriadPro-Regular-109"/>
      <use x="489.999924" xlink:href="#MyriadPro-Regular-76"/>
      <use x="537.199921" xlink:href="#MyriadPro-Regular-93"/>
     </g>
    </g>
   </g>
   <g id="matplotlib.axis_2">
    <g id="ytick_1">
     <g id="line2d_21">
      <defs>
       <path d="M 0 0 
L -3 0 
" id="mc4c875bf70" style="stroke:#444147;stroke-width:0.25;"/>
      </defs>
      <g>
       <use style="fill:#444147;stroke:#444147;stroke-width:0.25;" x="35.037813" xlink:href="#mc4c875bf70" y="119.018369"/>
      </g>
     </g>
     <g id="text_5">
      <!-- 0.2 -->
      <defs>
       <path d="M 11 -1.09375 
C 14.703125 -1.09375 17.09375 1.59375 17.09375 5.203125 
C 17.09375 8.90625 14.703125 11.5 11.203125 11.5 
C 7.703125 11.5 5.203125 8.796875 5.203125 5.203125 
C 5.203125 1.59375 7.59375 -1.09375 11 -1.09375 
z
" id="MyriadPro-Regular-46"/>
       <path d="M 46 0 
L 46 7.296875 
L 16.90625 7.296875 
L 16.90625 7.5 
L 22 12.296875 
C 35.703125 25.5 44.40625 35.203125 44.40625 47.203125 
C 44.40625 56.5 38.5 66.09375 24.5 66.09375 
C 17.09375 66.09375 10.59375 63.203125 6.203125 59.5 
L 9 53.296875 
C 12 55.796875 16.90625 58.796875 22.796875 58.796875 
C 32.5 58.796875 35.59375 52.703125 35.59375 46.09375 
C 35.59375 36.296875 28 27.90625 11.40625 12.09375 
L 4.5 5.40625 
L 4.5 0 
z
" id="MyriadPro-Regular-50"/>
      </defs>
      <g style="fill:#f38227;" transform="translate(18.64 121.148369)scale(0.06 -0.06)">
       <use xlink:href="#MyriadPro-Regular-48"/>
       <use x="51.299988" xlink:href="#MyriadPro-Regular-46"/>
       <use x="71.999985" xlink:href="#MyriadPro-Regular-50"/>
      </g>
     </g>
    </g>
    <g id="ytick_2">
     <g id="line2d_22">
      <g>
       <use style="fill:#444147;stroke:#444147;stroke-width:0.25;" x="35.037813" xlink:href="#mc4c875bf70" y="97.254695"/>
      </g>
     </g>
     <g id="text_6">
      <!-- 0.4 -->
      <defs>
       <path d="M 40 0 
L 40 17.796875 
L 49.09375 17.796875 
L 49.09375 24.59375 
L 40 24.59375 
L 40 65 
L 30.5 65 
L 1.5 23.5 
L 1.5 17.796875 
L 31.703125 17.796875 
L 31.703125 0 
z
M 10.40625 24.59375 
L 10.40625 24.796875 
L 26.296875 46.90625 
C 28.09375 49.90625 29.703125 52.703125 31.703125 56.5 
L 32 56.5 
C 31.796875 53.09375 31.703125 49.703125 31.703125 46.296875 
L 31.703125 24.59375 
z
" id="MyriadPro-Regular-52"/>
      </defs>
      <g style="fill:#f38227;" transform="translate(18.64 99.384695)scale(0.06 -0.06)">
       <use xlink:href="#MyriadPro-Regular-48"/>
       <use x="51.299988" xlink:href="#MyriadPro-Regular-46"/>
       <use x="71.999985" xlink:href="#MyriadPro-Regular-52"/>
      </g>
     </g>
    </g>
    <g id="ytick_3">
     <g id="line2d_23">
      <g>
       <use style="fill:#444147;stroke:#444147;stroke-width:0.25;" x="35.037813" xlink:href="#mc4c875bf70" y="75.491022"/>
      </g>
     </g>
     <g id="text_7">
      <!-- 0.6 -->
      <defs>
       <path d="M 41.59375 66 
C 40 66 37.796875 65.90625 35.203125 65.5 
C 27 64.5 19.796875 61.203125 14.40625 55.90625 
C 7.90625 49.5 3.40625 39.40625 3.40625 26.59375 
C 3.40625 9.703125 12.5 -1.09375 26.296875 -1.09375 
C 39.90625 -1.09375 48 9.90625 48 21.90625 
C 48 34.5 39.90625 42.90625 28.40625 42.90625 
C 21.203125 42.90625 15.703125 39.5 12.59375 35.296875 
L 12.40625 35.296875 
C 13.90625 46.09375 21.09375 56.09375 35 58.296875 
C 37.5 58.703125 39.796875 58.90625 41.59375 58.796875 
z
M 26.5 5.703125 
C 17.203125 5.703125 12.203125 13.703125 12.09375 24.40625 
C 12.09375 26 12.5 27.203125 13 28.203125 
C 15.40625 33 20.40625 36.203125 25.703125 36.203125 
C 33.796875 36.203125 39.09375 30.59375 39.09375 21.296875 
C 39.09375 12 34 5.703125 26.5 5.703125 
z
" id="MyriadPro-Regular-54"/>
      </defs>
      <g style="fill:#f38227;" transform="translate(18.64 77.621022)scale(0.06 -0.06)">
       <use xlink:href="#MyriadPro-Regular-48"/>
       <use x="51.299988" xlink:href="#MyriadPro-Regular-46"/>
       <use x="71.999985" xlink:href="#MyriadPro-Regular-54"/>
      </g>
     </g>
    </g>
    <g id="ytick_4">
     <g id="line2d_24">
      <g>
       <use style="fill:#444147;stroke:#444147;stroke-width:0.25;" x="35.037813" xlink:href="#mc4c875bf70" y="53.727348"/>
      </g>
     </g>
     <g id="text_8">
      <!-- 0.8 -->
      <defs>
       <path d="M 16.59375 33.90625 
C 8.59375 30.5 3.703125 24.59375 3.703125 16.40625 
C 3.703125 6.90625 11.90625 -1.09375 25.5 -1.09375 
C 37.90625 -1.09375 47.59375 6.40625 47.59375 17.796875 
C 47.59375 25.59375 42.59375 31.40625 34.5 34.59375 
L 34.5 34.90625 
C 42.5 38.59375 45.296875 44.59375 45.296875 50.09375 
C 45.296875 58.296875 38.90625 66.09375 26.296875 66.09375 
C 14.796875 66.09375 6.09375 59.09375 6.09375 48.796875 
C 6.09375 43.203125 9.203125 37.59375 16.5 34.203125 
z
M 25.703125 5.296875 
C 17.40625 5.296875 12.40625 11.09375 12.703125 17.59375 
C 12.703125 23.796875 16.796875 28.90625 24.40625 31.09375 
C 33.203125 28.59375 38.703125 24.703125 38.703125 16.90625 
C 38.703125 10.203125 33.59375 5.296875 25.703125 5.296875 
z
M 25.796875 59.796875 
C 33.703125 59.796875 36.796875 54.40625 36.796875 49.203125 
C 36.796875 43.296875 32.5 39.296875 26.90625 37.40625 
C 19.40625 39.40625 14.40625 42.90625 14.5 49.40625 
C 14.5 55 18.5 59.796875 25.796875 59.796875 
z
" id="MyriadPro-Regular-56"/>
      </defs>
      <g style="fill:#f38227;" transform="translate(18.64 55.857348)scale(0.06 -0.06)">
       <use xlink:href="#MyriadPro-Regular-48"/>
       <use x="51.299988" xlink:href="#MyriadPro-Regular-46"/>
       <use x="71.999985" xlink:href="#MyriadPro-Regular-56"/>
      </g>
     </g>
    </g>
    <g id="ytick_5">
     <g id="line2d_25">
      <g>
       <use style="fill:#444147;stroke:#444147;stroke-width:0.25;" x="35.037813" xlink:href="#mc4c875bf70" y="31.963674"/>
      </g>
     </g>
     <g id="text_9">
      <!-- 1.0 -->
      <g style="fill:#f38227;" transform="translate(18.64 34.093674)scale(0.06 -0.06)">
       <use xlink:href="#MyriadPro-Regular-49"/>
       <use x="51.299988" xlink:href="#MyriadPro-Regular-46"/>
       <use x="71.999985" xlink:href="#MyriadPro-Regular-48"/>
      </g>
     </g>
    </g>
    <g id="text_10">
     <!-- relative YFP intensity -->
     <defs>
      <path d="M 7.296875 0 
L 16.09375 0 
L 16.09375 25.796875 
C 16.09375 27.203125 16.203125 28.703125 16.40625 29.90625 
C 17.59375 36.5 22 41.09375 28.203125 41.09375 
C 29.40625 41.09375 30.296875 41.09375 31.203125 40.90625 
L 31.203125 49.203125 
C 30.40625 49.296875 29.703125 49.40625 28.796875 49.40625 
C 22.90625 49.40625 17.5 45.296875 15.296875 38.796875 
L 15 38.796875 
L 14.59375 48.40625 
L 6.90625 48.40625 
C 7.203125 43.90625 7.296875 39 7.296875 33.296875 
z
" id="MyriadPro-Regular-114"/>
      <path d="M 46.203125 22.59375 
C 46.40625 23.59375 46.5 24.90625 46.5 26.703125 
C 46.5 35.59375 42.40625 49.40625 26.5 49.40625 
C 12.40625 49.40625 3.796875 38 3.796875 23.40625 
C 3.796875 8.796875 12.703125 -1.09375 27.59375 -1.09375 
C 35.296875 -1.09375 40.703125 0.59375 43.796875 2 
L 42.203125 8.296875 
C 39 6.90625 35.09375 5.796875 28.796875 5.796875 
C 19.90625 5.796875 12.40625 10.703125 12.203125 22.59375 
z
M 12.296875 28.90625 
C 13 35 16.796875 43.09375 25.796875 43.09375 
C 35.703125 43.09375 38.09375 34.40625 38 28.90625 
z
" id="MyriadPro-Regular-101"/>
      <path d="M 7.296875 0 
L 16.09375 0 
L 16.09375 71 
L 7.296875 71 
z
" id="MyriadPro-Regular-108"/>
      <path d="M 41.296875 29.703125 
C 41.296875 39.296875 37.703125 49.40625 22.90625 49.40625 
C 16.796875 49.40625 10.90625 47.703125 6.90625 45.203125 
L 8.90625 39.296875 
C 12.296875 41.59375 17 42.90625 21.59375 42.90625 
C 31.5 43 32.59375 35.703125 32.59375 31.796875 
L 32.59375 30.796875 
C 13.90625 30.90625 3.5 24.5 3.5 12.796875 
C 3.5 5.796875 8.5 -1.09375 18.296875 -1.09375 
C 25.203125 -1.09375 30.40625 2.296875 33.09375 6.09375 
L 33.40625 6.09375 
L 34.09375 0 
L 42 0 
C 41.5 3.296875 41.296875 7.40625 41.296875 11.59375 
z
M 32.796875 16.296875 
C 32.796875 15.5 32.703125 14.5 32.40625 13.5 
C 31 9.40625 26.90625 5.40625 20.5 5.40625 
C 16.09375 5.40625 12.296875 8 12.296875 13.796875 
C 12.296875 23.203125 23.203125 24.90625 32.796875 24.703125 
z
" id="MyriadPro-Regular-97"/>
      <path d="M 9.296875 57.40625 
L 9.296875 48.40625 
L 1.796875 48.40625 
L 1.796875 41.703125 
L 9.296875 41.703125 
L 9.296875 15.296875 
C 9.296875 9.59375 10.296875 5.296875 12.703125 2.59375 
C 14.796875 0.296875 18.09375 -1.09375 22.203125 -1.09375 
C 25.59375 -1.09375 28.296875 -0.5 30 0.09375 
L 29.59375 6.796875 
C 28.296875 6.40625 26.90625 6.203125 24.5 6.203125 
C 19.59375 6.203125 17.90625 9.59375 17.90625 15.59375 
L 17.90625 41.703125 
L 30.5 41.703125 
L 30.5 48.40625 
L 17.90625 48.40625 
L 17.90625 60 
z
" id="MyriadPro-Regular-116"/>
      <path d="M 16.09375 0 
L 16.09375 48.40625 
L 7.296875 48.40625 
L 7.296875 0 
z
M 11.703125 67.5 
C 8.40625 67.5 6.203125 65 6.203125 62 
C 6.203125 59 8.296875 56.59375 11.5 56.59375 
C 15 56.59375 17.09375 59 17.09375 62 
C 17.09375 65.09375 14.90625 67.5 11.703125 67.5 
z
" id="MyriadPro-Regular-105"/>
      <path d="M 1.296875 48.40625 
L 19.703125 0 
L 28.09375 0 
L 47.09375 48.40625 
L 37.90625 48.40625 
L 28.5 21.296875 
C 26.90625 16.796875 25.5 12.796875 24.40625 8.796875 
L 24.09375 8.796875 
C 23.09375 12.796875 21.796875 16.796875 20.203125 21.296875 
L 10.703125 48.40625 
z
" id="MyriadPro-Regular-118"/>
      <path d="M 31.40625 0 
L 31.40625 28.703125 
L 53.90625 67.40625 
L 44.09375 67.40625 
L 34.40625 48.796875 
C 31.796875 43.703125 29.40625 39.296875 27.59375 34.90625 
L 27.40625 34.90625 
C 25.296875 39.59375 23.203125 43.703125 20.703125 48.796875 
L 11.203125 67.40625 
L 1.203125 67.40625 
L 22.59375 28.59375 
L 22.59375 0 
z
" id="MyriadPro-Regular-89"/>
      <path d="M 7.5 0 
L 16.296875 0 
L 16.296875 30.5 
L 41.703125 30.5 
L 41.703125 37.703125 
L 16.296875 37.703125 
L 16.296875 60.09375 
L 43.796875 60.09375 
L 43.796875 67.40625 
L 7.5 67.40625 
z
" id="MyriadPro-Regular-70"/>
      <path d="M 7.59375 0 
L 16.296875 0 
L 16.296875 27 
C 18.296875 26.5 20.703125 26.40625 23.296875 26.40625 
C 31.796875 26.40625 39.203125 28.90625 43.90625 33.796875 
C 47.296875 37.296875 49.09375 42.09375 49.09375 48.203125 
C 49.09375 54.203125 46.796875 59.09375 43.203125 62.296875 
C 39.203125 65.90625 32.90625 67.90625 24.296875 67.90625 
C 17.296875 67.90625 11.796875 67.296875 7.59375 66.59375 
z
M 16.296875 60.296875 
C 17.796875 60.703125 20.703125 61 24.5 61 
C 34 61 40.40625 56.703125 40.40625 47.703125 
C 40.40625 38.59375 34 33.40625 23.5 33.40625 
C 20.59375 33.40625 18.203125 33.59375 16.296875 34.09375 
z
" id="MyriadPro-Regular-80"/>
      <path d="M 4 2.296875 
C 7.40625 0.296875 12.296875 -1.09375 17.59375 -1.09375 
C 28.90625 -1.09375 35.59375 4.90625 35.59375 13.5 
C 35.59375 20.703125 31.203125 24.90625 22.90625 28 
C 16.59375 30.5 13.796875 32.296875 13.796875 36.296875 
C 13.796875 39.90625 16.59375 42.90625 21.796875 42.90625 
C 26.296875 42.90625 29.796875 41.203125 31.703125 40 
L 33.796875 46.40625 
C 31.203125 48.09375 26.90625 49.40625 22 49.40625 
C 11.703125 49.40625 5.296875 43 5.296875 35.203125 
C 5.296875 29.40625 9.40625 24.703125 18.203125 21.5 
C 24.59375 19.09375 27.09375 16.90625 27.09375 12.703125 
C 27.09375 8.59375 24.09375 5.5 17.796875 5.5 
C 13.40625 5.5 8.796875 7.296875 6.09375 8.90625 
z
" id="MyriadPro-Regular-115"/>
      <path d="M 0.90625 48.40625 
L 18.703125 3.796875 
C 19.203125 2.703125 19.40625 2 19.40625 1.5 
C 19.40625 1 19.09375 0.296875 18.703125 -0.59375 
C 16.59375 -5.09375 13.703125 -8.5 11.296875 -10.40625 
C 8.703125 -12.59375 5.796875 -14 3.59375 -14.703125 
L 5.796875 -22 
C 8 -21.59375 12.203125 -20.09375 16.59375 -16.40625 
C 22.59375 -11.09375 26.90625 -2.703125 33.203125 13.90625 
L 46.40625 48.40625 
L 37.09375 48.40625 
L 27.5 20 
C 26.296875 16.5 25.296875 12.796875 24.40625 9.90625 
L 24.203125 9.90625 
C 23.40625 12.796875 22.203125 16.59375 21 19.796875 
L 10.5 48.40625 
z
" id="MyriadPro-Regular-121"/>
     </defs>
     <g style="fill:#f38227;" transform="translate(12.88 110.47475)rotate(-90)scale(0.08 -0.08)">
      <use xlink:href="#MyriadPro-Regular-114"/>
      <use x="32.699997" xlink:href="#MyriadPro-Regular-101"/>
      <use x="82.799988" xlink:href="#MyriadPro-Regular-108"/>
      <use x="106.399979" xlink:href="#MyriadPro-Regular-97"/>
      <use x="154.599976" xlink:href="#MyriadPro-Regular-116"/>
      <use x="187.699966" xlink:href="#MyriadPro-Regular-105"/>
      <use x="211.09996" xlink:href="#MyriadPro-Regular-118"/>
      <use x="259.199951" xlink:href="#MyriadPro-Regular-101"/>
      <use x="309.299942" xlink:href="#MyriadPro-Regular-32"/>
      <use x="330.499939" xlink:href="#MyriadPro-Regular-89"/>
      <use x="384.59993" xlink:href="#MyriadPro-Regular-70"/>
      <use x="433.299927" xlink:href="#MyriadPro-Regular-80"/>
      <use x="486.499924" xlink:href="#MyriadPro-Regular-32"/>
      <use x="507.699921" xlink:href="#MyriadPro-Regular-105"/>
      <use x="531.099915" xlink:href="#MyriadPro-Regular-110"/>
      <use x="586.599899" xlink:href="#MyriadPro-Regular-116"/>
      <use x="619.69989" xlink:href="#MyriadPro-Regular-101"/>
      <use x="669.799881" xlink:href="#MyriadPro-Regular-110"/>
      <use x="725.299866" xlink:href="#MyriadPro-Regular-115"/>
      <use x="764.899857" xlink:href="#MyriadPro-Regular-105"/>
      <use x="788.29985" xlink:href="#MyriadPro-Regular-116"/>
      <use x="821.399841" xlink:href="#MyriadPro-Regular-121"/>
     </g>
    </g>
   </g>
   <g id="LineCollection_1">
    <path clip-path="url(#p1700d35f05)" d="M 37.980289 41.00631 
L 37.980289 28.6289 
" style="fill:none;stroke:#e39943;stroke-width:0.75;"/>
    <path clip-path="url(#p1700d35f05)" d="M 52.743183 73.335858 
L 52.743183 65.1071 
" style="fill:none;stroke:#e39943;stroke-width:0.75;"/>
    <path clip-path="url(#p1700d35f05)" d="M 61.378923 105.493204 
L 61.378923 94.075545 
" style="fill:none;stroke:#e39943;stroke-width:0.75;"/>
    <path clip-path="url(#p1700d35f05)" d="M 67.506078 116.642758 
L 67.506078 97.347567 
" style="fill:none;stroke:#e39943;stroke-width:0.75;"/>
    <path clip-path="url(#p1700d35f05)" d="M 79.424973 131.429292 
L 79.424973 127.705406 
" style="fill:none;stroke:#e39943;stroke-width:0.75;"/>
    <path clip-path="url(#p1700d35f05)" d="M 87.021563 131.965642 
L 87.021563 127.224949 
" style="fill:none;stroke:#e39943;stroke-width:0.75;"/>
    <path clip-path="url(#p1700d35f05)" d="M 101.784457 135.578444 
L 101.784457 133.432426 
" style="fill:none;stroke:#e39943;stroke-width:0.75;"/>
    <path clip-path="url(#p1700d35f05)" d="M 110.420196 137.133237 
L 110.420196 136.540346 
" style="fill:none;stroke:#e39943;stroke-width:0.75;"/>
    <path clip-path="url(#p1700d35f05)" d="M 116.547351 137.366502 
L 116.547351 136.916939 
" style="fill:none;stroke:#e39943;stroke-width:0.75;"/>
    <path clip-path="url(#p1700d35f05)" d="M 128.466247 137.991133 
L 128.466247 136.906821 
" style="fill:none;stroke:#e39943;stroke-width:0.75;"/>
    <path clip-path="url(#p1700d35f05)" d="M 136.062836 137.783419 
L 136.062836 136.868331 
" style="fill:none;stroke:#e39943;stroke-width:0.75;"/>
   </g>
   <g id="line2d_26">
    <defs>
     <path d="M 1 0 
L -1 -0 
" id="m44f27f8570" style="stroke:#e39943;stroke-width:0.5;"/>
    </defs>
    <g clip-path="url(#p1700d35f05)">
     <use style="fill:#e39943;stroke:#e39943;stroke-width:0.5;" x="37.980289" xlink:href="#m44f27f8570" y="41.00631"/>
     <use style="fill:#e39943;stroke:#e39943;stroke-width:0.5;" x="52.743183" xlink:href="#m44f27f8570" y="73.335858"/>
     <use style="fill:#e39943;stroke:#e39943;stroke-width:0.5;" x="61.378923" xlink:href="#m44f27f8570" y="105.493204"/>
     <use style="fill:#e39943;stroke:#e39943;stroke-width:0.5;" x="67.506078" xlink:href="#m44f27f8570" y="116.642758"/>
     <use style="fill:#e39943;stroke:#e39943;stroke-width:0.5;" x="79.424973" xlink:href="#m44f27f8570" y="131.429292"/>
     <use style="fill:#e39943;stroke:#e39943;stroke-width:0.5;" x="87.021563" xlink:href="#m44f27f8570" y="131.965642"/>
     <use style="fill:#e39943;stroke:#e39943;stroke-width:0.5;" x="101.784457" xlink:href="#m44f27f8570" y="135.578444"/>
     <use style="fill:#e39943;stroke:#e39943;stroke-width:0.5;" x="110.420196" xlink:href="#m44f27f8570" y="137.133237"/>
     <use style="fill:#e39943;stroke:#e39943;stroke-width:0.5;" x="116.547351" xlink:href="#m44f27f8570" y="137.366502"/>
     <use style="fill:#e39943;stroke:#e39943;stroke-width:0.5;" x="128.466247" xlink:href="#m44f27f8570" y="137.991133"/>
     <use style="fill:#e39943;stroke:#e39943;stroke-width:0.5;" x="136.062836" xlink:href="#m44f27f8570" y="137.783419"/>
    </g>
   </g>
   <g id="line2d_27">
    <g clip-path="url(#p1700d35f05)">
     <use style="fill:#e39943;stroke:#e39943;stroke-width:0.5;" x="37.980289" xlink:href="#m44f27f8570" y="28.6289"/>
     <use style="fill:#e39943;stroke:#e39943;stroke-width:0.5;" x="52.743183" xlink:href="#m44f27f8570" y="65.1071"/>
     <use style="fill:#e39943;stroke:#e39943;stroke-width:0.5;" x="61.378923" xlink:href="#m44f27f8570" y="94.075545"/>
     <use style="fill:#e39943;stroke:#e39943;stroke-width:0.5;" x="67.506078" xlink:href="#m44f27f8570" y="97.347567"/>
     <use style="fill:#e39943;stroke:#e39943;stroke-width:0.5;" x="79.424973" xlink:href="#m44f27f8570" y="127.705406"/>
     <use style="fill:#e39943;stroke:#e39943;stroke-width:0.5;" x="87.021563" xlink:href="#m44f27f8570" y="127.224949"/>
     <use style="fill:#e39943;stroke:#e39943;stroke-width:0.5;" x="101.784457" xlink:href="#m44f27f8570" y="133.432426"/>
     <use style="fill:#e39943;stroke:#e39943;stroke-width:0.5;" x="110.420196" xlink:href="#m44f27f8570" y="136.540346"/>
     <use style="fill:#e39943;stroke:#e39943;stroke-width:0.5;" x="116.547351" xlink:href="#m44f27f8570" y="136.916939"/>
     <use style="fill:#e39943;stroke:#e39943;stroke-width:0.5;" x="128.466247" xlink:href="#m44f27f8570" y="136.906821"/>
     <use style="fill:#e39943;stroke:#e39943;stroke-width:0.5;" x="136.062836" xlink:href="#m44f27f8570" y="136.868331"/>
    </g>
   </g>
   <g id="line2d_28">
    <path clip-path="url(#p1700d35f05)" d="M 37.980289 34.817605 
L 52.743183 69.221479 
L 61.378923 99.784374 
L 67.506078 106.995163 
L 79.424973 129.567349 
L 87.021563 129.595296 
L 101.784457 134.505435 
L 110.420196 136.836791 
L 116.547351 137.141721 
L 128.466247 137.448977 
L 136.062836 137.325875 
" style="fill:none;stroke:#e39943;stroke-linecap:square;stroke-width:0.75;"/>
    <defs>
     <path d="M 0 2.5 
C 0.663008 2.5 1.29895 2.236584 1.767767 1.767767 
C 2.236584 1.29895 2.5 0.663008 2.5 0 
C 2.5 -0.663008 2.236584 -1.29895 1.767767 -1.767767 
C 1.29895 -2.236584 0.663008 -2.5 0 -2.5 
C -0.663008 -2.5 -1.29895 -2.236584 -1.767767 -1.767767 
C -2.236584 -1.29895 -2.5 -0.663008 -2.5 0 
C -2.5 0.663008 -2.236584 1.29895 -1.767767 1.767767 
C -1.29895 2.236584 -0.663008 2.5 0 2.5 
z
" id="mb4928399d2" style="stroke:#efefef;stroke-width:0.5;"/>
    </defs>
    <g clip-path="url(#p1700d35f05)">
     <use style="fill:#e39943;stroke:#efefef;stroke-width:0.5;" x="37.980289" xlink:href="#mb4928399d2" y="34.817605"/>
     <use style="fill:#e39943;stroke:#efefef;stroke-width:0.5;" x="52.743183" xlink:href="#mb4928399d2" y="69.221479"/>
     <use style="fill:#e39943;stroke:#efefef;stroke-width:0.5;" x="61.378923" xlink:href="#mb4928399d2" y="99.784374"/>
     <use style="fill:#e39943;stroke:#efefef;stroke-width:0.5;" x="67.506078" xlink:href="#mb4928399d2" y="106.995163"/>
     <use style="fill:#e39943;stroke:#efefef;stroke-width:0.5;" x="79.424973" xlink:href="#mb4928399d2" y="129.567349"/>
     <use style="fill:#e39943;stroke:#efefef;stroke-width:0.5;" x="87.021563" xlink:href="#mb4928399d2" y="129.595296"/>
     <use style="fill:#e39943;stroke:#efefef;stroke-width:0.5;" x="101.784457" xlink:href="#mb4928399d2" y="134.505435"/>
     <use style="fill:#e39943;stroke:#efefef;stroke-width:0.5;" x="110.420196" xlink:href="#mb4928399d2" y="136.836791"/>
     <use style="fill:#e39943;stroke:#efefef;stroke-width:0.5;" x="116.547351" xlink:href="#mb4928399d2" y="137.141721"/>
     <use style="fill:#e39943;stroke:#efefef;stroke-width:0.5;" x="128.466247" xlink:href="#mb4928399d2" y="137.448977"/>
     <use style="fill:#e39943;stroke:#efefef;stroke-width:0.5;" x="136.062836" xlink:href="#mb4928399d2" y="137.325875"/>
    </g>
   </g>
   <g id="patch_3">
    <path d="M 35.037813 141.272 
L 35.037813 10.2 
" style="fill:none;stroke:#444147;stroke-linecap:square;stroke-linejoin:miter;stroke-width:0.25;"/>
   </g>
   <g id="patch_4">
    <path d="M 35.037813 141.272 
L 139.005313 141.272 
" style="fill:none;stroke:#444147;stroke-linecap:square;stroke-linejoin:miter;stroke-width:0.25;"/>
   </g>
  </g>
  <g id="axes_2">
   <g id="matplotlib.axis_3">
    <g id="ytick_6">
     <g id="line2d_29">
      <defs>
       <path d="M 0 0 
L 3 0 
" id="ma4ac1fa35b" style="stroke:#444147;stroke-width:0.25;"/>
      </defs>
      <g>
       <use style="fill:#444147;stroke:#444147;stroke-width:0.25;" x="139.005313" xlink:href="#ma4ac1fa35b" y="119.248716"/>
      </g>
     </g>
     <g id="text_11">
      <!-- 0.2 -->
      <g style="fill:#9c372f;" transform="translate(148.005313 121.378716)scale(0.06 -0.06)">
       <use xlink:href="#MyriadPro-Regular-48"/>
       <use x="51.299988" xlink:href="#MyriadPro-Regular-46"/>
       <use x="71.999985" xlink:href="#MyriadPro-Regular-50"/>
      </g>
     </g>
    </g>
    <g id="ytick_7">
     <g id="line2d_30">
      <g>
       <use style="fill:#444147;stroke:#444147;stroke-width:0.25;" x="139.005313" xlink:href="#ma4ac1fa35b" y="97.438973"/>
      </g>
     </g>
     <g id="text_12">
      <!-- 0.4 -->
      <g style="fill:#9c372f;" transform="translate(148.005313 99.568973)scale(0.06 -0.06)">
       <use xlink:href="#MyriadPro-Regular-48"/>
       <use x="51.299988" xlink:href="#MyriadPro-Regular-46"/>
       <use x="71.999985" xlink:href="#MyriadPro-Regular-52"/>
      </g>
     </g>
    </g>
    <g id="ytick_8">
     <g id="line2d_31">
      <g>
       <use style="fill:#444147;stroke:#444147;stroke-width:0.25;" x="139.005313" xlink:href="#ma4ac1fa35b" y="75.62923"/>
      </g>
     </g>
     <g id="text_13">
      <!-- 0.6 -->
      <g style="fill:#9c372f;" transform="translate(148.005313 77.75923)scale(0.06 -0.06)">
       <use xlink:href="#MyriadPro-Regular-48"/>
       <use x="51.299988" xlink:href="#MyriadPro-Regular-46"/>
       <use x="71.999985" xlink:href="#MyriadPro-Regular-54"/>
      </g>
     </g>
    </g>
    <g id="ytick_9">
     <g id="line2d_32">
      <g>
       <use style="fill:#444147;stroke:#444147;stroke-width:0.25;" x="139.005313" xlink:href="#ma4ac1fa35b" y="53.819486"/>
      </g>
     </g>
     <g id="text_14">
      <!-- 0.8 -->
      <g style="fill:#9c372f;" transform="translate(148.005313 55.949486)scale(0.06 -0.06)">
       <use xlink:href="#MyriadPro-Regular-48"/>
       <use x="51.299988" xlink:href="#MyriadPro-Regular-46"/>
       <use x="71.999985" xlink:href="#MyriadPro-Regular-56"/>
      </g>
     </g>
    </g>
    <g id="ytick_10">
     <g id="line2d_33">
      <g>
       <use style="fill:#444147;stroke:#444147;stroke-width:0.25;" x="139.005313" xlink:href="#ma4ac1fa35b" y="32.009743"/>
      </g>
     </g>
     <g id="text_15">
      <!-- 1.0 -->
      <g style="fill:#9c372f;" transform="translate(148.005313 34.139743)scale(0.06 -0.06)">
       <use xlink:href="#MyriadPro-Regular-49"/>
       <use x="51.299988" xlink:href="#MyriadPro-Regular-46"/>
       <use x="71.999985" xlink:href="#MyriadPro-Regular-48"/>
      </g>
     </g>
    </g>
    <g id="text_16">
     <!-- relative mCherry intensity -->
     <defs>
      <path d="M 7.296875 0 
L 16.09375 0 
L 16.09375 29.203125 
C 16.09375 30.796875 16.203125 32.09375 16.703125 33.40625 
C 18.40625 38.09375 22.796875 42.09375 28.5 42.09375 
C 36.796875 42.09375 39.703125 35.59375 39.703125 27.796875 
L 39.703125 0 
L 48.5 0 
L 48.5 28.796875 
C 48.5 45.40625 38.09375 49.40625 31.59375 49.40625 
C 28.296875 49.40625 25.203125 48.5 22.59375 47 
C 19.90625 45.5 17.703125 43.203125 16.296875 40.703125 
L 16.09375 40.703125 
L 16.09375 71 
L 7.296875 71 
z
" id="MyriadPro-Regular-104"/>
     </defs>
     <g style="fill:#9c372f;" transform="translate(159.723125 32.85725)rotate(-270)scale(0.08 -0.08)">
      <use xlink:href="#MyriadPro-Regular-114"/>
      <use x="32.699997" xlink:href="#MyriadPro-Regular-101"/>
      <use x="82.799988" xlink:href="#MyriadPro-Regular-108"/>
      <use x="106.399979" xlink:href="#MyriadPro-Regular-97"/>
      <use x="154.599976" xlink:href="#MyriadPro-Regular-116"/>
      <use x="187.699966" xlink:href="#MyriadPro-Regular-105"/>
      <use x="211.09996" xlink:href="#MyriadPro-Regular-118"/>
      <use x="259.199951" xlink:href="#MyriadPro-Regular-101"/>
      <use x="309.299942" xlink:href="#MyriadPro-Regular-32"/>
      <use x="330.499939" xlink:href="#MyriadPro-Regular-109"/>
      <use x="413.899933" xlink:href="#MyriadPro-Regular-67"/>
      <use x="471.899918" xlink:href="#MyriadPro-Regular-104"/>
      <use x="527.399902" xlink:href="#MyriadPro-Regular-101"/>
      <use x="577.499893" xlink:href="#MyriadPro-Regular-114"/>
      <use x="610.19989" xlink:href="#MyriadPro-Regular-114"/>
      <use x="642.899887" xlink:href="#MyriadPro-Regular-121"/>
      <use x="689.999878" xlink:href="#MyriadPro-Regular-32"/>
      <use x="711.199875" xlink:href="#MyriadPro-Regular-105"/>
      <use x="734.599869" xlink:href="#MyriadPro-Regular-110"/>
      <use x="790.099854" xlink:href="#MyriadPro-Regular-116"/>
      <use x="823.199844" xlink:href="#MyriadPro-Regular-101"/>
      <use x="873.299835" xlink:href="#MyriadPro-Regular-110"/>
      <use x="928.79982" xlink:href="#MyriadPro-Regular-115"/>
      <use x="968.399811" xlink:href="#MyriadPro-Regular-105"/>
      <use x="991.799805" xlink:href="#MyriadPro-Regular-116"/>
      <use x="1024.899796" xlink:href="#MyriadPro-Regular-121"/>
     </g>
    </g>
   </g>
   <g id="LineCollection_2">
    <path clip-path="url(#p1700d35f05)" d="M 37.980289 137.551858 
L 37.980289 135.161399 
" style="fill:none;stroke:#c76a6a;stroke-width:0.75;"/>
    <path clip-path="url(#p1700d35f05)" d="M 52.743183 137.878289 
L 52.743183 136.712739 
" style="fill:none;stroke:#c76a6a;stroke-width:0.75;"/>
    <path clip-path="url(#p1700d35f05)" d="M 61.378923 136.25141 
L 61.378923 134.835047 
" style="fill:none;stroke:#c76a6a;stroke-width:0.75;"/>
    <path clip-path="url(#p1700d35f05)" d="M 67.506078 135.506088 
L 67.506078 133.733904 
" style="fill:none;stroke:#c76a6a;stroke-width:0.75;"/>
    <path clip-path="url(#p1700d35f05)" d="M 79.424973 120.33234 
L 79.424973 112.380087 
" style="fill:none;stroke:#c76a6a;stroke-width:0.75;"/>
    <path clip-path="url(#p1700d35f05)" d="M 87.021563 105.142007 
L 87.021563 93.063832 
" style="fill:none;stroke:#c76a6a;stroke-width:0.75;"/>
    <path clip-path="url(#p1700d35f05)" d="M 101.784457 111.335922 
L 101.784457 80.049329 
" style="fill:none;stroke:#c76a6a;stroke-width:0.75;"/>
    <path clip-path="url(#p1700d35f05)" d="M 110.420196 96.034536 
L 110.420196 63.018836 
" style="fill:none;stroke:#c76a6a;stroke-width:0.75;"/>
    <path clip-path="url(#p1700d35f05)" d="M 116.547351 78.556125 
L 116.547351 51.258713 
" style="fill:none;stroke:#c76a6a;stroke-width:0.75;"/>
    <path clip-path="url(#p1700d35f05)" d="M 128.466247 49.889377 
L 128.466247 33.910248 
" style="fill:none;stroke:#c76a6a;stroke-width:0.75;"/>
    <path clip-path="url(#p1700d35f05)" d="M 136.062836 38.467802 
L 136.062836 24.754591 
" style="fill:none;stroke:#c76a6a;stroke-width:0.75;"/>
   </g>
   <g id="line2d_34">
    <defs>
     <path d="M 2 0 
L -2 -0 
" id="m876b23567b" style="stroke:#c76a6a;stroke-width:0.75;"/>
    </defs>
    <g clip-path="url(#p1700d35f05)">
     <use style="fill:#c76a6a;stroke:#c76a6a;stroke-width:0.75;" x="37.980289" xlink:href="#m876b23567b" y="137.551858"/>
     <use style="fill:#c76a6a;stroke:#c76a6a;stroke-width:0.75;" x="52.743183" xlink:href="#m876b23567b" y="137.878289"/>
     <use style="fill:#c76a6a;stroke:#c76a6a;stroke-width:0.75;" x="61.378923" xlink:href="#m876b23567b" y="136.25141"/>
     <use style="fill:#c76a6a;stroke:#c76a6a;stroke-width:0.75;" x="67.506078" xlink:href="#m876b23567b" y="135.506088"/>
     <use style="fill:#c76a6a;stroke:#c76a6a;stroke-width:0.75;" x="79.424973" xlink:href="#m876b23567b" y="120.33234"/>
     <use style="fill:#c76a6a;stroke:#c76a6a;stroke-width:0.75;" x="87.021563" xlink:href="#m876b23567b" y="105.142007"/>
     <use style="fill:#c76a6a;stroke:#c76a6a;stroke-width:0.75;" x="101.784457" xlink:href="#m876b23567b" y="111.335922"/>
     <use style="fill:#c76a6a;stroke:#c76a6a;stroke-width:0.75;" x="110.420196" xlink:href="#m876b23567b" y="96.034536"/>
     <use style="fill:#c76a6a;stroke:#c76a6a;stroke-width:0.75;" x="116.547351" xlink:href="#m876b23567b" y="78.556125"/>
     <use style="fill:#c76a6a;stroke:#c76a6a;stroke-width:0.75;" x="128.466247" xlink:href="#m876b23567b" y="49.889377"/>
     <use style="fill:#c76a6a;stroke:#c76a6a;stroke-width:0.75;" x="136.062836" xlink:href="#m876b23567b" y="38.467802"/>
    </g>
   </g>
   <g id="line2d_35">
    <g clip-path="url(#p1700d35f05)">
     <use style="fill:#c76a6a;stroke:#c76a6a;stroke-width:0.75;" x="37.980289" xlink:href="#m876b23567b" y="135.161399"/>
     <use style="fill:#c76a6a;stroke:#c76a6a;stroke-width:0.75;" x="52.743183" xlink:href="#m876b23567b" y="136.712739"/>
     <use style="fill:#c76a6a;stroke:#c76a6a;stroke-width:0.75;" x="61.378923" xlink:href="#m876b23567b" y="134.835047"/>
     <use style="fill:#c76a6a;stroke:#c76a6a;stroke-width:0.75;" x="67.506078" xlink:href="#m876b23567b" y="133.733904"/>
     <use style="fill:#c76a6a;stroke:#c76a6a;stroke-width:0.75;" x="79.424973" xlink:href="#m876b23567b" y="112.380087"/>
     <use style="fill:#c76a6a;stroke:#c76a6a;stroke-width:0.75;" x="87.021563" xlink:href="#m876b23567b" y="93.063832"/>
     <use style="fill:#c76a6a;stroke:#c76a6a;stroke-width:0.75;" x="101.784457" xlink:href="#m876b23567b" y="80.049329"/>
     <use style="fill:#c76a6a;stroke:#c76a6a;stroke-width:0.75;" x="110.420196" xlink:href="#m876b23567b" y="63.018836"/>
     <use style="fill:#c76a6a;stroke:#c76a6a;stroke-width:0.75;" x="116.547351" xlink:href="#m876b23567b" y="51.258713"/>
     <use style="fill:#c76a6a;stroke:#c76a6a;stroke-width:0.75;" x="128.466247" xlink:href="#m876b23567b" y="33.910248"/>
     <use style="fill:#c76a6a;stroke:#c76a6a;stroke-width:0.75;" x="136.062836" xlink:href="#m876b23567b" y="24.754591"/>
    </g>
   </g>
   <g id="line2d_36">
    <path clip-path="url(#p1700d35f05)" d="M 37.980289 136.356628 
L 52.743183 137.295514 
L 61.378923 135.543229 
L 67.506078 134.619996 
L 79.424973 116.356214 
L 87.021563 99.102919 
L 101.784457 95.692625 
L 110.420196 79.526686 
L 116.547351 64.907419 
L 128.466247 41.899813 
L 136.062836 31.611196 
" style="fill:none;stroke:#c76a6a;stroke-linecap:square;stroke-width:0.75;"/>
    <defs>
     <path d="M 0 2.5 
C 0.663008 2.5 1.29895 2.236584 1.767767 1.767767 
C 2.236584 1.29895 2.5 0.663008 2.5 0 
C 2.5 -0.663008 2.236584 -1.29895 1.767767 -1.767767 
C 1.29895 -2.236584 0.663008 -2.5 0 -2.5 
C -0.663008 -2.5 -1.29895 -2.236584 -1.767767 -1.767767 
C -2.236584 -1.29895 -2.5 -0.663008 -2.5 0 
C -2.5 0.663008 -2.236584 1.29895 -1.767767 1.767767 
C -1.29895 2.236584 -0.663008 2.5 0 2.5 
z
" id="m1211f508b7" style="stroke:#efefef;stroke-width:0.75;"/>
    </defs>
    <g clip-path="url(#p1700d35f05)">
     <use style="fill:#c76a6a;stroke:#efefef;stroke-width:0.75;" x="37.980289" xlink:href="#m1211f508b7" y="136.356628"/>
     <use style="fill:#c76a6a;stroke:#efefef;stroke-width:0.75;" x="52.743183" xlink:href="#m1211f508b7" y="137.295514"/>
     <use style="fill:#c76a6a;stroke:#efefef;stroke-width:0.75;" x="61.378923" xlink:href="#m1211f508b7" y="135.543229"/>
     <use style="fill:#c76a6a;stroke:#efefef;stroke-width:0.75;" x="67.506078" xlink:href="#m1211f508b7" y="134.619996"/>
     <use style="fill:#c76a6a;stroke:#efefef;stroke-width:0.75;" x="79.424973" xlink:href="#m1211f508b7" y="116.356214"/>
     <use style="fill:#c76a6a;stroke:#efefef;stroke-width:0.75;" x="87.021563" xlink:href="#m1211f508b7" y="99.102919"/>
     <use style="fill:#c76a6a;stroke:#efefef;stroke-width:0.75;" x="101.784457" xlink:href="#m1211f508b7" y="95.692625"/>
     <use style="fill:#c76a6a;stroke:#efefef;stroke-width:0.75;" x="110.420196" xlink:href="#m1211f508b7" y="79.526686"/>
     <use style="fill:#c76a6a;stroke:#efefef;stroke-width:0.75;" x="116.547351" xlink:href="#m1211f508b7" y="64.907419"/>
     <use style="fill:#c76a6a;stroke:#efefef;stroke-width:0.75;" x="128.466247" xlink:href="#m1211f508b7" y="41.899813"/>
     <use style="fill:#c76a6a;stroke:#efefef;stroke-width:0.75;" x="136.062836" xlink:href="#m1211f508b7" y="31.611196"/>
    </g>
   </g>
   <g id="patch_5">
    <path d="M 35.037813 141.272 
L 35.037813 10.2 
" style="fill:none;stroke:#444147;stroke-linecap:square;stroke-linejoin:miter;stroke-width:0.25;"/>
   </g>
   <g id="patch_6">
    <path d="M 139.005313 141.272 
L 139.005313 10.2 
" style="fill:none;stroke:#444147;stroke-linecap:square;stroke-linejoin:miter;stroke-width:0.25;"/>
   </g>
   <g id="patch_7">
    <path d="M 35.037813 141.272 
L 139.005313 141.272 
" style="fill:none;stroke:#444147;stroke-linecap:square;stroke-linejoin:miter;stroke-width:0.25;"/>
   </g>
  </g>
  <g id="axes_3">
   <g id="patch_8">
    <path d="M 35.037813 19.497455 
L 139.005313 19.497455 
L 139.005313 10.2 
L 35.037813 10.2 
z
" style="fill:#ffffff;"/>
   </g>
   <g id="patch_9">
    <path d="M 35.037813 19.497455 
L 35.037813 10.2 
" style="fill:none;stroke:#444147;stroke-linecap:square;stroke-linejoin:miter;stroke-width:0.25;"/>
   </g>
   <g id="patch_10">
    <path d="M 139.005313 19.497455 
L 139.005313 10.2 
" style="fill:none;stroke:#444147;stroke-linecap:square;stroke-linejoin:miter;stroke-width:0.25;"/>
   </g>
   <g id="patch_11">
    <path d="M 35.037813 19.497455 
L 139.005313 19.497455 
" style="fill:none;stroke:#444147;stroke-linecap:square;stroke-linejoin:miter;stroke-width:0.25;"/>
   </g>
   <g id="patch_12">
    <path d="M 35.037813 10.2 
L 139.005313 10.2 
" style="fill:none;stroke:#444147;stroke-linecap:square;stroke-linejoin:miter;stroke-width:0.25;"/>
   </g>
   <g id="text_17">
    <!-- glucose, 37 °C -->
    <defs>
     <path d="M 47.796875 48.40625 
L 39 48.40625 
L 39 18.796875 
C 39 17.09375 38.703125 15.5 38.203125 14.296875 
C 36.59375 10.296875 32.5 6.203125 26.59375 6.203125 
C 18.703125 6.203125 15.796875 12.5 15.796875 21.703125 
L 15.796875 48.40625 
L 7 48.40625 
L 7 20.09375 
C 7 3.203125 16.09375 -1.09375 23.703125 -1.09375 
C 32.296875 -1.09375 37.5 4 39.703125 7.90625 
L 39.90625 7.90625 
L 40.40625 0 
L 48.203125 0 
C 47.90625 3.796875 47.796875 8.203125 47.796875 13.296875 
z
" id="MyriadPro-Regular-117"/>
     <path d="M 40.296875 8.296875 
C 37.796875 7.203125 34.5 6 29.5 6 
C 19.90625 6 12.703125 12.90625 12.703125 24.09375 
C 12.703125 34.09375 18.703125 42.40625 29.796875 42.40625 
C 34.59375 42.40625 37.90625 41.203125 40 40.09375 
L 42 46.796875 
C 39.59375 48.09375 35 49.40625 29.796875 49.40625 
C 14 49.40625 3.796875 38.5 3.796875 23.59375 
C 3.796875 8.796875 13.296875 -1.09375 27.90625 -1.09375 
C 34.40625 -1.09375 39.5 0.59375 41.796875 1.703125 
z
" id="MyriadPro-Regular-99"/>
     <path d="M 27.796875 49.40625 
C 14.5 49.40625 3.796875 39.90625 3.796875 23.796875 
C 3.796875 8.5 14 -1.09375 27 -1.09375 
C 38.59375 -1.09375 51.09375 6.703125 51.09375 24.59375 
C 51.09375 39.296875 41.703125 49.40625 27.796875 49.40625 
z
M 27.59375 42.796875 
C 38 42.796875 42.09375 32.5 42.09375 24.296875 
C 42.09375 13.40625 35.796875 5.5 27.40625 5.5 
C 18.796875 5.5 12.796875 13.5 12.796875 24.09375 
C 12.796875 33.203125 17.296875 42.796875 27.59375 42.796875 
z
" id="MyriadPro-Regular-111"/>
     <path d="M 7.796875 -11.703125 
C 10.59375 -7 15 4.09375 17.40625 12.59375 
L 7.59375 11.59375 
C 6.5 4.296875 3.796875 -6.40625 1.59375 -12.40625 
z
" id="MyriadPro-Regular-44"/>
     <path d="M 4.203125 3.296875 
C 7.40625 1.203125 13.796875 -1.09375 21.09375 -1.09375 
C 36.59375 -1.09375 44.796875 8 44.796875 18.40625 
C 44.703125 27.5 38.296875 33.5 30.296875 35 
L 30.296875 35.203125 
C 38.203125 38.09375 42.296875 43.796875 42.296875 50.59375 
C 42.296875 58.5 36.5 66.09375 23.703125 66.09375 
C 16.703125 66.09375 10.09375 63.59375 6.59375 61.09375 
L 9 54.703125 
C 11.796875 56.703125 16.796875 59 22 59 
C 30.09375 59 33.40625 54.40625 33.40625 49.203125 
C 33.40625 41.5 25.296875 38.203125 18.90625 38.203125 
L 14 38.203125 
L 14 31.59375 
L 18.90625 31.59375 
C 27.40625 31.59375 35.59375 27.703125 35.703125 18.59375 
C 35.796875 13.09375 32.203125 6 21 6 
C 14.796875 6 9.09375 8.5 6.59375 10 
z
" id="MyriadPro-Regular-51"/>
     <path d="M 5.703125 65 
L 5.703125 57.703125 
L 37.5 57.703125 
L 37.5 57.5 
L 9.296875 0 
L 18.40625 0 
L 46.703125 59.203125 
L 46.703125 65 
z
" id="MyriadPro-Regular-55"/>
     <path d="M 16.296875 68.59375 
C 8.796875 68.59375 2.90625 62.796875 2.90625 55.09375 
C 2.90625 48.09375 8.203125 42.203125 16 42.203125 
C 22.90625 42.203125 29.40625 47.5 29.40625 55.59375 
C 29.40625 62.40625 24.5 68.59375 16.296875 68.59375 
z
M 16 63.90625 
C 21.796875 63.90625 24 59.203125 24 55.5 
C 24 50.59375 20.703125 46.90625 16.09375 46.90625 
C 11.59375 46.90625 8.296875 50.5 8.296875 55.09375 
C 8.296875 59.40625 10.90625 63.90625 16 63.90625 
z
" id="MyriadPro-Regular-176"/>
    </defs>
    <g style="fill:#444147;" transform="translate(69.637031 16.35154)scale(0.06 -0.06)">
     <use xlink:href="#MyriadPro-Regular-103"/>
     <use x="55.899994" xlink:href="#MyriadPro-Regular-108"/>
     <use x="79.499985" xlink:href="#MyriadPro-Regular-117"/>
     <use x="134.599976" xlink:href="#MyriadPro-Regular-99"/>
     <use x="179.399963" xlink:href="#MyriadPro-Regular-111"/>
     <use x="234.299957" xlink:href="#MyriadPro-Regular-115"/>
     <use x="273.899948" xlink:href="#MyriadPro-Regular-101"/>
     <use x="323.999939" xlink:href="#MyriadPro-Regular-44"/>
     <use x="344.699936" xlink:href="#MyriadPro-Regular-32"/>
     <use x="365.899933" xlink:href="#MyriadPro-Regular-51"/>
     <use x="417.199921" xlink:href="#MyriadPro-Regular-55"/>
     <use x="468.499908" xlink:href="#MyriadPro-Regular-32"/>
     <use x="489.699905" xlink:href="#MyriadPro-Regular-176"/>
     <use x="521.499893" xlink:href="#MyriadPro-Regular-67"/>
    </g>
   </g>
  </g>
 </g>
 <defs>
  <clipPath id="p1700d35f05">
   <rect height="131.072" width="103.9675" x="35.037813" y="10.2"/>
  </clipPath>
 </defs>
</svg>
