<?xml version="1.0" encoding="utf-8" standalone="no"?>
<!DOCTYPE svg PUBLIC "-//W3C//DTD SVG 1.1//EN"
  "http://www.w3.org/Graphics/SVG/1.1/DTD/svg11.dtd">
<!-- Created with matplotlib (https://matplotlib.org/) -->
<svg height="135.30375pt" version="1.1" viewBox="0 0 424.52375 135.30375" width="424.52375pt" xmlns="http://www.w3.org/2000/svg" xmlns:xlink="http://www.w3.org/1999/xlink">
 <defs>
  <style type="text/css">
*{stroke-linecap:butt;stroke-linejoin:round;}
  </style>
 </defs>
 <g id="figure_1">
  <g id="patch_1">
   <path d="M 0 135.30375 
L 424.52375 135.30375 
L 424.52375 0 
L 0 0 
z
" style="fill:#ffffff;"/>
  </g>
  <g id="axes_1">
   <g id="patch_2">
    <path d="M 34.50375 103.16 
L 136.52375 103.16 
L 136.52375 7.2 
L 34.50375 7.2 
z
" style="fill:#efefef;"/>
   </g>
   <g id="matplotlib.axis_1">
    <g id="xtick_1">
     <g id="line2d_1"/>
     <g id="text_1">
      <!-- $\mathdefault{10^{-1}}$ -->
      <defs>
       <path d="M 23.59375 0 
L 32.09375 0 
L 32.09375 65 
L 24.59375 65 
L 10.40625 57.40625 
L 12.09375 50.703125 
L 23.40625 56.796875 
L 23.59375 56.796875 
z
" id="MyriadPro-Regular-49"/>
       <path d="M 26.203125 66.09375 
C 13 66.09375 3.59375 54.09375 3.59375 32.296875 
C 3.796875 10.796875 12.40625 -1.09375 25.09375 -1.09375 
C 39.5 -1.09375 47.703125 11.09375 47.703125 33.203125 
C 47.703125 53.90625 39.90625 66.09375 26.203125 66.09375 
z
M 25.703125 59.296875 
C 34.796875 59.296875 38.90625 48.796875 38.90625 32.796875 
C 38.90625 16.203125 34.59375 5.703125 25.59375 5.703125 
C 17.59375 5.703125 12.40625 15.296875 12.40625 32.203125 
C 12.40625 49.90625 18 59.296875 25.703125 59.296875 
z
" id="MyriadPro-Regular-48"/>
       <path d="M 4 29.703125 
L 4 23.703125 
L 55.59375 23.703125 
L 55.59375 29.703125 
z
" id="MyriadPro-Regular-8722"/>
      </defs>
      <g style="fill:#444147;" transform="translate(44.147083 114.84)scale(0.08 -0.08)">
       <use transform="translate(0 0.615625)" xlink:href="#MyriadPro-Regular-49"/>
       <use transform="translate(51.299988 0.615625)" xlink:href="#MyriadPro-Regular-48"/>
       <use transform="translate(103.447085 34.5)scale(0.7)" xlink:href="#MyriadPro-Regular-8722"/>
       <use transform="translate(145.167079 34.5)scale(0.7)" xlink:href="#MyriadPro-Regular-49"/>
      </g>
     </g>
    </g>
    <g id="xtick_2">
     <g id="line2d_2"/>
     <g id="text_2">
      <!-- $\mathdefault{10^{1}}$ -->
      <g style="fill:#444147;" transform="translate(79.83375 114.84)scale(0.08 -0.08)">
       <use transform="translate(0 0.615625)" xlink:href="#MyriadPro-Regular-49"/>
       <use transform="translate(51.299988 0.615625)" xlink:href="#MyriadPro-Regular-48"/>
       <use transform="translate(103.447085 34.5)scale(0.7)" xlink:href="#MyriadPro-Regular-49"/>
      </g>
     </g>
    </g>
    <g id="xtick_3">
     <g id="line2d_3"/>
     <g id="text_3">
      <!-- $\mathdefault{10^{3}}$ -->
      <defs>
       <path d="M 4.203125 3.296875 
C 7.40625 1.203125 13.796875 -1.09375 21.09375 -1.09375 
C 36.703125 -1.09375 44.796875 8 44.796875 18.40625 
C 44.796875 27.5 38.296875 33.5 30.296875 35.09375 
L 30.296875 35.296875 
C 38.296875 38.203125 42.296875 43.90625 42.296875 50.59375 
C 42.296875 58.5 36.5 66.09375 23.703125 66.09375 
C 16.703125 66.09375 10.09375 63.59375 6.703125 61.09375 
L 9 54.703125 
C 11.796875 56.703125 16.796875 59 22 59 
C 30.09375 59 33.40625 54.40625 33.40625 49.203125 
C 33.40625 41.5 25.296875 38.203125 18.90625 38.203125 
L 14 38.203125 
L 14 31.59375 
L 18.90625 31.59375 
C 27.40625 31.59375 35.59375 27.703125 35.703125 18.59375 
C 35.796875 13.203125 32.296875 6 21 6 
C 14.90625 6 9.09375 8.5 6.59375 10.09375 
z
" id="MyriadPro-Regular-51"/>
      </defs>
      <g style="fill:#444147;" transform="translate(113.840417 114.84)scale(0.08 -0.08)">
       <use transform="translate(0 0.85)" xlink:href="#MyriadPro-Regular-49"/>
       <use transform="translate(51.299988 0.85)" xlink:href="#MyriadPro-Regular-48"/>
       <use transform="translate(103.447085 34.734375)scale(0.7)" xlink:href="#MyriadPro-Regular-51"/>
      </g>
     </g>
    </g>
    <g id="text_4">
     <!-- IPTG [µM] -->
     <defs>
      <path d="M 7.59375 67.40625 
L 7.59375 0 
L 16.296875 0 
L 16.296875 67.40625 
z
" id="MyriadPro-Regular-73"/>
      <path d="M 7.59375 0 
L 16.296875 0 
L 16.296875 27 
C 18.296875 26.5 20.703125 26.40625 23.296875 26.40625 
C 31.796875 26.40625 39.296875 28.90625 43.90625 33.796875 
C 47.296875 37.296875 49.09375 42.09375 49.09375 48.203125 
C 49.09375 54.203125 46.90625 59.09375 43.203125 62.296875 
C 39.203125 65.90625 32.90625 67.90625 24.296875 67.90625 
C 17.296875 67.90625 11.796875 67.296875 7.59375 66.59375 
z
M 16.296875 60.296875 
C 17.796875 60.703125 20.703125 61 24.5 61 
C 34.09375 61 40.40625 56.703125 40.40625 47.796875 
C 40.40625 38.5 34 33.40625 23.5 33.40625 
C 20.59375 33.40625 18.203125 33.59375 16.296875 34.09375 
z
" id="MyriadPro-Regular-80"/>
      <path d="M 20.40625 0 
L 29.203125 0 
L 29.203125 60 
L 49.796875 60 
L 49.796875 67.40625 
L -0.09375 67.40625 
L -0.09375 60 
L 20.40625 60 
z
" id="MyriadPro-Regular-84"/>
      <path d="M 58.90625 35.40625 
L 36.703125 35.40625 
L 36.703125 28.40625 
L 50.40625 28.40625 
L 50.40625 8.296875 
C 48.40625 7.296875 44.5 6.5 38.796875 6.5 
C 23.09375 6.5 12.796875 16.59375 12.796875 33.703125 
C 12.796875 50.59375 23.5 60.796875 39.90625 60.796875 
C 46.703125 60.796875 51.203125 59.5 54.796875 57.90625 
L 56.90625 65 
C 54 66.40625 47.90625 68.09375 40.09375 68.09375 
C 17.5 68.09375 3.703125 53.40625 3.59375 33.296875 
C 3.59375 22.796875 7.203125 13.796875 13 8.203125 
C 19.59375 1.90625 28 -0.703125 38.203125 -0.703125 
C 47.296875 -0.703125 55 1.59375 58.90625 3 
z
" id="MyriadPro-Regular-71"/>
      <path id="MyriadPro-Regular-32"/>
      <path d="M 26.5 -11.203125 
L 26.5 -5.703125 
L 15 -5.703125 
L 15 63.09375 
L 26.5 63.09375 
L 26.5 68.59375 
L 8.203125 68.59375 
L 8.203125 -11.203125 
z
" id="MyriadPro-Regular-91"/>
      <path d="M 40.296875 7.5 
C 41.09375 1.296875 44.59375 -1.09375 48.90625 -1.09375 
C 50.296875 -1.09375 50.90625 -1 51.90625 -0.703125 
L 52.59375 5.703125 
C 49.09375 5.90625 48 8 48 13.296875 
L 48 48.40625 
L 39.296875 48.40625 
L 39.296875 18.703125 
C 39.296875 17.09375 39 15.5 38.5 14.203125 
C 36.90625 10.296875 32.703125 6.09375 26.90625 6.09375 
C 19.203125 6.09375 16 12.296875 16 19.796875 
L 16 48.40625 
L 7.296875 48.40625 
L 7.296875 -2 
C 7.296875 -9.703125 7.703125 -16.796875 8.703125 -19.796875 
L 16.59375 -19.796875 
C 15.59375 -15.796875 15.5 -6.90625 15.5 -1.59375 
L 15.5 4.40625 
C 17.59375 0.703125 21.703125 -0.90625 26.09375 -0.90625 
C 33.296875 -0.90625 38 3.703125 40 7.5 
z
" id="MyriadPro-Regular-181"/>
      <path d="M 66.09375 0 
L 74.59375 0 
L 70.40625 67.40625 
L 59.296875 67.40625 
L 47.296875 34.796875 
C 44.296875 26.296875 41.90625 18.90625 40.203125 12.09375 
L 39.90625 12.09375 
C 38.203125 19.09375 35.90625 26.5 33.09375 34.796875 
L 21.59375 67.40625 
L 10.5 67.40625 
L 5.796875 0 
L 14.09375 0 
L 15.90625 28.90625 
C 16.5 39 17 50.296875 17.203125 58.703125 
L 17.40625 58.703125 
C 19.296875 50.703125 22 42 25.203125 32.5 
L 36.09375 0.40625 
L 42.703125 0.40625 
L 54.59375 33.09375 
C 58 42.296875 60.796875 50.796875 63.09375 58.703125 
L 63.40625 58.703125 
C 63.296875 50.296875 63.90625 39 64.40625 29.59375 
z
" id="MyriadPro-Regular-77"/>
      <path d="M 1.90625 68.59375 
L 1.90625 63.09375 
L 13.40625 63.09375 
L 13.40625 -5.703125 
L 1.90625 -5.703125 
L 1.90625 -11.203125 
L 20.203125 -11.203125 
L 20.203125 68.59375 
z
" id="MyriadPro-Regular-93"/>
     </defs>
     <g style="fill:#444147;" transform="translate(69.30875 126.10375)scale(0.08 -0.08)">
      <use xlink:href="#MyriadPro-Regular-73"/>
      <use x="23.899994" xlink:href="#MyriadPro-Regular-80"/>
      <use x="77.099991" xlink:href="#MyriadPro-Regular-84"/>
      <use x="126.799988" xlink:href="#MyriadPro-Regular-71"/>
      <use x="191.399979" xlink:href="#MyriadPro-Regular-32"/>
      <use x="212.599976" xlink:href="#MyriadPro-Regular-91"/>
      <use x="240.999969" xlink:href="#MyriadPro-Regular-181"/>
      <use x="296.299957" xlink:href="#MyriadPro-Regular-77"/>
      <use x="376.699951" xlink:href="#MyriadPro-Regular-93"/>
     </g>
    </g>
   </g>
   <g id="matplotlib.axis_2">
    <g id="ytick_1">
     <g id="line2d_4"/>
     <g id="text_5">
      <!-- 0.0 -->
      <defs>
       <path d="M 11.09375 -1.09375 
C 14.796875 -1.09375 17.09375 1.59375 17.09375 5.203125 
C 17.09375 8.90625 14.703125 11.5 11.203125 11.5 
C 7.703125 11.5 5.203125 8.90625 5.203125 5.203125 
C 5.203125 1.59375 7.59375 -1.09375 11 -1.09375 
z
" id="MyriadPro-Regular-46"/>
      </defs>
      <g style="fill:#444147;" transform="translate(18.64 105.431758)scale(0.08 -0.08)">
       <use xlink:href="#MyriadPro-Regular-48"/>
       <use x="51.299988" xlink:href="#MyriadPro-Regular-46"/>
       <use x="71.999985" xlink:href="#MyriadPro-Regular-48"/>
      </g>
     </g>
    </g>
    <g id="ytick_2">
     <g id="line2d_5"/>
     <g id="text_6">
      <!-- 0.5 -->
      <defs>
       <path d="M 43.296875 65 
L 12.203125 65 
L 8 33.796875 
C 10.40625 34.09375 13.296875 34.5 17 34.5 
C 30 34.5 35.59375 28.5 35.703125 20.09375 
C 35.703125 11.40625 28.59375 6 20.296875 6 
C 14.40625 6 9.09375 8 6.40625 9.59375 
L 4.203125 2.90625 
C 7.296875 0.90625 13.296875 -1.09375 20.40625 -1.09375 
C 34.5 -1.09375 44.59375 8.40625 44.59375 21.09375 
C 44.59375 29.296875 40.40625 34.90625 35.296875 37.796875 
C 31.296875 40.203125 26.296875 41.296875 21.296875 41.296875 
C 18.90625 41.296875 17.5 41.09375 16 40.90625 
L 18.5 57.59375 
L 43.296875 57.59375 
z
" id="MyriadPro-Regular-53"/>
      </defs>
      <g style="fill:#444147;" transform="translate(18.64 59.316448)scale(0.08 -0.08)">
       <use xlink:href="#MyriadPro-Regular-48"/>
       <use x="51.299988" xlink:href="#MyriadPro-Regular-46"/>
       <use x="71.999985" xlink:href="#MyriadPro-Regular-53"/>
      </g>
     </g>
    </g>
    <g id="ytick_3">
     <g id="line2d_6"/>
     <g id="text_7">
      <!-- 1.0 -->
      <g style="fill:#444147;" transform="translate(18.64 13.201138)scale(0.08 -0.08)">
       <use xlink:href="#MyriadPro-Regular-49"/>
       <use x="51.299988" xlink:href="#MyriadPro-Regular-46"/>
       <use x="71.999985" xlink:href="#MyriadPro-Regular-48"/>
      </g>
     </g>
    </g>
    <g id="text_8">
     <!-- fold-change -->
     <defs>
      <path d="M 16.90625 0 
L 16.90625 41.703125 
L 28.59375 41.703125 
L 28.59375 48.40625 
L 16.90625 48.40625 
L 16.90625 51 
C 16.90625 58.40625 18.796875 65 26.296875 65 
C 28.796875 65 30.59375 64.5 31.90625 63.90625 
L 33.09375 70.703125 
C 31.40625 71.40625 28.703125 72.09375 25.59375 72.09375 
C 21.5 72.09375 17.09375 70.796875 13.796875 67.59375 
C 9.703125 63.703125 8.203125 57.5 8.203125 50.703125 
L 8.203125 48.40625 
L 1.40625 48.40625 
L 1.40625 41.703125 
L 8.203125 41.703125 
L 8.203125 0 
z
" id="MyriadPro-Regular-102"/>
      <path d="M 27.796875 49.5 
C 14.40625 49.5 3.796875 40 3.796875 23.796875 
C 3.796875 8.5 13.90625 -1.09375 27 -1.09375 
C 38.703125 -1.09375 51.09375 6.703125 51.09375 24.59375 
C 51.09375 39.40625 41.703125 49.5 27.796875 49.5 
z
M 27.59375 42.90625 
C 38 42.90625 42.09375 32.5 42.09375 24.296875 
C 42.09375 13.40625 35.796875 5.5 27.40625 5.5 
C 18.796875 5.5 12.703125 13.5 12.703125 24.09375 
C 12.703125 33.296875 17.203125 42.90625 27.59375 42.90625 
z
" id="MyriadPro-Regular-111"/>
      <path d="M 7.296875 0 
L 16.09375 0 
L 16.09375 71 
L 7.296875 71 
z
" id="MyriadPro-Regular-108"/>
      <path d="M 40.296875 71 
L 40.296875 42.09375 
L 40.09375 42.09375 
C 37.90625 46 32.90625 49.5 25.5 49.5 
C 13.703125 49.5 3.703125 39.59375 3.796875 23.5 
C 3.796875 8.796875 12.796875 -1.09375 24.5 -1.09375 
C 32.40625 -1.09375 38.296875 3 41 8.40625 
L 41.203125 8.40625 
L 41.59375 0 
L 49.5 0 
C 49.203125 3.296875 49.09375 8.203125 49.09375 12.5 
L 49.09375 71 
z
M 40.296875 20.296875 
C 40.296875 18.90625 40.203125 17.703125 39.90625 16.5 
C 38.296875 9.90625 32.90625 6 27 6 
C 17.5 6 12.703125 14.09375 12.703125 23.90625 
C 12.703125 34.59375 18.09375 42.59375 27.203125 42.59375 
C 33.796875 42.59375 38.59375 38 39.90625 32.40625 
C 40.203125 31.296875 40.296875 29.796875 40.296875 28.703125 
z
" id="MyriadPro-Regular-100"/>
      <path d="M 3 30.296875 
L 3 23.796875 
L 27.703125 23.796875 
L 27.703125 30.296875 
z
" id="MyriadPro-Regular-45"/>
      <path d="M 40.296875 8.40625 
C 37.796875 7.296875 34.5 6 29.5 6 
C 19.90625 6 12.703125 12.90625 12.703125 24.09375 
C 12.703125 34.203125 18.703125 42.40625 29.796875 42.40625 
C 34.59375 42.40625 37.90625 41.296875 40 40.09375 
L 42 46.90625 
C 39.59375 48.09375 35 49.40625 29.796875 49.40625 
C 14 49.40625 3.796875 38.59375 3.796875 23.703125 
C 3.796875 8.90625 13.296875 -1.09375 27.90625 -1.09375 
C 34.40625 -1.09375 39.5 0.59375 41.796875 1.796875 
z
" id="MyriadPro-Regular-99"/>
      <path d="M 7.296875 0 
L 16.09375 0 
L 16.09375 29.203125 
C 16.09375 30.90625 16.203125 32.203125 16.703125 33.40625 
C 18.296875 38.203125 22.796875 42.203125 28.5 42.203125 
C 36.796875 42.203125 39.703125 35.59375 39.703125 27.796875 
L 39.703125 0 
L 48.5 0 
L 48.5 28.796875 
C 48.5 45.5 38.09375 49.5 31.59375 49.5 
C 28.296875 49.5 25.203125 48.5 22.59375 47 
C 19.90625 45.5 17.703125 43.296875 16.296875 40.796875 
L 16.09375 40.796875 
L 16.09375 71 
L 7.296875 71 
z
" id="MyriadPro-Regular-104"/>
      <path d="M 41.296875 29.703125 
C 41.296875 39.40625 37.703125 49.5 22.90625 49.5 
C 16.796875 49.5 11 47.796875 7 45.203125 
L 9 39.40625 
C 12.40625 41.59375 17.09375 43 21.59375 43 
C 31.5 43 32.59375 35.796875 32.59375 31.796875 
L 32.59375 30.796875 
C 13.90625 30.90625 3.5 24.5 3.5 12.796875 
C 3.5 5.796875 8.5 -1.09375 18.296875 -1.09375 
C 25.203125 -1.09375 30.40625 2.296875 33.09375 6.09375 
L 33.40625 6.09375 
L 34.09375 0 
L 42.09375 0 
C 41.5 3.296875 41.296875 7.40625 41.296875 11.59375 
z
M 32.796875 16.296875 
C 32.796875 15.40625 32.59375 14.40625 32.296875 13.5 
C 30.90625 9.40625 26.90625 5.40625 20.59375 5.40625 
C 16.09375 5.40625 12.296875 8.09375 12.296875 13.796875 
C 12.296875 23.203125 23.203125 24.90625 32.796875 24.703125 
z
" id="MyriadPro-Regular-97"/>
      <path d="M 7.296875 0 
L 16.09375 0 
L 16.09375 29.09375 
C 16.09375 30.59375 16.296875 32.09375 16.703125 33.203125 
C 18.203125 38.09375 22.703125 42.203125 28.5 42.203125 
C 36.796875 42.203125 39.703125 35.703125 39.703125 27.90625 
L 39.703125 0 
L 48.5 0 
L 48.5 28.90625 
C 48.5 45.5 38.09375 49.5 31.40625 49.5 
C 23.40625 49.5 17.796875 45 15.40625 40.40625 
L 15.203125 40.40625 
L 14.703125 48.40625 
L 6.90625 48.40625 
C 7.203125 44.40625 7.296875 40.296875 7.296875 35.296875 
z
" id="MyriadPro-Regular-110"/>
      <path d="M 48.59375 35.09375 
C 48.59375 41 48.796875 44.90625 49 48.40625 
L 41.296875 48.40625 
L 40.90625 41.09375 
L 40.703125 41.09375 
C 38.59375 45.09375 34 49.5 25.59375 49.5 
C 14.5 49.5 3.796875 40.203125 3.796875 23.796875 
C 3.796875 10.40625 12.40625 0.203125 24.40625 0.203125 
C 31.90625 0.203125 37.09375 3.796875 39.796875 8.296875 
L 40 8.296875 
L 40 2.90625 
C 40 -9.296875 33.40625 -14 24.40625 -14 
C 18.40625 -14 13.40625 -12.203125 10.203125 -10.203125 
L 8 -16.90625 
C 11.90625 -19.5 18.296875 -20.90625 24.09375 -20.90625 
C 30.203125 -20.90625 37 -19.5 41.703125 -15.09375 
C 46.40625 -10.90625 48.59375 -4.09375 48.59375 7 
z
M 39.90625 20.59375 
C 39.90625 19.09375 39.703125 17.40625 39.203125 15.90625 
C 37.296875 10.296875 32.40625 6.90625 27 6.90625 
C 17.5 6.90625 12.703125 14.796875 12.703125 24.296875 
C 12.703125 35.5 18.703125 42.59375 27.09375 42.59375 
C 33.5 42.59375 37.796875 38.40625 39.40625 33.296875 
C 39.796875 32.09375 39.90625 30.796875 39.90625 29.296875 
z
" id="MyriadPro-Regular-103"/>
      <path d="M 46.203125 22.59375 
C 46.296875 23.5 46.5 24.90625 46.5 26.703125 
C 46.5 35.59375 42.296875 49.5 26.5 49.5 
C 12.40625 49.5 3.796875 38 3.796875 23.40625 
C 3.796875 8.796875 12.703125 -1.09375 27.59375 -1.09375 
C 35.296875 -1.09375 40.59375 0.59375 43.703125 2 
L 42.203125 8.296875 
C 38.90625 6.90625 35.09375 5.796875 28.796875 5.796875 
C 20 5.796875 12.40625 10.703125 12.203125 22.59375 
z
M 12.296875 28.90625 
C 13 35 16.90625 43.203125 25.796875 43.203125 
C 35.703125 43.203125 38.09375 34.5 38 28.90625 
z
" id="MyriadPro-Regular-101"/>
     </defs>
     <g style="fill:#444147;" transform="translate(12.9675 75.3725)rotate(-90)scale(0.08 -0.08)">
      <use xlink:href="#MyriadPro-Regular-102"/>
      <use x="29.199997" xlink:href="#MyriadPro-Regular-111"/>
      <use x="84.099991" xlink:href="#MyriadPro-Regular-108"/>
      <use x="107.699982" xlink:href="#MyriadPro-Regular-100"/>
      <use x="164.099976" xlink:href="#MyriadPro-Regular-45"/>
      <use x="194.799973" xlink:href="#MyriadPro-Regular-99"/>
      <use x="239.59996" xlink:href="#MyriadPro-Regular-104"/>
      <use x="295.099945" xlink:href="#MyriadPro-Regular-97"/>
      <use x="343.299942" xlink:href="#MyriadPro-Regular-110"/>
      <use x="398.799927" xlink:href="#MyriadPro-Regular-103"/>
      <use x="454.699921" xlink:href="#MyriadPro-Regular-101"/>
     </g>
    </g>
   </g>
   <g id="line2d_7">
    <defs>
     <path d="M 0 1.25 
C 0.331504 1.25 0.649475 1.118292 0.883883 0.883883 
C 1.118292 0.649475 1.25 0.331504 1.25 0 
C 1.25 -0.331504 1.118292 -0.649475 0.883883 -0.883883 
C 0.649475 -1.118292 0.331504 -1.25 0 -1.25 
C -0.331504 -1.25 -0.649475 -1.118292 -0.883883 -0.883883 
C -1.118292 -0.649475 -1.25 -0.331504 -1.25 0 
C -1.25 0.331504 -1.118292 0.649475 -0.883883 0.883883 
C -0.649475 1.118292 -0.331504 1.25 0 1.25 
z
" id="mc1e26ee26b" style="stroke:#000000;stroke-width:0.25;"/>
    </defs>
    <g clip-path="url(#pbac2c7303a)">
     <use style="fill:#5f2e88;stroke:#000000;stroke-width:0.25;" x="-1" xlink:href="#mc1e26ee26b" y="101.554839"/>
     <use style="fill:#5f2e88;stroke:#000000;stroke-width:0.25;" x="51.507083" xlink:href="#mc1e26ee26b" y="101.555492"/>
     <use style="fill:#5f2e88;stroke:#000000;stroke-width:0.25;" x="80.395237" xlink:href="#mc1e26ee26b" y="99.781595"/>
     <use style="fill:#5f2e88;stroke:#000000;stroke-width:0.25;" x="85.51375" xlink:href="#mc1e26ee26b" y="97.719446"/>
     <use style="fill:#5f2e88;stroke:#000000;stroke-width:0.25;" x="92.280057" xlink:href="#mc1e26ee26b" y="89.324324"/>
     <use style="fill:#5f2e88;stroke:#000000;stroke-width:0.25;" x="97.39857" xlink:href="#mc1e26ee26b" y="73.10346"/>
     <use style="fill:#5f2e88;stroke:#000000;stroke-width:0.25;" x="100.392708" xlink:href="#mc1e26ee26b" y="61.728699"/>
     <use style="fill:#5f2e88;stroke:#000000;stroke-width:0.25;" x="102.517083" xlink:href="#mc1e26ee26b" y="50.998528"/>
     <use style="fill:#5f2e88;stroke:#000000;stroke-width:0.25;" x="109.28339" xlink:href="#mc1e26ee26b" y="31.63861"/>
     <use style="fill:#5f2e88;stroke:#000000;stroke-width:0.25;" x="114.401903" xlink:href="#mc1e26ee26b" y="23.927007"/>
     <use style="fill:#5f2e88;stroke:#000000;stroke-width:0.25;" x="119.520417" xlink:href="#mc1e26ee26b" y="19.122127"/>
     <use style="fill:#5f2e88;stroke:#000000;stroke-width:0.25;" x="131.405237" xlink:href="#mc1e26ee26b" y="15.512958"/>
    </g>
   </g>
   <g id="line2d_8">
    <defs>
     <path d="M 0 1.25 
C 0.331504 1.25 0.649475 1.118292 0.883883 0.883883 
C 1.118292 0.649475 1.25 0.331504 1.25 0 
C 1.25 -0.331504 1.118292 -0.649475 0.883883 -0.883883 
C 0.649475 -1.118292 0.331504 -1.25 0 -1.25 
C -0.331504 -1.25 -0.649475 -1.118292 -0.883883 -0.883883 
C -1.118292 -0.649475 -1.25 -0.331504 -1.25 0 
C -1.25 0.331504 -1.118292 0.649475 -0.883883 0.883883 
C -0.649475 1.118292 -0.331504 1.25 0 1.25 
z
" id="mca5a67b6a7" style="stroke:#000000;stroke-width:0.25;"/>
    </defs>
    <g clip-path="url(#pbac2c7303a)">
     <use style="fill:#7e59a2;stroke:#000000;stroke-width:0.25;" x="-1" xlink:href="#mca5a67b6a7" y="102.030646"/>
     <use style="fill:#7e59a2;stroke:#000000;stroke-width:0.25;" x="51.507083" xlink:href="#mca5a67b6a7" y="102.031187"/>
     <use style="fill:#7e59a2;stroke:#000000;stroke-width:0.25;" x="80.395237" xlink:href="#mca5a67b6a7" y="100.883144"/>
     <use style="fill:#7e59a2;stroke:#000000;stroke-width:0.25;" x="85.51375" xlink:href="#mca5a67b6a7" y="99.393948"/>
     <use style="fill:#7e59a2;stroke:#000000;stroke-width:0.25;" x="92.280057" xlink:href="#mca5a67b6a7" y="93.287221"/>
     <use style="fill:#7e59a2;stroke:#000000;stroke-width:0.25;" x="97.39857" xlink:href="#mca5a67b6a7" y="82.776283"/>
     <use style="fill:#7e59a2;stroke:#000000;stroke-width:0.25;" x="100.392708" xlink:href="#mca5a67b6a7" y="71.599397"/>
     <use style="fill:#7e59a2;stroke:#000000;stroke-width:0.25;" x="102.517083" xlink:href="#mca5a67b6a7" y="63.097667"/>
     <use style="fill:#7e59a2;stroke:#000000;stroke-width:0.25;" x="109.28339" xlink:href="#mca5a67b6a7" y="41.324237"/>
     <use style="fill:#7e59a2;stroke:#000000;stroke-width:0.25;" x="114.401903" xlink:href="#mca5a67b6a7" y="31.843321"/>
     <use style="fill:#7e59a2;stroke:#000000;stroke-width:0.25;" x="119.520417" xlink:href="#mca5a67b6a7" y="27.773422"/>
     <use style="fill:#7e59a2;stroke:#000000;stroke-width:0.25;" x="131.405237" xlink:href="#mca5a67b6a7" y="23.444061"/>
    </g>
   </g>
   <g id="line2d_9">
    <defs>
     <path d="M 0 1.25 
C 0.331504 1.25 0.649475 1.118292 0.883883 0.883883 
C 1.118292 0.649475 1.25 0.331504 1.25 0 
C 1.25 -0.331504 1.118292 -0.649475 0.883883 -0.883883 
C 0.649475 -1.118292 0.331504 -1.25 0 -1.25 
C -0.331504 -1.25 -0.649475 -1.118292 -0.883883 -0.883883 
C -1.118292 -0.649475 -1.25 -0.331504 -1.25 0 
C -1.25 0.331504 -1.118292 0.649475 -0.883883 0.883883 
C -0.649475 1.118292 -0.331504 1.25 0 1.25 
z
" id="m73d1a40429" style="stroke:#000000;stroke-width:0.25;"/>
    </defs>
    <g clip-path="url(#pbac2c7303a)">
     <use style="fill:#a17db8;stroke:#000000;stroke-width:0.25;" x="-1" xlink:href="#m73d1a40429" y="102.191545"/>
     <use style="fill:#a17db8;stroke:#000000;stroke-width:0.25;" x="51.507083" xlink:href="#m73d1a40429" y="102.192254"/>
     <use style="fill:#a17db8;stroke:#000000;stroke-width:0.25;" x="80.395237" xlink:href="#m73d1a40429" y="101.301916"/>
     <use style="fill:#a17db8;stroke:#000000;stroke-width:0.25;" x="85.51375" xlink:href="#m73d1a40429" y="100.335668"/>
     <use style="fill:#a17db8;stroke:#000000;stroke-width:0.25;" x="92.280057" xlink:href="#m73d1a40429" y="96.58192"/>
     <use style="fill:#a17db8;stroke:#000000;stroke-width:0.25;" x="97.39857" xlink:href="#m73d1a40429" y="90.667977"/>
     <use style="fill:#a17db8;stroke:#000000;stroke-width:0.25;" x="100.392708" xlink:href="#m73d1a40429" y="82.193758"/>
     <use style="fill:#a17db8;stroke:#000000;stroke-width:0.25;" x="102.517083" xlink:href="#m73d1a40429" y="76.140826"/>
     <use style="fill:#a17db8;stroke:#000000;stroke-width:0.25;" x="109.28339" xlink:href="#m73d1a40429" y="54.200387"/>
     <use style="fill:#a17db8;stroke:#000000;stroke-width:0.25;" x="114.401903" xlink:href="#m73d1a40429" y="42.69347"/>
     <use style="fill:#a17db8;stroke:#000000;stroke-width:0.25;" x="119.520417" xlink:href="#m73d1a40429" y="39.507665"/>
     <use style="fill:#a17db8;stroke:#000000;stroke-width:0.25;" x="131.405237" xlink:href="#m73d1a40429" y="33.24904"/>
    </g>
   </g>
   <g id="line2d_10">
    <defs>
     <path d="M 0 1.25 
C 0.331504 1.25 0.649475 1.118292 0.883883 0.883883 
C 1.118292 0.649475 1.25 0.331504 1.25 0 
C 1.25 -0.331504 1.118292 -0.649475 0.883883 -0.883883 
C 0.649475 -1.118292 0.331504 -1.25 0 -1.25 
C -0.331504 -1.25 -0.649475 -1.118292 -0.883883 -0.883883 
C -1.118292 -0.649475 -1.25 -0.331504 -1.25 0 
C -1.25 0.331504 -1.118292 0.649475 -0.883883 0.883883 
C -0.649475 1.118292 -0.331504 1.25 0 1.25 
z
" id="mbac86ce53a" style="stroke:#000000;stroke-width:0.25;"/>
    </defs>
    <g clip-path="url(#pbac2c7303a)">
     <use style="fill:#dfd6e5;stroke:#000000;stroke-width:0.25;" x="-1" xlink:href="#mbac86ce53a" y="96.603258"/>
     <use style="fill:#dfd6e5;stroke:#000000;stroke-width:0.25;" x="51.507083" xlink:href="#mbac86ce53a" y="96.596848"/>
     <use style="fill:#dfd6e5;stroke:#000000;stroke-width:0.25;" x="80.395237" xlink:href="#mbac86ce53a" y="91.095636"/>
     <use style="fill:#dfd6e5;stroke:#000000;stroke-width:0.25;" x="85.51375" xlink:href="#mbac86ce53a" y="82.929988"/>
     <use style="fill:#dfd6e5;stroke:#000000;stroke-width:0.25;" x="92.280057" xlink:href="#mbac86ce53a" y="59.702826"/>
     <use style="fill:#dfd6e5;stroke:#000000;stroke-width:0.25;" x="97.39857" xlink:href="#mbac86ce53a" y="37.399942"/>
     <use style="fill:#dfd6e5;stroke:#000000;stroke-width:0.25;" x="100.392708" xlink:href="#mbac86ce53a" y="29.531538"/>
     <use style="fill:#dfd6e5;stroke:#000000;stroke-width:0.25;" x="102.517083" xlink:href="#mbac86ce53a" y="21.92876"/>
     <use style="fill:#dfd6e5;stroke:#000000;stroke-width:0.25;" x="109.28339" xlink:href="#mbac86ce53a" y="16.092132"/>
     <use style="fill:#dfd6e5;stroke:#000000;stroke-width:0.25;" x="114.401903" xlink:href="#mbac86ce53a" y="14.482476"/>
     <use style="fill:#dfd6e5;stroke:#000000;stroke-width:0.25;" x="119.520417" xlink:href="#mbac86ce53a" y="13.953281"/>
     <use style="fill:#dfd6e5;stroke:#000000;stroke-width:0.25;" x="131.405237" xlink:href="#mbac86ce53a" y="16.01303"/>
    </g>
   </g>
   <g id="line2d_11">
    <defs>
     <path d="M 0 1.25 
C 0.331504 1.25 0.649475 1.118292 0.883883 0.883883 
C 1.118292 0.649475 1.25 0.331504 1.25 0 
C 1.25 -0.331504 1.118292 -0.649475 0.883883 -0.883883 
C 0.649475 -1.118292 0.331504 -1.25 0 -1.25 
C -0.331504 -1.25 -0.649475 -1.118292 -0.883883 -0.883883 
C -1.118292 -0.649475 -1.25 -0.331504 -1.25 0 
C -1.25 0.331504 -1.118292 0.649475 -0.883883 0.883883 
C -0.649475 1.118292 -0.331504 1.25 0 1.25 
z
" id="m0b2227578c" style="stroke:#000000;stroke-width:0.25;"/>
    </defs>
    <g clip-path="url(#pbac2c7303a)">
     <use style="fill:#f38227;stroke:#000000;stroke-width:0.25;" x="-1" xlink:href="#m0b2227578c" y="100.120489"/>
     <use style="fill:#f38227;stroke:#000000;stroke-width:0.25;" x="51.507083" xlink:href="#m0b2227578c" y="100.120492"/>
     <use style="fill:#f38227;stroke:#000000;stroke-width:0.25;" x="80.395237" xlink:href="#m0b2227578c" y="95.307221"/>
     <use style="fill:#f38227;stroke:#000000;stroke-width:0.25;" x="85.51375" xlink:href="#m0b2227578c" y="89.305375"/>
     <use style="fill:#f38227;stroke:#000000;stroke-width:0.25;" x="92.280057" xlink:href="#m0b2227578c" y="68.050238"/>
     <use style="fill:#f38227;stroke:#000000;stroke-width:0.25;" x="97.39857" xlink:href="#m0b2227578c" y="45.510668"/>
     <use style="fill:#f38227;stroke:#000000;stroke-width:0.25;" x="100.392708" xlink:href="#m0b2227578c" y="35.881069"/>
     <use style="fill:#f38227;stroke:#000000;stroke-width:0.25;" x="102.517083" xlink:href="#m0b2227578c" y="27.713216"/>
     <use style="fill:#f38227;stroke:#000000;stroke-width:0.25;" x="109.28339" xlink:href="#m0b2227578c" y="17.710295"/>
     <use style="fill:#f38227;stroke:#000000;stroke-width:0.25;" x="114.401903" xlink:href="#m0b2227578c" y="15.689932"/>
     <use style="fill:#f38227;stroke:#000000;stroke-width:0.25;" x="119.520417" xlink:href="#m0b2227578c" y="15.558981"/>
     <use style="fill:#f38227;stroke:#000000;stroke-width:0.25;" x="131.405237" xlink:href="#m0b2227578c" y="17.068518"/>
    </g>
   </g>
   <g id="line2d_12">
    <defs>
     <path d="M 0 1.25 
C 0.331504 1.25 0.649475 1.118292 0.883883 0.883883 
C 1.118292 0.649475 1.25 0.331504 1.25 0 
C 1.25 -0.331504 1.118292 -0.649475 0.883883 -0.883883 
C 0.649475 -1.118292 0.331504 -1.25 0 -1.25 
C -0.331504 -1.25 -0.649475 -1.118292 -0.883883 -0.883883 
C -1.118292 -0.649475 -1.25 -0.331504 -1.25 0 
C -1.25 0.331504 -1.118292 0.649475 -0.883883 0.883883 
C -0.649475 1.118292 -0.331504 1.25 0 1.25 
z
" id="m8587a682f6" style="stroke:#000000;stroke-width:0.25;"/>
    </defs>
    <g clip-path="url(#pbac2c7303a)">
     <use style="fill:#e39943;stroke:#000000;stroke-width:0.25;" x="-1" xlink:href="#m8587a682f6" y="101.281368"/>
     <use style="fill:#e39943;stroke:#000000;stroke-width:0.25;" x="51.507083" xlink:href="#m8587a682f6" y="101.281587"/>
     <use style="fill:#e39943;stroke:#000000;stroke-width:0.25;" x="80.395237" xlink:href="#m8587a682f6" y="98.670273"/>
     <use style="fill:#e39943;stroke:#000000;stroke-width:0.25;" x="85.51375" xlink:href="#m8587a682f6" y="95.469253"/>
     <use style="fill:#e39943;stroke:#000000;stroke-width:0.25;" x="92.280057" xlink:href="#m8587a682f6" y="80.59877"/>
     <use style="fill:#e39943;stroke:#000000;stroke-width:0.25;" x="97.39857" xlink:href="#m8587a682f6" y="59.756595"/>
     <use style="fill:#e39943;stroke:#000000;stroke-width:0.25;" x="100.392708" xlink:href="#m8587a682f6" y="49.13866"/>
     <use style="fill:#e39943;stroke:#000000;stroke-width:0.25;" x="102.517083" xlink:href="#m8587a682f6" y="38.057121"/>
     <use style="fill:#e39943;stroke:#000000;stroke-width:0.25;" x="109.28339" xlink:href="#m8587a682f6" y="22.707664"/>
     <use style="fill:#e39943;stroke:#000000;stroke-width:0.25;" x="114.401903" xlink:href="#m8587a682f6" y="19.840943"/>
     <use style="fill:#e39943;stroke:#000000;stroke-width:0.25;" x="119.520417" xlink:href="#m8587a682f6" y="19.479174"/>
     <use style="fill:#e39943;stroke:#000000;stroke-width:0.25;" x="131.405237" xlink:href="#m8587a682f6" y="21.477558"/>
    </g>
   </g>
   <g id="line2d_13">
    <defs>
     <path d="M 0 1.25 
C 0.331504 1.25 0.649475 1.118292 0.883883 0.883883 
C 1.118292 0.649475 1.25 0.331504 1.25 0 
C 1.25 -0.331504 1.118292 -0.649475 0.883883 -0.883883 
C 0.649475 -1.118292 0.331504 -1.25 0 -1.25 
C -0.331504 -1.25 -0.649475 -1.118292 -0.883883 -0.883883 
C -1.118292 -0.649475 -1.25 -0.331504 -1.25 0 
C -1.25 0.331504 -1.118292 0.649475 -0.883883 0.883883 
C -0.649475 1.118292 -0.331504 1.25 0 1.25 
z
" id="m50583eb51f" style="stroke:#000000;stroke-width:0.25;"/>
    </defs>
    <g clip-path="url(#pbac2c7303a)">
     <use style="fill:#eeba7f;stroke:#000000;stroke-width:0.25;" x="-1" xlink:href="#m50583eb51f" y="24.157465"/>
     <use style="fill:#eeba7f;stroke:#000000;stroke-width:0.25;" x="51.507083" xlink:href="#m50583eb51f" y="24.158468"/>
     <use style="fill:#eeba7f;stroke:#000000;stroke-width:0.25;" x="68.510417" xlink:href="#m50583eb51f" y="19.796223"/>
     <use style="fill:#eeba7f;stroke:#000000;stroke-width:0.25;" x="80.395237" xlink:href="#m50583eb51f" y="15.066701"/>
     <use style="fill:#eeba7f;stroke:#000000;stroke-width:0.25;" x="85.51375" xlink:href="#m50583eb51f" y="12.24849"/>
     <use style="fill:#eeba7f;stroke:#000000;stroke-width:0.25;" x="92.280057" xlink:href="#m50583eb51f" y="13.854329"/>
     <use style="fill:#eeba7f;stroke:#000000;stroke-width:0.25;" x="97.39857" xlink:href="#m50583eb51f" y="10.51847"/>
     <use style="fill:#eeba7f;stroke:#000000;stroke-width:0.25;" x="100.392708" xlink:href="#m50583eb51f" y="8.140784"/>
     <use style="fill:#eeba7f;stroke:#000000;stroke-width:0.25;" x="102.517083" xlink:href="#m50583eb51f" y="14.052672"/>
     <use style="fill:#eeba7f;stroke:#000000;stroke-width:0.25;" x="109.28339" xlink:href="#m50583eb51f" y="8.975476"/>
     <use style="fill:#eeba7f;stroke:#000000;stroke-width:0.25;" x="114.401903" xlink:href="#m50583eb51f" y="10.644638"/>
     <use style="fill:#eeba7f;stroke:#000000;stroke-width:0.25;" x="119.520417" xlink:href="#m50583eb51f" y="9.648201"/>
    </g>
   </g>
   <g id="line2d_14">
    <defs>
     <path d="M 0 1.25 
C 0.331504 1.25 0.649475 1.118292 0.883883 0.883883 
C 1.118292 0.649475 1.25 0.331504 1.25 0 
C 1.25 -0.331504 1.118292 -0.649475 0.883883 -0.883883 
C 0.649475 -1.118292 0.331504 -1.25 0 -1.25 
C -0.331504 -1.25 -0.649475 -1.118292 -0.883883 -0.883883 
C -1.118292 -0.649475 -1.25 -0.331504 -1.25 0 
C -1.25 0.331504 -1.118292 0.649475 -0.883883 0.883883 
C -0.649475 1.118292 -0.331504 1.25 0 1.25 
z
" id="m43996741be" style="stroke:#000000;stroke-width:0.25;"/>
    </defs>
    <g clip-path="url(#pbac2c7303a)">
     <use style="fill:#f2d4b6;stroke:#000000;stroke-width:0.25;" x="-1" xlink:href="#m43996741be" y="33.400494"/>
     <use style="fill:#f2d4b6;stroke:#000000;stroke-width:0.25;" x="51.507083" xlink:href="#m43996741be" y="33.410551"/>
     <use style="fill:#f2d4b6;stroke:#000000;stroke-width:0.25;" x="68.510417" xlink:href="#m43996741be" y="26.273758"/>
     <use style="fill:#f2d4b6;stroke:#000000;stroke-width:0.25;" x="80.395237" xlink:href="#m43996741be" y="18.017815"/>
     <use style="fill:#f2d4b6;stroke:#000000;stroke-width:0.25;" x="85.51375" xlink:href="#m43996741be" y="15.223068"/>
     <use style="fill:#f2d4b6;stroke:#000000;stroke-width:0.25;" x="92.280057" xlink:href="#m43996741be" y="12.400035"/>
     <use style="fill:#f2d4b6;stroke:#000000;stroke-width:0.25;" x="97.39857" xlink:href="#m43996741be" y="9.732623"/>
     <use style="fill:#f2d4b6;stroke:#000000;stroke-width:0.25;" x="100.392708" xlink:href="#m43996741be" y="9.33774"/>
     <use style="fill:#f2d4b6;stroke:#000000;stroke-width:0.25;" x="102.517083" xlink:href="#m43996741be" y="14.611323"/>
     <use style="fill:#f2d4b6;stroke:#000000;stroke-width:0.25;" x="109.28339" xlink:href="#m43996741be" y="10.719332"/>
     <use style="fill:#f2d4b6;stroke:#000000;stroke-width:0.25;" x="114.401903" xlink:href="#m43996741be" y="11.529687"/>
     <use style="fill:#f2d4b6;stroke:#000000;stroke-width:0.25;" x="119.520417" xlink:href="#m43996741be" y="9.673349"/>
    </g>
   </g>
   <g id="line2d_15">
    <defs>
     <path d="M 0 1.25 
C 0.331504 1.25 0.649475 1.118292 0.883883 0.883883 
C 1.118292 0.649475 1.25 0.331504 1.25 0 
C 1.25 -0.331504 1.118292 -0.649475 0.883883 -0.883883 
C 0.649475 -1.118292 0.331504 -1.25 0 -1.25 
C -0.331504 -1.25 -0.649475 -1.118292 -0.883883 -0.883883 
C -1.118292 -0.649475 -1.25 -0.331504 -1.25 0 
C -1.25 0.331504 -1.118292 0.649475 -0.883883 0.883883 
C -0.649475 1.118292 -0.331504 1.25 0 1.25 
z
" id="m2c29634ba5" style="stroke:#000000;stroke-width:0.25;"/>
    </defs>
    <g clip-path="url(#pbac2c7303a)">
     <use style="fill:#3f60ac;stroke:#000000;stroke-width:0.25;" x="-1" xlink:href="#m2c29634ba5" y="46.811245"/>
     <use style="fill:#3f60ac;stroke:#000000;stroke-width:0.25;" x="51.507083" xlink:href="#m2c29634ba5" y="46.816621"/>
     <use style="fill:#3f60ac;stroke:#000000;stroke-width:0.25;" x="68.510417" xlink:href="#m2c29634ba5" y="39.596656"/>
     <use style="fill:#3f60ac;stroke:#000000;stroke-width:0.25;" x="80.395237" xlink:href="#m2c29634ba5" y="27.203887"/>
     <use style="fill:#3f60ac;stroke:#000000;stroke-width:0.25;" x="85.51375" xlink:href="#m2c29634ba5" y="22.377269"/>
     <use style="fill:#3f60ac;stroke:#000000;stroke-width:0.25;" x="92.280057" xlink:href="#m2c29634ba5" y="16.254608"/>
     <use style="fill:#3f60ac;stroke:#000000;stroke-width:0.25;" x="97.39857" xlink:href="#m2c29634ba5" y="12.493056"/>
     <use style="fill:#3f60ac;stroke:#000000;stroke-width:0.25;" x="100.392708" xlink:href="#m2c29634ba5" y="10.59875"/>
     <use style="fill:#3f60ac;stroke:#000000;stroke-width:0.25;" x="102.517083" xlink:href="#m2c29634ba5" y="11.836415"/>
     <use style="fill:#3f60ac;stroke:#000000;stroke-width:0.25;" x="109.28339" xlink:href="#m2c29634ba5" y="10.033992"/>
     <use style="fill:#3f60ac;stroke:#000000;stroke-width:0.25;" x="114.401903" xlink:href="#m2c29634ba5" y="9.741794"/>
     <use style="fill:#3f60ac;stroke:#000000;stroke-width:0.25;" x="119.520417" xlink:href="#m2c29634ba5" y="13.286395"/>
    </g>
   </g>
   <g id="line2d_16">
    <path clip-path="url(#pbac2c7303a)" d="M 34.50375 100.998856 
L 67.826866 100.891291 
L 72.953499 100.687038 
L 76.029479 100.38089 
L 78.080132 100.010209 
L 80.130785 99.406447 
L 81.668775 98.718475 
L 83.206765 97.737528 
L 84.232092 96.867756 
L 85.257418 95.780725 
L 86.282745 94.433268 
L 87.308072 92.779732 
L 88.333398 90.775096 
L 89.358725 88.379591 
L 90.384052 85.564708 
L 91.922041 80.539768 
L 93.460031 74.626345 
L 95.510685 65.757739 
L 99.099328 49.960613 
L 100.637318 43.990037 
L 102.175308 38.8007 
L 103.713298 34.438611 
L 105.251288 30.861686 
L 106.789278 27.978639 
L 108.327268 25.680307 
L 109.865258 23.859495 
L 111.403247 22.42097 
L 112.941237 21.284888 
L 114.479227 20.38661 
L 116.529881 19.471879 
L 118.580534 18.798199 
L 121.143851 18.196606 
L 124.21983 17.714583 
L 128.321137 17.325457 
L 133.960433 17.050494 
L 136.52375 16.980803 
L 136.52375 16.980803 
" style="fill:none;stroke:#5f2e88;stroke-linecap:square;"/>
   </g>
   <g id="line2d_17">
    <path clip-path="url(#pbac2c7303a)" d="M 34.50375 101.814067 
L 71.415509 101.703502 
L 76.542142 101.470648 
L 79.618122 101.112421 
L 81.668775 100.676066 
L 83.206765 100.17735 
L 84.744755 99.464324 
L 86.282745 98.455247 
L 87.308072 97.568164 
L 88.333398 96.469149 
L 89.358725 95.120714 
L 90.384052 93.485143 
L 91.409378 91.527717 
L 92.434705 89.220955 
L 93.972695 85.076906 
L 95.510685 80.141209 
L 97.561338 72.577004 
L 102.687971 52.756164 
L 104.225961 47.651145 
L 105.763951 43.20063 
L 107.301941 39.420913 
L 108.839931 36.272657 
L 110.377921 33.686154 
L 111.915911 31.580663 
L 113.453901 29.876638 
L 114.991891 28.502111 
L 116.529881 27.395166 
L 118.580534 26.247587 
L 120.631187 25.387893 
L 123.194504 24.608707 
L 125.75782 24.063529 
L 129.346464 23.562309 
L 133.44777 23.223564 
L 136.52375 23.068901 
L 136.52375 23.068901 
" style="fill:none;stroke:#7e59a2;stroke-linecap:square;"/>
   </g>
   <g id="line2d_18">
    <path clip-path="url(#pbac2c7303a)" d="M 34.50375 102.219216 
L 74.491489 102.115163 
L 79.618122 101.880258 
L 82.694102 101.515673 
L 84.744755 101.073279 
L 86.282745 100.571567 
L 87.820735 99.861708 
L 89.358725 98.870991 
L 90.896715 97.512646 
L 91.922041 96.355946 
L 92.947368 94.965713 
L 94.485358 92.39006 
L 96.023348 89.181026 
L 97.561338 85.340405 
L 99.611991 79.378003 
L 103.200634 67.795682 
L 105.763951 59.880175 
L 107.814604 54.338495 
L 109.352594 50.756501 
L 110.890584 47.676368 
L 112.428574 45.070057 
L 113.966564 42.891019 
L 115.504554 41.08513 
L 117.042544 39.597887 
L 118.580534 38.378504 
L 120.631187 37.092199 
L 122.68184 36.112637 
L 124.732494 35.3683 
L 127.29581 34.684989 
L 130.37179 34.123363 
L 133.960433 33.704749 
L 136.52375 33.508504 
L 136.52375 33.508504 
" style="fill:none;stroke:#a17db8;stroke-linecap:square;"/>
   </g>
   <g id="line2d_19">
    <path clip-path="url(#pbac2c7303a)" d="M 34.50375 96.455983 
L 61.162242 96.341126 
L 66.801539 96.134718 
L 70.390182 95.798249 
L 72.953499 95.32616 
L 75.004152 94.688881 
L 76.542142 93.969576 
L 78.080132 92.947772 
L 79.105459 92.041881 
L 80.130785 90.907551 
L 81.156112 89.496511 
L 82.181438 87.756354 
L 83.206765 85.633729 
L 84.232092 83.079525 
L 85.257418 80.056141 
L 86.795408 74.611532 
L 88.333398 68.153255 
L 90.384052 58.444272 
L 93.460031 43.721872 
L 94.998021 37.25997 
L 96.536011 31.755297 
L 98.074001 27.261418 
L 99.611991 23.707577 
L 100.637318 21.794792 
L 102.175308 19.496525 
L 103.713298 17.752267 
L 105.251288 16.433385 
L 106.789278 15.435875 
L 108.327268 14.679143 
L 110.377921 13.941799 
L 112.941237 13.318824 
L 116.017217 12.847007 
L 120.118524 12.485858 
L 125.75782 12.242246 
L 134.98576 12.097554 
L 136.52375 12.086843 
L 136.52375 12.086843 
" style="fill:none;stroke:#dfd6e5;stroke-linecap:square;"/>
   </g>
   <g id="line2d_20">
    <path clip-path="url(#pbac2c7303a)" d="M 34.50375 99.517268 
L 64.750886 99.403926 
L 70.390182 99.174669 
L 73.466162 98.857519 
L 75.516815 98.478333 
L 77.567469 97.864529 
L 79.105459 97.166695 
L 80.643448 96.171215 
L 81.668775 95.286806 
L 82.694102 94.178466 
L 83.719428 92.799589 
L 84.744755 91.099923 
L 85.770082 89.028686 
L 86.795408 86.539485 
L 87.820735 83.597046 
L 89.358725 78.305598 
L 90.896715 72.031677 
L 92.947368 62.574305 
L 96.536011 45.805746 
L 98.074001 39.577826 
L 99.611991 34.255568 
L 101.149981 29.870823 
L 102.687971 26.354211 
L 104.225961 23.584808 
L 105.763951 21.428006 
L 107.301941 19.757763 
L 108.839931 18.466432 
L 110.377921 17.466913 
L 111.915911 16.690999 
L 113.966564 15.915558 
L 116.529881 15.240639 
L 119.605861 14.713493 
L 123.194504 14.337308 
L 128.321137 14.046863 
L 136.011087 13.864408 
L 136.52375 13.857808 
L 136.52375 13.857808 
" style="fill:none;stroke:#f38227;stroke-linecap:square;"/>
   </g>
   <g id="line2d_21">
    <path clip-path="url(#pbac2c7303a)" d="M 34.50375 101.099442 
L 68.339529 100.987747 
L 73.466162 100.77228 
L 76.542142 100.447852 
L 78.592795 100.05452 
L 80.643448 99.413937 
L 82.181438 98.684787 
L 83.719428 97.64704 
L 84.744755 96.728927 
L 85.770082 95.584182 
L 86.795408 94.169286 
L 87.820735 92.439021 
L 88.846062 90.34994 
L 89.871388 87.865302 
L 91.409378 83.349685 
L 92.947368 77.903352 
L 94.998021 69.464709 
L 100.124655 47.358642 
L 101.662644 41.798405 
L 103.200634 37.042082 
L 104.738624 33.088726 
L 106.276614 29.870093 
L 107.814604 27.285784 
L 109.352594 25.228351 
L 110.890584 23.597674 
L 112.428574 22.307304 
L 113.966564 21.285908 
L 116.017217 20.245225 
L 118.067871 19.478715 
L 120.631187 18.794405 
L 123.707167 18.246383 
L 127.29581 17.846652 
L 132.422443 17.53233 
L 136.52375 17.400174 
L 136.52375 17.400174 
" style="fill:none;stroke:#e39943;stroke-linecap:square;"/>
   </g>
   <g id="line2d_22">
    <path clip-path="url(#pbac2c7303a)" d="M 34.50375 26.394063 
L 56.548273 26.272362 
L 62.700232 26.052991 
L 66.288876 25.745672 
L 68.852192 25.348653 
L 70.902845 24.851871 
L 72.953499 24.121696 
L 74.491489 23.375392 
L 76.029479 22.430652 
L 78.080132 20.857108 
L 80.643448 18.514519 
L 83.719428 15.670815 
L 85.770082 14.085931 
L 87.308072 13.139624 
L 88.846062 12.400475 
L 90.896715 11.692138 
L 92.947368 11.226119 
L 95.510685 10.871234 
L 99.099328 10.617036 
L 104.738624 10.465388 
L 118.067871 10.396138 
L 136.52375 10.387502 
L 136.52375 10.387502 
" style="fill:none;stroke:#eeba7f;stroke-linecap:square;"/>
   </g>
   <g id="line2d_23">
    <path clip-path="url(#pbac2c7303a)" d="M 34.50375 38.312914 
L 54.497619 38.184224 
L 60.649579 37.959397 
L 64.238222 37.652151 
L 66.801539 37.257548 
L 68.852192 36.759592 
L 70.902845 36.010171 
L 72.440835 35.215408 
L 73.978825 34.158855 
L 75.516815 32.785287 
L 77.054805 31.056489 
L 78.592795 28.973323 
L 80.643448 25.759464 
L 84.744755 19.151956 
L 86.282745 17.094268 
L 87.820735 15.402167 
L 89.358725 14.074657 
L 90.896715 13.070171 
L 92.434705 12.329724 
L 94.485358 11.650734 
L 96.536011 11.216404 
L 99.099328 10.888433 
L 103.200634 10.628842 
L 109.865258 10.481824 
L 126.270484 10.420165 
L 136.52375 10.415607 
L 136.52375 10.415607 
" style="fill:none;stroke:#f2d4b6;stroke-linecap:square;"/>
   </g>
   <g id="line2d_24">
    <path clip-path="url(#pbac2c7303a)" d="M 34.50375 54.348591 
L 53.472293 54.219549 
L 60.136916 53.964622 
L 63.725559 53.632527 
L 66.288876 53.205348 
L 68.339529 52.66315 
L 69.877519 52.077831 
L 71.415509 51.276336 
L 72.953499 50.184898 
L 74.491489 48.715971 
L 75.516815 47.481101 
L 77.054805 45.184518 
L 78.592795 42.31447 
L 80.130785 38.894502 
L 82.181438 33.711547 
L 85.257418 25.794578 
L 86.795408 22.336373 
L 88.333398 19.429633 
L 89.871388 17.107594 
L 91.409378 15.324948 
L 92.947368 13.995763 
L 94.485358 13.024289 
L 96.023348 12.323015 
L 98.074001 11.686391 
L 100.637318 11.201517 
L 103.713298 10.880323 
L 108.327268 10.654571 
L 116.529881 10.522848 
L 136.52375 10.475273 
L 136.52375 10.475273 
" style="fill:none;stroke:#3f60ac;stroke-linecap:square;"/>
   </g>
   <g id="patch_3">
    <path d="M 34.50375 103.16 
L 34.50375 7.2 
" style="fill:none;stroke:#444147;stroke-linecap:square;stroke-linejoin:miter;stroke-width:0.25;"/>
   </g>
   <g id="patch_4">
    <path d="M 34.50375 103.16 
L 136.52375 103.16 
" style="fill:none;stroke:#444147;stroke-linecap:square;stroke-linejoin:miter;stroke-width:0.25;"/>
   </g>
  </g>
  <g id="axes_2"/>
  <g id="axes_3">
   <g id="patch_5">
    <path d="M 315.30375 103.16 
L 417.32375 103.16 
L 417.32375 7.2 
L 315.30375 7.2 
z
" style="fill:#efefef;"/>
   </g>
   <g id="matplotlib.axis_3">
    <g id="xtick_4">
     <g id="line2d_25"/>
     <g id="text_9">
      <!-- −8 -->
      <defs>
       <path d="M 16.59375 33.90625 
C 8.59375 30.5 3.703125 24.703125 3.703125 16.5 
C 3.703125 7 11.90625 -1.09375 25.5 -1.09375 
C 37.90625 -1.09375 47.59375 6.5 47.59375 17.796875 
C 47.59375 25.703125 42.59375 31.40625 34.5 34.59375 
L 34.5 34.90625 
C 42.5 38.703125 45.203125 44.59375 45.203125 50.09375 
C 45.203125 58.203125 38.90625 66.09375 26.296875 66.09375 
C 14.90625 66.09375 6.203125 59.09375 6.203125 48.796875 
C 6.203125 43.203125 9.296875 37.59375 16.5 34.203125 
z
M 25.703125 5.296875 
C 17.40625 5.296875 12.40625 11.09375 12.703125 17.703125 
C 12.703125 23.90625 16.796875 28.90625 24.40625 31.09375 
C 33.203125 28.59375 38.703125 24.796875 38.703125 16.90625 
C 38.703125 10.296875 33.59375 5.296875 25.703125 5.296875 
z
M 25.796875 59.796875 
C 33.703125 59.796875 36.796875 54.40625 36.796875 49.203125 
C 36.796875 43.296875 32.5 39.296875 26.90625 37.40625 
C 19.40625 39.40625 14.5 42.90625 14.5 49.40625 
C 14.5 55 18.5 59.796875 25.796875 59.796875 
z
" id="MyriadPro-Regular-56"/>
      </defs>
      <g style="fill:#444147;" transform="translate(321.870282 114.84)scale(0.08 -0.08)">
       <use xlink:href="#MyriadPro-Regular-8722"/>
       <use x="59.599991" xlink:href="#MyriadPro-Regular-56"/>
      </g>
     </g>
    </g>
    <g id="xtick_5">
     <g id="line2d_26"/>
     <g id="text_10">
      <!-- 0 -->
      <g style="fill:#444147;" transform="translate(364.261875 114.84)scale(0.08 -0.08)">
       <use xlink:href="#MyriadPro-Regular-48"/>
      </g>
     </g>
    </g>
    <g id="xtick_6">
     <g id="line2d_27"/>
     <g id="text_11">
      <!-- 8 -->
      <g style="fill:#444147;" transform="translate(404.269718 114.84)scale(0.08 -0.08)">
       <use xlink:href="#MyriadPro-Regular-56"/>
      </g>
     </g>
    </g>
    <g id="text_12">
     <!-- Bohr parameter [$k_BT$] -->
     <defs>
      <path d="M 7.59375 0.203125 
C 10.5 -0.203125 15.09375 -0.59375 21.09375 -0.59375 
C 32.09375 -0.59375 39.703125 1.40625 44.40625 5.703125 
C 47.796875 9 50.09375 13.40625 50.09375 19.203125 
C 50.09375 29.203125 42.59375 34.5 36.203125 36.09375 
L 36.203125 36.296875 
C 43.296875 38.90625 47.59375 44.59375 47.59375 51.09375 
C 47.59375 56.40625 45.5 60.40625 42 63 
C 37.796875 66.40625 32.203125 67.90625 23.5 67.90625 
C 17.40625 67.90625 11.40625 67.296875 7.59375 66.5 
z
M 16.296875 60.59375 
C 17.703125 60.90625 20 61.203125 24 61.203125 
C 32.796875 61.203125 38.796875 58.09375 38.796875 50.203125 
C 38.796875 43.703125 33.40625 38.90625 24.203125 38.90625 
L 16.296875 38.90625 
z
M 16.296875 32.296875 
L 23.5 32.296875 
C 33 32.296875 40.90625 28.5 40.90625 19.296875 
C 40.90625 9.5 32.59375 6.203125 23.59375 6.203125 
C 20.5 6.203125 18 6.296875 16.296875 6.59375 
z
" id="MyriadPro-Regular-66"/>
      <path d="M 7.296875 0 
L 16 0 
L 16 25.796875 
C 16 27.296875 16.203125 28.703125 16.40625 29.90625 
C 17.59375 36.5 22 41.203125 28.203125 41.203125 
C 29.40625 41.203125 30.296875 41.09375 31.203125 40.90625 
L 31.203125 49.203125 
C 30.40625 49.40625 29.703125 49.5 28.703125 49.5 
C 22.796875 49.5 17.5 45.40625 15.296875 38.90625 
L 14.90625 38.90625 
L 14.59375 48.40625 
L 6.90625 48.40625 
C 7.203125 43.90625 7.296875 39 7.296875 33.296875 
z
" id="MyriadPro-Regular-114"/>
      <path d="M 7.296875 -19.796875 
L 16 -19.796875 
L 16 6.5 
L 16.203125 6.5 
C 19.09375 1.703125 24.703125 -1.09375 31.09375 -1.09375 
C 42.5 -1.09375 53.09375 7.5 53.09375 24.90625 
C 53.09375 39.59375 44.296875 49.5 32.59375 49.5 
C 24.703125 49.5 19 46 15.40625 40.09375 
L 15.203125 40.09375 
L 14.796875 48.40625 
L 6.90625 48.40625 
C 7.09375 43.796875 7.296875 38.796875 7.296875 32.59375 
z
M 16 28 
C 16 29.203125 16.296875 30.5 16.59375 31.59375 
C 18.296875 38.203125 23.90625 42.5 29.90625 42.5 
C 39.203125 42.5 44.296875 34.203125 44.296875 24.5 
C 44.296875 13.40625 38.90625 5.796875 29.59375 5.796875 
C 23.296875 5.796875 18 10 16.40625 16.09375 
C 16.203125 17.203125 16 18.40625 16 19.703125 
z
" id="MyriadPro-Regular-112"/>
      <path d="M 7.296875 0 
L 15.90625 0 
L 15.90625 29.203125 
C 15.90625 30.703125 16.09375 32.203125 16.59375 33.5 
C 18 37.90625 22 42.296875 27.5 42.296875 
C 34.203125 42.296875 37.59375 36.703125 37.59375 29 
L 37.59375 0 
L 46.203125 0 
L 46.203125 29.90625 
C 46.203125 31.5 46.5 33.09375 46.90625 34.296875 
C 48.40625 38.59375 52.296875 42.296875 57.296875 42.296875 
C 64.40625 42.296875 67.796875 36.703125 67.796875 27.40625 
L 67.796875 0 
L 76.40625 0 
L 76.40625 28.5 
C 76.40625 45.296875 66.90625 49.5 60.5 49.5 
C 55.90625 49.5 52.703125 48.296875 49.796875 46.09375 
C 47.796875 44.59375 45.90625 42.5 44.40625 39.796875 
L 44.203125 39.796875 
C 42.09375 45.5 37.09375 49.5 30.5 49.5 
C 22.5 49.5 18 45.203125 15.296875 40.59375 
L 15 40.59375 
L 14.59375 48.40625 
L 6.90625 48.40625 
C 7.203125 44.40625 7.296875 40.296875 7.296875 35.296875 
z
" id="MyriadPro-Regular-109"/>
      <path d="M 9.296875 57.296875 
L 9.296875 48.40625 
L 1.796875 48.40625 
L 1.796875 41.703125 
L 9.296875 41.703125 
L 9.296875 15.296875 
C 9.296875 9.59375 10.203125 5.296875 12.703125 2.703125 
C 14.796875 0.296875 18.09375 -1.09375 22.203125 -1.09375 
C 25.59375 -1.09375 28.296875 -0.5 30 0.203125 
L 29.59375 6.796875 
C 28.296875 6.40625 26.90625 6.203125 24.5 6.203125 
C 19.59375 6.203125 17.90625 9.59375 17.90625 15.59375 
L 17.90625 41.703125 
L 30.5 41.703125 
L 30.5 48.40625 
L 17.90625 48.40625 
L 17.90625 60 
z
" id="MyriadPro-Regular-116"/>
      <path d="M 18.3125 75.984375 
L 27.296875 75.984375 
L 18.703125 31.6875 
L 49.515625 54.6875 
L 61.1875 54.6875 
L 26.8125 28.515625 
L 51.90625 0 
L 41.015625 0 
L 17.671875 26.703125 
L 12.5 0 
L 3.515625 0 
z
" id="DejaVuSans-Oblique-107"/>
      <path d="M 16.890625 72.90625 
L 42.09375 72.90625 
Q 52.34375 72.90625 57.421875 69.09375 
Q 62.5 65.28125 62.5 57.625 
Q 62.5 50.59375 58.125 45.484375 
Q 53.765625 40.375 46.6875 39.3125 
Q 52.734375 37.9375 55.765625 34.078125 
Q 58.796875 30.21875 58.796875 23.78125 
Q 58.796875 12.796875 50.65625 6.390625 
Q 42.53125 0 28.421875 0 
L 2.6875 0 
z
M 19.28125 34.8125 
L 14.109375 8.109375 
L 29.984375 8.109375 
Q 38.921875 8.109375 43.75 12.203125 
Q 48.578125 16.3125 48.578125 23.78125 
Q 48.578125 29.546875 45.375 32.171875 
Q 42.1875 34.8125 35.109375 34.8125 
z
M 25.09375 64.796875 
L 20.796875 42.828125 
L 35.5 42.828125 
Q 43.359375 42.828125 47.78125 46.234375 
Q 52.203125 49.65625 52.203125 55.71875 
Q 52.203125 60.453125 49.21875 62.625 
Q 46.234375 64.796875 39.703125 64.796875 
z
" id="DejaVuSans-Oblique-66"/>
      <path d="M 5.90625 72.90625 
L 67.578125 72.90625 
L 66.015625 64.59375 
L 39.984375 64.59375 
L 27.484375 0 
L 17.578125 0 
L 30.078125 64.59375 
L 4.296875 64.59375 
z
" id="DejaVuSans-Oblique-84"/>
     </defs>
     <g style="fill:#444147;" transform="translate(330.23375 126.50375)scale(0.08 -0.08)">
      <use transform="translate(0 0.015625)" xlink:href="#MyriadPro-Regular-66"/>
      <use transform="translate(54.199997 0.015625)" xlink:href="#MyriadPro-Regular-111"/>
      <use transform="translate(109.099991 0.015625)" xlink:href="#MyriadPro-Regular-104"/>
      <use transform="translate(164.599976 0.015625)" xlink:href="#MyriadPro-Regular-114"/>
      <use transform="translate(197.299973 0.015625)" xlink:href="#MyriadPro-Regular-32"/>
      <use transform="translate(218.499969 0.015625)" xlink:href="#MyriadPro-Regular-112"/>
      <use transform="translate(275.399963 0.015625)" xlink:href="#MyriadPro-Regular-97"/>
      <use transform="translate(323.59996 0.015625)" xlink:href="#MyriadPro-Regular-114"/>
      <use transform="translate(356.299957 0.015625)" xlink:href="#MyriadPro-Regular-97"/>
      <use transform="translate(404.499954 0.015625)" xlink:href="#MyriadPro-Regular-109"/>
      <use transform="translate(487.899948 0.015625)" xlink:href="#MyriadPro-Regular-101"/>
      <use transform="translate(537.999939 0.015625)" xlink:href="#MyriadPro-Regular-116"/>
      <use transform="translate(571.09993 0.015625)" xlink:href="#MyriadPro-Regular-101"/>
      <use transform="translate(621.199921 0.015625)" xlink:href="#MyriadPro-Regular-114"/>
      <use transform="translate(653.899918 0.015625)" xlink:href="#MyriadPro-Regular-32"/>
      <use transform="translate(675.099915 0.015625)" xlink:href="#MyriadPro-Regular-91"/>
      <use transform="translate(703.499908 0.015625)" xlink:href="#DejaVuSans-Oblique-107"/>
      <use transform="translate(761.410065 -16.390625)scale(0.7)" xlink:href="#DejaVuSans-Oblique-66"/>
      <use transform="translate(812.166901 0.015625)" xlink:href="#DejaVuSans-Oblique-84"/>
      <use transform="translate(873.250885 0.015625)" xlink:href="#MyriadPro-Regular-93"/>
     </g>
    </g>
   </g>
   <g id="matplotlib.axis_4">
    <g id="ytick_4">
     <g id="line2d_28"/>
     <g id="text_13">
      <!-- 0.0 -->
      <g style="fill:#444147;" transform="translate(299.44 105.063386)scale(0.08 -0.08)">
       <use xlink:href="#MyriadPro-Regular-48"/>
       <use x="51.299988" xlink:href="#MyriadPro-Regular-46"/>
       <use x="71.999985" xlink:href="#MyriadPro-Regular-48"/>
      </g>
     </g>
    </g>
    <g id="ytick_5">
     <g id="line2d_29"/>
     <g id="text_14">
      <!-- 0.5 -->
      <g style="fill:#444147;" transform="translate(299.44 59.127933)scale(0.08 -0.08)">
       <use xlink:href="#MyriadPro-Regular-48"/>
       <use x="51.299988" xlink:href="#MyriadPro-Regular-46"/>
       <use x="71.999985" xlink:href="#MyriadPro-Regular-53"/>
      </g>
     </g>
    </g>
    <g id="ytick_6">
     <g id="line2d_30"/>
     <g id="text_15">
      <!-- 1.0 -->
      <g style="fill:#444147;" transform="translate(299.44 13.192479)scale(0.08 -0.08)">
       <use xlink:href="#MyriadPro-Regular-49"/>
       <use x="51.299988" xlink:href="#MyriadPro-Regular-46"/>
       <use x="71.999985" xlink:href="#MyriadPro-Regular-48"/>
      </g>
     </g>
    </g>
    <g id="text_16">
     <!-- fold-change -->
     <g style="fill:#444147;" transform="translate(293.7675 75.3725)rotate(-90)scale(0.08 -0.08)">
      <use xlink:href="#MyriadPro-Regular-102"/>
      <use x="29.199997" xlink:href="#MyriadPro-Regular-111"/>
      <use x="84.099991" xlink:href="#MyriadPro-Regular-108"/>
      <use x="107.699982" xlink:href="#MyriadPro-Regular-100"/>
      <use x="164.099976" xlink:href="#MyriadPro-Regular-45"/>
      <use x="194.799973" xlink:href="#MyriadPro-Regular-99"/>
      <use x="239.59996" xlink:href="#MyriadPro-Regular-104"/>
      <use x="295.099945" xlink:href="#MyriadPro-Regular-97"/>
      <use x="343.299942" xlink:href="#MyriadPro-Regular-110"/>
      <use x="398.799927" xlink:href="#MyriadPro-Regular-103"/>
      <use x="454.699921" xlink:href="#MyriadPro-Regular-101"/>
     </g>
    </g>
   </g>
   <g id="line2d_31">
    <path clip-path="url(#p58d5e4c78f)" d="M 316.303946 102.219216 
L 333.392723 102.09643 
L 338.921445 101.840943 
L 342.439723 101.453796 
L 344.952778 100.958274 
L 346.963223 100.345061 
L 348.471056 99.702226 
L 349.978889 98.847641 
L 351.486723 97.717987 
L 352.994556 96.235886 
L 354.502389 94.31039 
L 356.010223 91.84054 
L 357.518056 88.723742 
L 359.025889 84.87056 
L 360.533722 80.226264 
L 362.041556 74.796465 
L 364.052 66.501841 
L 371.088555 35.885772 
L 372.596389 30.712422 
L 374.104222 26.334723 
L 375.612055 22.735306 
L 377.119889 19.845126 
L 378.627722 17.568284 
L 380.135555 15.801427 
L 381.643388 14.44628 
L 383.151222 13.416209 
L 384.659055 12.638571 
L 386.669499 11.894517 
L 388.679944 11.389826 
L 391.192999 10.982895 
L 394.711277 10.66552 
L 399.737388 10.467311 
L 409.286999 10.369509 
L 416.323554 10.356649 
L 416.323554 10.356649 
" style="fill:none;stroke:#000000;stroke-linecap:square;"/>
   </g>
   <g id="line2d_32">
    <defs>
     <path d="M 0 1.25 
C 0.331504 1.25 0.649475 1.118292 0.883883 0.883883 
C 1.118292 0.649475 1.25 0.331504 1.25 0 
C 1.25 -0.331504 1.118292 -0.649475 0.883883 -0.883883 
C 0.649475 -1.118292 0.331504 -1.25 0 -1.25 
C -0.331504 -1.25 -0.649475 -1.118292 -0.883883 -0.883883 
C -1.118292 -0.649475 -1.25 -0.331504 -1.25 0 
C -1.25 0.331504 -1.118292 0.649475 -0.883883 0.883883 
C -0.649475 1.118292 -0.331504 1.25 0 1.25 
z
" id="mf8fca79ef4" style="stroke:#000000;stroke-opacity:0.75;stroke-width:0.25;"/>
    </defs>
    <g clip-path="url(#p58d5e4c78f)">
     <use style="fill:#5f2e88;fill-opacity:0.75;stroke:#000000;stroke-opacity:0.75;stroke-width:0.25;" x="346.101138" xlink:href="#mf8fca79ef4" y="100.98088"/>
     <use style="fill:#5f2e88;fill-opacity:0.75;stroke:#000000;stroke-opacity:0.75;stroke-width:0.25;" x="346.123666" xlink:href="#mf8fca79ef4" y="101.191162"/>
     <use style="fill:#5f2e88;fill-opacity:0.75;stroke:#000000;stroke-opacity:0.75;stroke-width:0.25;" x="349.81991" xlink:href="#mf8fca79ef4" y="99.424184"/>
     <use style="fill:#5f2e88;fill-opacity:0.75;stroke:#000000;stroke-opacity:0.75;stroke-width:0.25;" x="353.907408" xlink:href="#mf8fca79ef4" y="97.370078"/>
     <use style="fill:#5f2e88;fill-opacity:0.75;stroke:#000000;stroke-opacity:0.75;stroke-width:0.25;" x="360.905187" xlink:href="#mf8fca79ef4" y="89.007698"/>
     <use style="fill:#5f2e88;fill-opacity:0.75;stroke:#000000;stroke-opacity:0.75;stroke-width:0.25;" x="366.142271" xlink:href="#mf8fca79ef4" y="72.850097"/>
     <use style="fill:#5f2e88;fill-opacity:0.75;stroke:#000000;stroke-opacity:0.75;stroke-width:0.25;" x="368.881682" xlink:href="#mf8fca79ef4" y="61.519699"/>
     <use style="fill:#5f2e88;fill-opacity:0.75;stroke:#000000;stroke-opacity:0.75;stroke-width:0.25;" x="370.621003" xlink:href="#mf8fca79ef4" y="50.831377"/>
     <use style="fill:#5f2e88;fill-opacity:0.75;stroke:#000000;stroke-opacity:0.75;stroke-width:0.25;" x="374.860804" xlink:href="#mf8fca79ef4" y="31.546966"/>
     <use style="fill:#5f2e88;fill-opacity:0.75;stroke:#000000;stroke-opacity:0.75;stroke-width:0.25;" x="376.813726" xlink:href="#mf8fca79ef4" y="23.865438"/>
     <use style="fill:#5f2e88;fill-opacity:0.75;stroke:#000000;stroke-opacity:0.75;stroke-width:0.25;" x="377.957931" xlink:href="#mf8fca79ef4" y="19.079298"/>
     <use style="fill:#5f2e88;fill-opacity:0.75;stroke:#000000;stroke-opacity:0.75;stroke-width:0.25;" x="378.979627" xlink:href="#mf8fca79ef4" y="15.484205"/>
    </g>
   </g>
   <g id="line2d_33">
    <defs>
     <path d="M 0 1.25 
C 0.331504 1.25 0.649475 1.118292 0.883883 0.883883 
C 1.118292 0.649475 1.25 0.331504 1.25 0 
C 1.25 -0.331504 1.118292 -0.649475 0.883883 -0.883883 
C 0.649475 -1.118292 0.331504 -1.25 0 -1.25 
C -0.331504 -1.25 -0.649475 -1.118292 -0.883883 -0.883883 
C -1.118292 -0.649475 -1.25 -0.331504 -1.25 0 
C -1.25 0.331504 -1.118292 0.649475 -0.883883 0.883883 
C -0.649475 1.118292 -0.331504 1.25 0 1.25 
z
" id="ma91c00c1bb" style="stroke:#000000;stroke-opacity:0.75;stroke-width:0.25;"/>
    </defs>
    <g clip-path="url(#p58d5e4c78f)">
     <use style="fill:#7e59a2;fill-opacity:0.75;stroke:#000000;stroke-opacity:0.75;stroke-width:0.25;" x="342.470741" xlink:href="#ma91c00c1bb" y="101.490779"/>
     <use style="fill:#7e59a2;fill-opacity:0.75;stroke:#000000;stroke-opacity:0.75;stroke-width:0.25;" x="342.493269" xlink:href="#ma91c00c1bb" y="101.665002"/>
     <use style="fill:#7e59a2;fill-opacity:0.75;stroke:#000000;stroke-opacity:0.75;stroke-width:0.25;" x="346.189514" xlink:href="#ma91c00c1bb" y="100.521436"/>
     <use style="fill:#7e59a2;fill-opacity:0.75;stroke:#000000;stroke-opacity:0.75;stroke-width:0.25;" x="350.277011" xlink:href="#ma91c00c1bb" y="99.038049"/>
     <use style="fill:#7e59a2;fill-opacity:0.75;stroke:#000000;stroke-opacity:0.75;stroke-width:0.25;" x="357.27479" xlink:href="#ma91c00c1bb" y="92.955138"/>
     <use style="fill:#7e59a2;fill-opacity:0.75;stroke:#000000;stroke-opacity:0.75;stroke-width:0.25;" x="362.511874" xlink:href="#ma91c00c1bb" y="82.485195"/>
     <use style="fill:#7e59a2;fill-opacity:0.75;stroke:#000000;stroke-opacity:0.75;stroke-width:0.25;" x="365.251285" xlink:href="#ma91c00c1bb" y="71.3519"/>
     <use style="fill:#7e59a2;fill-opacity:0.75;stroke:#000000;stroke-opacity:0.75;stroke-width:0.25;" x="366.990606" xlink:href="#ma91c00c1bb" y="62.883328"/>
     <use style="fill:#7e59a2;fill-opacity:0.75;stroke:#000000;stroke-opacity:0.75;stroke-width:0.25;" x="371.230407" xlink:href="#ma91c00c1bb" y="41.194817"/>
     <use style="fill:#7e59a2;fill-opacity:0.75;stroke:#000000;stroke-opacity:0.75;stroke-width:0.25;" x="373.18333" xlink:href="#ma91c00c1bb" y="31.750878"/>
     <use style="fill:#7e59a2;fill-opacity:0.75;stroke:#000000;stroke-opacity:0.75;stroke-width:0.25;" x="374.327534" xlink:href="#ma91c00c1bb" y="27.696852"/>
     <use style="fill:#7e59a2;fill-opacity:0.75;stroke:#000000;stroke-opacity:0.75;stroke-width:0.25;" x="375.34923" xlink:href="#ma91c00c1bb" y="23.384377"/>
    </g>
   </g>
   <g id="line2d_34">
    <defs>
     <path d="M 0 1.25 
C 0.331504 1.25 0.649475 1.118292 0.883883 0.883883 
C 1.118292 0.649475 1.25 0.331504 1.25 0 
C 1.25 -0.331504 1.118292 -0.649475 0.883883 -0.883883 
C 0.649475 -1.118292 0.331504 -1.25 0 -1.25 
C -0.331504 -1.25 -0.649475 -1.118292 -0.883883 -0.883883 
C -1.118292 -0.649475 -1.25 -0.331504 -1.25 0 
C -1.25 0.331504 -1.118292 0.649475 -0.883883 0.883883 
C -0.649475 1.118292 -0.331504 1.25 0 1.25 
z
" id="mb465c66423" style="stroke:#000000;stroke-opacity:0.75;stroke-width:0.25;"/>
    </defs>
    <g clip-path="url(#p58d5e4c78f)">
     <use style="fill:#a17db8;fill-opacity:0.75;stroke:#000000;stroke-opacity:0.75;stroke-width:0.25;" x="338.768015" xlink:href="#mb465c66423" y="101.597019"/>
     <use style="fill:#a17db8;fill-opacity:0.75;stroke:#000000;stroke-opacity:0.75;stroke-width:0.25;" x="338.790543" xlink:href="#mb465c66423" y="101.825441"/>
     <use style="fill:#a17db8;fill-opacity:0.75;stroke:#000000;stroke-opacity:0.75;stroke-width:0.25;" x="342.486788" xlink:href="#mb465c66423" y="100.938576"/>
     <use style="fill:#a17db8;fill-opacity:0.75;stroke:#000000;stroke-opacity:0.75;stroke-width:0.25;" x="346.574285" xlink:href="#mb465c66423" y="99.976096"/>
     <use style="fill:#a17db8;fill-opacity:0.75;stroke:#000000;stroke-opacity:0.75;stroke-width:0.25;" x="353.572064" xlink:href="#mb465c66423" y="96.236988"/>
     <use style="fill:#a17db8;fill-opacity:0.75;stroke:#000000;stroke-opacity:0.75;stroke-width:0.25;" x="358.809148" xlink:href="#mb465c66423" y="90.34611"/>
     <use style="fill:#a17db8;fill-opacity:0.75;stroke:#000000;stroke-opacity:0.75;stroke-width:0.25;" x="361.548559" xlink:href="#mb465c66423" y="81.904941"/>
     <use style="fill:#a17db8;fill-opacity:0.75;stroke:#000000;stroke-opacity:0.75;stroke-width:0.25;" x="363.28788" xlink:href="#mb465c66423" y="75.875617"/>
     <use style="fill:#a17db8;fill-opacity:0.75;stroke:#000000;stroke-opacity:0.75;stroke-width:0.25;" x="367.527681" xlink:href="#mb465c66423" y="54.020749"/>
     <use style="fill:#a17db8;fill-opacity:0.75;stroke:#000000;stroke-opacity:0.75;stroke-width:0.25;" x="369.480603" xlink:href="#mb465c66423" y="42.55871"/>
     <use style="fill:#a17db8;fill-opacity:0.75;stroke:#000000;stroke-opacity:0.75;stroke-width:0.25;" x="370.624808" xlink:href="#mb465c66423" y="39.38533"/>
     <use style="fill:#a17db8;fill-opacity:0.75;stroke:#000000;stroke-opacity:0.75;stroke-width:0.25;" x="371.646504" xlink:href="#mb465c66423" y="33.151114"/>
    </g>
   </g>
   <g id="line2d_35">
    <defs>
     <path d="M 0 1.25 
C 0.331504 1.25 0.649475 1.118292 0.883883 0.883883 
C 1.118292 0.649475 1.25 0.331504 1.25 0 
C 1.25 -0.331504 1.118292 -0.649475 0.883883 -0.883883 
C 0.649475 -1.118292 0.331504 -1.25 0 -1.25 
C -0.331504 -1.25 -0.649475 -1.118292 -0.883883 -0.883883 
C -1.118292 -0.649475 -1.25 -0.331504 -1.25 0 
C -1.25 0.331504 -1.118292 0.649475 -0.883883 0.883883 
C -0.649475 1.118292 -0.331504 1.25 0 1.25 
z
" id="mcf8c5ffcc2" style="stroke:#000000;stroke-opacity:0.75;stroke-width:0.25;"/>
    </defs>
    <g clip-path="url(#p58d5e4c78f)">
     <use style="fill:#dfd6e5;fill-opacity:0.75;stroke:#000000;stroke-opacity:0.75;stroke-width:0.25;" x="353.10251" xlink:href="#mcf8c5ffcc2" y="98.317353"/>
     <use style="fill:#dfd6e5;fill-opacity:0.75;stroke:#000000;stroke-opacity:0.75;stroke-width:0.25;" x="353.125038" xlink:href="#mcf8c5ffcc2" y="96.251858"/>
     <use style="fill:#dfd6e5;fill-opacity:0.75;stroke:#000000;stroke-opacity:0.75;stroke-width:0.25;" x="356.821283" xlink:href="#mcf8c5ffcc2" y="90.772101"/>
     <use style="fill:#dfd6e5;fill-opacity:0.75;stroke:#000000;stroke-opacity:0.75;stroke-width:0.25;" x="360.908781" xlink:href="#mcf8c5ffcc2" y="82.638301"/>
     <use style="fill:#dfd6e5;fill-opacity:0.75;stroke:#000000;stroke-opacity:0.75;stroke-width:0.25;" x="367.906559" xlink:href="#mcf8c5ffcc2" y="59.501727"/>
     <use style="fill:#dfd6e5;fill-opacity:0.75;stroke:#000000;stroke-opacity:0.75;stroke-width:0.25;" x="373.143643" xlink:href="#mcf8c5ffcc2" y="37.285828"/>
     <use style="fill:#dfd6e5;fill-opacity:0.75;stroke:#000000;stroke-opacity:0.75;stroke-width:0.25;" x="375.883054" xlink:href="#mcf8c5ffcc2" y="29.448111"/>
     <use style="fill:#dfd6e5;fill-opacity:0.75;stroke:#000000;stroke-opacity:0.75;stroke-width:0.25;" x="377.622375" xlink:href="#mcf8c5ffcc2" y="21.874985"/>
     <use style="fill:#dfd6e5;fill-opacity:0.75;stroke:#000000;stroke-opacity:0.75;stroke-width:0.25;" x="381.862176" xlink:href="#mcf8c5ffcc2" y="16.061121"/>
     <use style="fill:#dfd6e5;fill-opacity:0.75;stroke:#000000;stroke-opacity:0.75;stroke-width:0.25;" x="383.815099" xlink:href="#mcf8c5ffcc2" y="14.457742"/>
     <use style="fill:#dfd6e5;fill-opacity:0.75;stroke:#000000;stroke-opacity:0.75;stroke-width:0.25;" x="384.959304" xlink:href="#mcf8c5ffcc2" y="13.930611"/>
     <use style="fill:#dfd6e5;fill-opacity:0.75;stroke:#000000;stroke-opacity:0.75;stroke-width:0.25;" x="385.980999" xlink:href="#mcf8c5ffcc2" y="15.982327"/>
    </g>
   </g>
   <g id="line2d_36">
    <defs>
     <path d="M 0 1.25 
C 0.331504 1.25 0.649475 1.118292 0.883883 0.883883 
C 1.118292 0.649475 1.25 0.331504 1.25 0 
C 1.25 -0.331504 1.118292 -0.649475 0.883883 -0.883883 
C 0.649475 -1.118292 0.331504 -1.25 0 -1.25 
C -0.331504 -1.25 -0.649475 -1.118292 -0.883883 -0.883883 
C -1.118292 -0.649475 -1.25 -0.331504 -1.25 0 
C -1.25 0.331504 -1.118292 0.649475 -0.883883 0.883883 
C -0.649475 1.118292 -0.331504 1.25 0 1.25 
z
" id="m774f8020bf" style="stroke:#000000;stroke-opacity:0.75;stroke-width:0.25;"/>
    </defs>
    <g clip-path="url(#p58d5e4c78f)">
     <use style="fill:#f38227;fill-opacity:0.75;stroke:#000000;stroke-opacity:0.75;stroke-width:0.25;" x="349.472114" xlink:href="#m774f8020bf" y="99.760647"/>
     <use style="fill:#f38227;fill-opacity:0.75;stroke:#000000;stroke-opacity:0.75;stroke-width:0.25;" x="349.494641" xlink:href="#m774f8020bf" y="99.761759"/>
     <use style="fill:#f38227;fill-opacity:0.75;stroke:#000000;stroke-opacity:0.75;stroke-width:0.25;" x="353.190886" xlink:href="#m774f8020bf" y="94.96726"/>
     <use style="fill:#f38227;fill-opacity:0.75;stroke:#000000;stroke-opacity:0.75;stroke-width:0.25;" x="357.278384" xlink:href="#m774f8020bf" y="88.988822"/>
     <use style="fill:#f38227;fill-opacity:0.75;stroke:#000000;stroke-opacity:0.75;stroke-width:0.25;" x="364.276163" xlink:href="#m774f8020bf" y="67.816583"/>
     <use style="fill:#f38227;fill-opacity:0.75;stroke:#000000;stroke-opacity:0.75;stroke-width:0.25;" x="369.513246" xlink:href="#m774f8020bf" y="45.36492"/>
     <use style="fill:#f38227;fill-opacity:0.75;stroke:#000000;stroke-opacity:0.75;stroke-width:0.25;" x="372.252658" xlink:href="#m774f8020bf" y="35.772878"/>
     <use style="fill:#f38227;fill-opacity:0.75;stroke:#000000;stroke-opacity:0.75;stroke-width:0.25;" x="373.991979" xlink:href="#m774f8020bf" y="27.636881"/>
     <use style="fill:#f38227;fill-opacity:0.75;stroke:#000000;stroke-opacity:0.75;stroke-width:0.25;" x="378.231779" xlink:href="#m774f8020bf" y="17.672973"/>
     <use style="fill:#f38227;fill-opacity:0.75;stroke:#000000;stroke-opacity:0.75;stroke-width:0.25;" x="380.184702" xlink:href="#m774f8020bf" y="15.66049"/>
     <use style="fill:#f38227;fill-opacity:0.75;stroke:#000000;stroke-opacity:0.75;stroke-width:0.25;" x="381.328907" xlink:href="#m774f8020bf" y="15.530049"/>
     <use style="fill:#f38227;fill-opacity:0.75;stroke:#000000;stroke-opacity:0.75;stroke-width:0.25;" x="382.350603" xlink:href="#m774f8020bf" y="17.033699"/>
    </g>
   </g>
   <g id="line2d_37">
    <defs>
     <path d="M 0 1.25 
C 0.331504 1.25 0.649475 1.118292 0.883883 0.883883 
C 1.118292 0.649475 1.25 0.331504 1.25 0 
C 1.25 -0.331504 1.118292 -0.649475 0.883883 -0.883883 
C 0.649475 -1.118292 0.331504 -1.25 0 -1.25 
C -0.331504 -1.25 -0.649475 -1.118292 -0.883883 -0.883883 
C -1.118292 -0.649475 -1.25 -0.331504 -1.25 0 
C -1.25 0.331504 -1.118292 0.649475 -0.883883 0.883883 
C -0.649475 1.118292 -0.331504 1.25 0 1.25 
z
" id="m9243ed8cd1" style="stroke:#000000;stroke-opacity:0.75;stroke-width:0.25;"/>
    </defs>
    <g clip-path="url(#p58d5e4c78f)">
     <use style="fill:#e39943;fill-opacity:0.75;stroke:#000000;stroke-opacity:0.75;stroke-width:0.25;" x="345.769387" xlink:href="#m9243ed8cd1" y="100.847913"/>
     <use style="fill:#e39943;fill-opacity:0.75;stroke:#000000;stroke-opacity:0.75;stroke-width:0.25;" x="345.791915" xlink:href="#m9243ed8cd1" y="100.918325"/>
     <use style="fill:#e39943;fill-opacity:0.75;stroke:#000000;stroke-opacity:0.75;stroke-width:0.25;" x="349.48816" xlink:href="#m9243ed8cd1" y="98.317196"/>
     <use style="fill:#e39943;fill-opacity:0.75;stroke:#000000;stroke-opacity:0.75;stroke-width:0.25;" x="353.575658" xlink:href="#m9243ed8cd1" y="95.12866"/>
     <use style="fill:#e39943;fill-opacity:0.75;stroke:#000000;stroke-opacity:0.75;stroke-width:0.25;" x="360.573437" xlink:href="#m9243ed8cd1" y="80.316174"/>
     <use style="fill:#e39943;fill-opacity:0.75;stroke:#000000;stroke-opacity:0.75;stroke-width:0.25;" x="365.81052" xlink:href="#m9243ed8cd1" y="59.555286"/>
     <use style="fill:#e39943;fill-opacity:0.75;stroke:#000000;stroke-opacity:0.75;stroke-width:0.25;" x="368.549932" xlink:href="#m9243ed8cd1" y="48.978763"/>
     <use style="fill:#e39943;fill-opacity:0.75;stroke:#000000;stroke-opacity:0.75;stroke-width:0.25;" x="370.289253" xlink:href="#m9243ed8cd1" y="37.940443"/>
     <use style="fill:#e39943;fill-opacity:0.75;stroke:#000000;stroke-opacity:0.75;stroke-width:0.25;" x="374.529053" xlink:href="#m9243ed8cd1" y="22.650852"/>
     <use style="fill:#e39943;fill-opacity:0.75;stroke:#000000;stroke-opacity:0.75;stroke-width:0.25;" x="376.481976" xlink:href="#m9243ed8cd1" y="19.795311"/>
     <use style="fill:#e39943;fill-opacity:0.75;stroke:#000000;stroke-opacity:0.75;stroke-width:0.25;" x="377.626181" xlink:href="#m9243ed8cd1" y="19.434953"/>
     <use style="fill:#e39943;fill-opacity:0.75;stroke:#000000;stroke-opacity:0.75;stroke-width:0.25;" x="378.647876" xlink:href="#m9243ed8cd1" y="21.425543"/>
    </g>
   </g>
   <g id="line2d_38">
    <defs>
     <path d="M 0 1.25 
C 0.331504 1.25 0.649475 1.118292 0.883883 0.883883 
C 1.118292 0.649475 1.25 0.331504 1.25 0 
C 1.25 -0.331504 1.118292 -0.649475 0.883883 -0.883883 
C 0.649475 -1.118292 0.331504 -1.25 0 -1.25 
C -0.331504 -1.25 -0.649475 -1.118292 -0.883883 -0.883883 
C -1.118292 -0.649475 -1.25 -0.331504 -1.25 0 
C -1.25 0.331504 -1.118292 0.649475 -0.883883 0.883883 
C -0.649475 1.118292 -0.331504 1.25 0 1.25 
z
" id="m256aa41cd8" style="stroke:#000000;stroke-opacity:0.75;stroke-width:0.25;"/>
    </defs>
    <g clip-path="url(#p58d5e4c78f)">
     <use style="fill:#eeba7f;fill-opacity:0.75;stroke:#000000;stroke-opacity:0.75;stroke-width:0.25;" x="374.106628" xlink:href="#m256aa41cd8" y="23.772847"/>
     <use style="fill:#eeba7f;fill-opacity:0.75;stroke:#000000;stroke-opacity:0.75;stroke-width:0.25;" x="374.129156" xlink:href="#m256aa41cd8" y="24.095997"/>
     <use style="fill:#eeba7f;fill-opacity:0.75;stroke:#000000;stroke-opacity:0.75;stroke-width:0.25;" x="374.488128" xlink:href="#m256aa41cd8" y="19.750766"/>
     <use style="fill:#eeba7f;fill-opacity:0.75;stroke:#000000;stroke-opacity:0.75;stroke-width:0.25;" x="377.825401" xlink:href="#m256aa41cd8" y="15.039689"/>
     <use style="fill:#eeba7f;fill-opacity:0.75;stroke:#000000;stroke-opacity:0.75;stroke-width:0.25;" x="381.912898" xlink:href="#m256aa41cd8" y="12.232469"/>
     <use style="fill:#eeba7f;fill-opacity:0.75;stroke:#000000;stroke-opacity:0.75;stroke-width:0.25;" x="388.910677" xlink:href="#m256aa41cd8" y="13.832045"/>
     <use style="fill:#eeba7f;fill-opacity:0.75;stroke:#000000;stroke-opacity:0.75;stroke-width:0.25;" x="394.147761" xlink:href="#m256aa41cd8" y="10.509197"/>
     <use style="fill:#eeba7f;fill-opacity:0.75;stroke:#000000;stroke-opacity:0.75;stroke-width:0.25;" x="396.887172" xlink:href="#m256aa41cd8" y="8.140784"/>
     <use style="fill:#eeba7f;fill-opacity:0.75;stroke:#000000;stroke-opacity:0.75;stroke-width:0.25;" x="398.626493" xlink:href="#m256aa41cd8" y="14.029615"/>
     <use style="fill:#eeba7f;fill-opacity:0.75;stroke:#000000;stroke-opacity:0.75;stroke-width:0.25;" x="402.866294" xlink:href="#m256aa41cd8" y="8.972221"/>
     <use style="fill:#eeba7f;fill-opacity:0.75;stroke:#000000;stroke-opacity:0.75;stroke-width:0.25;" x="404.819217" xlink:href="#m256aa41cd8" y="10.634873"/>
     <use style="fill:#eeba7f;fill-opacity:0.75;stroke:#000000;stroke-opacity:0.75;stroke-width:0.25;" x="405.963421" xlink:href="#m256aa41cd8" y="9.642321"/>
    </g>
   </g>
   <g id="line2d_39">
    <defs>
     <path d="M 0 1.25 
C 0.331504 1.25 0.649475 1.118292 0.883883 0.883883 
C 1.118292 0.649475 1.25 0.331504 1.25 0 
C 1.25 -0.331504 1.118292 -0.649475 0.883883 -0.883883 
C 0.649475 -1.118292 0.331504 -1.25 0 -1.25 
C -0.331504 -1.25 -0.649475 -1.118292 -0.883883 -0.883883 
C -1.118292 -0.649475 -1.25 -0.331504 -1.25 0 
C -1.25 0.331504 -1.118292 0.649475 -0.883883 0.883883 
C -0.649475 1.118292 -0.331504 1.25 0 1.25 
z
" id="m008d73b5c7" style="stroke:#000000;stroke-opacity:0.75;stroke-width:0.25;"/>
    </defs>
    <g clip-path="url(#p58d5e4c78f)">
     <use style="fill:#f2d4b6;fill-opacity:0.75;stroke:#000000;stroke-opacity:0.75;stroke-width:0.25;" x="370.476231" xlink:href="#m008d73b5c7" y="30.071155"/>
     <use style="fill:#f2d4b6;fill-opacity:0.75;stroke:#000000;stroke-opacity:0.75;stroke-width:0.25;" x="370.498759" xlink:href="#m008d73b5c7" y="33.311996"/>
     <use style="fill:#f2d4b6;fill-opacity:0.75;stroke:#000000;stroke-opacity:0.75;stroke-width:0.25;" x="370.857731" xlink:href="#m008d73b5c7" y="26.203037"/>
     <use style="fill:#f2d4b6;fill-opacity:0.75;stroke:#000000;stroke-opacity:0.75;stroke-width:0.25;" x="374.195004" xlink:href="#m008d73b5c7" y="17.979293"/>
     <use style="fill:#f2d4b6;fill-opacity:0.75;stroke:#000000;stroke-opacity:0.75;stroke-width:0.25;" x="378.282502" xlink:href="#m008d73b5c7" y="15.195446"/>
     <use style="fill:#f2d4b6;fill-opacity:0.75;stroke:#000000;stroke-opacity:0.75;stroke-width:0.25;" x="385.28028" xlink:href="#m008d73b5c7" y="12.383423"/>
     <use style="fill:#f2d4b6;fill-opacity:0.75;stroke:#000000;stroke-opacity:0.75;stroke-width:0.25;" x="390.517364" xlink:href="#m008d73b5c7" y="9.726415"/>
     <use style="fill:#f2d4b6;fill-opacity:0.75;stroke:#000000;stroke-opacity:0.75;stroke-width:0.25;" x="393.256775" xlink:href="#m008d73b5c7" y="9.333072"/>
     <use style="fill:#f2d4b6;fill-opacity:0.75;stroke:#000000;stroke-opacity:0.75;stroke-width:0.25;" x="394.996096" xlink:href="#m008d73b5c7" y="14.586087"/>
     <use style="fill:#f2d4b6;fill-opacity:0.75;stroke:#000000;stroke-opacity:0.75;stroke-width:0.25;" x="399.235897" xlink:href="#m008d73b5c7" y="10.709275"/>
     <use style="fill:#f2d4b6;fill-opacity:0.75;stroke:#000000;stroke-opacity:0.75;stroke-width:0.25;" x="401.18882" xlink:href="#m008d73b5c7" y="11.516469"/>
     <use style="fill:#f2d4b6;fill-opacity:0.75;stroke:#000000;stroke-opacity:0.75;stroke-width:0.25;" x="402.333024" xlink:href="#m008d73b5c7" y="9.667371"/>
    </g>
   </g>
   <g id="line2d_40">
    <defs>
     <path d="M 0 1.25 
C 0.331504 1.25 0.649475 1.118292 0.883883 0.883883 
C 1.118292 0.649475 1.25 0.331504 1.25 0 
C 1.25 -0.331504 1.118292 -0.649475 0.883883 -0.883883 
C 0.649475 -1.118292 0.331504 -1.25 0 -1.25 
C -0.331504 -1.25 -0.649475 -1.118292 -0.883883 -0.883883 
C -1.118292 -0.649475 -1.25 -0.331504 -1.25 0 
C -1.25 0.331504 -1.118292 0.649475 -0.883883 0.883883 
C -0.649475 1.118292 -0.331504 1.25 0 1.25 
z
" id="me3a84e9dde" style="stroke:#000000;stroke-opacity:0.75;stroke-width:0.25;"/>
    </defs>
    <g clip-path="url(#p58d5e4c78f)">
     <use style="fill:#3f60ac;fill-opacity:0.75;stroke:#000000;stroke-opacity:0.75;stroke-width:0.25;" x="366.773505" xlink:href="#me3a84e9dde" y="44.933222"/>
     <use style="fill:#3f60ac;fill-opacity:0.75;stroke:#000000;stroke-opacity:0.75;stroke-width:0.25;" x="366.796033" xlink:href="#me3a84e9dde" y="46.66578"/>
     <use style="fill:#3f60ac;fill-opacity:0.75;stroke:#000000;stroke-opacity:0.75;stroke-width:0.25;" x="367.155005" xlink:href="#me3a84e9dde" y="39.473974"/>
     <use style="fill:#3f60ac;fill-opacity:0.75;stroke:#000000;stroke-opacity:0.75;stroke-width:0.25;" x="370.492278" xlink:href="#me3a84e9dde" y="27.129538"/>
     <use style="fill:#3f60ac;fill-opacity:0.75;stroke:#000000;stroke-opacity:0.75;stroke-width:0.25;" x="374.579775" xlink:href="#me3a84e9dde" y="22.321745"/>
     <use style="fill:#3f60ac;fill-opacity:0.75;stroke:#000000;stroke-opacity:0.75;stroke-width:0.25;" x="381.577554" xlink:href="#me3a84e9dde" y="16.222963"/>
     <use style="fill:#3f60ac;fill-opacity:0.75;stroke:#000000;stroke-opacity:0.75;stroke-width:0.25;" x="386.814638" xlink:href="#me3a84e9dde" y="12.476082"/>
     <use style="fill:#3f60ac;fill-opacity:0.75;stroke:#000000;stroke-opacity:0.75;stroke-width:0.25;" x="389.554049" xlink:href="#me3a84e9dde" y="10.589163"/>
     <use style="fill:#3f60ac;fill-opacity:0.75;stroke:#000000;stroke-opacity:0.75;stroke-width:0.25;" x="391.29337" xlink:href="#me3a84e9dde" y="11.822002"/>
     <use style="fill:#3f60ac;fill-opacity:0.75;stroke:#000000;stroke-opacity:0.75;stroke-width:0.25;" x="395.533171" xlink:href="#me3a84e9dde" y="10.026608"/>
     <use style="fill:#3f60ac;fill-opacity:0.75;stroke:#000000;stroke-opacity:0.75;stroke-width:0.25;" x="397.486094" xlink:href="#me3a84e9dde" y="9.73555"/>
     <use style="fill:#3f60ac;fill-opacity:0.75;stroke:#000000;stroke-opacity:0.75;stroke-width:0.25;" x="398.630298" xlink:href="#me3a84e9dde" y="13.266327"/>
    </g>
   </g>
   <g id="patch_6">
    <path d="M 315.30375 103.16 
L 315.30375 7.2 
" style="fill:none;stroke:#444147;stroke-linecap:square;stroke-linejoin:miter;stroke-width:0.25;"/>
   </g>
   <g id="patch_7">
    <path d="M 315.30375 103.16 
L 417.32375 103.16 
" style="fill:none;stroke:#444147;stroke-linecap:square;stroke-linejoin:miter;stroke-width:0.25;"/>
   </g>
  </g>
 </g>
 <defs>
  <clipPath id="pbac2c7303a">
   <rect height="95.96" width="102.02" x="34.50375" y="7.2"/>
  </clipPath>
  <clipPath id="p58d5e4c78f">
   <rect height="95.96" width="102.02" x="315.30375" y="7.2"/>
  </clipPath>
 </defs>
</svg>
