<?xml version="1.0" encoding="utf-8" standalone="no"?>
<!DOCTYPE svg PUBLIC "-//W3C//DTD SVG 1.1//EN"
  "http://www.w3.org/Graphics/SVG/1.1/DTD/svg11.dtd">
<!-- Created with matplotlib (https://matplotlib.org/) -->
<svg height="135.425625pt" version="1.1" viewBox="0 0 186.137813 135.425625" width="186.137813pt" xmlns="http://www.w3.org/2000/svg" xmlns:xlink="http://www.w3.org/1999/xlink">
 <defs>
  <style type="text/css">
*{stroke-linecap:butt;stroke-linejoin:round;}
  </style>
 </defs>
 <g id="figure_1">
  <g id="patch_1">
   <path d="M 0 135.425625 
L 186.137813 135.425625 
L 186.137813 0 
L 0 0 
z
" style="fill:#ffffff;"/>
  </g>
  <g id="axes_1">
   <g id="patch_2">
    <path d="M 35.177813 102.33 
L 174.677813 102.33 
L 174.677813 7.2 
L 35.177813 7.2 
z
" style="fill:#efefef;"/>
   </g>
   <g id="matplotlib.axis_1">
    <g id="xtick_1">
     <g id="line2d_1">
      <defs>
       <path d="M 0 0 
L 0 3 
" id="mbbc97dcbca" style="stroke:#444147;stroke-width:0.25;"/>
      </defs>
      <g>
       <use style="fill:#444147;stroke:#444147;stroke-width:0.25;" x="35.177813" xlink:href="#mbbc97dcbca" y="104.33"/>
      </g>
     </g>
     <g id="text_1">
      <!-- $\mathdefault{10^{-2}}$ -->
      <defs>
       <path d="M 23.59375 0 
L 32.09375 0 
L 32.09375 65 
L 24.59375 65 
L 10.40625 57.40625 
L 12.09375 50.703125 
L 23.40625 56.796875 
L 23.59375 56.796875 
z
" id="MyriadPro-Regular-49"/>
       <path d="M 26.203125 66.09375 
C 13 66.09375 3.59375 54.09375 3.59375 32.296875 
C 3.796875 10.796875 12.40625 -1.09375 25.09375 -1.09375 
C 39.5 -1.09375 47.703125 11.09375 47.703125 33.203125 
C 47.703125 53.90625 39.90625 66.09375 26.203125 66.09375 
z
M 25.703125 59.296875 
C 34.796875 59.296875 38.90625 48.796875 38.90625 32.796875 
C 38.90625 16.203125 34.59375 5.703125 25.59375 5.703125 
C 17.59375 5.703125 12.40625 15.296875 12.40625 32.203125 
C 12.40625 49.90625 18 59.296875 25.703125 59.296875 
z
" id="MyriadPro-Regular-48"/>
       <path d="M 4 29.703125 
L 4 23.703125 
L 55.59375 23.703125 
L 55.59375 29.703125 
z
" id="MyriadPro-Regular-8722"/>
       <path d="M 46 0 
L 46 7.296875 
L 16.796875 7.296875 
L 16.796875 7.5 
L 22 12.296875 
C 35.703125 25.5 44.40625 35.203125 44.40625 47.203125 
C 44.40625 56.5 38.5 66.09375 24.5 66.09375 
C 17 66.09375 10.59375 63.296875 6.09375 59.5 
L 8.90625 53.296875 
C 11.90625 55.796875 16.796875 58.796875 22.703125 58.796875 
C 32.40625 58.796875 35.59375 52.703125 35.59375 46.09375 
C 35.5 36.296875 28 27.90625 11.40625 12.09375 
L 4.5 5.40625 
L 4.5 0 
z
" id="MyriadPro-Regular-50"/>
      </defs>
      <g style="fill:#444147;" transform="translate(29.657813 117.59)scale(0.06 -0.06)">
       <use transform="translate(0 0.85)" xlink:href="#MyriadPro-Regular-49"/>
       <use transform="translate(51.299988 0.85)" xlink:href="#MyriadPro-Regular-48"/>
       <use transform="translate(103.447085 34.734375)scale(0.7)" xlink:href="#MyriadPro-Regular-8722"/>
       <use transform="translate(145.167079 34.734375)scale(0.7)" xlink:href="#MyriadPro-Regular-50"/>
      </g>
     </g>
    </g>
    <g id="xtick_2">
     <g id="line2d_2">
      <g>
       <use style="fill:#444147;stroke:#444147;stroke-width:0.25;" x="58.427813" xlink:href="#mbbc97dcbca" y="104.33"/>
      </g>
     </g>
     <g id="text_2">
      <!-- $\mathdefault{10^{-1}}$ -->
      <g style="fill:#444147;" transform="translate(52.907813 117.59)scale(0.06 -0.06)">
       <use transform="translate(0 0.615625)" xlink:href="#MyriadPro-Regular-49"/>
       <use transform="translate(51.299988 0.615625)" xlink:href="#MyriadPro-Regular-48"/>
       <use transform="translate(103.447085 34.5)scale(0.7)" xlink:href="#MyriadPro-Regular-8722"/>
       <use transform="translate(145.167079 34.5)scale(0.7)" xlink:href="#MyriadPro-Regular-49"/>
      </g>
     </g>
    </g>
    <g id="xtick_3">
     <g id="line2d_3">
      <g>
       <use style="fill:#444147;stroke:#444147;stroke-width:0.25;" x="81.677813" xlink:href="#mbbc97dcbca" y="104.33"/>
      </g>
     </g>
     <g id="text_3">
      <!-- $\mathdefault{10^{0}}$ -->
      <g style="fill:#444147;" transform="translate(77.417812 117.59)scale(0.06 -0.06)">
       <use transform="translate(0 0.85)" xlink:href="#MyriadPro-Regular-49"/>
       <use transform="translate(51.299988 0.85)" xlink:href="#MyriadPro-Regular-48"/>
       <use transform="translate(103.447085 34.734375)scale(0.7)" xlink:href="#MyriadPro-Regular-48"/>
      </g>
     </g>
    </g>
    <g id="xtick_4">
     <g id="line2d_4">
      <g>
       <use style="fill:#444147;stroke:#444147;stroke-width:0.25;" x="104.927813" xlink:href="#mbbc97dcbca" y="104.33"/>
      </g>
     </g>
     <g id="text_4">
      <!-- $\mathdefault{10^{1}}$ -->
      <g style="fill:#444147;" transform="translate(100.667812 117.59)scale(0.06 -0.06)">
       <use transform="translate(0 0.615625)" xlink:href="#MyriadPro-Regular-49"/>
       <use transform="translate(51.299988 0.615625)" xlink:href="#MyriadPro-Regular-48"/>
       <use transform="translate(103.447085 34.5)scale(0.7)" xlink:href="#MyriadPro-Regular-49"/>
      </g>
     </g>
    </g>
    <g id="xtick_5">
     <g id="line2d_5">
      <g>
       <use style="fill:#444147;stroke:#444147;stroke-width:0.25;" x="128.177813" xlink:href="#mbbc97dcbca" y="104.33"/>
      </g>
     </g>
     <g id="text_5">
      <!-- $\mathdefault{10^{2}}$ -->
      <g style="fill:#444147;" transform="translate(123.917813 117.59)scale(0.06 -0.06)">
       <use transform="translate(0 0.85)" xlink:href="#MyriadPro-Regular-49"/>
       <use transform="translate(51.299988 0.85)" xlink:href="#MyriadPro-Regular-48"/>
       <use transform="translate(103.447085 34.734375)scale(0.7)" xlink:href="#MyriadPro-Regular-50"/>
      </g>
     </g>
    </g>
    <g id="xtick_6">
     <g id="line2d_6">
      <g>
       <use style="fill:#444147;stroke:#444147;stroke-width:0.25;" x="151.427813" xlink:href="#mbbc97dcbca" y="104.33"/>
      </g>
     </g>
     <g id="text_6">
      <!-- $\mathdefault{10^{3}}$ -->
      <defs>
       <path d="M 4.203125 3.296875 
C 7.40625 1.203125 13.796875 -1.09375 21.09375 -1.09375 
C 36.703125 -1.09375 44.796875 8 44.796875 18.40625 
C 44.796875 27.5 38.296875 33.5 30.296875 35.09375 
L 30.296875 35.296875 
C 38.296875 38.203125 42.296875 43.90625 42.296875 50.59375 
C 42.296875 58.5 36.5 66.09375 23.703125 66.09375 
C 16.703125 66.09375 10.09375 63.59375 6.703125 61.09375 
L 9 54.703125 
C 11.796875 56.703125 16.796875 59 22 59 
C 30.09375 59 33.40625 54.40625 33.40625 49.203125 
C 33.40625 41.5 25.296875 38.203125 18.90625 38.203125 
L 14 38.203125 
L 14 31.59375 
L 18.90625 31.59375 
C 27.40625 31.59375 35.59375 27.703125 35.703125 18.59375 
C 35.796875 13.203125 32.296875 6 21 6 
C 14.90625 6 9.09375 8.5 6.59375 10.09375 
z
" id="MyriadPro-Regular-51"/>
      </defs>
      <g style="fill:#444147;" transform="translate(147.167813 117.59)scale(0.06 -0.06)">
       <use transform="translate(0 0.85)" xlink:href="#MyriadPro-Regular-49"/>
       <use transform="translate(51.299988 0.85)" xlink:href="#MyriadPro-Regular-48"/>
       <use transform="translate(103.447085 34.734375)scale(0.7)" xlink:href="#MyriadPro-Regular-51"/>
      </g>
     </g>
    </g>
    <g id="xtick_7">
     <g id="line2d_7">
      <g>
       <use style="fill:#444147;stroke:#444147;stroke-width:0.25;" x="174.677813" xlink:href="#mbbc97dcbca" y="104.33"/>
      </g>
     </g>
     <g id="text_7">
      <!-- $\mathdefault{10^{4}}$ -->
      <defs>
       <path d="M 40 0 
L 40 17.703125 
L 49.09375 17.703125 
L 49.09375 24.59375 
L 40 24.59375 
L 40 65 
L 30.5 65 
L 1.5 23.5 
L 1.5 17.703125 
L 31.703125 17.703125 
L 31.703125 0 
z
M 10.40625 24.59375 
L 10.40625 24.796875 
L 26.296875 46.90625 
C 28.09375 49.90625 29.703125 52.703125 31.703125 56.5 
L 32 56.5 
C 31.796875 53.09375 31.703125 49.703125 31.703125 46.296875 
L 31.703125 24.59375 
z
" id="MyriadPro-Regular-52"/>
      </defs>
      <g style="fill:#444147;" transform="translate(170.417813 117.59)scale(0.06 -0.06)">
       <use transform="translate(0 0.615625)" xlink:href="#MyriadPro-Regular-49"/>
       <use transform="translate(51.299988 0.615625)" xlink:href="#MyriadPro-Regular-48"/>
       <use transform="translate(103.447085 34.5)scale(0.7)" xlink:href="#MyriadPro-Regular-52"/>
      </g>
     </g>
    </g>
    <g id="xtick_8">
     <g id="line2d_8"/>
    </g>
    <g id="xtick_9">
     <g id="line2d_9"/>
    </g>
    <g id="xtick_10">
     <g id="line2d_10"/>
    </g>
    <g id="xtick_11">
     <g id="line2d_11"/>
    </g>
    <g id="xtick_12">
     <g id="line2d_12"/>
    </g>
    <g id="xtick_13">
     <g id="line2d_13"/>
    </g>
    <g id="xtick_14">
     <g id="line2d_14"/>
    </g>
    <g id="xtick_15">
     <g id="line2d_15"/>
    </g>
    <g id="xtick_16">
     <g id="line2d_16"/>
    </g>
    <g id="xtick_17">
     <g id="line2d_17"/>
    </g>
    <g id="xtick_18">
     <g id="line2d_18"/>
    </g>
    <g id="xtick_19">
     <g id="line2d_19"/>
    </g>
    <g id="xtick_20">
     <g id="line2d_20"/>
    </g>
    <g id="xtick_21">
     <g id="line2d_21"/>
    </g>
    <g id="xtick_22">
     <g id="line2d_22"/>
    </g>
    <g id="xtick_23">
     <g id="line2d_23"/>
    </g>
    <g id="xtick_24">
     <g id="line2d_24"/>
    </g>
    <g id="xtick_25">
     <g id="line2d_25"/>
    </g>
    <g id="xtick_26">
     <g id="line2d_26"/>
    </g>
    <g id="xtick_27">
     <g id="line2d_27"/>
    </g>
    <g id="xtick_28">
     <g id="line2d_28"/>
    </g>
    <g id="xtick_29">
     <g id="line2d_29"/>
    </g>
    <g id="xtick_30">
     <g id="line2d_30"/>
    </g>
    <g id="xtick_31">
     <g id="line2d_31"/>
    </g>
    <g id="xtick_32">
     <g id="line2d_32"/>
    </g>
    <g id="xtick_33">
     <g id="line2d_33"/>
    </g>
    <g id="xtick_34">
     <g id="line2d_34"/>
    </g>
    <g id="xtick_35">
     <g id="line2d_35"/>
    </g>
    <g id="xtick_36">
     <g id="line2d_36"/>
    </g>
    <g id="xtick_37">
     <g id="line2d_37"/>
    </g>
    <g id="xtick_38">
     <g id="line2d_38"/>
    </g>
    <g id="xtick_39">
     <g id="line2d_39"/>
    </g>
    <g id="xtick_40">
     <g id="line2d_40"/>
    </g>
    <g id="xtick_41">
     <g id="line2d_41"/>
    </g>
    <g id="xtick_42">
     <g id="line2d_42"/>
    </g>
    <g id="xtick_43">
     <g id="line2d_43"/>
    </g>
    <g id="xtick_44">
     <g id="line2d_44"/>
    </g>
    <g id="xtick_45">
     <g id="line2d_45"/>
    </g>
    <g id="xtick_46">
     <g id="line2d_46"/>
    </g>
    <g id="xtick_47">
     <g id="line2d_47"/>
    </g>
    <g id="xtick_48">
     <g id="line2d_48"/>
    </g>
    <g id="xtick_49">
     <g id="line2d_49"/>
    </g>
    <g id="xtick_50">
     <g id="line2d_50"/>
    </g>
    <g id="xtick_51">
     <g id="line2d_51"/>
    </g>
    <g id="xtick_52">
     <g id="line2d_52"/>
    </g>
    <g id="xtick_53">
     <g id="line2d_53"/>
    </g>
    <g id="xtick_54">
     <g id="line2d_54"/>
    </g>
    <g id="xtick_55">
     <g id="line2d_55"/>
    </g>
    <g id="text_8">
     <!-- IPTG [µM] -->
     <defs>
      <path d="M 7.59375 67.40625 
L 7.59375 0 
L 16.296875 0 
L 16.296875 67.40625 
z
" id="MyriadPro-Regular-73"/>
      <path d="M 7.59375 0 
L 16.296875 0 
L 16.296875 27 
C 18.296875 26.5 20.703125 26.40625 23.296875 26.40625 
C 31.796875 26.40625 39.296875 28.90625 43.90625 33.796875 
C 47.296875 37.296875 49.09375 42.09375 49.09375 48.203125 
C 49.09375 54.203125 46.90625 59.09375 43.203125 62.296875 
C 39.203125 65.90625 32.90625 67.90625 24.296875 67.90625 
C 17.296875 67.90625 11.796875 67.296875 7.59375 66.59375 
z
M 16.296875 60.296875 
C 17.796875 60.703125 20.703125 61 24.5 61 
C 34.09375 61 40.40625 56.703125 40.40625 47.796875 
C 40.40625 38.5 34 33.40625 23.5 33.40625 
C 20.59375 33.40625 18.203125 33.59375 16.296875 34.09375 
z
" id="MyriadPro-Regular-80"/>
      <path d="M 20.40625 0 
L 29.203125 0 
L 29.203125 60 
L 49.796875 60 
L 49.796875 67.40625 
L -0.09375 67.40625 
L -0.09375 60 
L 20.40625 60 
z
" id="MyriadPro-Regular-84"/>
      <path d="M 58.90625 35.40625 
L 36.703125 35.40625 
L 36.703125 28.40625 
L 50.40625 28.40625 
L 50.40625 8.296875 
C 48.40625 7.296875 44.5 6.5 38.796875 6.5 
C 23.09375 6.5 12.796875 16.59375 12.796875 33.703125 
C 12.796875 50.59375 23.5 60.796875 39.90625 60.796875 
C 46.703125 60.796875 51.203125 59.5 54.796875 57.90625 
L 56.90625 65 
C 54 66.40625 47.90625 68.09375 40.09375 68.09375 
C 17.5 68.09375 3.703125 53.40625 3.59375 33.296875 
C 3.59375 22.796875 7.203125 13.796875 13 8.203125 
C 19.59375 1.90625 28 -0.703125 38.203125 -0.703125 
C 47.296875 -0.703125 55 1.59375 58.90625 3 
z
" id="MyriadPro-Regular-71"/>
      <path id="MyriadPro-Regular-32"/>
      <path d="M 26.5 -11.203125 
L 26.5 -5.703125 
L 15 -5.703125 
L 15 63.09375 
L 26.5 63.09375 
L 26.5 68.59375 
L 8.203125 68.59375 
L 8.203125 -11.203125 
z
" id="MyriadPro-Regular-91"/>
      <path d="M 40.296875 7.5 
C 41.09375 1.296875 44.59375 -1.09375 48.90625 -1.09375 
C 50.296875 -1.09375 50.90625 -1 51.90625 -0.703125 
L 52.59375 5.703125 
C 49.09375 5.90625 48 8 48 13.296875 
L 48 48.40625 
L 39.296875 48.40625 
L 39.296875 18.703125 
C 39.296875 17.09375 39 15.5 38.5 14.203125 
C 36.90625 10.296875 32.703125 6.09375 26.90625 6.09375 
C 19.203125 6.09375 16 12.296875 16 19.796875 
L 16 48.40625 
L 7.296875 48.40625 
L 7.296875 -2 
C 7.296875 -9.703125 7.703125 -16.796875 8.703125 -19.796875 
L 16.59375 -19.796875 
C 15.59375 -15.796875 15.5 -6.90625 15.5 -1.59375 
L 15.5 4.40625 
C 17.59375 0.703125 21.703125 -0.90625 26.09375 -0.90625 
C 33.296875 -0.90625 38 3.703125 40 7.5 
z
" id="MyriadPro-Regular-181"/>
      <path d="M 66.09375 0 
L 74.59375 0 
L 70.40625 67.40625 
L 59.296875 67.40625 
L 47.296875 34.796875 
C 44.296875 26.296875 41.90625 18.90625 40.203125 12.09375 
L 39.90625 12.09375 
C 38.203125 19.09375 35.90625 26.5 33.09375 34.796875 
L 21.59375 67.40625 
L 10.5 67.40625 
L 5.796875 0 
L 14.09375 0 
L 15.90625 28.90625 
C 16.5 39 17 50.296875 17.203125 58.703125 
L 17.40625 58.703125 
C 19.296875 50.703125 22 42 25.203125 32.5 
L 36.09375 0.40625 
L 42.703125 0.40625 
L 54.59375 33.09375 
C 58 42.296875 60.796875 50.796875 63.09375 58.703125 
L 63.40625 58.703125 
C 63.296875 50.296875 63.90625 39 64.40625 29.59375 
z
" id="MyriadPro-Regular-77"/>
      <path d="M 1.90625 68.59375 
L 1.90625 63.09375 
L 13.40625 63.09375 
L 13.40625 -5.703125 
L 1.90625 -5.703125 
L 1.90625 -11.203125 
L 20.203125 -11.203125 
L 20.203125 68.59375 
z
" id="MyriadPro-Regular-93"/>
     </defs>
     <g style="fill:#444147;" transform="translate(92.774062 127.037813)scale(0.06 -0.06)">
      <use xlink:href="#MyriadPro-Regular-73"/>
      <use x="23.899994" xlink:href="#MyriadPro-Regular-80"/>
      <use x="77.099991" xlink:href="#MyriadPro-Regular-84"/>
      <use x="126.799988" xlink:href="#MyriadPro-Regular-71"/>
      <use x="191.399979" xlink:href="#MyriadPro-Regular-32"/>
      <use x="212.599976" xlink:href="#MyriadPro-Regular-91"/>
      <use x="240.999969" xlink:href="#MyriadPro-Regular-181"/>
      <use x="296.299957" xlink:href="#MyriadPro-Regular-77"/>
      <use x="376.699951" xlink:href="#MyriadPro-Regular-93"/>
     </g>
    </g>
   </g>
   <g id="matplotlib.axis_2">
    <g id="ytick_1">
     <g id="line2d_56">
      <defs>
       <path d="M 0 0 
L -3 0 
" id="mfbf2dc55fb" style="stroke:#444147;stroke-width:0.25;"/>
      </defs>
      <g>
       <use style="fill:#444147;stroke:#444147;stroke-width:0.25;" x="33.177813" xlink:href="#mfbf2dc55fb" y="101.472973"/>
      </g>
     </g>
     <g id="text_9">
      <!-- 0.0 -->
      <defs>
       <path d="M 11.09375 -1.09375 
C 14.796875 -1.09375 17.09375 1.59375 17.09375 5.203125 
C 17.09375 8.90625 14.703125 11.5 11.203125 11.5 
C 7.703125 11.5 5.203125 8.90625 5.203125 5.203125 
C 5.203125 1.59375 7.59375 -1.09375 11 -1.09375 
z
" id="MyriadPro-Regular-46"/>
      </defs>
      <g style="fill:#444147;" transform="translate(16.78 103.602973)scale(0.06 -0.06)">
       <use xlink:href="#MyriadPro-Regular-48"/>
       <use x="51.299988" xlink:href="#MyriadPro-Regular-46"/>
       <use x="71.999985" xlink:href="#MyriadPro-Regular-48"/>
      </g>
     </g>
    </g>
    <g id="ytick_2">
     <g id="line2d_57">
      <g>
       <use style="fill:#444147;stroke:#444147;stroke-width:0.25;" x="33.177813" xlink:href="#mfbf2dc55fb" y="84.332432"/>
      </g>
     </g>
     <g id="text_10">
      <!-- 0.2 -->
      <g style="fill:#444147;" transform="translate(16.78 86.462432)scale(0.06 -0.06)">
       <use xlink:href="#MyriadPro-Regular-48"/>
       <use x="51.299988" xlink:href="#MyriadPro-Regular-46"/>
       <use x="71.999985" xlink:href="#MyriadPro-Regular-50"/>
      </g>
     </g>
    </g>
    <g id="ytick_3">
     <g id="line2d_58">
      <g>
       <use style="fill:#444147;stroke:#444147;stroke-width:0.25;" x="33.177813" xlink:href="#mfbf2dc55fb" y="67.191892"/>
      </g>
     </g>
     <g id="text_11">
      <!-- 0.4 -->
      <g style="fill:#444147;" transform="translate(16.78 69.321892)scale(0.06 -0.06)">
       <use xlink:href="#MyriadPro-Regular-48"/>
       <use x="51.299988" xlink:href="#MyriadPro-Regular-46"/>
       <use x="71.999985" xlink:href="#MyriadPro-Regular-52"/>
      </g>
     </g>
    </g>
    <g id="ytick_4">
     <g id="line2d_59">
      <g>
       <use style="fill:#444147;stroke:#444147;stroke-width:0.25;" x="33.177813" xlink:href="#mfbf2dc55fb" y="50.051351"/>
      </g>
     </g>
     <g id="text_12">
      <!-- 0.6 -->
      <defs>
       <path d="M 41.59375 66 
C 40 66 37.796875 65.90625 35.203125 65.5 
C 27 64.5 19.796875 61.203125 14.40625 55.90625 
C 8 49.5 3.40625 39.40625 3.40625 26.59375 
C 3.40625 9.703125 12.5 -1.09375 26.40625 -1.09375 
C 39.90625 -1.09375 48 9.90625 48 21.796875 
C 48 34.5 39.90625 42.796875 28.40625 42.796875 
C 21.203125 42.796875 15.796875 39.40625 12.703125 35.296875 
L 12.40625 35.296875 
C 13.90625 46 21.203125 56.09375 35 58.40625 
C 37.5 58.796875 39.796875 58.90625 41.59375 58.796875 
z
M 26.40625 5.703125 
C 17.203125 5.703125 12.296875 13.59375 12.09375 24.296875 
C 12.09375 25.90625 12.5 27.203125 13.09375 28.203125 
C 15.5 32.90625 20.40625 36.203125 25.703125 36.203125 
C 33.796875 36.203125 39.09375 30.59375 39.09375 21.296875 
C 39.09375 12 34 5.703125 26.5 5.703125 
z
" id="MyriadPro-Regular-54"/>
      </defs>
      <g style="fill:#444147;" transform="translate(16.78 52.181351)scale(0.06 -0.06)">
       <use xlink:href="#MyriadPro-Regular-48"/>
       <use x="51.299988" xlink:href="#MyriadPro-Regular-46"/>
       <use x="71.999985" xlink:href="#MyriadPro-Regular-54"/>
      </g>
     </g>
    </g>
    <g id="ytick_5">
     <g id="line2d_60">
      <g>
       <use style="fill:#444147;stroke:#444147;stroke-width:0.25;" x="33.177813" xlink:href="#mfbf2dc55fb" y="32.910811"/>
      </g>
     </g>
     <g id="text_13">
      <!-- 0.8 -->
      <defs>
       <path d="M 16.59375 33.90625 
C 8.59375 30.5 3.703125 24.703125 3.703125 16.5 
C 3.703125 7 11.90625 -1.09375 25.5 -1.09375 
C 37.90625 -1.09375 47.59375 6.5 47.59375 17.796875 
C 47.59375 25.703125 42.59375 31.40625 34.5 34.59375 
L 34.5 34.90625 
C 42.5 38.703125 45.203125 44.59375 45.203125 50.09375 
C 45.203125 58.203125 38.90625 66.09375 26.296875 66.09375 
C 14.90625 66.09375 6.203125 59.09375 6.203125 48.796875 
C 6.203125 43.203125 9.296875 37.59375 16.5 34.203125 
z
M 25.703125 5.296875 
C 17.40625 5.296875 12.40625 11.09375 12.703125 17.703125 
C 12.703125 23.90625 16.796875 28.90625 24.40625 31.09375 
C 33.203125 28.59375 38.703125 24.796875 38.703125 16.90625 
C 38.703125 10.296875 33.59375 5.296875 25.703125 5.296875 
z
M 25.796875 59.796875 
C 33.703125 59.796875 36.796875 54.40625 36.796875 49.203125 
C 36.796875 43.296875 32.5 39.296875 26.90625 37.40625 
C 19.40625 39.40625 14.5 42.90625 14.5 49.40625 
C 14.5 55 18.5 59.796875 25.796875 59.796875 
z
" id="MyriadPro-Regular-56"/>
      </defs>
      <g style="fill:#444147;" transform="translate(16.78 35.040811)scale(0.06 -0.06)">
       <use xlink:href="#MyriadPro-Regular-48"/>
       <use x="51.299988" xlink:href="#MyriadPro-Regular-46"/>
       <use x="71.999985" xlink:href="#MyriadPro-Regular-56"/>
      </g>
     </g>
    </g>
    <g id="ytick_6">
     <g id="line2d_61">
      <g>
       <use style="fill:#444147;stroke:#444147;stroke-width:0.25;" x="33.177813" xlink:href="#mfbf2dc55fb" y="15.77027"/>
      </g>
     </g>
     <g id="text_14">
      <!-- 1.0 -->
      <g style="fill:#444147;" transform="translate(16.78 17.90027)scale(0.06 -0.06)">
       <use xlink:href="#MyriadPro-Regular-49"/>
       <use x="51.299988" xlink:href="#MyriadPro-Regular-46"/>
       <use x="71.999985" xlink:href="#MyriadPro-Regular-48"/>
      </g>
     </g>
    </g>
    <g id="text_15">
     <!-- fold-change -->
     <defs>
      <path d="M 16.90625 0 
L 16.90625 41.703125 
L 28.59375 41.703125 
L 28.59375 48.40625 
L 16.90625 48.40625 
L 16.90625 51 
C 16.90625 58.40625 18.796875 65 26.296875 65 
C 28.796875 65 30.59375 64.5 31.90625 63.90625 
L 33.09375 70.703125 
C 31.40625 71.40625 28.703125 72.09375 25.59375 72.09375 
C 21.5 72.09375 17.09375 70.796875 13.796875 67.59375 
C 9.703125 63.703125 8.203125 57.5 8.203125 50.703125 
L 8.203125 48.40625 
L 1.40625 48.40625 
L 1.40625 41.703125 
L 8.203125 41.703125 
L 8.203125 0 
z
" id="MyriadPro-Regular-102"/>
      <path d="M 27.796875 49.5 
C 14.40625 49.5 3.796875 40 3.796875 23.796875 
C 3.796875 8.5 13.90625 -1.09375 27 -1.09375 
C 38.703125 -1.09375 51.09375 6.703125 51.09375 24.59375 
C 51.09375 39.40625 41.703125 49.5 27.796875 49.5 
z
M 27.59375 42.90625 
C 38 42.90625 42.09375 32.5 42.09375 24.296875 
C 42.09375 13.40625 35.796875 5.5 27.40625 5.5 
C 18.796875 5.5 12.703125 13.5 12.703125 24.09375 
C 12.703125 33.296875 17.203125 42.90625 27.59375 42.90625 
z
" id="MyriadPro-Regular-111"/>
      <path d="M 7.296875 0 
L 16.09375 0 
L 16.09375 71 
L 7.296875 71 
z
" id="MyriadPro-Regular-108"/>
      <path d="M 40.296875 71 
L 40.296875 42.09375 
L 40.09375 42.09375 
C 37.90625 46 32.90625 49.5 25.5 49.5 
C 13.703125 49.5 3.703125 39.59375 3.796875 23.5 
C 3.796875 8.796875 12.796875 -1.09375 24.5 -1.09375 
C 32.40625 -1.09375 38.296875 3 41 8.40625 
L 41.203125 8.40625 
L 41.59375 0 
L 49.5 0 
C 49.203125 3.296875 49.09375 8.203125 49.09375 12.5 
L 49.09375 71 
z
M 40.296875 20.296875 
C 40.296875 18.90625 40.203125 17.703125 39.90625 16.5 
C 38.296875 9.90625 32.90625 6 27 6 
C 17.5 6 12.703125 14.09375 12.703125 23.90625 
C 12.703125 34.59375 18.09375 42.59375 27.203125 42.59375 
C 33.796875 42.59375 38.59375 38 39.90625 32.40625 
C 40.203125 31.296875 40.296875 29.796875 40.296875 28.703125 
z
" id="MyriadPro-Regular-100"/>
      <path d="M 3 30.296875 
L 3 23.796875 
L 27.703125 23.796875 
L 27.703125 30.296875 
z
" id="MyriadPro-Regular-45"/>
      <path d="M 40.296875 8.40625 
C 37.796875 7.296875 34.5 6 29.5 6 
C 19.90625 6 12.703125 12.90625 12.703125 24.09375 
C 12.703125 34.203125 18.703125 42.40625 29.796875 42.40625 
C 34.59375 42.40625 37.90625 41.296875 40 40.09375 
L 42 46.90625 
C 39.59375 48.09375 35 49.40625 29.796875 49.40625 
C 14 49.40625 3.796875 38.59375 3.796875 23.703125 
C 3.796875 8.90625 13.296875 -1.09375 27.90625 -1.09375 
C 34.40625 -1.09375 39.5 0.59375 41.796875 1.796875 
z
" id="MyriadPro-Regular-99"/>
      <path d="M 7.296875 0 
L 16.09375 0 
L 16.09375 29.203125 
C 16.09375 30.90625 16.203125 32.203125 16.703125 33.40625 
C 18.296875 38.203125 22.796875 42.203125 28.5 42.203125 
C 36.796875 42.203125 39.703125 35.59375 39.703125 27.796875 
L 39.703125 0 
L 48.5 0 
L 48.5 28.796875 
C 48.5 45.5 38.09375 49.5 31.59375 49.5 
C 28.296875 49.5 25.203125 48.5 22.59375 47 
C 19.90625 45.5 17.703125 43.296875 16.296875 40.796875 
L 16.09375 40.796875 
L 16.09375 71 
L 7.296875 71 
z
" id="MyriadPro-Regular-104"/>
      <path d="M 41.296875 29.703125 
C 41.296875 39.40625 37.703125 49.5 22.90625 49.5 
C 16.796875 49.5 11 47.796875 7 45.203125 
L 9 39.40625 
C 12.40625 41.59375 17.09375 43 21.59375 43 
C 31.5 43 32.59375 35.796875 32.59375 31.796875 
L 32.59375 30.796875 
C 13.90625 30.90625 3.5 24.5 3.5 12.796875 
C 3.5 5.796875 8.5 -1.09375 18.296875 -1.09375 
C 25.203125 -1.09375 30.40625 2.296875 33.09375 6.09375 
L 33.40625 6.09375 
L 34.09375 0 
L 42.09375 0 
C 41.5 3.296875 41.296875 7.40625 41.296875 11.59375 
z
M 32.796875 16.296875 
C 32.796875 15.40625 32.59375 14.40625 32.296875 13.5 
C 30.90625 9.40625 26.90625 5.40625 20.59375 5.40625 
C 16.09375 5.40625 12.296875 8.09375 12.296875 13.796875 
C 12.296875 23.203125 23.203125 24.90625 32.796875 24.703125 
z
" id="MyriadPro-Regular-97"/>
      <path d="M 7.296875 0 
L 16.09375 0 
L 16.09375 29.09375 
C 16.09375 30.59375 16.296875 32.09375 16.703125 33.203125 
C 18.203125 38.09375 22.703125 42.203125 28.5 42.203125 
C 36.796875 42.203125 39.703125 35.703125 39.703125 27.90625 
L 39.703125 0 
L 48.5 0 
L 48.5 28.90625 
C 48.5 45.5 38.09375 49.5 31.40625 49.5 
C 23.40625 49.5 17.796875 45 15.40625 40.40625 
L 15.203125 40.40625 
L 14.703125 48.40625 
L 6.90625 48.40625 
C 7.203125 44.40625 7.296875 40.296875 7.296875 35.296875 
z
" id="MyriadPro-Regular-110"/>
      <path d="M 48.59375 35.09375 
C 48.59375 41 48.796875 44.90625 49 48.40625 
L 41.296875 48.40625 
L 40.90625 41.09375 
L 40.703125 41.09375 
C 38.59375 45.09375 34 49.5 25.59375 49.5 
C 14.5 49.5 3.796875 40.203125 3.796875 23.796875 
C 3.796875 10.40625 12.40625 0.203125 24.40625 0.203125 
C 31.90625 0.203125 37.09375 3.796875 39.796875 8.296875 
L 40 8.296875 
L 40 2.90625 
C 40 -9.296875 33.40625 -14 24.40625 -14 
C 18.40625 -14 13.40625 -12.203125 10.203125 -10.203125 
L 8 -16.90625 
C 11.90625 -19.5 18.296875 -20.90625 24.09375 -20.90625 
C 30.203125 -20.90625 37 -19.5 41.703125 -15.09375 
C 46.40625 -10.90625 48.59375 -4.09375 48.59375 7 
z
M 39.90625 20.59375 
C 39.90625 19.09375 39.703125 17.40625 39.203125 15.90625 
C 37.296875 10.296875 32.40625 6.90625 27 6.90625 
C 17.5 6.90625 12.703125 14.796875 12.703125 24.296875 
C 12.703125 35.5 18.703125 42.59375 27.09375 42.59375 
C 33.5 42.59375 37.796875 38.40625 39.40625 33.296875 
C 39.796875 32.09375 39.90625 30.796875 39.90625 29.296875 
z
" id="MyriadPro-Regular-103"/>
      <path d="M 46.203125 22.59375 
C 46.296875 23.5 46.5 24.90625 46.5 26.703125 
C 46.5 35.59375 42.296875 49.5 26.5 49.5 
C 12.40625 49.5 3.796875 38 3.796875 23.40625 
C 3.796875 8.796875 12.703125 -1.09375 27.59375 -1.09375 
C 35.296875 -1.09375 40.59375 0.59375 43.703125 2 
L 42.203125 8.296875 
C 38.90625 6.90625 35.09375 5.796875 28.796875 5.796875 
C 20 5.796875 12.40625 10.703125 12.203125 22.59375 
z
M 12.296875 28.90625 
C 13 35 16.90625 43.203125 25.796875 43.203125 
C 35.703125 43.203125 38.09375 34.5 38 28.90625 
z
" id="MyriadPro-Regular-101"/>
     </defs>
     <g style="fill:#444147;" transform="translate(11.525625 69.909375)rotate(-90)scale(0.06 -0.06)">
      <use xlink:href="#MyriadPro-Regular-102"/>
      <use x="29.199997" xlink:href="#MyriadPro-Regular-111"/>
      <use x="84.099991" xlink:href="#MyriadPro-Regular-108"/>
      <use x="107.699982" xlink:href="#MyriadPro-Regular-100"/>
      <use x="164.099976" xlink:href="#MyriadPro-Regular-45"/>
      <use x="194.799973" xlink:href="#MyriadPro-Regular-99"/>
      <use x="239.59996" xlink:href="#MyriadPro-Regular-104"/>
      <use x="295.099945" xlink:href="#MyriadPro-Regular-97"/>
      <use x="343.299942" xlink:href="#MyriadPro-Regular-110"/>
      <use x="398.799927" xlink:href="#MyriadPro-Regular-103"/>
      <use x="454.699921" xlink:href="#MyriadPro-Regular-101"/>
     </g>
    </g>
   </g>
   <g id="line2d_62"/>
   <g id="line2d_63">
    <path clip-path="url(#paff20844c6)" d="M -1 100.485293 
L 58.427813 100.486008 
L 97.928865 98.710832 
L 104.927813 94.614175 
L 114.179918 84.810586 
L 121.178865 63.32982 
L 125.272987 52.73431 
L 128.177813 51.584175 
L 137.429918 28.84448 
L 144.428865 24.161711 
L 151.427813 20.364356 
L 167.678865 14.750919 
" style="fill:none;stroke:#e39943;stroke-dasharray:0.5,0.825;stroke-dashoffset:0;stroke-linecap:round;stroke-width:0.5;"/>
    <defs>
     <path d="M 0 2 
C 0.530406 2 1.03916 1.789267 1.414214 1.414214 
C 1.789267 1.03916 2 0.530406 2 0 
C 2 -0.530406 1.789267 -1.03916 1.414214 -1.414214 
C 1.03916 -1.789267 0.530406 -2 0 -2 
C -0.530406 -2 -1.03916 -1.789267 -1.414214 -1.414214 
C -1.789267 -1.03916 -2 -0.530406 -2 0 
C -2 0.530406 -1.789267 1.03916 -1.414214 1.414214 
C -1.03916 1.789267 -0.530406 2 0 2 
z
" id="m8d3830aa73" style="stroke:#e39943;stroke-width:0.5;"/>
    </defs>
    <g clip-path="url(#paff20844c6)">
     <use style="fill:#ffffff;stroke:#e39943;stroke-width:0.5;" x="-1" xlink:href="#m8d3830aa73" y="100.485293"/>
     <use style="fill:#ffffff;stroke:#e39943;stroke-width:0.5;" x="58.427813" xlink:href="#m8d3830aa73" y="100.486008"/>
     <use style="fill:#ffffff;stroke:#e39943;stroke-width:0.5;" x="97.928865" xlink:href="#m8d3830aa73" y="98.710832"/>
     <use style="fill:#ffffff;stroke:#e39943;stroke-width:0.5;" x="104.927813" xlink:href="#m8d3830aa73" y="94.614175"/>
     <use style="fill:#ffffff;stroke:#e39943;stroke-width:0.5;" x="114.179918" xlink:href="#m8d3830aa73" y="84.810586"/>
     <use style="fill:#ffffff;stroke:#e39943;stroke-width:0.5;" x="121.178865" xlink:href="#m8d3830aa73" y="63.32982"/>
     <use style="fill:#ffffff;stroke:#e39943;stroke-width:0.5;" x="125.272987" xlink:href="#m8d3830aa73" y="52.73431"/>
     <use style="fill:#ffffff;stroke:#e39943;stroke-width:0.5;" x="128.177813" xlink:href="#m8d3830aa73" y="51.584175"/>
     <use style="fill:#ffffff;stroke:#e39943;stroke-width:0.5;" x="137.429918" xlink:href="#m8d3830aa73" y="28.84448"/>
     <use style="fill:#ffffff;stroke:#e39943;stroke-width:0.5;" x="144.428865" xlink:href="#m8d3830aa73" y="24.161711"/>
     <use style="fill:#ffffff;stroke:#e39943;stroke-width:0.5;" x="151.427813" xlink:href="#m8d3830aa73" y="20.364356"/>
     <use style="fill:#ffffff;stroke:#e39943;stroke-width:0.5;" x="167.678865" xlink:href="#m8d3830aa73" y="14.750919"/>
    </g>
   </g>
   <g id="patch_3">
    <path d="M 33.177813 102.33 
L 33.177813 7.2 
" style="fill:none;stroke:#444147;stroke-linecap:square;stroke-linejoin:miter;stroke-width:0.25;"/>
   </g>
   <g id="patch_4">
    <path d="M 35.177813 104.33 
L 174.677813 104.33 
" style="fill:none;stroke:#444147;stroke-linecap:square;stroke-linejoin:miter;stroke-width:0.25;"/>
   </g>
   <g id="legend_1">
    <g id="patch_5">
     <path d="M 39.377813 35.354063 
L 104.207812 35.354063 
Q 105.407812 35.354063 105.407812 34.154063 
L 105.407812 11.4 
Q 105.407812 10.2 104.207812 10.2 
L 39.377813 10.2 
Q 38.177813 10.2 38.177813 11.4 
L 38.177813 34.154063 
Q 38.177813 35.354063 39.377813 35.354063 
z
" style="fill:#efefef;opacity:0.8;stroke:#444147;stroke-linejoin:miter;stroke-width:0.25;"/>
    </g>
    <g id="text_16">
     <!-- repressors / cell = 260 -->
     <defs>
      <path d="M 7.296875 0 
L 16 0 
L 16 25.796875 
C 16 27.296875 16.203125 28.703125 16.40625 29.90625 
C 17.59375 36.5 22 41.203125 28.203125 41.203125 
C 29.40625 41.203125 30.296875 41.09375 31.203125 40.90625 
L 31.203125 49.203125 
C 30.40625 49.40625 29.703125 49.5 28.703125 49.5 
C 22.796875 49.5 17.5 45.40625 15.296875 38.90625 
L 14.90625 38.90625 
L 14.59375 48.40625 
L 6.90625 48.40625 
C 7.203125 43.90625 7.296875 39 7.296875 33.296875 
z
" id="MyriadPro-Regular-114"/>
      <path d="M 7.296875 -19.796875 
L 16 -19.796875 
L 16 6.5 
L 16.203125 6.5 
C 19.09375 1.703125 24.703125 -1.09375 31.09375 -1.09375 
C 42.5 -1.09375 53.09375 7.5 53.09375 24.90625 
C 53.09375 39.59375 44.296875 49.5 32.59375 49.5 
C 24.703125 49.5 19 46 15.40625 40.09375 
L 15.203125 40.09375 
L 14.796875 48.40625 
L 6.90625 48.40625 
C 7.09375 43.796875 7.296875 38.796875 7.296875 32.59375 
z
M 16 28 
C 16 29.203125 16.296875 30.5 16.59375 31.59375 
C 18.296875 38.203125 23.90625 42.5 29.90625 42.5 
C 39.203125 42.5 44.296875 34.203125 44.296875 24.5 
C 44.296875 13.40625 38.90625 5.796875 29.59375 5.796875 
C 23.296875 5.796875 18 10 16.40625 16.09375 
C 16.203125 17.203125 16 18.40625 16 19.703125 
z
" id="MyriadPro-Regular-112"/>
      <path d="M 3.90625 2.296875 
C 7.296875 0.296875 12.203125 -1.09375 17.5 -1.09375 
C 29 -1.09375 35.59375 5 35.59375 13.5 
C 35.59375 20.703125 31.296875 24.90625 22.90625 28.09375 
C 16.59375 30.5 13.703125 32.296875 13.703125 36.296875 
C 13.703125 39.90625 16.59375 42.90625 21.796875 42.90625 
C 26.296875 42.90625 29.796875 41.296875 31.703125 40.09375 
L 33.90625 46.5 
C 31.203125 48.09375 26.90625 49.5 22 49.5 
C 11.59375 49.5 5.296875 43.09375 5.296875 35.296875 
C 5.296875 29.5 9.40625 24.703125 18.09375 21.59375 
C 24.59375 19.203125 27.09375 16.90625 27.09375 12.703125 
C 27.09375 8.703125 24.09375 5.5 17.703125 5.5 
C 13.296875 5.5 8.703125 7.296875 6.09375 9 
z
" id="MyriadPro-Regular-115"/>
      <path d="M 6.59375 -4 
L 34.59375 68.5 
L 27.796875 68.5 
L -0.09375 -4 
z
" id="MyriadPro-Regular-47"/>
      <path d="M 55.59375 33.703125 
L 55.59375 39.703125 
L 4 39.703125 
L 4 33.703125 
z
M 55.59375 14.09375 
L 55.59375 20.09375 
L 4 20.09375 
L 4 14.09375 
z
" id="MyriadPro-Regular-61"/>
     </defs>
     <g style="fill:#444147;" transform="translate(44.685937 16.86)scale(0.06 -0.06)">
      <use xlink:href="#MyriadPro-Regular-114"/>
      <use x="32.699997" xlink:href="#MyriadPro-Regular-101"/>
      <use x="82.799988" xlink:href="#MyriadPro-Regular-112"/>
      <use x="139.699982" xlink:href="#MyriadPro-Regular-114"/>
      <use x="172.399979" xlink:href="#MyriadPro-Regular-101"/>
      <use x="222.499969" xlink:href="#MyriadPro-Regular-115"/>
      <use x="262.09996" xlink:href="#MyriadPro-Regular-115"/>
      <use x="301.699951" xlink:href="#MyriadPro-Regular-111"/>
      <use x="356.599945" xlink:href="#MyriadPro-Regular-114"/>
      <use x="389.299942" xlink:href="#MyriadPro-Regular-115"/>
      <use x="428.899933" xlink:href="#MyriadPro-Regular-32"/>
      <use x="450.09993" xlink:href="#MyriadPro-Regular-47"/>
      <use x="484.399918" xlink:href="#MyriadPro-Regular-32"/>
      <use x="505.599915" xlink:href="#MyriadPro-Regular-99"/>
      <use x="550.399902" xlink:href="#MyriadPro-Regular-101"/>
      <use x="600.499893" xlink:href="#MyriadPro-Regular-108"/>
      <use x="624.099884" xlink:href="#MyriadPro-Regular-108"/>
      <use x="647.699875" xlink:href="#MyriadPro-Regular-32"/>
      <use x="668.899872" xlink:href="#MyriadPro-Regular-61"/>
      <use x="728.499863" xlink:href="#MyriadPro-Regular-32"/>
      <use x="749.69986" xlink:href="#MyriadPro-Regular-50"/>
      <use x="800.999847" xlink:href="#MyriadPro-Regular-54"/>
      <use x="852.299835" xlink:href="#MyriadPro-Regular-48"/>
     </g>
     <!--  $\Delta\varepsilon_{RA} = -13.9\,k_BT$ -->
     <defs>
      <path d="M 34.1875 63.1875 
L 14.15625 8.203125 
L 54.25 8.203125 
z
M 0.78125 0 
L 28.609375 72.90625 
L 39.796875 72.90625 
L 67.578125 0 
z
" id="DejaVuSans-916"/>
      <path d="M 19.734375 29.5 
Q 14.453125 30.671875 12.15625 33.84375 
Q 10.453125 36.078125 10.453125 39.109375 
Q 10.453125 47.40625 18.359375 52.25 
Q 24.609375 56.0625 34.1875 56.0625 
Q 37.890625 56.0625 41.9375 55.46875 
Q 46 54.890625 50.53125 53.71875 
L 48.96875 45.5625 
Q 44.484375 46.96875 40.71875 47.609375 
Q 36.859375 48.25 33.40625 48.25 
Q 27.59375 48.25 23.78125 46 
Q 19.1875 43.3125 19.1875 39.40625 
Q 19.1875 36.8125 21.578125 35.015625 
Q 24.421875 32.859375 30.078125 32.859375 
L 37.640625 32.859375 
L 36.234375 25.4375 
L 29 25.4375 
Q 22.265625 25.4375 18.3125 22.953125 
Q 12.9375 19.578125 12.9375 14.3125 
Q 12.9375 10.984375 15.828125 8.796875 
Q 19.4375 6.0625 26.8125 6.0625 
Q 31.34375 6.0625 35.6875 6.9375 
Q 40.046875 7.859375 43.84375 9.671875 
L 42.1875 1.3125 
Q 37.546875 -0.046875 33.296875 -0.734375 
Q 29.046875 -1.421875 25.140625 -1.421875 
Q 13.53125 -1.421875 8.0625 3.03125 
Q 3.90625 6.453125 3.90625 12.203125 
Q 3.90625 19.96875 9.375 24.75 
Q 13.421875 28.328125 19.734375 29.5 
z
" id="DejaVuSans-Oblique-949"/>
      <path d="M 25.203125 64.796875 
L 20.21875 38.921875 
L 32.90625 38.921875 
Q 40.375 38.921875 44.984375 43.046875 
Q 49.609375 47.171875 49.609375 53.8125 
Q 49.609375 59.125 46.5 61.953125 
Q 43.40625 64.796875 37.59375 64.796875 
z
M 43.3125 35.015625 
Q 46.4375 34.28125 48.515625 31.390625 
Q 50.59375 28.515625 53.328125 19.921875 
L 59.515625 0 
L 49.125 0 
L 43.40625 18.703125 
Q 41.21875 25.921875 38.328125 28.359375 
Q 35.453125 30.8125 29.5 30.8125 
L 18.609375 30.8125 
L 12.59375 0 
L 2.6875 0 
L 16.890625 72.90625 
L 39.109375 72.90625 
Q 49.21875 72.90625 54.609375 68.328125 
Q 60.015625 63.765625 60.015625 55.171875 
Q 60.015625 47.5625 55.421875 41.984375 
Q 50.828125 36.421875 43.3125 35.015625 
z
" id="DejaVuSans-Oblique-82"/>
      <path d="M 36.8125 72.90625 
L 48 72.90625 
L 61.53125 0 
L 51.21875 0 
L 48.1875 18.703125 
L 15.375 18.703125 
L 5.078125 0 
L -5.328125 0 
z
M 40.375 63.1875 
L 19.921875 26.90625 
L 46.6875 26.90625 
z
" id="DejaVuSans-Oblique-65"/>
      <path d="M 10.59375 45.40625 
L 73.1875 45.40625 
L 73.1875 37.203125 
L 10.59375 37.203125 
z
M 10.59375 25.484375 
L 73.1875 25.484375 
L 73.1875 17.1875 
L 10.59375 17.1875 
z
" id="DejaVuSans-61"/>
      <path d="M 10.59375 35.5 
L 73.1875 35.5 
L 73.1875 27.203125 
L 10.59375 27.203125 
z
" id="DejaVuSans-8722"/>
      <path d="M 12.40625 8.296875 
L 28.515625 8.296875 
L 28.515625 63.921875 
L 10.984375 60.40625 
L 10.984375 69.390625 
L 28.421875 72.90625 
L 38.28125 72.90625 
L 38.28125 8.296875 
L 54.390625 8.296875 
L 54.390625 0 
L 12.40625 0 
z
" id="DejaVuSans-49"/>
      <path d="M 40.578125 39.3125 
Q 47.65625 37.796875 51.625 33 
Q 55.609375 28.21875 55.609375 21.1875 
Q 55.609375 10.40625 48.1875 4.484375 
Q 40.765625 -1.421875 27.09375 -1.421875 
Q 22.515625 -1.421875 17.65625 -0.515625 
Q 12.796875 0.390625 7.625 2.203125 
L 7.625 11.71875 
Q 11.71875 9.328125 16.59375 8.109375 
Q 21.484375 6.890625 26.8125 6.890625 
Q 36.078125 6.890625 40.9375 10.546875 
Q 45.796875 14.203125 45.796875 21.1875 
Q 45.796875 27.640625 41.28125 31.265625 
Q 36.765625 34.90625 28.71875 34.90625 
L 20.21875 34.90625 
L 20.21875 43.015625 
L 29.109375 43.015625 
Q 36.375 43.015625 40.234375 45.921875 
Q 44.09375 48.828125 44.09375 54.296875 
Q 44.09375 59.90625 40.109375 62.90625 
Q 36.140625 65.921875 28.71875 65.921875 
Q 24.65625 65.921875 20.015625 65.03125 
Q 15.375 64.15625 9.8125 62.3125 
L 9.8125 71.09375 
Q 15.4375 72.65625 20.34375 73.4375 
Q 25.25 74.21875 29.59375 74.21875 
Q 40.828125 74.21875 47.359375 69.109375 
Q 53.90625 64.015625 53.90625 55.328125 
Q 53.90625 49.265625 50.4375 45.09375 
Q 46.96875 40.921875 40.578125 39.3125 
z
" id="DejaVuSans-51"/>
      <path d="M 10.6875 12.40625 
L 21 12.40625 
L 21 0 
L 10.6875 0 
z
" id="DejaVuSans-46"/>
      <path d="M 10.984375 1.515625 
L 10.984375 10.5 
Q 14.703125 8.734375 18.5 7.8125 
Q 22.3125 6.890625 25.984375 6.890625 
Q 35.75 6.890625 40.890625 13.453125 
Q 46.046875 20.015625 46.78125 33.40625 
Q 43.953125 29.203125 39.59375 26.953125 
Q 35.25 24.703125 29.984375 24.703125 
Q 19.046875 24.703125 12.671875 31.3125 
Q 6.296875 37.9375 6.296875 49.421875 
Q 6.296875 60.640625 12.9375 67.421875 
Q 19.578125 74.21875 30.609375 74.21875 
Q 43.265625 74.21875 49.921875 64.515625 
Q 56.59375 54.828125 56.59375 36.375 
Q 56.59375 19.140625 48.40625 8.859375 
Q 40.234375 -1.421875 26.421875 -1.421875 
Q 22.703125 -1.421875 18.890625 -0.6875 
Q 15.09375 0.046875 10.984375 1.515625 
z
M 30.609375 32.421875 
Q 37.25 32.421875 41.125 36.953125 
Q 45.015625 41.5 45.015625 49.421875 
Q 45.015625 57.28125 41.125 61.84375 
Q 37.25 66.40625 30.609375 66.40625 
Q 23.96875 66.40625 20.09375 61.84375 
Q 16.21875 57.28125 16.21875 49.421875 
Q 16.21875 41.5 20.09375 36.953125 
Q 23.96875 32.421875 30.609375 32.421875 
z
" id="DejaVuSans-57"/>
      <path d="M 18.3125 75.984375 
L 27.296875 75.984375 
L 18.703125 31.6875 
L 49.515625 54.6875 
L 61.1875 54.6875 
L 26.8125 28.515625 
L 51.90625 0 
L 41.015625 0 
L 17.671875 26.703125 
L 12.5 0 
L 3.515625 0 
z
" id="DejaVuSans-Oblique-107"/>
      <path d="M 16.890625 72.90625 
L 42.09375 72.90625 
Q 52.34375 72.90625 57.421875 69.09375 
Q 62.5 65.28125 62.5 57.625 
Q 62.5 50.59375 58.125 45.484375 
Q 53.765625 40.375 46.6875 39.3125 
Q 52.734375 37.9375 55.765625 34.078125 
Q 58.796875 30.21875 58.796875 23.78125 
Q 58.796875 12.796875 50.65625 6.390625 
Q 42.53125 0 28.421875 0 
L 2.6875 0 
z
M 19.28125 34.8125 
L 14.109375 8.109375 
L 29.984375 8.109375 
Q 38.921875 8.109375 43.75 12.203125 
Q 48.578125 16.3125 48.578125 23.78125 
Q 48.578125 29.546875 45.375 32.171875 
Q 42.1875 34.8125 35.109375 34.8125 
z
M 25.09375 64.796875 
L 20.796875 42.828125 
L 35.5 42.828125 
Q 43.359375 42.828125 47.78125 46.234375 
Q 52.203125 49.65625 52.203125 55.71875 
Q 52.203125 60.453125 49.21875 62.625 
Q 46.234375 64.796875 39.703125 64.796875 
z
" id="DejaVuSans-Oblique-66"/>
      <path d="M 5.90625 72.90625 
L 67.578125 72.90625 
L 66.015625 64.59375 
L 39.984375 64.59375 
L 27.484375 0 
L 17.578125 0 
L 30.078125 64.59375 
L 4.296875 64.59375 
z
" id="DejaVuSans-Oblique-84"/>
     </defs>
     <g style="fill:#444147;" transform="translate(44.685937 23.318438)scale(0.06 -0.06)">
      <use transform="translate(0 0.015625)" xlink:href="#MyriadPro-Regular-32"/>
      <use transform="translate(21.199997 0.015625)" xlink:href="#DejaVuSans-916"/>
      <use transform="translate(89.6082 0.015625)" xlink:href="#DejaVuSans-Oblique-949"/>
      <use transform="translate(143.660934 -16.390625)scale(0.7)" xlink:href="#DejaVuSans-Oblique-82"/>
      <use transform="translate(192.29863 -16.390625)scale(0.7)" xlink:href="#DejaVuSans-Oblique-65"/>
      <use transform="translate(262.401169 0.015625)" xlink:href="#DejaVuSans-61"/>
      <use transform="translate(385.155075 0.015625)" xlink:href="#DejaVuSans-8722"/>
      <use transform="translate(488.426559 0.015625)" xlink:href="#DejaVuSans-49"/>
      <use transform="translate(552.049606 0.015625)" xlink:href="#DejaVuSans-51"/>
      <use transform="translate(615.672653 0.015625)" xlink:href="#DejaVuSans-46"/>
      <use transform="translate(647.459763 0.015625)" xlink:href="#DejaVuSans-57"/>
      <use transform="translate(727.318486 0.015625)" xlink:href="#DejaVuSans-Oblique-107"/>
      <use transform="translate(785.228642 -16.390625)scale(0.7)" xlink:href="#DejaVuSans-Oblique-66"/>
      <use transform="translate(835.985478 0.015625)" xlink:href="#DejaVuSans-Oblique-84"/>
     </g>
    </g>
    <g id="line2d_64"/>
    <g id="line2d_65">
     <g>
      <use style="fill:#ffffff;stroke:#e39943;stroke-width:0.5;" x="46.577813" xlink:href="#m8d3830aa73" y="29.66625"/>
     </g>
    </g>
    <g id="text_17">
     <!-- experimental data -->
     <defs>
      <path d="M 1.59375 48.40625 
L 18 24.703125 
L 0.796875 0 
L 10.5 0 
L 17.5 10.90625 
C 19.296875 13.796875 21 16.296875 22.59375 19.296875 
L 22.796875 19.296875 
C 24.5 16.40625 26.09375 13.703125 28 10.90625 
L 35.09375 0 
L 45.09375 0 
L 28.09375 25 
L 44.59375 48.40625 
L 35.09375 48.40625 
L 28.296875 38.09375 
C 26.703125 35.5 25.09375 33 23.5 30.09375 
L 23.203125 30.09375 
C 21.59375 32.796875 20.09375 35.296875 18.296875 38 
L 11.40625 48.40625 
z
" id="MyriadPro-Regular-120"/>
      <path d="M 16.09375 0 
L 16.09375 48.40625 
L 7.296875 48.40625 
L 7.296875 0 
z
M 11.703125 67.5 
C 8.5 67.5 6.203125 65.09375 6.203125 62 
C 6.203125 59 8.40625 56.59375 11.5 56.59375 
C 15 56.59375 17.203125 59 17.09375 62 
C 17.09375 65.09375 15 67.5 11.703125 67.5 
z
" id="MyriadPro-Regular-105"/>
      <path d="M 7.296875 0 
L 15.90625 0 
L 15.90625 29.203125 
C 15.90625 30.703125 16.09375 32.203125 16.59375 33.5 
C 18 37.90625 22 42.296875 27.5 42.296875 
C 34.203125 42.296875 37.59375 36.703125 37.59375 29 
L 37.59375 0 
L 46.203125 0 
L 46.203125 29.90625 
C 46.203125 31.5 46.5 33.09375 46.90625 34.296875 
C 48.40625 38.59375 52.296875 42.296875 57.296875 42.296875 
C 64.40625 42.296875 67.796875 36.703125 67.796875 27.40625 
L 67.796875 0 
L 76.40625 0 
L 76.40625 28.5 
C 76.40625 45.296875 66.90625 49.5 60.5 49.5 
C 55.90625 49.5 52.703125 48.296875 49.796875 46.09375 
C 47.796875 44.59375 45.90625 42.5 44.40625 39.796875 
L 44.203125 39.796875 
C 42.09375 45.5 37.09375 49.5 30.5 49.5 
C 22.5 49.5 18 45.203125 15.296875 40.59375 
L 15 40.59375 
L 14.59375 48.40625 
L 6.90625 48.40625 
C 7.203125 44.40625 7.296875 40.296875 7.296875 35.296875 
z
" id="MyriadPro-Regular-109"/>
      <path d="M 9.296875 57.296875 
L 9.296875 48.40625 
L 1.796875 48.40625 
L 1.796875 41.703125 
L 9.296875 41.703125 
L 9.296875 15.296875 
C 9.296875 9.59375 10.203125 5.296875 12.703125 2.703125 
C 14.796875 0.296875 18.09375 -1.09375 22.203125 -1.09375 
C 25.59375 -1.09375 28.296875 -0.5 30 0.203125 
L 29.59375 6.796875 
C 28.296875 6.40625 26.90625 6.203125 24.5 6.203125 
C 19.59375 6.203125 17.90625 9.59375 17.90625 15.59375 
L 17.90625 41.703125 
L 30.5 41.703125 
L 30.5 48.40625 
L 17.90625 48.40625 
L 17.90625 60 
z
" id="MyriadPro-Regular-116"/>
     </defs>
     <g style="fill:#444147;" transform="translate(57.377813 31.76625)scale(0.06 -0.06)">
      <use xlink:href="#MyriadPro-Regular-101"/>
      <use x="50.099991" xlink:href="#MyriadPro-Regular-120"/>
      <use x="96.399979" xlink:href="#MyriadPro-Regular-112"/>
      <use x="153.299973" xlink:href="#MyriadPro-Regular-101"/>
      <use x="203.399963" xlink:href="#MyriadPro-Regular-114"/>
      <use x="236.09996" xlink:href="#MyriadPro-Regular-105"/>
      <use x="259.499954" xlink:href="#MyriadPro-Regular-109"/>
      <use x="342.899948" xlink:href="#MyriadPro-Regular-101"/>
      <use x="392.999939" xlink:href="#MyriadPro-Regular-110"/>
      <use x="448.499924" xlink:href="#MyriadPro-Regular-116"/>
      <use x="481.599915" xlink:href="#MyriadPro-Regular-97"/>
      <use x="529.799911" xlink:href="#MyriadPro-Regular-108"/>
      <use x="553.399902" xlink:href="#MyriadPro-Regular-32"/>
      <use x="574.599899" xlink:href="#MyriadPro-Regular-100"/>
      <use x="630.999893" xlink:href="#MyriadPro-Regular-97"/>
      <use x="679.19989" xlink:href="#MyriadPro-Regular-116"/>
      <use x="712.299881" xlink:href="#MyriadPro-Regular-97"/>
     </g>
    </g>
   </g>
  </g>
 </g>
 <defs>
  <clipPath id="paff20844c6">
   <rect height="95.13" width="139.5" x="35.177813" y="7.2"/>
  </clipPath>
 </defs>
</svg>
