<?xml version="1.0" encoding="utf-8" standalone="no"?>
<!DOCTYPE svg PUBLIC "-//W3C//DTD SVG 1.1//EN"
  "http://www.w3.org/Graphics/SVG/1.1/DTD/svg11.dtd">
<!-- Created with matplotlib (https://matplotlib.org/) -->
<svg height="154.407813pt" version="1.1" viewBox="0 0 214.637813 154.407813" width="214.637813pt" xmlns="http://www.w3.org/2000/svg" xmlns:xlink="http://www.w3.org/1999/xlink">
 <defs>
  <style type="text/css">
*{stroke-linecap:butt;stroke-linejoin:round;}
  </style>
 </defs>
 <g id="figure_1">
  <g id="patch_1">
   <path d="M 0 154.407813 
L 214.637813 154.407813 
L 214.637813 0 
L 0 0 
z
" style="fill:#ffffff;"/>
  </g>
  <g id="axes_1">
   <g id="patch_2">
    <path d="M 37.037813 118.92 
L 204.437813 118.92 
L 204.437813 10.2 
L 37.037813 10.2 
z
" style="fill:#efefef;"/>
   </g>
   <g id="matplotlib.axis_1">
    <g id="xtick_1">
     <g id="line2d_1">
      <defs>
       <path d="M 0 0 
L 0 3 
" id="mef94c460a4" style="stroke:#444147;stroke-width:0.25;"/>
      </defs>
      <g>
       <use style="fill:#444147;stroke:#444147;stroke-width:0.25;" x="41.775548" xlink:href="#mef94c460a4" y="120.92"/>
      </g>
     </g>
     <g id="text_1">
      <!-- −6 -->
      <defs>
       <path d="M 4 29.703125 
L 4 23.703125 
L 55.59375 23.703125 
L 55.59375 29.703125 
z
" id="MyriadPro-Regular-8722"/>
       <path d="M 41.59375 66 
C 40 66 37.796875 65.90625 35.203125 65.5 
C 27 64.5 19.796875 61.203125 14.40625 55.90625 
C 7.90625 49.5 3.40625 39.40625 3.40625 26.59375 
C 3.40625 9.703125 12.5 -1.09375 26.296875 -1.09375 
C 39.90625 -1.09375 48 9.90625 48 21.90625 
C 48 34.5 39.90625 42.90625 28.40625 42.90625 
C 21.203125 42.90625 15.703125 39.5 12.59375 35.296875 
L 12.40625 35.296875 
C 13.90625 46.09375 21.09375 56.09375 35 58.296875 
C 37.5 58.703125 39.796875 58.90625 41.59375 58.796875 
z
M 26.5 5.703125 
C 17.203125 5.703125 12.203125 13.703125 12.09375 24.40625 
C 12.09375 26 12.5 27.203125 13 28.203125 
C 15.40625 33 20.40625 36.203125 25.703125 36.203125 
C 33.796875 36.203125 39.09375 30.59375 39.09375 21.296875 
C 39.09375 12 34 5.703125 26.5 5.703125 
z
" id="MyriadPro-Regular-54"/>
      </defs>
      <g style="fill:#444147;" transform="translate(38.44883 134.18)scale(0.06 -0.06)">
       <use xlink:href="#MyriadPro-Regular-8722"/>
       <use x="59.599991" xlink:href="#MyriadPro-Regular-54"/>
      </g>
     </g>
    </g>
    <g id="xtick_2">
     <g id="line2d_2">
      <g>
       <use style="fill:#444147;stroke:#444147;stroke-width:0.25;" x="68.096303" xlink:href="#mef94c460a4" y="120.92"/>
      </g>
     </g>
     <g id="text_2">
      <!-- −4 -->
      <defs>
       <path d="M 40 0 
L 40 17.796875 
L 49.09375 17.796875 
L 49.09375 24.59375 
L 40 24.59375 
L 40 65 
L 30.5 65 
L 1.5 23.5 
L 1.5 17.796875 
L 31.703125 17.796875 
L 31.703125 0 
z
M 10.40625 24.59375 
L 10.40625 24.796875 
L 26.296875 46.90625 
C 28.09375 49.90625 29.703125 52.703125 31.703125 56.5 
L 32 56.5 
C 31.796875 53.09375 31.703125 49.703125 31.703125 46.296875 
L 31.703125 24.59375 
z
" id="MyriadPro-Regular-52"/>
      </defs>
      <g style="fill:#444147;" transform="translate(64.769584 134.18)scale(0.06 -0.06)">
       <use xlink:href="#MyriadPro-Regular-8722"/>
       <use x="59.599991" xlink:href="#MyriadPro-Regular-52"/>
      </g>
     </g>
    </g>
    <g id="xtick_3">
     <g id="line2d_3">
      <g>
       <use style="fill:#444147;stroke:#444147;stroke-width:0.25;" x="94.417058" xlink:href="#mef94c460a4" y="120.92"/>
      </g>
     </g>
     <g id="text_3">
      <!-- −2 -->
      <defs>
       <path d="M 46 0 
L 46 7.296875 
L 16.90625 7.296875 
L 16.90625 7.5 
L 22 12.296875 
C 35.703125 25.5 44.40625 35.203125 44.40625 47.203125 
C 44.40625 56.5 38.5 66.09375 24.5 66.09375 
C 17.09375 66.09375 10.59375 63.203125 6.203125 59.5 
L 9 53.296875 
C 12 55.796875 16.90625 58.796875 22.796875 58.796875 
C 32.5 58.796875 35.59375 52.703125 35.59375 46.09375 
C 35.59375 36.296875 28 27.90625 11.40625 12.09375 
L 4.5 5.40625 
L 4.5 0 
z
" id="MyriadPro-Regular-50"/>
      </defs>
      <g style="fill:#444147;" transform="translate(91.090339 134.18)scale(0.06 -0.06)">
       <use xlink:href="#MyriadPro-Regular-8722"/>
       <use x="59.599991" xlink:href="#MyriadPro-Regular-50"/>
      </g>
     </g>
    </g>
    <g id="xtick_4">
     <g id="line2d_4">
      <g>
       <use style="fill:#444147;stroke:#444147;stroke-width:0.25;" x="120.737813" xlink:href="#mef94c460a4" y="120.92"/>
      </g>
     </g>
     <g id="text_4">
      <!-- 0 -->
      <defs>
       <path d="M 26.296875 66.09375 
C 13.09375 66.09375 3.59375 54.203125 3.59375 32.296875 
C 3.796875 10.796875 12.5 -1.09375 25.203125 -1.09375 
C 39.5 -1.09375 47.796875 11.09375 47.796875 33.203125 
C 47.796875 53.90625 39.90625 66.09375 26.296875 66.09375 
z
M 25.703125 59.296875 
C 34.90625 59.296875 38.90625 48.796875 38.90625 32.796875 
C 38.90625 16.203125 34.59375 5.703125 25.703125 5.703125 
C 17.703125 5.703125 12.5 15.296875 12.5 32.203125 
C 12.5 49.90625 18.09375 59.296875 25.703125 59.296875 
z
" id="MyriadPro-Regular-48"/>
      </defs>
      <g style="fill:#444147;" transform="translate(119.198906 134.18)scale(0.06 -0.06)">
       <use xlink:href="#MyriadPro-Regular-48"/>
      </g>
     </g>
    </g>
    <g id="xtick_5">
     <g id="line2d_5">
      <g>
       <use style="fill:#444147;stroke:#444147;stroke-width:0.25;" x="147.058567" xlink:href="#mef94c460a4" y="120.92"/>
      </g>
     </g>
     <g id="text_5">
      <!-- 2 -->
      <g style="fill:#444147;" transform="translate(145.519661 134.18)scale(0.06 -0.06)">
       <use xlink:href="#MyriadPro-Regular-50"/>
      </g>
     </g>
    </g>
    <g id="xtick_6">
     <g id="line2d_6">
      <g>
       <use style="fill:#444147;stroke:#444147;stroke-width:0.25;" x="173.379322" xlink:href="#mef94c460a4" y="120.92"/>
      </g>
     </g>
     <g id="text_6">
      <!-- 4 -->
      <g style="fill:#444147;" transform="translate(171.840416 134.18)scale(0.06 -0.06)">
       <use xlink:href="#MyriadPro-Regular-52"/>
      </g>
     </g>
    </g>
    <g id="xtick_7">
     <g id="line2d_7">
      <g>
       <use style="fill:#444147;stroke:#444147;stroke-width:0.25;" x="199.700077" xlink:href="#mef94c460a4" y="120.92"/>
      </g>
     </g>
     <g id="text_7">
      <!-- 6 -->
      <g style="fill:#444147;" transform="translate(198.16117 134.18)scale(0.06 -0.06)">
       <use xlink:href="#MyriadPro-Regular-54"/>
      </g>
     </g>
    </g>
    <g id="text_8">
     <!-- free energy [$k_BT$] -->
     <defs>
      <path d="M 16.90625 0 
L 16.90625 41.703125 
L 28.59375 41.703125 
L 28.59375 48.40625 
L 16.90625 48.40625 
L 16.90625 51 
C 16.90625 58.5 18.796875 65 26.296875 65 
C 28.90625 65 30.59375 64.5 31.90625 63.90625 
L 33.09375 70.703125 
C 31.40625 71.40625 28.796875 72.09375 25.59375 72.09375 
C 21.5 72.09375 17.09375 70.796875 13.796875 67.59375 
C 9.796875 63.703125 8.203125 57.5 8.203125 50.703125 
L 8.203125 48.40625 
L 1.5 48.40625 
L 1.5 41.703125 
L 8.203125 41.703125 
L 8.203125 0 
z
" id="MyriadPro-Regular-102"/>
      <path d="M 7.296875 0 
L 16.09375 0 
L 16.09375 25.796875 
C 16.09375 27.203125 16.203125 28.703125 16.40625 29.90625 
C 17.59375 36.5 22 41.09375 28.203125 41.09375 
C 29.40625 41.09375 30.296875 41.09375 31.203125 40.90625 
L 31.203125 49.203125 
C 30.40625 49.296875 29.703125 49.40625 28.796875 49.40625 
C 22.90625 49.40625 17.5 45.296875 15.296875 38.796875 
L 15 38.796875 
L 14.59375 48.40625 
L 6.90625 48.40625 
C 7.203125 43.90625 7.296875 39 7.296875 33.296875 
z
" id="MyriadPro-Regular-114"/>
      <path d="M 46.203125 22.59375 
C 46.40625 23.59375 46.5 24.90625 46.5 26.703125 
C 46.5 35.59375 42.40625 49.40625 26.5 49.40625 
C 12.40625 49.40625 3.796875 38 3.796875 23.40625 
C 3.796875 8.796875 12.703125 -1.09375 27.59375 -1.09375 
C 35.296875 -1.09375 40.703125 0.59375 43.796875 2 
L 42.203125 8.296875 
C 39 6.90625 35.09375 5.796875 28.796875 5.796875 
C 19.90625 5.796875 12.40625 10.703125 12.203125 22.59375 
z
M 12.296875 28.90625 
C 13 35 16.796875 43.09375 25.796875 43.09375 
C 35.703125 43.09375 38.09375 34.40625 38 28.90625 
z
" id="MyriadPro-Regular-101"/>
      <path id="MyriadPro-Regular-32"/>
      <path d="M 7.296875 0 
L 16.09375 0 
L 16.09375 29.09375 
C 16.09375 30.59375 16.296875 32.09375 16.703125 33.203125 
C 18.296875 38.09375 22.796875 42.203125 28.5 42.203125 
C 36.796875 42.203125 39.703125 35.703125 39.703125 27.90625 
L 39.703125 0 
L 48.5 0 
L 48.5 28.796875 
C 48.5 45.40625 38.09375 49.40625 31.40625 49.40625 
C 23.40625 49.40625 17.796875 44.90625 15.40625 40.40625 
L 15.203125 40.40625 
L 14.703125 48.40625 
L 6.90625 48.40625 
C 7.203125 44.40625 7.296875 40.40625 7.296875 35.296875 
z
" id="MyriadPro-Regular-110"/>
      <path d="M 48.703125 35.203125 
C 48.703125 41 48.796875 45 49.09375 48.40625 
L 41.296875 48.40625 
L 41 41.09375 
L 40.796875 41.09375 
C 38.59375 45.09375 34.09375 49.40625 25.703125 49.40625 
C 14.5 49.40625 3.796875 40.203125 3.796875 23.796875 
C 3.796875 10.40625 12.40625 0.203125 24.40625 0.203125 
C 31.90625 0.203125 37.203125 3.796875 39.796875 8.296875 
L 40 8.296875 
L 40 3 
C 40 -9.296875 33.40625 -14 24.40625 -14 
C 18.40625 -14 13.40625 -12.203125 10.203125 -10.09375 
L 8 -16.90625 
C 11.90625 -19.5 18.296875 -20.90625 24.09375 -20.90625 
C 30.203125 -20.90625 37 -19.40625 41.796875 -15.09375 
C 46.40625 -10.796875 48.703125 -4.09375 48.703125 7.09375 
z
M 39.90625 20.59375 
C 39.90625 19.09375 39.703125 17.40625 39.203125 15.90625 
C 37.40625 10.296875 32.5 6.90625 27 6.90625 
C 17.59375 6.90625 12.703125 14.796875 12.703125 24.296875 
C 12.703125 35.5 18.703125 42.59375 27.09375 42.59375 
C 33.59375 42.59375 37.796875 38.40625 39.40625 33.203125 
C 39.796875 32.09375 39.90625 30.796875 39.90625 29.296875 
z
" id="MyriadPro-Regular-103"/>
      <path d="M 0.90625 48.40625 
L 18.703125 3.796875 
C 19.203125 2.703125 19.40625 2 19.40625 1.5 
C 19.40625 1 19.09375 0.296875 18.703125 -0.59375 
C 16.59375 -5.09375 13.703125 -8.5 11.296875 -10.40625 
C 8.703125 -12.59375 5.796875 -14 3.59375 -14.703125 
L 5.796875 -22 
C 8 -21.59375 12.203125 -20.09375 16.59375 -16.40625 
C 22.59375 -11.09375 26.90625 -2.703125 33.203125 13.90625 
L 46.40625 48.40625 
L 37.09375 48.40625 
L 27.5 20 
C 26.296875 16.5 25.296875 12.796875 24.40625 9.90625 
L 24.203125 9.90625 
C 23.40625 12.796875 22.203125 16.59375 21 19.796875 
L 10.5 48.40625 
z
" id="MyriadPro-Regular-121"/>
      <path d="M 26.40625 -11.203125 
L 26.40625 -5.703125 
L 15 -5.703125 
L 15 63.09375 
L 26.40625 63.09375 
L 26.40625 68.59375 
L 8.09375 68.59375 
L 8.09375 -11.203125 
z
" id="MyriadPro-Regular-91"/>
      <path d="M 18.3125 75.984375 
L 27.296875 75.984375 
L 18.703125 31.6875 
L 49.515625 54.6875 
L 61.1875 54.6875 
L 26.8125 28.515625 
L 51.90625 0 
L 41.015625 0 
L 17.671875 26.703125 
L 12.5 0 
L 3.515625 0 
z
" id="DejaVuSans-Oblique-107"/>
      <path d="M 16.890625 72.90625 
L 42.09375 72.90625 
Q 52.34375 72.90625 57.421875 69.09375 
Q 62.5 65.28125 62.5 57.625 
Q 62.5 50.59375 58.125 45.484375 
Q 53.765625 40.375 46.6875 39.3125 
Q 52.734375 37.9375 55.765625 34.078125 
Q 58.796875 30.21875 58.796875 23.78125 
Q 58.796875 12.796875 50.65625 6.390625 
Q 42.53125 0 28.421875 0 
L 2.6875 0 
z
M 19.28125 34.8125 
L 14.109375 8.109375 
L 29.984375 8.109375 
Q 38.921875 8.109375 43.75 12.203125 
Q 48.578125 16.3125 48.578125 23.78125 
Q 48.578125 29.546875 45.375 32.171875 
Q 42.1875 34.8125 35.109375 34.8125 
z
M 25.09375 64.796875 
L 20.796875 42.828125 
L 35.5 42.828125 
Q 43.359375 42.828125 47.78125 46.234375 
Q 52.203125 49.65625 52.203125 55.71875 
Q 52.203125 60.453125 49.21875 62.625 
Q 46.234375 64.796875 39.703125 64.796875 
z
" id="DejaVuSans-Oblique-66"/>
      <path d="M 5.90625 72.90625 
L 67.578125 72.90625 
L 66.015625 64.59375 
L 39.984375 64.59375 
L 27.484375 0 
L 17.578125 0 
L 30.078125 64.59375 
L 4.296875 64.59375 
z
" id="DejaVuSans-Oblique-84"/>
      <path d="M 2 68.59375 
L 2 63.09375 
L 13.40625 63.09375 
L 13.40625 -5.703125 
L 2 -5.703125 
L 2 -11.203125 
L 20.296875 -11.203125 
L 20.296875 68.59375 
z
" id="MyriadPro-Regular-93"/>
     </defs>
     <g style="fill:#444147;" transform="translate(91.817813 145.447812)scale(0.08 -0.08)">
      <use transform="translate(0 0.015625)" xlink:href="#MyriadPro-Regular-102"/>
      <use transform="translate(29.199997 0.015625)" xlink:href="#MyriadPro-Regular-114"/>
      <use transform="translate(61.899994 0.015625)" xlink:href="#MyriadPro-Regular-101"/>
      <use transform="translate(111.999985 0.015625)" xlink:href="#MyriadPro-Regular-101"/>
      <use transform="translate(162.099976 0.015625)" xlink:href="#MyriadPro-Regular-32"/>
      <use transform="translate(183.299973 0.015625)" xlink:href="#MyriadPro-Regular-101"/>
      <use transform="translate(233.399963 0.015625)" xlink:href="#MyriadPro-Regular-110"/>
      <use transform="translate(288.899948 0.015625)" xlink:href="#MyriadPro-Regular-101"/>
      <use transform="translate(338.999939 0.015625)" xlink:href="#MyriadPro-Regular-114"/>
      <use transform="translate(371.699936 0.015625)" xlink:href="#MyriadPro-Regular-103"/>
      <use transform="translate(427.59993 0.015625)" xlink:href="#MyriadPro-Regular-121"/>
      <use transform="translate(474.699921 0.015625)" xlink:href="#MyriadPro-Regular-32"/>
      <use transform="translate(495.899918 0.015625)" xlink:href="#MyriadPro-Regular-91"/>
      <use transform="translate(524.299911 0.015625)" xlink:href="#DejaVuSans-Oblique-107"/>
      <use transform="translate(582.210068 -16.390625)scale(0.7)" xlink:href="#DejaVuSans-Oblique-66"/>
      <use transform="translate(632.966904 0.015625)" xlink:href="#DejaVuSans-Oblique-84"/>
      <use transform="translate(694.050888 0.015625)" xlink:href="#MyriadPro-Regular-93"/>
     </g>
    </g>
   </g>
   <g id="matplotlib.axis_2">
    <g id="ytick_1">
     <g id="line2d_8">
      <defs>
       <path d="M 0 0 
L -3 0 
" id="m1f22b39861" style="stroke:#444147;stroke-width:0.25;"/>
      </defs>
      <g>
       <use style="fill:#444147;stroke:#444147;stroke-width:0.25;" x="35.037813" xlink:href="#m1f22b39861" y="109.86"/>
      </g>
     </g>
     <g id="text_9">
      <!-- 0.0 -->
      <defs>
       <path d="M 11 -1.09375 
C 14.703125 -1.09375 17.09375 1.59375 17.09375 5.203125 
C 17.09375 8.90625 14.703125 11.5 11.203125 11.5 
C 7.703125 11.5 5.203125 8.796875 5.203125 5.203125 
C 5.203125 1.59375 7.59375 -1.09375 11 -1.09375 
z
" id="MyriadPro-Regular-46"/>
      </defs>
      <g style="fill:#444147;" transform="translate(18.64 111.99)scale(0.06 -0.06)">
       <use xlink:href="#MyriadPro-Regular-48"/>
       <use x="51.299988" xlink:href="#MyriadPro-Regular-46"/>
       <use x="71.999985" xlink:href="#MyriadPro-Regular-48"/>
      </g>
     </g>
    </g>
    <g id="ytick_2">
     <g id="line2d_9">
      <g>
       <use style="fill:#444147;stroke:#444147;stroke-width:0.25;" x="35.037813" xlink:href="#m1f22b39861" y="91.74"/>
      </g>
     </g>
     <g id="text_10">
      <!-- 0.2 -->
      <g style="fill:#444147;" transform="translate(18.64 93.87)scale(0.06 -0.06)">
       <use xlink:href="#MyriadPro-Regular-48"/>
       <use x="51.299988" xlink:href="#MyriadPro-Regular-46"/>
       <use x="71.999985" xlink:href="#MyriadPro-Regular-50"/>
      </g>
     </g>
    </g>
    <g id="ytick_3">
     <g id="line2d_10">
      <g>
       <use style="fill:#444147;stroke:#444147;stroke-width:0.25;" x="35.037813" xlink:href="#m1f22b39861" y="73.62"/>
      </g>
     </g>
     <g id="text_11">
      <!-- 0.4 -->
      <g style="fill:#444147;" transform="translate(18.64 75.75)scale(0.06 -0.06)">
       <use xlink:href="#MyriadPro-Regular-48"/>
       <use x="51.299988" xlink:href="#MyriadPro-Regular-46"/>
       <use x="71.999985" xlink:href="#MyriadPro-Regular-52"/>
      </g>
     </g>
    </g>
    <g id="ytick_4">
     <g id="line2d_11">
      <g>
       <use style="fill:#444147;stroke:#444147;stroke-width:0.25;" x="35.037813" xlink:href="#m1f22b39861" y="55.5"/>
      </g>
     </g>
     <g id="text_12">
      <!-- 0.6 -->
      <g style="fill:#444147;" transform="translate(18.64 57.63)scale(0.06 -0.06)">
       <use xlink:href="#MyriadPro-Regular-48"/>
       <use x="51.299988" xlink:href="#MyriadPro-Regular-46"/>
       <use x="71.999985" xlink:href="#MyriadPro-Regular-54"/>
      </g>
     </g>
    </g>
    <g id="ytick_5">
     <g id="line2d_12">
      <g>
       <use style="fill:#444147;stroke:#444147;stroke-width:0.25;" x="35.037813" xlink:href="#m1f22b39861" y="37.38"/>
      </g>
     </g>
     <g id="text_13">
      <!-- 0.8 -->
      <defs>
       <path d="M 16.59375 33.90625 
C 8.59375 30.5 3.703125 24.59375 3.703125 16.40625 
C 3.703125 6.90625 11.90625 -1.09375 25.5 -1.09375 
C 37.90625 -1.09375 47.59375 6.40625 47.59375 17.796875 
C 47.59375 25.59375 42.59375 31.40625 34.5 34.59375 
L 34.5 34.90625 
C 42.5 38.59375 45.296875 44.59375 45.296875 50.09375 
C 45.296875 58.296875 38.90625 66.09375 26.296875 66.09375 
C 14.796875 66.09375 6.09375 59.09375 6.09375 48.796875 
C 6.09375 43.203125 9.203125 37.59375 16.5 34.203125 
z
M 25.703125 5.296875 
C 17.40625 5.296875 12.40625 11.09375 12.703125 17.59375 
C 12.703125 23.796875 16.796875 28.90625 24.40625 31.09375 
C 33.203125 28.59375 38.703125 24.703125 38.703125 16.90625 
C 38.703125 10.203125 33.59375 5.296875 25.703125 5.296875 
z
M 25.796875 59.796875 
C 33.703125 59.796875 36.796875 54.40625 36.796875 49.203125 
C 36.796875 43.296875 32.5 39.296875 26.90625 37.40625 
C 19.40625 39.40625 14.40625 42.90625 14.5 49.40625 
C 14.5 55 18.5 59.796875 25.796875 59.796875 
z
" id="MyriadPro-Regular-56"/>
      </defs>
      <g style="fill:#444147;" transform="translate(18.64 39.51)scale(0.06 -0.06)">
       <use xlink:href="#MyriadPro-Regular-48"/>
       <use x="51.299988" xlink:href="#MyriadPro-Regular-46"/>
       <use x="71.999985" xlink:href="#MyriadPro-Regular-56"/>
      </g>
     </g>
    </g>
    <g id="ytick_6">
     <g id="line2d_13">
      <g>
       <use style="fill:#444147;stroke:#444147;stroke-width:0.25;" x="35.037813" xlink:href="#m1f22b39861" y="19.26"/>
      </g>
     </g>
     <g id="text_14">
      <!-- 1.0 -->
      <defs>
       <path d="M 23.59375 0 
L 32.09375 0 
L 32.09375 65 
L 24.59375 65 
L 10.40625 57.40625 
L 12.09375 50.703125 
L 23.40625 56.796875 
L 23.59375 56.796875 
z
" id="MyriadPro-Regular-49"/>
      </defs>
      <g style="fill:#444147;" transform="translate(18.64 21.39)scale(0.06 -0.06)">
       <use xlink:href="#MyriadPro-Regular-49"/>
       <use x="51.299988" xlink:href="#MyriadPro-Regular-46"/>
       <use x="71.999985" xlink:href="#MyriadPro-Regular-48"/>
      </g>
     </g>
    </g>
    <g id="text_15">
     <!-- fold-change -->
     <defs>
      <path d="M 27.796875 49.40625 
C 14.5 49.40625 3.796875 39.90625 3.796875 23.796875 
C 3.796875 8.5 14 -1.09375 27 -1.09375 
C 38.59375 -1.09375 51.09375 6.703125 51.09375 24.59375 
C 51.09375 39.296875 41.703125 49.40625 27.796875 49.40625 
z
M 27.59375 42.796875 
C 38 42.796875 42.09375 32.5 42.09375 24.296875 
C 42.09375 13.40625 35.796875 5.5 27.40625 5.5 
C 18.796875 5.5 12.796875 13.5 12.796875 24.09375 
C 12.796875 33.203125 17.296875 42.796875 27.59375 42.796875 
z
" id="MyriadPro-Regular-111"/>
      <path d="M 7.296875 0 
L 16.09375 0 
L 16.09375 71 
L 7.296875 71 
z
" id="MyriadPro-Regular-108"/>
      <path d="M 40.296875 71 
L 40.296875 42.09375 
L 40.09375 42.09375 
C 37.90625 45.90625 33 49.40625 25.5 49.40625 
C 13.796875 49.40625 3.703125 39.59375 3.796875 23.5 
C 3.796875 8.796875 12.90625 -1.09375 24.59375 -1.09375 
C 32.5 -1.09375 38.296875 3 40.90625 8.40625 
L 41.203125 8.40625 
L 41.59375 0 
L 49.40625 0 
C 49.203125 3.296875 49 8.203125 49 12.5 
L 49 71 
z
M 40.296875 20.296875 
C 40.296875 18.90625 40.203125 17.703125 39.90625 16.5 
C 38.296875 10 32.90625 6 27 6 
C 17.59375 6 12.703125 14.09375 12.703125 23.90625 
C 12.703125 34.5 18.09375 42.5 27.203125 42.5 
C 33.796875 42.5 38.59375 37.90625 39.90625 32.40625 
C 40.203125 31.296875 40.296875 29.796875 40.296875 28.703125 
z
" id="MyriadPro-Regular-100"/>
      <path d="M 3 30.203125 
L 3 23.796875 
L 27.703125 23.796875 
L 27.703125 30.203125 
z
" id="MyriadPro-Regular-45"/>
      <path d="M 40.296875 8.296875 
C 37.796875 7.203125 34.5 6 29.5 6 
C 19.90625 6 12.703125 12.90625 12.703125 24.09375 
C 12.703125 34.09375 18.703125 42.40625 29.796875 42.40625 
C 34.59375 42.40625 37.90625 41.203125 40 40.09375 
L 42 46.796875 
C 39.59375 48.09375 35 49.40625 29.796875 49.40625 
C 14 49.40625 3.796875 38.5 3.796875 23.59375 
C 3.796875 8.796875 13.296875 -1.09375 27.90625 -1.09375 
C 34.40625 -1.09375 39.5 0.59375 41.796875 1.703125 
z
" id="MyriadPro-Regular-99"/>
      <path d="M 7.296875 0 
L 16.09375 0 
L 16.09375 29.203125 
C 16.09375 30.796875 16.203125 32.09375 16.703125 33.40625 
C 18.40625 38.09375 22.796875 42.09375 28.5 42.09375 
C 36.796875 42.09375 39.703125 35.59375 39.703125 27.796875 
L 39.703125 0 
L 48.5 0 
L 48.5 28.796875 
C 48.5 45.40625 38.09375 49.40625 31.59375 49.40625 
C 28.296875 49.40625 25.203125 48.5 22.59375 47 
C 19.90625 45.5 17.703125 43.203125 16.296875 40.703125 
L 16.09375 40.703125 
L 16.09375 71 
L 7.296875 71 
z
" id="MyriadPro-Regular-104"/>
      <path d="M 41.296875 29.703125 
C 41.296875 39.296875 37.703125 49.40625 22.90625 49.40625 
C 16.796875 49.40625 10.90625 47.703125 6.90625 45.203125 
L 8.90625 39.296875 
C 12.296875 41.59375 17 42.90625 21.59375 42.90625 
C 31.5 43 32.59375 35.703125 32.59375 31.796875 
L 32.59375 30.796875 
C 13.90625 30.90625 3.5 24.5 3.5 12.796875 
C 3.5 5.796875 8.5 -1.09375 18.296875 -1.09375 
C 25.203125 -1.09375 30.40625 2.296875 33.09375 6.09375 
L 33.40625 6.09375 
L 34.09375 0 
L 42 0 
C 41.5 3.296875 41.296875 7.40625 41.296875 11.59375 
z
M 32.796875 16.296875 
C 32.796875 15.5 32.703125 14.5 32.40625 13.5 
C 31 9.40625 26.90625 5.40625 20.5 5.40625 
C 16.09375 5.40625 12.296875 8 12.296875 13.796875 
C 12.296875 23.203125 23.203125 24.90625 32.796875 24.703125 
z
" id="MyriadPro-Regular-97"/>
     </defs>
     <g style="fill:#444147;" transform="translate(12.9675 84.7525)rotate(-90)scale(0.08 -0.08)">
      <use xlink:href="#MyriadPro-Regular-102"/>
      <use x="29.199997" xlink:href="#MyriadPro-Regular-111"/>
      <use x="84.099991" xlink:href="#MyriadPro-Regular-108"/>
      <use x="107.699982" xlink:href="#MyriadPro-Regular-100"/>
      <use x="164.099976" xlink:href="#MyriadPro-Regular-45"/>
      <use x="194.799973" xlink:href="#MyriadPro-Regular-99"/>
      <use x="239.59996" xlink:href="#MyriadPro-Regular-104"/>
      <use x="295.099945" xlink:href="#MyriadPro-Regular-97"/>
      <use x="343.299942" xlink:href="#MyriadPro-Regular-110"/>
      <use x="398.799927" xlink:href="#MyriadPro-Regular-103"/>
      <use x="454.699921" xlink:href="#MyriadPro-Regular-101"/>
     </g>
    </g>
   </g>
   <g id="line2d_14">
    <path clip-path="url(#p772c62c250)" d="M 41.775548 109.63598 
L 52.885817 109.340596 
L 60.821723 108.91521 
L 67.170447 108.339293 
L 71.931991 107.692241 
L 75.899944 106.953885 
L 79.867897 105.975088 
L 83.042259 104.972518 
L 86.216622 103.729508 
L 89.390984 102.198626 
L 91.771756 100.830779 
L 94.152528 99.249961 
L 96.533299 97.434535 
L 98.914071 95.364772 
L 101.294843 93.024488 
L 103.675615 90.40296 
L 106.056387 87.496979 
L 109.230749 83.192305 
L 112.405111 78.44055 
L 116.373064 72.003951 
L 129.864104 49.453555 
L 133.038467 44.807166 
L 136.212829 40.622927 
L 138.593601 37.811573 
L 140.974373 35.284563 
L 143.355144 33.035955 
L 145.735916 31.052982 
L 148.116688 29.318075 
L 150.49746 27.810705 
L 152.878232 26.508907 
L 156.052594 25.054685 
L 159.226956 23.876042 
L 162.401319 22.92677 
L 166.369272 22.001196 
L 170.337225 21.303765 
L 175.098768 20.693124 
L 180.653902 20.20479 
L 187.796218 19.811491 
L 197.319305 19.528311 
L 199.700077 19.48402 
L 199.700077 19.48402 
" style="fill:none;stroke:#444147;stroke-linecap:square;"/>
   </g>
   <g id="line2d_15">
    <path clip-path="url(#p772c62c250)" d="M 107.577435 85.493907 
L 160.218945 85.493907 
L 160.218945 23.556784 
" style="fill:none;stroke:#a17db8;stroke-linecap:square;stroke-width:0.75;"/>
   </g>
   <g id="line2d_16">
    <path clip-path="url(#p772c62c250)" d="M 107.577435 85.493907 
L 68.096303 85.493907 
L 68.096303 108.230449 
" style="fill:none;stroke:#e39943;stroke-linecap:square;stroke-width:0.75;"/>
   </g>
   <g id="line2d_17">
    <path clip-path="url(#p772c62c250)" d="M 107.577435 85.493907 
L 107.577435 64.56 
L 120.737813 64.56 
" style="fill:none;stroke:#7292c7;stroke-linecap:square;stroke-width:0.75;"/>
   </g>
   <g id="patch_3">
    <path d="M 35.037813 118.92 
L 35.037813 10.2 
" style="fill:none;stroke:#444147;stroke-linecap:square;stroke-linejoin:miter;stroke-width:0.25;"/>
   </g>
   <g id="patch_4">
    <path d="M 37.037813 120.92 
L 204.437813 120.92 
" style="fill:none;stroke:#444147;stroke-linecap:square;stroke-linejoin:miter;stroke-width:0.25;"/>
   </g>
   <g id="text_16">
    <!-- $F_{wt}$ -->
    <defs>
     <path d="M 16.890625 72.90625 
L 58.6875 72.90625 
L 57.078125 64.59375 
L 25.09375 64.59375 
L 20.90625 43.109375 
L 49.8125 43.109375 
L 48.1875 34.8125 
L 19.28125 34.8125 
L 12.5 0 
L 2.6875 0 
z
" id="DejaVuSans-Oblique-70"/>
     <path d="M 8.5 54.6875 
L 17.390625 54.6875 
L 19.671875 10.6875 
L 40.09375 54.6875 
L 50.484375 54.6875 
L 53.515625 10.6875 
L 72.90625 54.6875 
L 81.890625 54.6875 
L 56.890625 0 
L 46.390625 0 
L 43.703125 45.3125 
L 22.796875 0 
L 12.203125 0 
z
" id="DejaVuSans-Oblique-119"/>
     <path d="M 42.28125 54.6875 
L 40.921875 47.703125 
L 23 47.703125 
L 17.1875 18.015625 
Q 16.890625 16.359375 16.75 15.234375 
Q 16.609375 14.109375 16.609375 13.484375 
Q 16.609375 10.359375 18.484375 8.9375 
Q 20.359375 7.515625 24.515625 7.515625 
L 33.59375 7.515625 
L 32.078125 0 
L 23.484375 0 
Q 15.484375 0 11.546875 3.125 
Q 7.625 6.25 7.625 12.59375 
Q 7.625 13.71875 7.765625 15.0625 
Q 7.90625 16.40625 8.203125 18.015625 
L 14.015625 47.703125 
L 6.390625 47.703125 
L 7.8125 54.6875 
L 15.28125 54.6875 
L 18.3125 70.21875 
L 27.296875 70.21875 
L 24.3125 54.6875 
z
" id="DejaVuSans-Oblique-116"/>
    </defs>
    <g style="fill:#444147;" transform="translate(108.893473 93.552)scale(0.06 -0.06)">
     <use transform="translate(0 0.09375)" xlink:href="#DejaVuSans-Oblique-70"/>
     <use transform="translate(57.519531 -16.3125)scale(0.7)" xlink:href="#DejaVuSans-Oblique-119"/>
     <use transform="translate(114.770508 -16.3125)scale(0.7)" xlink:href="#DejaVuSans-Oblique-116"/>
    </g>
   </g>
   <g id="text_17">
    <!-- $F_1$ -->
    <defs>
     <path d="M 12.40625 8.296875 
L 28.515625 8.296875 
L 28.515625 63.921875 
L 10.984375 60.40625 
L 10.984375 69.390625 
L 28.421875 72.90625 
L 38.28125 72.90625 
L 38.28125 8.296875 
L 54.390625 8.296875 
L 54.390625 0 
L 12.40625 0 
z
" id="DejaVuSans-49"/>
    </defs>
    <g style="fill:#e39943;" transform="translate(70.728379 114.39)scale(0.06 -0.06)">
     <use transform="translate(0 0.09375)" xlink:href="#DejaVuSans-Oblique-70"/>
     <use transform="translate(57.519531 -16.3125)scale(0.7)" xlink:href="#DejaVuSans-49"/>
    </g>
   </g>
   <g id="text_18">
    <!-- $\Delta F_1 = F_1 - F_{wt}$ -->
    <defs>
     <path d="M 34.1875 63.1875 
L 14.15625 8.203125 
L 54.25 8.203125 
z
M 0.78125 0 
L 28.609375 72.90625 
L 39.796875 72.90625 
L 67.578125 0 
z
" id="DejaVuSans-916"/>
     <path d="M 10.59375 45.40625 
L 73.1875 45.40625 
L 73.1875 37.203125 
L 10.59375 37.203125 
z
M 10.59375 25.484375 
L 73.1875 25.484375 
L 73.1875 17.1875 
L 10.59375 17.1875 
z
" id="DejaVuSans-61"/>
     <path d="M 10.59375 35.5 
L 73.1875 35.5 
L 73.1875 27.203125 
L 10.59375 27.203125 
z
" id="DejaVuSans-8722"/>
    </defs>
    <g style="fill:#e39943;" transform="translate(65.464228 82.68)scale(0.06 -0.06)">
     <use transform="translate(0 0.09375)" xlink:href="#DejaVuSans-916"/>
     <use transform="translate(68.408203 0.09375)" xlink:href="#DejaVuSans-Oblique-70"/>
     <use transform="translate(125.927734 -16.3125)scale(0.7)" xlink:href="#DejaVuSans-49"/>
     <use transform="translate(192.680664 0.09375)" xlink:href="#DejaVuSans-61"/>
     <use transform="translate(295.952148 0.09375)" xlink:href="#DejaVuSans-Oblique-70"/>
     <use transform="translate(353.47168 -16.3125)scale(0.7)" xlink:href="#DejaVuSans-49"/>
     <use transform="translate(420.224609 0.09375)" xlink:href="#DejaVuSans-8722"/>
     <use transform="translate(523.496094 0.09375)" xlink:href="#DejaVuSans-Oblique-70"/>
     <use transform="translate(581.015625 -16.3125)scale(0.7)" xlink:href="#DejaVuSans-Oblique-119"/>
     <use transform="translate(638.266602 -16.3125)scale(0.7)" xlink:href="#DejaVuSans-Oblique-116"/>
    </g>
   </g>
   <g id="text_19">
    <!-- $F_2$ -->
    <defs>
     <path d="M 19.1875 8.296875 
L 53.609375 8.296875 
L 53.609375 0 
L 7.328125 0 
L 7.328125 8.296875 
Q 12.9375 14.109375 22.625 23.890625 
Q 32.328125 33.6875 34.8125 36.53125 
Q 39.546875 41.84375 41.421875 45.53125 
Q 43.3125 49.21875 43.3125 52.78125 
Q 43.3125 58.59375 39.234375 62.25 
Q 35.15625 65.921875 28.609375 65.921875 
Q 23.96875 65.921875 18.8125 64.3125 
Q 13.671875 62.703125 7.8125 59.421875 
L 7.8125 69.390625 
Q 13.765625 71.78125 18.9375 73 
Q 24.125 74.21875 28.421875 74.21875 
Q 39.75 74.21875 46.484375 68.546875 
Q 53.21875 62.890625 53.21875 53.421875 
Q 53.21875 48.921875 51.53125 44.890625 
Q 49.859375 40.875 45.40625 35.40625 
Q 44.1875 33.984375 37.640625 27.21875 
Q 31.109375 20.453125 19.1875 8.296875 
z
" id="DejaVuSans-50"/>
    </defs>
    <g style="fill:#7e59a2;" transform="translate(162.85102 29.226)scale(0.06 -0.06)">
     <use transform="translate(0 0.09375)" xlink:href="#DejaVuSans-Oblique-70"/>
     <use transform="translate(57.519531 -16.3125)scale(0.7)" xlink:href="#DejaVuSans-50"/>
    </g>
   </g>
   <g id="text_20">
    <!-- $\Delta F_2 = F_2 - F_{wt}$ -->
    <g style="fill:#7e59a2;" transform="translate(114.157624 82.68)scale(0.06 -0.06)">
     <use transform="translate(0 0.09375)" xlink:href="#DejaVuSans-916"/>
     <use transform="translate(68.408203 0.09375)" xlink:href="#DejaVuSans-Oblique-70"/>
     <use transform="translate(125.927734 -16.3125)scale(0.7)" xlink:href="#DejaVuSans-50"/>
     <use transform="translate(192.680664 0.09375)" xlink:href="#DejaVuSans-61"/>
     <use transform="translate(295.952148 0.09375)" xlink:href="#DejaVuSans-Oblique-70"/>
     <use transform="translate(353.47168 -16.3125)scale(0.7)" xlink:href="#DejaVuSans-50"/>
     <use transform="translate(420.224609 0.09375)" xlink:href="#DejaVuSans-8722"/>
     <use transform="translate(523.496094 0.09375)" xlink:href="#DejaVuSans-Oblique-70"/>
     <use transform="translate(581.015625 -16.3125)scale(0.7)" xlink:href="#DejaVuSans-Oblique-119"/>
     <use transform="translate(638.266602 -16.3125)scale(0.7)" xlink:href="#DejaVuSans-Oblique-116"/>
    </g>
   </g>
   <g id="text_21">
    <!-- $\Delta F_{1,2} = \Delta F_1 + \Delta F_2$ -->
    <defs>
     <path d="M 11.71875 12.40625 
L 22.015625 12.40625 
L 22.015625 4 
L 14.015625 -11.625 
L 7.71875 -11.625 
L 11.71875 4 
z
" id="DejaVuSans-44"/>
     <path d="M 46 62.703125 
L 46 35.5 
L 73.1875 35.5 
L 73.1875 27.203125 
L 46 27.203125 
L 46 0 
L 37.796875 0 
L 37.796875 27.203125 
L 10.59375 27.203125 
L 10.59375 35.5 
L 37.796875 35.5 
L 37.796875 62.703125 
z
" id="DejaVuSans-43"/>
    </defs>
    <g style="fill:#7292c7;" transform="translate(68.096303 60.03)scale(0.06 -0.06)">
     <use transform="translate(0 0.09375)" xlink:href="#DejaVuSans-916"/>
     <use transform="translate(68.408203 0.09375)" xlink:href="#DejaVuSans-Oblique-70"/>
     <use transform="translate(125.927734 -16.3125)scale(0.7)" xlink:href="#DejaVuSans-49"/>
     <use transform="translate(170.463867 -16.3125)scale(0.7)" xlink:href="#DejaVuSans-44"/>
     <use transform="translate(206.352539 -16.3125)scale(0.7)" xlink:href="#DejaVuSans-50"/>
     <use transform="translate(273.105469 0.09375)" xlink:href="#DejaVuSans-61"/>
     <use transform="translate(376.376953 0.09375)" xlink:href="#DejaVuSans-916"/>
     <use transform="translate(444.785156 0.09375)" xlink:href="#DejaVuSans-Oblique-70"/>
     <use transform="translate(502.304688 -16.3125)scale(0.7)" xlink:href="#DejaVuSans-49"/>
     <use transform="translate(569.057617 0.09375)" xlink:href="#DejaVuSans-43"/>
     <use transform="translate(672.329102 0.09375)" xlink:href="#DejaVuSans-916"/>
     <use transform="translate(740.737305 0.09375)" xlink:href="#DejaVuSans-Oblique-70"/>
     <use transform="translate(798.256836 -16.3125)scale(0.7)" xlink:href="#DejaVuSans-50"/>
    </g>
   </g>
   <g id="line2d_18">
    <defs>
     <path d="M 0 3.5 
C 0.928211 3.5 1.81853 3.131218 2.474874 2.474874 
C 3.131218 1.81853 3.5 0.928211 3.5 0 
C 3.5 -0.928211 3.131218 -1.81853 2.474874 -2.474874 
C 1.81853 -3.131218 0.928211 -3.5 0 -3.5 
C -0.928211 -3.5 -1.81853 -3.131218 -2.474874 -2.474874 
C -3.131218 -1.81853 -3.5 -0.928211 -3.5 0 
C -3.5 0.928211 -3.131218 1.81853 -2.474874 2.474874 
C -1.81853 3.131218 -0.928211 3.5 0 3.5 
z
" id="m82f2cb3b7d" style="stroke:#efefef;stroke-width:0.75;"/>
    </defs>
    <g clip-path="url(#p772c62c250)">
     <use style="fill:#6d6f72;stroke:#efefef;stroke-width:0.75;" x="107.577435" xlink:href="#m82f2cb3b7d" y="85.493907"/>
    </g>
   </g>
   <g id="line2d_19">
    <defs>
     <path d="M 0 3.5 
C 0.928211 3.5 1.81853 3.131218 2.474874 2.474874 
C 3.131218 1.81853 3.5 0.928211 3.5 0 
C 3.5 -0.928211 3.131218 -1.81853 2.474874 -2.474874 
C 1.81853 -3.131218 0.928211 -3.5 0 -3.5 
C -0.928211 -3.5 -1.81853 -3.131218 -2.474874 -2.474874 
C -3.131218 -1.81853 -3.5 -0.928211 -3.5 0 
C -3.5 0.928211 -3.131218 1.81853 -2.474874 2.474874 
C -1.81853 3.131218 -0.928211 3.5 0 3.5 
z
" id="m6fdc998bd5" style="stroke:#efefef;stroke-width:0.75;"/>
    </defs>
    <g clip-path="url(#p772c62c250)">
     <use style="fill:#7e59a2;stroke:#efefef;stroke-width:0.75;" x="160.218945" xlink:href="#m6fdc998bd5" y="23.556784"/>
    </g>
   </g>
   <g id="line2d_20">
    <defs>
     <path d="M 0 3.5 
C 0.928211 3.5 1.81853 3.131218 2.474874 2.474874 
C 3.131218 1.81853 3.5 0.928211 3.5 0 
C 3.5 -0.928211 3.131218 -1.81853 2.474874 -2.474874 
C 1.81853 -3.131218 0.928211 -3.5 0 -3.5 
C -0.928211 -3.5 -1.81853 -3.131218 -2.474874 -2.474874 
C -3.131218 -1.81853 -3.5 -0.928211 -3.5 0 
C -3.5 0.928211 -3.131218 1.81853 -2.474874 2.474874 
C -1.81853 3.131218 -0.928211 3.5 0 3.5 
z
" id="mab00202e38" style="stroke:#efefef;stroke-width:0.75;"/>
    </defs>
    <g clip-path="url(#p772c62c250)">
     <use style="fill:#e39943;stroke:#efefef;stroke-width:0.75;" x="68.096303" xlink:href="#mab00202e38" y="108.230449"/>
    </g>
   </g>
   <g id="line2d_21">
    <defs>
     <path d="M 0 3.5 
C 0.928211 3.5 1.81853 3.131218 2.474874 2.474874 
C 3.131218 1.81853 3.5 0.928211 3.5 0 
C 3.5 -0.928211 3.131218 -1.81853 2.474874 -2.474874 
C 1.81853 -3.131218 0.928211 -3.5 0 -3.5 
C -0.928211 -3.5 -1.81853 -3.131218 -2.474874 -2.474874 
C -3.131218 -1.81853 -3.5 -0.928211 -3.5 0 
C -3.5 0.928211 -3.131218 1.81853 -2.474874 2.474874 
C -1.81853 3.131218 -0.928211 3.5 0 3.5 
z
" id="m2cc11b8318" style="stroke:#efefef;stroke-width:0.75;"/>
    </defs>
    <g clip-path="url(#p772c62c250)">
     <use style="fill:#7292c7;stroke:#efefef;stroke-width:0.75;" x="120.737813" xlink:href="#m2cc11b8318" y="64.56"/>
    </g>
   </g>
   <g id="text_22">
    <!-- $F_{1,2}$ -->
    <g style="fill:#7292c7;" transform="translate(127.581209 66.372)scale(0.06 -0.06)">
     <use transform="translate(0 0.09375)" xlink:href="#DejaVuSans-Oblique-70"/>
     <use transform="translate(57.519531 -16.3125)scale(0.7)" xlink:href="#DejaVuSans-49"/>
     <use transform="translate(102.055664 -16.3125)scale(0.7)" xlink:href="#DejaVuSans-44"/>
     <use transform="translate(137.944336 -16.3125)scale(0.7)" xlink:href="#DejaVuSans-50"/>
    </g>
   </g>
  </g>
 </g>
 <defs>
  <clipPath id="p772c62c250">
   <rect height="108.72" width="167.4" x="37.037813" y="10.2"/>
  </clipPath>
 </defs>
</svg>
