<?xml version="1.0" encoding="utf-8" standalone="no"?>
<!DOCTYPE svg PUBLIC "-//W3C//DTD SVG 1.1//EN"
  "http://www.w3.org/Graphics/SVG/1.1/DTD/svg11.dtd">
<!-- Created with matplotlib (https://matplotlib.org/) -->
<svg height="148.38375pt" version="1.1" viewBox="0 0 214.725313 148.38375" width="214.725313pt" xmlns="http://www.w3.org/2000/svg" xmlns:xlink="http://www.w3.org/1999/xlink">
 <defs>
  <style type="text/css">
*{stroke-linecap:butt;stroke-linejoin:round;}
  </style>
 </defs>
 <g id="figure_1">
  <g id="patch_1">
   <path d="M 0 148.38375 
L 214.725313 148.38375 
L 214.725313 0 
L 0 0 
z
" style="fill:#ffffff;"/>
  </g>
  <g id="axes_1">
   <g id="patch_2">
    <path d="M 37.125313 118.92 
L 204.525313 118.92 
L 204.525313 10.2 
L 37.125313 10.2 
z
" style="fill:#efefef;"/>
   </g>
   <g id="matplotlib.axis_1">
    <g id="xtick_1">
     <g id="line2d_1">
      <defs>
       <path d="M 0 0 
L 0 3 
" id="mecec16c396" style="stroke:#444147;stroke-width:0.25;"/>
      </defs>
      <g>
       <use style="fill:#444147;stroke:#444147;stroke-width:0.25;" x="41.863048" xlink:href="#mecec16c396" y="120.92"/>
      </g>
     </g>
    </g>
    <g id="xtick_2">
     <g id="line2d_2">
      <g>
       <use style="fill:#444147;stroke:#444147;stroke-width:0.25;" x="68.183803" xlink:href="#mecec16c396" y="120.92"/>
      </g>
     </g>
    </g>
    <g id="xtick_3">
     <g id="line2d_3">
      <g>
       <use style="fill:#444147;stroke:#444147;stroke-width:0.25;" x="94.504558" xlink:href="#mecec16c396" y="120.92"/>
      </g>
     </g>
    </g>
    <g id="xtick_4">
     <g id="line2d_4">
      <g>
       <use style="fill:#444147;stroke:#444147;stroke-width:0.25;" x="120.825313" xlink:href="#mecec16c396" y="120.92"/>
      </g>
     </g>
    </g>
    <g id="xtick_5">
     <g id="line2d_5">
      <g>
       <use style="fill:#444147;stroke:#444147;stroke-width:0.25;" x="147.146067" xlink:href="#mecec16c396" y="120.92"/>
      </g>
     </g>
    </g>
    <g id="xtick_6">
     <g id="line2d_6">
      <g>
       <use style="fill:#444147;stroke:#444147;stroke-width:0.25;" x="173.466822" xlink:href="#mecec16c396" y="120.92"/>
      </g>
     </g>
    </g>
    <g id="xtick_7">
     <g id="line2d_7">
      <g>
       <use style="fill:#444147;stroke:#444147;stroke-width:0.25;" x="199.787577" xlink:href="#mecec16c396" y="120.92"/>
      </g>
     </g>
    </g>
    <g id="xtick_8">
     <g id="line2d_8"/>
    </g>
    <g id="xtick_9">
     <g id="line2d_9"/>
    </g>
    <g id="xtick_10">
     <g id="line2d_10"/>
    </g>
    <g id="xtick_11">
     <g id="line2d_11"/>
    </g>
    <g id="xtick_12">
     <g id="line2d_12"/>
    </g>
    <g id="xtick_13">
     <g id="line2d_13"/>
    </g>
    <g id="xtick_14">
     <g id="line2d_14"/>
    </g>
    <g id="xtick_15">
     <g id="line2d_15"/>
    </g>
    <g id="xtick_16">
     <g id="line2d_16"/>
    </g>
    <g id="xtick_17">
     <g id="line2d_17"/>
    </g>
    <g id="xtick_18">
     <g id="line2d_18"/>
    </g>
    <g id="xtick_19">
     <g id="line2d_19"/>
    </g>
    <g id="xtick_20">
     <g id="line2d_20"/>
    </g>
    <g id="xtick_21">
     <g id="line2d_21"/>
    </g>
    <g id="xtick_22">
     <g id="line2d_22"/>
    </g>
    <g id="xtick_23">
     <g id="line2d_23"/>
    </g>
    <g id="xtick_24">
     <g id="line2d_24"/>
    </g>
    <g id="xtick_25">
     <g id="line2d_25"/>
    </g>
    <g id="xtick_26">
     <g id="line2d_26"/>
    </g>
    <g id="xtick_27">
     <g id="line2d_27"/>
    </g>
    <g id="xtick_28">
     <g id="line2d_28"/>
    </g>
    <g id="xtick_29">
     <g id="line2d_29"/>
    </g>
    <g id="xtick_30">
     <g id="line2d_30"/>
    </g>
    <g id="xtick_31">
     <g id="line2d_31"/>
    </g>
    <g id="xtick_32">
     <g id="line2d_32"/>
    </g>
    <g id="xtick_33">
     <g id="line2d_33"/>
    </g>
    <g id="xtick_34">
     <g id="line2d_34"/>
    </g>
    <g id="xtick_35">
     <g id="line2d_35"/>
    </g>
    <g id="xtick_36">
     <g id="line2d_36"/>
    </g>
    <g id="xtick_37">
     <g id="line2d_37"/>
    </g>
    <g id="xtick_38">
     <g id="line2d_38"/>
    </g>
    <g id="xtick_39">
     <g id="line2d_39"/>
    </g>
    <g id="xtick_40">
     <g id="line2d_40"/>
    </g>
    <g id="xtick_41">
     <g id="line2d_41"/>
    </g>
    <g id="xtick_42">
     <g id="line2d_42"/>
    </g>
    <g id="xtick_43">
     <g id="line2d_43"/>
    </g>
    <g id="xtick_44">
     <g id="line2d_44"/>
    </g>
    <g id="xtick_45">
     <g id="line2d_45"/>
    </g>
    <g id="xtick_46">
     <g id="line2d_46"/>
    </g>
    <g id="xtick_47">
     <g id="line2d_47"/>
    </g>
    <g id="xtick_48">
     <g id="line2d_48"/>
    </g>
    <g id="xtick_49">
     <g id="line2d_49"/>
    </g>
    <g id="xtick_50">
     <g id="line2d_50"/>
    </g>
    <g id="xtick_51">
     <g id="line2d_51"/>
    </g>
    <g id="xtick_52">
     <g id="line2d_52"/>
    </g>
    <g id="xtick_53">
     <g id="line2d_53"/>
    </g>
    <g id="xtick_54">
     <g id="line2d_54"/>
    </g>
    <g id="xtick_55">
     <g id="line2d_55"/>
    </g>
    <g id="xtick_56">
     <g id="line2d_56"/>
    </g>
    <g id="xtick_57">
     <g id="line2d_57"/>
    </g>
    <g id="xtick_58">
     <g id="line2d_58"/>
    </g>
    <g id="text_1">
     <!-- inducer concentration -->
     <defs>
      <path d="M 16.09375 0 
L 16.09375 48.40625 
L 7.296875 48.40625 
L 7.296875 0 
z
M 11.703125 67.5 
C 8.40625 67.5 6.203125 65 6.203125 62 
C 6.203125 59 8.296875 56.59375 11.5 56.59375 
C 15 56.59375 17.09375 59 17.09375 62 
C 17.09375 65.09375 14.90625 67.5 11.703125 67.5 
z
" id="MyriadPro-Regular-105"/>
      <path d="M 7.296875 0 
L 16.09375 0 
L 16.09375 29.09375 
C 16.09375 30.59375 16.296875 32.09375 16.703125 33.203125 
C 18.296875 38.09375 22.796875 42.203125 28.5 42.203125 
C 36.796875 42.203125 39.703125 35.703125 39.703125 27.90625 
L 39.703125 0 
L 48.5 0 
L 48.5 28.796875 
C 48.5 45.40625 38.09375 49.40625 31.40625 49.40625 
C 23.40625 49.40625 17.796875 44.90625 15.40625 40.40625 
L 15.203125 40.40625 
L 14.703125 48.40625 
L 6.90625 48.40625 
C 7.203125 44.40625 7.296875 40.40625 7.296875 35.296875 
z
" id="MyriadPro-Regular-110"/>
      <path d="M 40.296875 71 
L 40.296875 42.09375 
L 40.09375 42.09375 
C 37.90625 45.90625 33 49.40625 25.5 49.40625 
C 13.796875 49.40625 3.703125 39.59375 3.796875 23.5 
C 3.796875 8.796875 12.90625 -1.09375 24.59375 -1.09375 
C 32.5 -1.09375 38.296875 3 40.90625 8.40625 
L 41.203125 8.40625 
L 41.59375 0 
L 49.40625 0 
C 49.203125 3.296875 49 8.203125 49 12.5 
L 49 71 
z
M 40.296875 20.296875 
C 40.296875 18.90625 40.203125 17.703125 39.90625 16.5 
C 38.296875 10 32.90625 6 27 6 
C 17.59375 6 12.703125 14.09375 12.703125 23.90625 
C 12.703125 34.5 18.09375 42.5 27.203125 42.5 
C 33.796875 42.5 38.59375 37.90625 39.90625 32.40625 
C 40.203125 31.296875 40.296875 29.796875 40.296875 28.703125 
z
" id="MyriadPro-Regular-100"/>
      <path d="M 47.796875 48.40625 
L 39 48.40625 
L 39 18.796875 
C 39 17.09375 38.703125 15.5 38.203125 14.296875 
C 36.59375 10.296875 32.5 6.203125 26.59375 6.203125 
C 18.703125 6.203125 15.796875 12.5 15.796875 21.703125 
L 15.796875 48.40625 
L 7 48.40625 
L 7 20.09375 
C 7 3.203125 16.09375 -1.09375 23.703125 -1.09375 
C 32.296875 -1.09375 37.5 4 39.703125 7.90625 
L 39.90625 7.90625 
L 40.40625 0 
L 48.203125 0 
C 47.90625 3.796875 47.796875 8.203125 47.796875 13.296875 
z
" id="MyriadPro-Regular-117"/>
      <path d="M 40.296875 8.296875 
C 37.796875 7.203125 34.5 6 29.5 6 
C 19.90625 6 12.703125 12.90625 12.703125 24.09375 
C 12.703125 34.09375 18.703125 42.40625 29.796875 42.40625 
C 34.59375 42.40625 37.90625 41.203125 40 40.09375 
L 42 46.796875 
C 39.59375 48.09375 35 49.40625 29.796875 49.40625 
C 14 49.40625 3.796875 38.5 3.796875 23.59375 
C 3.796875 8.796875 13.296875 -1.09375 27.90625 -1.09375 
C 34.40625 -1.09375 39.5 0.59375 41.796875 1.703125 
z
" id="MyriadPro-Regular-99"/>
      <path d="M 46.203125 22.59375 
C 46.40625 23.59375 46.5 24.90625 46.5 26.703125 
C 46.5 35.59375 42.40625 49.40625 26.5 49.40625 
C 12.40625 49.40625 3.796875 38 3.796875 23.40625 
C 3.796875 8.796875 12.703125 -1.09375 27.59375 -1.09375 
C 35.296875 -1.09375 40.703125 0.59375 43.796875 2 
L 42.203125 8.296875 
C 39 6.90625 35.09375 5.796875 28.796875 5.796875 
C 19.90625 5.796875 12.40625 10.703125 12.203125 22.59375 
z
M 12.296875 28.90625 
C 13 35 16.796875 43.09375 25.796875 43.09375 
C 35.703125 43.09375 38.09375 34.40625 38 28.90625 
z
" id="MyriadPro-Regular-101"/>
      <path d="M 7.296875 0 
L 16.09375 0 
L 16.09375 25.796875 
C 16.09375 27.203125 16.203125 28.703125 16.40625 29.90625 
C 17.59375 36.5 22 41.09375 28.203125 41.09375 
C 29.40625 41.09375 30.296875 41.09375 31.203125 40.90625 
L 31.203125 49.203125 
C 30.40625 49.296875 29.703125 49.40625 28.796875 49.40625 
C 22.90625 49.40625 17.5 45.296875 15.296875 38.796875 
L 15 38.796875 
L 14.59375 48.40625 
L 6.90625 48.40625 
C 7.203125 43.90625 7.296875 39 7.296875 33.296875 
z
" id="MyriadPro-Regular-114"/>
      <path id="MyriadPro-Regular-32"/>
      <path d="M 27.796875 49.40625 
C 14.5 49.40625 3.796875 39.90625 3.796875 23.796875 
C 3.796875 8.5 14 -1.09375 27 -1.09375 
C 38.59375 -1.09375 51.09375 6.703125 51.09375 24.59375 
C 51.09375 39.296875 41.703125 49.40625 27.796875 49.40625 
z
M 27.59375 42.796875 
C 38 42.796875 42.09375 32.5 42.09375 24.296875 
C 42.09375 13.40625 35.796875 5.5 27.40625 5.5 
C 18.796875 5.5 12.796875 13.5 12.796875 24.09375 
C 12.796875 33.203125 17.296875 42.796875 27.59375 42.796875 
z
" id="MyriadPro-Regular-111"/>
      <path d="M 9.296875 57.40625 
L 9.296875 48.40625 
L 1.796875 48.40625 
L 1.796875 41.703125 
L 9.296875 41.703125 
L 9.296875 15.296875 
C 9.296875 9.59375 10.296875 5.296875 12.703125 2.59375 
C 14.796875 0.296875 18.09375 -1.09375 22.203125 -1.09375 
C 25.59375 -1.09375 28.296875 -0.5 30 0.09375 
L 29.59375 6.796875 
C 28.296875 6.40625 26.90625 6.203125 24.5 6.203125 
C 19.59375 6.203125 17.90625 9.59375 17.90625 15.59375 
L 17.90625 41.703125 
L 30.5 41.703125 
L 30.5 48.40625 
L 17.90625 48.40625 
L 17.90625 60 
z
" id="MyriadPro-Regular-116"/>
      <path d="M 41.296875 29.703125 
C 41.296875 39.296875 37.703125 49.40625 22.90625 49.40625 
C 16.796875 49.40625 10.90625 47.703125 6.90625 45.203125 
L 8.90625 39.296875 
C 12.296875 41.59375 17 42.90625 21.59375 42.90625 
C 31.5 43 32.59375 35.703125 32.59375 31.796875 
L 32.59375 30.796875 
C 13.90625 30.90625 3.5 24.5 3.5 12.796875 
C 3.5 5.796875 8.5 -1.09375 18.296875 -1.09375 
C 25.203125 -1.09375 30.40625 2.296875 33.09375 6.09375 
L 33.40625 6.09375 
L 34.09375 0 
L 42 0 
C 41.5 3.296875 41.296875 7.40625 41.296875 11.59375 
z
M 32.796875 16.296875 
C 32.796875 15.5 32.703125 14.5 32.40625 13.5 
C 31 9.40625 26.90625 5.40625 20.5 5.40625 
C 16.09375 5.40625 12.296875 8 12.296875 13.796875 
C 12.296875 23.203125 23.203125 24.90625 32.796875 24.703125 
z
" id="MyriadPro-Regular-97"/>
     </defs>
     <g style="fill:#444147;" transform="translate(83.797188 139.6)scale(0.08 -0.08)">
      <use xlink:href="#MyriadPro-Regular-105"/>
      <use x="23.399994" xlink:href="#MyriadPro-Regular-110"/>
      <use x="78.899979" xlink:href="#MyriadPro-Regular-100"/>
      <use x="135.299973" xlink:href="#MyriadPro-Regular-117"/>
      <use x="190.399963" xlink:href="#MyriadPro-Regular-99"/>
      <use x="235.199951" xlink:href="#MyriadPro-Regular-101"/>
      <use x="285.299942" xlink:href="#MyriadPro-Regular-114"/>
      <use x="317.999939" xlink:href="#MyriadPro-Regular-32"/>
      <use x="339.199936" xlink:href="#MyriadPro-Regular-99"/>
      <use x="383.999924" xlink:href="#MyriadPro-Regular-111"/>
      <use x="438.899918" xlink:href="#MyriadPro-Regular-110"/>
      <use x="494.399902" xlink:href="#MyriadPro-Regular-99"/>
      <use x="539.19989" xlink:href="#MyriadPro-Regular-101"/>
      <use x="589.299881" xlink:href="#MyriadPro-Regular-110"/>
      <use x="644.799866" xlink:href="#MyriadPro-Regular-116"/>
      <use x="677.899857" xlink:href="#MyriadPro-Regular-114"/>
      <use x="710.599854" xlink:href="#MyriadPro-Regular-97"/>
      <use x="758.79985" xlink:href="#MyriadPro-Regular-116"/>
      <use x="791.899841" xlink:href="#MyriadPro-Regular-105"/>
      <use x="815.299835" xlink:href="#MyriadPro-Regular-111"/>
      <use x="870.199829" xlink:href="#MyriadPro-Regular-110"/>
     </g>
    </g>
   </g>
   <g id="matplotlib.axis_2">
    <g id="ytick_1">
     <g id="line2d_59">
      <defs>
       <path d="M 0 0 
L -3 0 
" id="m68e61a5260" style="stroke:#444147;stroke-width:0.25;"/>
      </defs>
      <g>
       <use style="fill:#444147;stroke:#444147;stroke-width:0.25;" x="35.125313" xlink:href="#m68e61a5260" y="118.92"/>
      </g>
     </g>
     <g id="text_2">
      <!-- 0.0 -->
      <defs>
       <path d="M 26.296875 66.09375 
C 13.09375 66.09375 3.59375 54.203125 3.59375 32.296875 
C 3.796875 10.796875 12.5 -1.09375 25.203125 -1.09375 
C 39.5 -1.09375 47.796875 11.09375 47.796875 33.203125 
C 47.796875 53.90625 39.90625 66.09375 26.296875 66.09375 
z
M 25.703125 59.296875 
C 34.90625 59.296875 38.90625 48.796875 38.90625 32.796875 
C 38.90625 16.203125 34.59375 5.703125 25.703125 5.703125 
C 17.703125 5.703125 12.5 15.296875 12.5 32.203125 
C 12.5 49.90625 18.09375 59.296875 25.703125 59.296875 
z
" id="MyriadPro-Regular-48"/>
       <path d="M 11 -1.09375 
C 14.703125 -1.09375 17.09375 1.59375 17.09375 5.203125 
C 17.09375 8.90625 14.703125 11.5 11.203125 11.5 
C 7.703125 11.5 5.203125 8.796875 5.203125 5.203125 
C 5.203125 1.59375 7.59375 -1.09375 11 -1.09375 
z
" id="MyriadPro-Regular-46"/>
      </defs>
      <g style="fill:#444147;" transform="translate(18.7275 121.05)scale(0.06 -0.06)">
       <use xlink:href="#MyriadPro-Regular-48"/>
       <use x="51.299988" xlink:href="#MyriadPro-Regular-46"/>
       <use x="71.999985" xlink:href="#MyriadPro-Regular-48"/>
      </g>
     </g>
    </g>
    <g id="ytick_2">
     <g id="line2d_60">
      <g>
       <use style="fill:#444147;stroke:#444147;stroke-width:0.25;" x="35.125313" xlink:href="#m68e61a5260" y="99.152727"/>
      </g>
     </g>
     <g id="text_3">
      <!-- 0.2 -->
      <defs>
       <path d="M 46 0 
L 46 7.296875 
L 16.90625 7.296875 
L 16.90625 7.5 
L 22 12.296875 
C 35.703125 25.5 44.40625 35.203125 44.40625 47.203125 
C 44.40625 56.5 38.5 66.09375 24.5 66.09375 
C 17.09375 66.09375 10.59375 63.203125 6.203125 59.5 
L 9 53.296875 
C 12 55.796875 16.90625 58.796875 22.796875 58.796875 
C 32.5 58.796875 35.59375 52.703125 35.59375 46.09375 
C 35.59375 36.296875 28 27.90625 11.40625 12.09375 
L 4.5 5.40625 
L 4.5 0 
z
" id="MyriadPro-Regular-50"/>
      </defs>
      <g style="fill:#444147;" transform="translate(18.7275 101.282727)scale(0.06 -0.06)">
       <use xlink:href="#MyriadPro-Regular-48"/>
       <use x="51.299988" xlink:href="#MyriadPro-Regular-46"/>
       <use x="71.999985" xlink:href="#MyriadPro-Regular-50"/>
      </g>
     </g>
    </g>
    <g id="ytick_3">
     <g id="line2d_61">
      <g>
       <use style="fill:#444147;stroke:#444147;stroke-width:0.25;" x="35.125313" xlink:href="#m68e61a5260" y="79.385455"/>
      </g>
     </g>
     <g id="text_4">
      <!-- 0.4 -->
      <defs>
       <path d="M 40 0 
L 40 17.796875 
L 49.09375 17.796875 
L 49.09375 24.59375 
L 40 24.59375 
L 40 65 
L 30.5 65 
L 1.5 23.5 
L 1.5 17.796875 
L 31.703125 17.796875 
L 31.703125 0 
z
M 10.40625 24.59375 
L 10.40625 24.796875 
L 26.296875 46.90625 
C 28.09375 49.90625 29.703125 52.703125 31.703125 56.5 
L 32 56.5 
C 31.796875 53.09375 31.703125 49.703125 31.703125 46.296875 
L 31.703125 24.59375 
z
" id="MyriadPro-Regular-52"/>
      </defs>
      <g style="fill:#444147;" transform="translate(18.7275 81.515455)scale(0.06 -0.06)">
       <use xlink:href="#MyriadPro-Regular-48"/>
       <use x="51.299988" xlink:href="#MyriadPro-Regular-46"/>
       <use x="71.999985" xlink:href="#MyriadPro-Regular-52"/>
      </g>
     </g>
    </g>
    <g id="ytick_4">
     <g id="line2d_62">
      <g>
       <use style="fill:#444147;stroke:#444147;stroke-width:0.25;" x="35.125313" xlink:href="#m68e61a5260" y="59.618182"/>
      </g>
     </g>
     <g id="text_5">
      <!-- 0.6 -->
      <defs>
       <path d="M 41.59375 66 
C 40 66 37.796875 65.90625 35.203125 65.5 
C 27 64.5 19.796875 61.203125 14.40625 55.90625 
C 7.90625 49.5 3.40625 39.40625 3.40625 26.59375 
C 3.40625 9.703125 12.5 -1.09375 26.296875 -1.09375 
C 39.90625 -1.09375 48 9.90625 48 21.90625 
C 48 34.5 39.90625 42.90625 28.40625 42.90625 
C 21.203125 42.90625 15.703125 39.5 12.59375 35.296875 
L 12.40625 35.296875 
C 13.90625 46.09375 21.09375 56.09375 35 58.296875 
C 37.5 58.703125 39.796875 58.90625 41.59375 58.796875 
z
M 26.5 5.703125 
C 17.203125 5.703125 12.203125 13.703125 12.09375 24.40625 
C 12.09375 26 12.5 27.203125 13 28.203125 
C 15.40625 33 20.40625 36.203125 25.703125 36.203125 
C 33.796875 36.203125 39.09375 30.59375 39.09375 21.296875 
C 39.09375 12 34 5.703125 26.5 5.703125 
z
" id="MyriadPro-Regular-54"/>
      </defs>
      <g style="fill:#444147;" transform="translate(18.7275 61.748182)scale(0.06 -0.06)">
       <use xlink:href="#MyriadPro-Regular-48"/>
       <use x="51.299988" xlink:href="#MyriadPro-Regular-46"/>
       <use x="71.999985" xlink:href="#MyriadPro-Regular-54"/>
      </g>
     </g>
    </g>
    <g id="ytick_5">
     <g id="line2d_63">
      <g>
       <use style="fill:#444147;stroke:#444147;stroke-width:0.25;" x="35.125313" xlink:href="#m68e61a5260" y="39.850909"/>
      </g>
     </g>
     <g id="text_6">
      <!-- 0.8 -->
      <defs>
       <path d="M 16.59375 33.90625 
C 8.59375 30.5 3.703125 24.59375 3.703125 16.40625 
C 3.703125 6.90625 11.90625 -1.09375 25.5 -1.09375 
C 37.90625 -1.09375 47.59375 6.40625 47.59375 17.796875 
C 47.59375 25.59375 42.59375 31.40625 34.5 34.59375 
L 34.5 34.90625 
C 42.5 38.59375 45.296875 44.59375 45.296875 50.09375 
C 45.296875 58.296875 38.90625 66.09375 26.296875 66.09375 
C 14.796875 66.09375 6.09375 59.09375 6.09375 48.796875 
C 6.09375 43.203125 9.203125 37.59375 16.5 34.203125 
z
M 25.703125 5.296875 
C 17.40625 5.296875 12.40625 11.09375 12.703125 17.59375 
C 12.703125 23.796875 16.796875 28.90625 24.40625 31.09375 
C 33.203125 28.59375 38.703125 24.703125 38.703125 16.90625 
C 38.703125 10.203125 33.59375 5.296875 25.703125 5.296875 
z
M 25.796875 59.796875 
C 33.703125 59.796875 36.796875 54.40625 36.796875 49.203125 
C 36.796875 43.296875 32.5 39.296875 26.90625 37.40625 
C 19.40625 39.40625 14.40625 42.90625 14.5 49.40625 
C 14.5 55 18.5 59.796875 25.796875 59.796875 
z
" id="MyriadPro-Regular-56"/>
      </defs>
      <g style="fill:#444147;" transform="translate(18.7275 41.980909)scale(0.06 -0.06)">
       <use xlink:href="#MyriadPro-Regular-48"/>
       <use x="51.299988" xlink:href="#MyriadPro-Regular-46"/>
       <use x="71.999985" xlink:href="#MyriadPro-Regular-56"/>
      </g>
     </g>
    </g>
    <g id="ytick_6">
     <g id="line2d_64">
      <g>
       <use style="fill:#444147;stroke:#444147;stroke-width:0.25;" x="35.125313" xlink:href="#m68e61a5260" y="20.083636"/>
      </g>
     </g>
     <g id="text_7">
      <!-- 1.0 -->
      <defs>
       <path d="M 23.59375 0 
L 32.09375 0 
L 32.09375 65 
L 24.59375 65 
L 10.40625 57.40625 
L 12.09375 50.703125 
L 23.40625 56.796875 
L 23.59375 56.796875 
z
" id="MyriadPro-Regular-49"/>
      </defs>
      <g style="fill:#444147;" transform="translate(18.7275 22.213636)scale(0.06 -0.06)">
       <use xlink:href="#MyriadPro-Regular-49"/>
       <use x="51.299988" xlink:href="#MyriadPro-Regular-46"/>
       <use x="71.999985" xlink:href="#MyriadPro-Regular-48"/>
      </g>
     </g>
    </g>
    <g id="text_8">
     <!-- probability of being active -->
     <defs>
      <path d="M 7.296875 -19.796875 
L 16 -19.796875 
L 16 6.5 
L 16.203125 6.5 
C 19.09375 1.703125 24.703125 -1.09375 31.09375 -1.09375 
C 42.5 -1.09375 53.203125 7.5 53.203125 24.90625 
C 53.203125 39.5 44.40625 49.40625 32.59375 49.40625 
C 24.703125 49.40625 18.90625 46 15.40625 40.09375 
L 15.203125 40.09375 
L 14.703125 48.40625 
L 6.90625 48.40625 
C 7.09375 43.796875 7.296875 38.796875 7.296875 32.59375 
z
M 16 28.09375 
C 16 29.203125 16.296875 30.5 16.59375 31.59375 
C 18.203125 38.203125 23.90625 42.40625 29.90625 42.40625 
C 39.203125 42.40625 44.296875 34.09375 44.296875 24.5 
C 44.296875 13.40625 38.90625 5.796875 29.59375 5.796875 
C 23.296875 5.796875 18 10 16.40625 16.09375 
C 16.09375 17.203125 16 18.40625 16 19.703125 
z
" id="MyriadPro-Regular-112"/>
      <path d="M 7.296875 12.5 
C 7.296875 8.203125 7.09375 3.296875 6.90625 0 
L 14.40625 0 
L 14.90625 7.90625 
L 15.09375 7.90625 
C 18.796875 1.59375 24.40625 -1.09375 31.40625 -1.09375 
C 42.203125 -1.09375 53.203125 7.5 53.203125 24.796875 
C 53.203125 39.40625 44.796875 49.40625 32.703125 49.40625 
C 24.90625 49.40625 19.296875 46 16.203125 40.59375 
L 16 40.59375 
L 16 71 
L 7.296875 71 
z
M 16 28 
C 16 29.40625 16.203125 30.59375 16.5 31.703125 
C 18.296875 38.296875 23.90625 42.5 29.796875 42.5 
C 39.296875 42.5 44.296875 34.203125 44.296875 24.5 
C 44.296875 13.40625 38.90625 5.90625 29.59375 5.90625 
C 23.203125 5.90625 18 10.09375 16.40625 16.203125 
C 16.09375 17.203125 16 18.296875 16 19.40625 
z
" id="MyriadPro-Regular-98"/>
      <path d="M 7.296875 0 
L 16.09375 0 
L 16.09375 71 
L 7.296875 71 
z
" id="MyriadPro-Regular-108"/>
      <path d="M 0.90625 48.40625 
L 18.703125 3.796875 
C 19.203125 2.703125 19.40625 2 19.40625 1.5 
C 19.40625 1 19.09375 0.296875 18.703125 -0.59375 
C 16.59375 -5.09375 13.703125 -8.5 11.296875 -10.40625 
C 8.703125 -12.59375 5.796875 -14 3.59375 -14.703125 
L 5.796875 -22 
C 8 -21.59375 12.203125 -20.09375 16.59375 -16.40625 
C 22.59375 -11.09375 26.90625 -2.703125 33.203125 13.90625 
L 46.40625 48.40625 
L 37.09375 48.40625 
L 27.5 20 
C 26.296875 16.5 25.296875 12.796875 24.40625 9.90625 
L 24.203125 9.90625 
C 23.40625 12.796875 22.203125 16.59375 21 19.796875 
L 10.5 48.40625 
z
" id="MyriadPro-Regular-121"/>
      <path d="M 16.90625 0 
L 16.90625 41.703125 
L 28.59375 41.703125 
L 28.59375 48.40625 
L 16.90625 48.40625 
L 16.90625 51 
C 16.90625 58.5 18.796875 65 26.296875 65 
C 28.90625 65 30.59375 64.5 31.90625 63.90625 
L 33.09375 70.703125 
C 31.40625 71.40625 28.796875 72.09375 25.59375 72.09375 
C 21.5 72.09375 17.09375 70.796875 13.796875 67.59375 
C 9.796875 63.703125 8.203125 57.5 8.203125 50.703125 
L 8.203125 48.40625 
L 1.5 48.40625 
L 1.5 41.703125 
L 8.203125 41.703125 
L 8.203125 0 
z
" id="MyriadPro-Regular-102"/>
      <path d="M 48.703125 35.203125 
C 48.703125 41 48.796875 45 49.09375 48.40625 
L 41.296875 48.40625 
L 41 41.09375 
L 40.796875 41.09375 
C 38.59375 45.09375 34.09375 49.40625 25.703125 49.40625 
C 14.5 49.40625 3.796875 40.203125 3.796875 23.796875 
C 3.796875 10.40625 12.40625 0.203125 24.40625 0.203125 
C 31.90625 0.203125 37.203125 3.796875 39.796875 8.296875 
L 40 8.296875 
L 40 3 
C 40 -9.296875 33.40625 -14 24.40625 -14 
C 18.40625 -14 13.40625 -12.203125 10.203125 -10.09375 
L 8 -16.90625 
C 11.90625 -19.5 18.296875 -20.90625 24.09375 -20.90625 
C 30.203125 -20.90625 37 -19.40625 41.796875 -15.09375 
C 46.40625 -10.796875 48.703125 -4.09375 48.703125 7.09375 
z
M 39.90625 20.59375 
C 39.90625 19.09375 39.703125 17.40625 39.203125 15.90625 
C 37.40625 10.296875 32.5 6.90625 27 6.90625 
C 17.59375 6.90625 12.703125 14.796875 12.703125 24.296875 
C 12.703125 35.5 18.703125 42.59375 27.09375 42.59375 
C 33.59375 42.59375 37.796875 38.40625 39.40625 33.203125 
C 39.796875 32.09375 39.90625 30.796875 39.90625 29.296875 
z
" id="MyriadPro-Regular-103"/>
      <path d="M 1.296875 48.40625 
L 19.703125 0 
L 28.09375 0 
L 47.09375 48.40625 
L 37.90625 48.40625 
L 28.5 21.296875 
C 26.90625 16.796875 25.5 12.796875 24.40625 8.796875 
L 24.09375 8.796875 
C 23.09375 12.796875 21.796875 16.796875 20.203125 21.296875 
L 10.703125 48.40625 
z
" id="MyriadPro-Regular-118"/>
     </defs>
     <g style="fill:#444147;" transform="translate(12.9675 108.33375)rotate(-90)scale(0.08 -0.08)">
      <use xlink:href="#MyriadPro-Regular-112"/>
      <use x="56.899994" xlink:href="#MyriadPro-Regular-114"/>
      <use x="89.599991" xlink:href="#MyriadPro-Regular-111"/>
      <use x="144.499985" xlink:href="#MyriadPro-Regular-98"/>
      <use x="201.399979" xlink:href="#MyriadPro-Regular-97"/>
      <use x="249.599976" xlink:href="#MyriadPro-Regular-98"/>
      <use x="306.499969" xlink:href="#MyriadPro-Regular-105"/>
      <use x="329.899963" xlink:href="#MyriadPro-Regular-108"/>
      <use x="353.499954" xlink:href="#MyriadPro-Regular-105"/>
      <use x="376.899948" xlink:href="#MyriadPro-Regular-116"/>
      <use x="409.999939" xlink:href="#MyriadPro-Regular-121"/>
      <use x="457.09993" xlink:href="#MyriadPro-Regular-32"/>
      <use x="478.299927" xlink:href="#MyriadPro-Regular-111"/>
      <use x="533.199921" xlink:href="#MyriadPro-Regular-102"/>
      <use x="562.399918" xlink:href="#MyriadPro-Regular-32"/>
      <use x="583.599915" xlink:href="#MyriadPro-Regular-98"/>
      <use x="640.499908" xlink:href="#MyriadPro-Regular-101"/>
      <use x="690.599899" xlink:href="#MyriadPro-Regular-105"/>
      <use x="713.999893" xlink:href="#MyriadPro-Regular-110"/>
      <use x="769.499878" xlink:href="#MyriadPro-Regular-103"/>
      <use x="825.399872" xlink:href="#MyriadPro-Regular-32"/>
      <use x="846.599869" xlink:href="#MyriadPro-Regular-97"/>
      <use x="894.799866" xlink:href="#MyriadPro-Regular-99"/>
      <use x="939.599854" xlink:href="#MyriadPro-Regular-116"/>
      <use x="972.699844" xlink:href="#MyriadPro-Regular-105"/>
      <use x="996.099838" xlink:href="#MyriadPro-Regular-118"/>
      <use x="1044.199829" xlink:href="#MyriadPro-Regular-101"/>
     </g>
    </g>
   </g>
   <g id="line2d_65">
    <path clip-path="url(#p1d3d63b29f)" d="M 41.863048 20.758272 
L 69.638719 20.901685 
L 79.955397 21.159923 
L 86.304122 21.529567 
L 90.272075 21.938363 
L 93.446437 22.437679 
L 96.620799 23.17818 
L 99.001571 23.967227 
L 101.382343 25.041519 
L 102.969524 25.96701 
L 104.556705 27.104628 
L 106.143887 28.500273 
L 107.731068 30.20633 
L 109.318249 32.280305 
L 110.90543 34.78187 
L 112.492611 37.767805 
L 114.079792 41.284489 
L 115.666974 45.358165 
L 117.254155 49.984069 
L 119.634927 57.846157 
L 122.809289 69.456894 
L 126.777242 83.906052 
L 129.158014 91.555889 
L 130.745195 96.007082 
L 132.332376 99.893224 
L 133.919557 103.219672 
L 135.506738 106.020472 
L 137.09392 108.347372 
L 138.681101 110.260358 
L 140.268282 111.820612 
L 141.855463 113.08592 
L 143.442644 114.108142 
L 145.029826 114.932184 
L 147.410597 115.877721 
L 149.791369 116.562178 
L 152.965732 117.193653 
L 156.933685 117.691623 
L 161.695228 118.040324 
L 168.837543 118.306081 
L 179.947812 118.46795 
L 199.787577 118.540012 
L 199.787577 118.540012 
" style="fill:none;stroke:#7292c7;stroke-linecap:square;"/>
   </g>
   <g id="patch_3">
    <path d="M 35.125313 118.92 
L 35.125313 10.2 
" style="fill:none;stroke:#444147;stroke-linecap:square;stroke-linejoin:miter;stroke-width:0.25;"/>
   </g>
   <g id="patch_4">
    <path d="M 37.125312 120.92 
L 204.525313 120.92 
" style="fill:none;stroke:#444147;stroke-linecap:square;stroke-linejoin:miter;stroke-width:0.25;"/>
   </g>
  </g>
 </g>
 <defs>
  <clipPath id="p1d3d63b29f">
   <rect height="108.72" width="167.4" x="37.125313" y="10.2"/>
  </clipPath>
 </defs>
</svg>
